<?xml version="1.0" encoding="utf-8"?>
<!-- Generator: Adobe Illustrator 16.0.0, SVG Export Plug-In . SVG Version: 6.00 Build 0)  -->
<!DOCTYPE svg PUBLIC "-//W3C//DTD SVG 1.1//EN" "http://www.w3.org/Graphics/SVG/1.1/DTD/svg11.dtd">
<svg version="1.1" id="Calque_1" xmlns="http://www.w3.org/2000/svg" xmlns:xlink="http://www.w3.org/1999/xlink" x="0px" y="0px"
	 width="520px" height="322px" viewBox="0 0 520 322" enable-background="new 0 0 520 322" xml:space="preserve">
<g>
	<g>
		<g>
			<g>
				<path fill="#FFFFFF" d="M186.707,215.488c-1.56,0-2.835-1.275-2.835-2.835V110.106c0-1.56,1.275-2.835,2.835-2.835h146.258
					c1.56,0,2.835,1.275,2.835,2.835v102.547c0,1.56-1.275,2.835-2.835,2.835H186.707z"/>
			</g>
			<rect x="204.883" y="112.719" fill="#FDC922" width="122.305" height="97.323"/>
			<rect x="204.883" y="200.887" fill="#1583DC" width="122.305" height="9.156"/>
			<path fill="#CDDAE6" d="M193.572,165.028c-2.236,0-4.042-1.808-4.042-4.038c0-2.233,1.806-4.041,4.042-4.041
				c2.231,0,4.039,1.808,4.039,4.041C197.611,163.221,195.804,165.028,193.572,165.028z"/>
		</g>
	</g>
	<rect x="212" y="117.281" fill="#1583DC" width="10" height="9"/>
	<rect x="226" y="117.281" fill="#1583DC" width="10" height="9"/>
	<rect x="212" y="130.281" fill="#1583DC" width="10" height="8"/>
	<rect x="226" y="130.281" fill="#1583DC" width="10" height="8"/>
	<rect x="313" y="117.281" fill="#1583DC" width="10" height="9"/>
	<rect x="313" y="130.281" fill="#1583DC" width="10" height="8"/>
	<rect x="212" y="142.281" fill="#1583DC" width="10" height="9"/>
</g>
<rect x="71.75" y="31" fill="#0A609B" width="0" height="0.75"/>
</svg>
