<?xml version="1.0" encoding="utf-8"?>
<!-- Generator: Adobe Illustrator 16.0.0, SVG Export Plug-In . SVG Version: 6.00 Build 0)  -->
<!DOCTYPE svg PUBLIC "-//W3C//DTD SVG 1.1//EN" "http://www.w3.org/Graphics/SVG/1.1/DTD/svg11.dtd">
<svg version="1.1" id="Calque_1" xmlns="http://www.w3.org/2000/svg" xmlns:xlink="http://www.w3.org/1999/xlink" x="0px" y="0px"
	 width="520px" height="322px" viewBox="0 0 520 322" enable-background="new 0 0 520 322" xml:space="preserve">
<rect x="71.75" y="31" fill="#0A609B" width="0" height="0.75"/>
<g>
	<g>
		<g>
			<path fill="#FFFFFF" d="M186.871,215.108c-1.56,0-2.835-1.275-2.835-2.835V109.727c0-1.56,1.275-2.835,2.835-2.835h146.258
				c1.56,0,2.835,1.275,2.835,2.835v102.547c0,1.56-1.275,2.835-2.835,2.835H186.871z"/>
		</g>
		<rect x="205.047" y="112.339" fill="#45C1F2" width="122.305" height="97.323"/>
		<path fill="#CDDAE6" d="M193.736,164.648c-2.236,0-4.042-1.808-4.042-4.038c0-2.233,1.806-4.041,4.042-4.041
			c2.231,0,4.039,1.808,4.039,4.041C197.775,162.841,195.968,164.648,193.736,164.648z"/>
	</g>
</g>
<g>
	<rect x="248.476" y="149.936" fill="#1583DC" width="35.461" height="17.201"/>
	<rect x="285.585" y="168.248" fill="#1583DC" width="35.461" height="17.201"/>
	<rect x="248.468" y="168.248" fill="#FDC922" width="35.458" height="35.578"/>
	<rect x="210.954" y="149.936" fill="#FDC922" width="35.644" height="17.201"/>
	<rect x="210.954" y="168.248" fill="#1583DC" width="17.201" height="17.201"/>
	<rect x="229.349" y="168.248" fill="#1583DC" width="17.201" height="17.201"/>
	<rect x="285.585" y="149.936" fill="#1583DC" width="17.201" height="17.201"/>
	<rect x="210.954" y="186.601" fill="#FDC922" width="17.201" height="17.201"/>
	<rect x="229.372" y="186.624" fill="#1583DC" width="17.154" height="17.153"/>
	<rect x="285.585" y="186.624" fill="#1583DC" width="17.201" height="17.202"/>
	<rect x="303.667" y="149.928" fill="#FDC922" width="17.209" height="17.209"/>
	<rect x="303.667" y="186.624" fill="#FDC922" width="17.195" height="17.196"/>
	<g>
		<g>
			<path fill="#FFFFFF" d="M242.496,177.598c0.026-0.108,0.042-0.221,0.042-0.338c0-0.778-0.631-1.408-1.409-1.408
				c-0.381,0-0.726,0.15-0.979,0.396c-0.325-0.647-0.993-1.094-1.766-1.094c-1.062,0-1.926,0.838-1.971,1.889
				c-0.002,0-0.004-0.001-0.005-0.001c-0.853,0-1.544,0.69-1.544,1.544c0,0.851,0.691,1.542,1.544,1.542h5.979
				c0.691,0,1.242-0.596,1.242-1.286C243.63,178.19,243.133,177.656,242.496,177.598z"/>
		</g>
		<g>
			<path fill="#FFFFFF" d="M234.548,178.586c0-0.931,0.686-1.703,1.578-1.839c0.181-1.091,1.124-1.909,2.258-1.909
				c0.744,0,1.426,0.354,1.853,0.945c0.225-0.137,0.478-0.216,0.741-0.238c-0.213-1.178-1.239-2.069-2.477-2.069
				c-0.918,0-1.719,0.493-2.16,1.228c-0.255-0.142-0.55-0.223-0.862-0.223c-0.99,0-1.793,0.804-1.793,1.794
				c0,0.095,0.009,0.187,0.023,0.278c-0.767,0.053-1.374,0.69-1.374,1.471c0,0.814,0.66,1.475,1.476,1.475h0.98
				C234.637,179.229,234.548,178.916,234.548,178.586z"/>
		</g>
	</g>
	<g>
		<path fill="#FFFFFF" d="M297.532,155.234c-0.818-0.861-1.962-1.299-3.398-1.299c-1.438,0-2.583,0.438-3.41,1.298
			c-1.432,1.491-1.357,3.7-1.354,3.794c0.005,0.125,0.072,0.232,0.169,0.297c-0.006,2.09,0.65,3.369,0.681,3.426
			c0.035,0.066,0.103,0.104,0.172,0.104c0.03,0,0.062-0.007,0.09-0.023c0.096-0.049,0.132-0.166,0.083-0.262
			c-0.008-0.012-0.638-1.247-0.637-3.232c0.119-0.066,0.196-0.193,0.19-0.339c-0.001-0.02-0.065-1.981,1.146-3.245
			c0.68-0.709,1.645-1.067,2.87-1.067c1.221,0,2.181,0.357,2.853,1.062c1.196,1.256,1.116,3.229,1.115,3.247
			c-0.007,0.132,0.056,0.251,0.155,0.322c0.005,1.997-0.63,3.241-0.636,3.253c-0.05,0.096-0.014,0.213,0.082,0.262
			c0.028,0.017,0.06,0.023,0.09,0.023c0.069,0,0.137-0.037,0.172-0.104c0.03-0.057,0.682-1.327,0.681-3.406
			c0.115-0.058,0.197-0.174,0.204-0.312C298.854,158.939,298.949,156.726,297.532,155.234z"/>
		<path fill="#FFFFFF" d="M291.445,159.116c0,0-0.89,0.225-0.819,1.634s0.626,2.551,1.416,2.397s0.409-0.95,0.323-1.425
			c-0.079-0.451-0.199-1.136-0.187-1.761C292.184,159.709,292.062,158.973,291.445,159.116z"/>
		<path fill="#FFFFFF" d="M296.808,159.116c0,0,0.89,0.225,0.819,1.634s-0.627,2.551-1.417,2.397s-0.408-0.95-0.322-1.425
			c0.079-0.451,0.198-1.136,0.187-1.761C296.068,159.709,296.189,158.973,296.808,159.116z"/>
	</g>
	<g>
		<polygon fill="#FFFFFF" points="309.786,156.031 309.786,155.906 308.654,155.906 308.654,156.031 308.491,156.031 
			308.491,156.301 309.931,156.301 309.931,156.031 		"/>
		<g>
			<path fill="#FFFFFF" d="M313.045,162.281c-1.164,0-2.11-0.947-2.11-2.111c0-1.163,0.946-2.109,2.11-2.109
				c1.163,0,2.108,0.946,2.108,2.109C315.153,161.334,314.208,162.281,313.045,162.281z M313.045,158.521
				c-0.911,0-1.651,0.739-1.651,1.648c0,0.91,0.74,1.65,1.651,1.65c0.909,0,1.649-0.74,1.649-1.65
				C314.694,159.261,313.954,158.521,313.045,158.521z"/>
		</g>
		<path fill="#FFFFFF" d="M307.916,156.59v5.487h3.485c-0.535-0.462-0.876-1.144-0.876-1.907c0-1.391,1.127-2.519,2.52-2.519
			c1.391,0,2.518,1.128,2.518,2.519c0,0.764-0.341,1.445-0.876,1.907h1.722v-5.487H307.916z M315.688,157.58
			c-0.139,0-0.251-0.113-0.251-0.253s0.112-0.252,0.251-0.252c0.14,0,0.252,0.112,0.252,0.252S315.828,157.58,315.688,157.58z"/>
	</g>
	<g>
		<circle fill="#FFFFFF" cx="266.564" cy="186.477" r="5.033"/>
		<g>
			<path fill="#FFFFFF" d="M259.436,184.005l1.502,0.611c0.084-0.254,0.187-0.499,0.304-0.736l-1.505-0.611
				c-0.202-0.085-0.438,0.015-0.52,0.218C259.134,183.691,259.233,183.923,259.436,184.005z"/>
			<path fill="#FFFFFF" d="M263.902,181.184c0.235-0.117,0.48-0.222,0.733-0.309l-0.631-1.495c-0.085-0.202-0.317-0.298-0.521-0.213
				c-0.202,0.085-0.298,0.319-0.213,0.522L263.902,181.184z"/>
			<path fill="#FFFFFF" d="M261.995,182.701c0.238-0.289,0.505-0.555,0.793-0.793l-1.833-1.834c-0.22-0.219-0.574-0.219-0.793,0
				c-0.22,0.22-0.22,0.574,0,0.793L261.995,182.701z"/>
			<path fill="#FFFFFF" d="M271.134,182.701l1.833-1.834c0.22-0.219,0.22-0.573,0-0.793c-0.22-0.219-0.574-0.219-0.793,0
				l-1.833,1.834C270.63,182.146,270.896,182.412,271.134,182.701z"/>
			<path fill="#FFFFFF" d="M272.167,184.548l1.494-0.631c0.203-0.085,0.299-0.318,0.213-0.521c-0.085-0.203-0.318-0.299-0.521-0.213
				l-1.496,0.631C271.976,184.051,272.078,184.295,272.167,184.548z"/>
			<path fill="#FFFFFF" d="M266.563,180.547c0.19,0,0.377,0.01,0.562,0.028v-2.593c0-0.311-0.251-0.561-0.562-0.561
				c-0.309,0-0.561,0.25-0.561,0.561v2.593C266.188,180.557,266.375,180.547,266.563,180.547z"/>
			<path fill="#FFFFFF" d="M260.634,186.477c0-0.189,0.011-0.376,0.029-0.562h-2.592c-0.311,0-0.562,0.251-0.562,0.562
				s0.251,0.561,0.562,0.561h2.592C260.645,186.854,260.634,186.666,260.634,186.477z"/>
			<path fill="#FFFFFF" d="M269.162,181.153l0.612-1.505c0.082-0.203-0.017-0.436-0.22-0.52c-0.205-0.082-0.437,0.016-0.52,0.221
				l-0.611,1.5C268.678,180.934,268.924,181.037,269.162,181.153z"/>
			<path fill="#FFFFFF" d="M271.134,190.252c-0.238,0.289-0.504,0.556-0.793,0.795l1.833,1.832c0.109,0.109,0.253,0.166,0.397,0.166
				c0.144,0,0.287-0.057,0.396-0.166c0.22-0.219,0.22-0.573,0-0.793L271.134,190.252z"/>
			<path fill="#FFFFFF" d="M269.227,191.769c-0.235,0.119-0.48,0.223-0.733,0.311l0.63,1.495c0.064,0.152,0.213,0.243,0.368,0.243
				c0.052,0,0.104-0.009,0.154-0.03c0.201-0.086,0.298-0.319,0.212-0.521L269.227,191.769z"/>
			<path fill="#FFFFFF" d="M273.692,188.949l-1.5-0.611c-0.085,0.254-0.188,0.498-0.305,0.734l1.505,0.613
				c0.049,0.02,0.101,0.03,0.15,0.03c0.156,0,0.306-0.093,0.369-0.249C273.994,189.263,273.896,189.031,273.692,188.949z"/>
			<path fill="#FFFFFF" d="M260.962,188.406l-1.494,0.63c-0.203,0.085-0.299,0.319-0.213,0.521c0.064,0.153,0.213,0.243,0.367,0.243
				c0.052,0,0.104-0.01,0.155-0.031l1.496-0.631C261.153,188.903,261.049,188.658,260.962,188.406z"/>
			<path fill="#FFFFFF" d="M275.059,185.915h-2.591c0.016,0.186,0.027,0.372,0.027,0.562s-0.012,0.377-0.027,0.561h2.591
				c0.31,0,0.561-0.25,0.561-0.561S275.368,185.915,275.059,185.915z"/>
			<path fill="#FFFFFF" d="M261.995,190.252l-1.833,1.834c-0.22,0.22-0.22,0.574,0,0.793c0.109,0.109,0.253,0.166,0.396,0.166
				c0.144,0,0.289-0.057,0.397-0.166l1.833-1.832C262.5,190.808,262.233,190.541,261.995,190.252z"/>
			<path fill="#FFFFFF" d="M266.563,192.407c-0.188,0-0.375-0.011-0.561-0.028v2.592c0,0.311,0.252,0.561,0.561,0.561
				c0.312,0,0.562-0.25,0.562-0.561v-2.592C266.94,192.396,266.754,192.407,266.563,192.407z"/>
			<path fill="#FFFFFF" d="M263.968,191.801l-0.613,1.504c-0.081,0.204,0.017,0.437,0.221,0.52c0.049,0.021,0.1,0.029,0.149,0.029
				c0.157,0,0.307-0.094,0.369-0.248l0.611-1.502C264.451,192.02,264.205,191.918,263.968,191.801z"/>
		</g>
	</g>
	<g>
		<polygon fill="#FFFFFF" points="310.691,193.984 310.691,191.845 308.293,192.877 308.293,196.189 		"/>
		<g>
			<polygon fill="#FFFFFF" points="309.351,197.426 308.293,198.725 308.293,199.15 309.846,198.396 			"/>
			<polygon fill="#FFFFFF" points="310.691,195.271 310.691,194.793 308.293,197.105 308.293,198.175 			"/>
			<polygon fill="#FFFFFF" points="309.517,197.221 310.051,198.298 310.691,197.986 310.691,195.779 			"/>
		</g>
		<polygon fill="#FFFFFF" points="314.003,194.48 314.003,192.9 311.101,191.845 311.101,193.99 		"/>
		<g>
			<polygon fill="#FFFFFF" points="314.003,197.73 314.003,195.955 313.259,195.826 313.259,197.521 			"/>
			<polygon fill="#FFFFFF" points="314.003,195.571 314.003,195.233 311.101,194.699 311.101,195.105 			"/>
			<polygon fill="#FFFFFF" points="311.101,196.908 312.959,197.436 312.959,195.775 311.101,195.454 			"/>
			<polygon fill="#FFFFFF" points="312.959,197.793 311.101,197.283 311.101,198.047 312.959,198.753 			"/>
			<polygon fill="#FFFFFF" points="313.259,197.875 313.259,198.867 314.003,199.15 314.003,198.08 			"/>
		</g>
		<path fill="#FFFFFF" d="M316.809,192.216v-0.371l-2.411,0.936v1.456C314.752,194.079,315.61,193.592,316.809,192.216z"/>
		<g>
			<polygon fill="#FFFFFF" points="316.809,196.608 316.809,194.513 315.909,194.959 315.909,196.988 			"/>
			<path fill="#FFFFFF" d="M316.809,194.072v-0.943c-0.393,0.389-1.585,1.528-2.411,1.887v0.293L316.809,194.072z"/>
			<polygon fill="#FFFFFF" points="314.397,197.623 315.693,197.078 315.693,195.066 314.397,195.708 			"/>
			<polygon fill="#FFFFFF" points="315.693,197.486 314.397,198.02 314.397,199.019 315.693,198.483 			"/>
			<polygon fill="#FFFFFF" points="315.909,197.397 315.909,198.395 316.809,198.022 316.809,197.027 			"/>
		</g>
	</g>
	<g>
		<path fill="#FFFFFF" d="M220.598,157.893c-0.187,0.148-0.378,0.201-0.553,0.201c-0.252,0-0.467-0.109-0.581-0.203l-3.485-2.572
			v4.863h8.072v-4.797C223.021,156.123,220.98,157.591,220.598,157.893z"/>
		<path fill="#FFFFFF" d="M219.729,157.55c0.037,0.03,0.312,0.232,0.603,0.004c0.43-0.339,2.816-2.053,3.72-2.7v-0.43h-8.072v0.359
			L219.729,157.55z"/>
	</g>
	<g>
		<path fill="#FFFFFF" d="M221.575,193.163l-6.279,1.349v4.607l6.297,1.277l1.313-0.486v-6.227L221.575,193.163z M220.022,196.652
			h-1.824v-1.405l1.824-0.262V196.652z M218.03,195.271v1.381h-1.439v-1.174L218.03,195.271z M216.591,196.779h1.439v1.38
			l-1.439-0.187V196.779z M218.198,198.181v-1.401h1.824v1.637L218.198,198.181z"/>
		<g>
			<path fill="#FFFFFF" d="M218.323,193.561l0.284-0.052l-0.001-0.535c-0.003-0.021-0.037-0.434,0.449-0.63v-0.158
				c0-0.041-0.006-0.09-0.018-0.139c-0.772,0.253-0.716,0.941-0.715,0.941V193.561z"/>
			<path fill="#FFFFFF" d="M219.622,192.24c0.211-0.003,0.367,0.041,0.457,0.126c0.096,0.092,0.088,0.21,0.086,0.229v0.631
				l0.284-0.052l-0.001-0.562c0.01-0.094-0.014-0.292-0.168-0.444c-0.147-0.146-0.377-0.216-0.681-0.208
				c0.016,0.08,0.022,0.158,0.022,0.227V192.24z"/>
			<g>
				<path fill="#FFFFFF" d="M217.316,193.743v-1.384c0-0.027,0.011-0.662,0.956-0.766c0.345-0.037,0.598,0.014,0.751,0.152
					c0.144,0.129,0.175,0.311,0.175,0.439v1.217l0.282-0.053v-1.164c0-0.188-0.046-0.451-0.267-0.649
					c-0.218-0.196-0.545-0.271-0.973-0.224c-1.195,0.131-1.209,1.037-1.209,1.047v1.436L217.316,193.743z"/>
			</g>
		</g>
	</g>
	<g>
		<g>
			<circle fill="#1583DC" cx="315.581" cy="125.031" r="3.188"/>
			<g>
				<polygon fill="#1583DC" points="319.487,129.908 315.978,126.36 316.529,125.803 320.039,129.351 				"/>
			</g>
		</g>
	</g>
	<g>
		<path fill="#1583DC" d="M216.891,127.916c0,0.754-0.273,1.342-0.82,1.764s-1.289,0.633-2.227,0.633
			c-1.016,0-1.797-0.131-2.344-0.393v-0.961c0.352,0.148,0.734,0.266,1.148,0.352s0.824,0.129,1.23,0.129
			c0.664,0,1.164-0.126,1.5-0.378s0.504-0.603,0.504-1.052c0-0.297-0.06-0.54-0.179-0.729s-0.318-0.364-0.598-0.524
			s-0.704-0.342-1.274-0.545c-0.797-0.285-1.366-0.623-1.708-1.014s-0.513-0.9-0.513-1.529c0-0.66,0.248-1.186,0.744-1.576
			s1.152-0.586,1.969-0.586c0.852,0,1.635,0.156,2.35,0.469l-0.311,0.867c-0.707-0.297-1.395-0.445-2.062-0.445
			c-0.527,0-0.939,0.113-1.236,0.34s-0.445,0.541-0.445,0.943c0,0.297,0.055,0.54,0.164,0.729s0.294,0.363,0.554,0.521
			s0.657,0.333,1.192,0.524c0.898,0.32,1.517,0.664,1.854,1.031S216.891,127.33,216.891,127.916z"/>
		<path fill="#1583DC" d="M220.57,129.51c0.172,0,0.338-0.013,0.498-0.038s0.287-0.052,0.381-0.079v0.744
			c-0.105,0.051-0.261,0.093-0.466,0.126s-0.39,0.05-0.554,0.05c-1.242,0-1.863-0.654-1.863-1.963v-3.82h-0.92v-0.469l0.92-0.404
			l0.41-1.371h0.562v1.488h1.863v0.756h-1.863v3.779c0,0.387,0.092,0.684,0.275,0.891S220.25,129.51,220.57,129.51z"/>
		<path fill="#1583DC" d="M226.682,130.195l-0.193-0.914h-0.047c-0.32,0.402-0.64,0.675-0.958,0.817s-0.716,0.214-1.192,0.214
			c-0.637,0-1.136-0.164-1.497-0.492s-0.542-0.795-0.542-1.4c0-1.297,1.037-1.977,3.111-2.039l1.09-0.035v-0.398
			c0-0.504-0.108-0.876-0.325-1.116s-0.563-0.36-1.04-0.36c-0.535,0-1.141,0.164-1.816,0.492l-0.299-0.744
			c0.316-0.172,0.663-0.307,1.04-0.404s0.755-0.146,1.134-0.146c0.766,0,1.333,0.17,1.702,0.51s0.554,0.885,0.554,1.635v4.383
			H226.682z M224.484,129.51c0.605,0,1.081-0.166,1.427-0.498s0.519-0.797,0.519-1.395v-0.58l-0.973,0.041
			c-0.773,0.027-1.331,0.147-1.673,0.36s-0.513,0.544-0.513,0.993c0,0.352,0.106,0.619,0.319,0.803S224.102,129.51,224.484,129.51z"
			/>
		<path fill="#1583DC" d="M232.336,123.656c0.285,0,0.541,0.023,0.768,0.07l-0.135,0.902c-0.266-0.059-0.5-0.088-0.703-0.088
			c-0.52,0-0.964,0.211-1.333,0.633s-0.554,0.947-0.554,1.576v3.445h-0.973v-6.422h0.803l0.111,1.189h0.047
			c0.238-0.418,0.525-0.74,0.861-0.967S231.934,123.656,232.336,123.656z"/>
		<path fill="#1583DC" d="M236.379,129.51c0.172,0,0.338-0.013,0.498-0.038s0.287-0.052,0.381-0.079v0.744
			c-0.105,0.051-0.261,0.093-0.466,0.126s-0.39,0.05-0.554,0.05c-1.242,0-1.863-0.654-1.863-1.963v-3.82h-0.92v-0.469l0.92-0.404
			l0.41-1.371h0.562v1.488h1.863v0.756h-1.863v3.779c0,0.387,0.092,0.684,0.275,0.891S236.059,129.51,236.379,129.51z"/>
	</g>
	<path fill="#FFFFFF" d="M263.027,161.434c-0.061-2.422-1.115-4.804-1.342-5.316c-0.229-0.514-0.485-0.63-0.485-0.63
		s-0.08-0.065-0.734-0.294c-0.721-0.252-1.179,0.207-1.362,0.451c-0.262,0.346-0.477,0.349-0.477,0.349h-2.355
		c0,0-0.213-0.003-0.475-0.349c-0.185-0.244-0.643-0.703-1.364-0.451c-0.653,0.229-0.733,0.294-0.733,0.294s-0.258,0.116-0.486,0.63
		c-0.227,0.513-1.28,2.895-1.342,5.316c-0.062,2.422,1.714,1.047,1.714,1.047s0.931-0.657,1.427-1.191
		c0.495-0.533,1.033-0.533,1.28-0.533c0.248,0,2.066,0,2.314,0c0.247,0,0.785,0,1.281,0.533c0.495,0.534,1.427,1.191,1.427,1.191
		S263.09,163.855,263.027,161.434z M257.449,158.262c-0.408,0-0.738-0.33-0.738-0.738s0.33-0.74,0.738-0.74s0.738,0.332,0.738,0.74
		S257.857,158.262,257.449,158.262z"/>
</g>
</svg>
