<?xml version="1.0" encoding="utf-8"?>
<!-- Generator: Adobe Illustrator 16.0.0, SVG Export Plug-In . SVG Version: 6.00 Build 0)  -->
<!DOCTYPE svg PUBLIC "-//W3C//DTD SVG 1.1//EN" "http://www.w3.org/Graphics/SVG/1.1/DTD/svg11.dtd">
<svg version="1.1" id="Calque_1" xmlns="http://www.w3.org/2000/svg" xmlns:xlink="http://www.w3.org/1999/xlink" x="0px" y="0px"
	 width="520px" height="322px" viewBox="0 0 520 322" enable-background="new 0 0 520 322" xml:space="preserve">
<g>
	<g>
		<g>
			<g>
				<path fill="#FDC922" d="M392.756,207.629c0-13.118-4.952-25.078-13.104-34.109c5.712-8.231,9.054-18.215,9.054-28.993
					c0-27.697-22.086-50.214-49.604-50.929c-5.99-21.485-25.693-37.245-49.09-37.245c-11.615,0-22.308,3.886-30.882,10.428
					c-8.374-6.055-18.666-9.626-29.787-9.626c-15.817,0-29.952,7.207-39.299,18.508c-2.741-0.465-5.555-0.709-8.438-0.709
					c-28.148,0-50.958,22.816-50.958,50.965c0,1.646,0.086,3.278,0.236,4.889c-17.248,8.173-29.179,25.729-29.179,46.076
					c0,28.148,22.823,50.972,50.972,50.972c6.749,0,13.197-1.324,19.088-3.714c9.239,13.011,24.412,21.506,41.582,21.506
					c14.221,0,27.074-5.825,36.321-15.223c-0.058,1.023-0.1,2.047-0.1,3.092c0,28.148,22.815,50.965,50.964,50.965
					c19.066,0,35.685-10.485,44.424-25.994C371.629,256.848,392.756,234.704,392.756,207.629z"/>
			</g>
		</g>
		<g>
			<g>
				<g>
					<path fill="#FFFFFF" d="M360.95,200.644c-4.137-0.071-8.273-1.002-12.166-2.376c-8.567-3.027-12.296-9.948-10.514-18.68
						c14.356,1.66,30.402-3.872,30.195-20.905c-0.058-4.108-6.428-4.115-6.377,0c0.093,7.779-4.917,12.789-12.26,14.536
						c-11.408,2.705-22.259-4.566-33.717-3.178c-10.413,1.267-19.303,9.454-22.294,19.424c-1.188,3.943,4.96,5.618,6.141,1.696
						c1.066-3.536,3.313-6.778,5.861-9.39c7.372-7.58,17.062-5.598,26.209-3.371c-1.954,10.069,1.353,19.03,10.707,24.111
						c5.403,2.941,12.073,4.388,18.214,4.509C365.065,207.092,365.059,200.723,360.95,200.644z"/>
				</g>
			</g>
			<g>
				<g>
					<path fill="#FFFFFF" d="M215.865,150.145c3.442-12.195,6.627-32.128-3.5-42.663c5.676-4.623,9.29-11.622,10.821-19.617
						c0.772-4.021-5.36-5.732-6.134-1.696c-2.312,12.003-9.11,20.376-21.785,20.82c-5.562,0.193-11.473-0.98-16.633-3.106
						c-3.808-1.553-5.439,4.616-1.689,6.155c6.527,2.669,14.121,3.786,21.127,3.142c3.164-0.286,6.026-1.06,8.603-2.204
						c0.287,0.258,0.595,0.544,0.745,0.708c1.495,1.632,2.562,3.743,3.363,5.79c3.857,9.849,1.711,21.178-1.059,30.976
						C208.607,152.406,214.748,154.088,215.865,150.145z"/>
				</g>
			</g>
			<g>
				<g>
					<path fill="#FFFFFF" d="M298.527,101.792c7.387,15.294,23.876,21.6,40.115,15.209c3.778-1.496,2.133-7.651-1.689-6.148
						c-9.461,3.729-18.895,3.679-26.581-3.521c-2.827-2.655-5.897-7.371-6.956-10.127c-0.608-1.603-2.126-2.741-3.915-2.226
						c-12.288,3.528-27.719,1.481-31.49-12.84c-1.053-3.965-7.193-2.283-6.148,1.696
						C266.278,100.597,283.44,105.113,298.527,101.792z"/>
				</g>
			</g>
			<g>
				<g>
					<path fill="#FFFFFF" d="M195.002,196.536c-11.516-2.24-19.566-12.911-22.995-23.676c0.15-13.756-12.066-24.09-25.164-24.569
						c-4.107-0.15-4.094,6.227,0,6.377c10.428,0.379,18.229,8.094,18.766,18.465c-0.007,0.157,0,0.322,0.029,0.501
						c0.271,10.435-8.903,18.25-18.795,18.615c-4.094,0.15-4.107,6.52,0,6.377c10.436-0.387,18.938-6.312,22.853-15.095
						c5.067,9.269,13.183,17.12,23.618,19.152C197.321,203.464,199.031,197.316,195.002,196.536z"/>
				</g>
			</g>
			<g>
				<g>
					<path fill="#FFFFFF" d="M299.987,212.438c1.268-5.325-6.928-7.586-8.18-2.255c-2.169,9.154-7.443,15.545-17.191,16.082
						c-4.266,0.236-8.781-0.537-12.782-2.061c-5.124-1.962-7.321,6.255-2.262,8.188c5.554,2.118,12.017,2.834,17.878,2.118
						c1.768-0.222,3.421-0.608,4.988-1.116c5.726,5.847,8.589,14.743,9.211,22.816c0.423,5.425,8.918,5.468,8.496,0
						c-0.737-9.533-3.801-19.574-10.034-26.975C295.063,225.221,298.37,219.31,299.987,212.438z"/>
				</g>
			</g>
			<g>
				<g>
					<path fill="#FFFFFF" d="M279.397,155.14c2.075,0.337,3.542-0.278,4.795-1.953c-0.924,1.245,1.252-1.339,1.696-1.797
						c1.731-1.768,3.692-3.206,5.812-4.473c8.194-4.925,17.076-2.784,24.705,2.125c4.624,2.978,8.882-4.38,4.287-7.328
						c-13.999-9.011-31.032-7.437-41.933,4.838c-10.105-1.095-19.981,1.009-26.975,9.14c-2.848,3.307-5.174,7.521-6.455,11.866
						c-10.528-1.597-21.021,0-27.776,9.297c-3.449,4.737-5.053,11.644-4.773,17.463c0.25,5.461,8.746,5.482,8.495,0
						c-0.172-3.5,0.544-7.229,2.004-10.406c4.416-9.555,15.237-9.368,24.162-7.336c2.032,0.465,4.881-0.602,5.225-2.971
						C254.627,159.957,266.1,152.929,279.397,155.14z"/>
				</g>
			</g>
		</g>
	</g>
</g>
</svg>
