<?xml version="1.0" encoding="utf-8"?>
<!-- Generator: Adobe Illustrator 16.0.0, SVG Export Plug-In . SVG Version: 6.00 Build 0)  -->
<!DOCTYPE svg PUBLIC "-//W3C//DTD SVG 1.1//EN" "http://www.w3.org/Graphics/SVG/1.1/DTD/svg11.dtd">
<svg version="1.1" id="Calque_1" xmlns="http://www.w3.org/2000/svg" xmlns:xlink="http://www.w3.org/1999/xlink" x="0px" y="0px"
	 width="520px" height="322px" viewBox="0 0 520 322" enable-background="new 0 0 520 322" xml:space="preserve">
<g>
	<path fill="#FFFFFF" d="M58.466,171.067h-3.385V141.95h16.231v3.008H58.466v10.654h12.07v3.007h-12.07V171.067z"/>
	<path fill="#FFFFFF" d="M84.855,171.466c-3.226,0-5.771-0.982-7.638-2.947c-1.865-1.965-2.798-4.694-2.798-8.186
		c0-3.52,0.866-6.313,2.599-8.385c1.733-2.071,4.061-3.107,6.981-3.107c2.735,0,4.899,0.899,6.492,2.698
		c1.594,1.8,2.391,4.173,2.391,7.121v2.091H77.845c0.067,2.562,0.715,4.508,1.942,5.835c1.229,1.328,2.958,1.992,5.188,1.992
		c2.35,0,4.674-0.491,6.971-1.474v2.947c-1.169,0.505-2.273,0.866-3.315,1.085C87.588,171.356,86.33,171.466,84.855,171.466z
		 M83.96,151.608c-1.753,0-3.15,0.572-4.192,1.714c-1.043,1.142-1.656,2.722-1.843,4.739h11.412c0-2.084-0.465-3.681-1.394-4.789
		C87.014,152.164,85.686,151.608,83.96,151.608z"/>
	<path fill="#FFFFFF" d="M111.942,171.067l-0.656-3.106h-0.159c-1.09,1.367-2.176,2.293-3.258,2.777
		c-1.082,0.485-2.432,0.728-4.053,0.728c-2.164,0-3.86-0.558-5.088-1.673c-1.229-1.115-1.843-2.702-1.843-4.76
		c0-4.408,3.525-6.719,10.576-6.931l3.704-0.12v-1.354c0-1.712-0.368-2.978-1.105-3.794c-0.736-0.816-1.915-1.226-3.535-1.226
		c-1.819,0-3.877,0.559-6.174,1.674l-1.016-2.529c1.075-0.585,2.253-1.042,3.535-1.375c1.281-0.331,2.566-0.497,3.854-0.497
		c2.603,0,4.531,0.577,5.786,1.733c1.254,1.154,1.882,3.007,1.882,5.556v14.897H111.942z M104.474,168.737
		c2.059,0,3.675-0.564,4.851-1.692c1.175-1.129,1.762-2.709,1.762-4.74v-1.972l-3.306,0.139c-2.629,0.093-4.524,0.502-5.687,1.225
		c-1.161,0.725-1.742,1.85-1.742,3.376c0,1.195,0.361,2.104,1.086,2.729C102.16,168.426,103.173,168.737,104.474,168.737z"/>
	<path fill="#FFFFFF" d="M128.254,168.737c0.584,0,1.148-0.043,1.692-0.129c0.545-0.087,0.977-0.177,1.295-0.27v2.529
		c-0.358,0.173-0.887,0.315-1.583,0.429c-0.697,0.112-1.324,0.169-1.883,0.169c-4.222,0-6.333-2.224-6.333-6.672v-12.985h-3.127
		v-1.593l3.127-1.375l1.395-4.66h1.912v5.059h6.333v2.569h-6.333v12.846c0,1.314,0.312,2.323,0.937,3.027
		C126.309,168.386,127.165,168.737,128.254,168.737z"/>
	<path fill="#FFFFFF" d="M138.71,149.239v14.16c0,1.779,0.404,3.106,1.215,3.983c0.81,0.876,2.078,1.315,3.804,1.315
		c2.283,0,3.953-0.625,5.009-1.873s1.583-3.286,1.583-6.114v-11.472h3.307v21.828h-2.729l-0.478-2.927h-0.18
		c-0.677,1.074-1.617,1.897-2.818,2.469s-2.572,0.856-4.113,0.856c-2.654,0-4.644-0.631-5.964-1.892
		c-1.321-1.262-1.982-3.28-1.982-6.055v-14.28H138.71z"/>
	<path fill="#FFFFFF" d="M170.596,148.841c0.97,0,1.84,0.08,2.609,0.239l-0.458,3.067c-0.903-0.199-1.7-0.3-2.39-0.3
		c-1.766,0-3.276,0.717-4.531,2.151c-1.255,1.434-1.882,3.22-1.882,5.357v11.711h-3.307v-21.828h2.729l0.378,4.043h0.159
		c0.81-1.421,1.786-2.517,2.928-3.286S169.229,148.841,170.596,148.841z"/>
	<path fill="#FFFFFF" d="M186.509,171.466c-3.226,0-5.771-0.982-7.638-2.947c-1.865-1.965-2.798-4.694-2.798-8.186
		c0-3.52,0.866-6.313,2.599-8.385c1.733-2.071,4.061-3.107,6.981-3.107c2.735,0,4.899,0.899,6.492,2.698
		c1.594,1.8,2.39,4.173,2.39,7.121v2.091h-15.037c0.067,2.562,0.715,4.508,1.942,5.835c1.228,1.328,2.958,1.992,5.188,1.992
		c2.35,0,4.674-0.491,6.971-1.474v2.947c-1.169,0.505-2.273,0.866-3.316,1.085C189.241,171.356,187.983,171.466,186.509,171.466z
		 M185.613,151.608c-1.753,0-3.15,0.572-4.192,1.714s-1.656,2.722-1.843,4.739h11.412c0-2.084-0.465-3.681-1.394-4.789
		C188.667,152.164,187.339,151.608,185.613,151.608z"/>
	<path fill="#FFFFFF" d="M223.733,144.56c-3.2,0-5.726,1.065-7.578,3.195c-1.853,2.132-2.778,5.049-2.778,8.754
		c0,3.811,0.893,6.755,2.679,8.833s4.331,3.117,7.639,3.117c2.03,0,4.348-0.366,6.95-1.096v2.967
		c-2.019,0.758-4.508,1.136-7.469,1.136c-4.288,0-7.599-1.302-9.928-3.903c-2.331-2.603-3.495-6.301-3.495-11.094
		c0-3.001,0.561-5.63,1.682-7.887c1.122-2.257,2.742-3.997,4.86-5.218c2.117-1.222,4.611-1.832,7.479-1.832
		c3.054,0,5.723,0.558,8.006,1.673l-1.434,2.907C228.142,145.076,225.938,144.56,223.733,144.56z"/>
	<path fill="#FFFFFF" d="M255.341,160.133c0,3.56-0.896,6.337-2.689,8.336c-1.791,1.998-4.269,2.997-7.428,2.997
		c-1.952,0-3.685-0.458-5.198-1.375c-1.514-0.915-2.683-2.23-3.505-3.942c-0.823-1.714-1.235-3.718-1.235-6.016
		c0-3.558,0.89-6.329,2.669-8.314c1.778-1.984,4.248-2.978,7.409-2.978c3.053,0,5.479,1.016,7.279,3.048
		C254.441,153.919,255.341,156.668,255.341,160.133z M238.71,160.133c0,2.788,0.558,4.913,1.673,6.373
		c1.115,1.461,2.756,2.192,4.92,2.192s3.808-0.728,4.93-2.182c1.121-1.454,1.683-3.581,1.683-6.384c0-2.774-0.562-4.882-1.683-6.323
		c-1.122-1.44-2.778-2.16-4.969-2.16c-2.164,0-3.798,0.71-4.9,2.131C239.262,155.201,238.71,157.318,238.71,160.133z"/>
	<path fill="#FFFFFF" d="M288.961,171.067v-14.2c0-1.739-0.373-3.044-1.116-3.913c-0.743-0.87-1.898-1.305-3.466-1.305
		c-2.058,0-3.578,0.59-4.561,1.772c-0.982,1.182-1.474,3-1.474,5.457v12.188h-3.306v-14.2c0-1.739-0.372-3.044-1.116-3.913
		c-0.743-0.87-1.905-1.305-3.485-1.305c-2.071,0-3.588,0.621-4.551,1.862s-1.443,3.275-1.443,6.104v11.451h-3.307v-21.828h2.688
		l0.538,2.987h0.159c0.624-1.062,1.504-1.893,2.64-2.489c1.135-0.598,2.406-0.896,3.813-0.896c3.413,0,5.644,1.234,6.692,3.704
		h0.159c0.65-1.142,1.593-2.044,2.828-2.708c1.234-0.664,2.642-0.996,4.222-0.996c2.47,0,4.318,0.635,5.547,1.902
		c1.228,1.268,1.842,3.296,1.842,6.085v14.239H288.961z"/>
	<path fill="#FFFFFF" d="M298.799,143.323c0-0.756,0.187-1.311,0.558-1.662c0.372-0.352,0.837-0.527,1.395-0.527
		c0.531,0,0.989,0.179,1.375,0.537c0.384,0.358,0.577,0.91,0.577,1.652c0,0.744-0.193,1.299-0.577,1.664
		c-0.386,0.365-0.844,0.548-1.375,0.548c-0.558,0-1.022-0.183-1.395-0.548C298.985,144.622,298.799,144.067,298.799,143.323z
		 M302.384,171.067h-3.306v-21.828h3.306V171.067z"/>
	<path fill="#FFFFFF" d="M324.332,171.067v-14.121c0-1.778-0.405-3.106-1.215-3.983c-0.811-0.876-2.078-1.313-3.805-1.313
		c-2.283,0-3.956,0.617-5.019,1.852c-1.062,1.235-1.593,3.273-1.593,6.115v11.451h-3.307v-21.828h2.688l0.538,2.987h0.159
		c0.678-1.075,1.627-1.908,2.849-2.499c1.221-0.591,2.582-0.887,4.082-0.887c2.629,0,4.608,0.635,5.936,1.902
		s1.991,3.296,1.991,6.085v14.239H324.332z"/>
	<path fill="#FFFFFF" d="M352.295,149.239v2.092l-4.044,0.478c0.372,0.465,0.704,1.072,0.996,1.822s0.438,1.597,0.438,2.539
		c0,2.138-0.73,3.845-2.191,5.119s-3.465,1.912-6.015,1.912c-0.65,0-1.262-0.054-1.832-0.159c-1.407,0.743-2.111,1.679-2.111,2.808
		c0,0.598,0.245,1.039,0.737,1.324c0.491,0.285,1.334,0.429,2.529,0.429h3.863c2.363,0,4.179,0.497,5.447,1.494
		c1.268,0.994,1.901,2.442,1.901,4.341c0,2.417-0.969,4.259-2.906,5.527c-1.939,1.268-4.768,1.901-8.485,1.901
		c-2.854,0-5.056-0.53-6.603-1.593s-2.32-2.562-2.32-4.501c0-1.328,0.425-2.477,1.274-3.445c0.851-0.97,2.046-1.627,3.585-1.973
		c-0.558-0.252-1.025-0.644-1.403-1.175c-0.379-0.531-0.567-1.148-0.567-1.853c0-0.796,0.212-1.494,0.637-2.091
		c0.426-0.598,1.096-1.175,2.013-1.732c-1.13-0.466-2.049-1.256-2.759-2.371c-0.711-1.115-1.065-2.39-1.065-3.823
		c0-2.391,0.717-4.232,2.15-5.527c1.435-1.294,3.465-1.941,6.094-1.941c1.143,0,2.172,0.133,3.088,0.398H352.295z M334.887,174.732
		c0,1.182,0.498,2.077,1.494,2.688s2.424,0.917,4.282,0.917c2.774,0,4.829-0.416,6.164-1.245c1.334-0.83,2.001-1.956,2.001-3.376
		c0-1.182-0.365-2.002-1.095-2.46s-2.104-0.688-4.122-0.688h-3.964c-1.501,0-2.669,0.359-3.505,1.076
		C335.306,172.362,334.887,173.391,334.887,174.732z M336.68,156.229c0,1.527,0.432,2.683,1.295,3.466s2.064,1.175,3.604,1.175
		c3.227,0,4.84-1.566,4.84-4.7c0-3.279-1.633-4.919-4.899-4.919c-1.554,0-2.748,0.418-3.585,1.255
		C337.098,153.342,336.68,154.583,336.68,156.229z"/>
	<path fill="#FFFFFF" d="M384.3,163.319c0,2.563-0.929,4.562-2.788,5.995c-1.859,1.435-4.382,2.151-7.568,2.151
		c-3.452,0-6.107-0.444-7.967-1.334v-3.267c1.195,0.505,2.497,0.902,3.904,1.195c1.406,0.292,2.801,0.438,4.182,0.438
		c2.258,0,3.957-0.428,5.099-1.284c1.143-0.856,1.713-2.048,1.713-3.575c0-1.009-0.202-1.836-0.607-2.479s-1.082-1.238-2.031-1.782
		c-0.949-0.545-2.394-1.162-4.332-1.853c-2.708-0.969-4.644-2.117-5.806-3.446c-1.162-1.327-1.742-3.06-1.742-5.197
		c0-2.244,0.843-4.03,2.529-5.357c1.686-1.328,3.916-1.991,6.691-1.991c2.896,0,5.557,0.53,7.987,1.593l-1.056,2.948
		c-2.403-1.01-4.74-1.514-7.011-1.514c-1.793,0-3.193,0.384-4.202,1.154c-1.01,0.771-1.514,1.839-1.514,3.207
		c0,1.009,0.186,1.836,0.558,2.479s0.999,1.234,1.882,1.772s2.234,1.132,4.053,1.782c3.054,1.089,5.155,2.257,6.304,3.505
		C383.726,159.709,384.3,161.328,384.3,163.319z"/>
	<path fill="#FFFFFF" d="M408.598,160.133c0,3.56-0.896,6.337-2.689,8.336c-1.791,1.998-4.268,2.997-7.428,2.997
		c-1.952,0-3.684-0.458-5.198-1.375c-1.514-0.915-2.683-2.23-3.505-3.942c-0.823-1.714-1.235-3.718-1.235-6.016
		c0-3.558,0.89-6.329,2.669-8.314c1.779-1.984,4.248-2.978,7.409-2.978c3.054,0,5.479,1.016,7.279,3.048
		C407.698,153.919,408.598,156.668,408.598,160.133z M391.968,160.133c0,2.788,0.558,4.913,1.673,6.373
		c1.115,1.461,2.756,2.192,4.92,2.192s3.807-0.728,4.929-2.182s1.683-3.581,1.683-6.384c0-2.774-0.561-4.882-1.683-6.323
		c-1.122-1.44-2.778-2.16-4.969-2.16c-2.164,0-3.798,0.71-4.899,2.131C392.519,155.201,391.968,157.318,391.968,160.133z"/>
	<path fill="#FFFFFF" d="M433.234,160.133c0,3.56-0.896,6.337-2.689,8.336c-1.791,1.998-4.269,2.997-7.428,2.997
		c-1.952,0-3.685-0.458-5.198-1.375c-1.514-0.915-2.683-2.23-3.505-3.942c-0.824-1.714-1.236-3.718-1.236-6.016
		c0-3.558,0.891-6.329,2.67-8.314c1.778-1.984,4.248-2.978,7.408-2.978c3.054,0,5.48,1.016,7.279,3.048
		C432.334,153.919,433.234,156.668,433.234,160.133z M416.604,160.133c0,2.788,0.558,4.913,1.673,6.373
		c1.115,1.461,2.756,2.192,4.92,2.192s3.808-0.728,4.929-2.182c1.122-1.454,1.684-3.581,1.684-6.384
		c0-2.774-0.562-4.882-1.684-6.323c-1.121-1.44-2.777-2.16-4.969-2.16c-2.164,0-3.797,0.71-4.899,2.131
		S416.604,157.318,416.604,160.133z"/>
	<path fill="#FFFFFF" d="M453.968,171.067v-14.121c0-1.778-0.405-3.106-1.215-3.983c-0.811-0.876-2.079-1.313-3.804-1.313
		c-2.284,0-3.957,0.617-5.02,1.852c-1.062,1.235-1.594,3.273-1.594,6.115v11.451h-3.306v-21.828h2.688l0.538,2.987h0.159
		c0.678-1.075,1.627-1.908,2.849-2.499c1.221-0.591,2.581-0.887,4.082-0.887c2.629,0,4.608,0.635,5.936,1.902
		s1.991,3.296,1.991,6.085v14.239H453.968z"/>
	<path fill="#FFFFFF" d="M463.588,168.956c0-0.889,0.201-1.563,0.607-2.021c0.404-0.459,0.985-0.688,1.742-0.688
		c0.77,0,1.371,0.229,1.803,0.688c0.431,0.457,0.647,1.132,0.647,2.021c0,0.863-0.22,1.527-0.657,1.992
		c-0.438,0.465-1.036,0.697-1.793,0.697c-0.677,0-1.238-0.209-1.684-0.628C463.81,170.6,463.588,169.912,463.588,168.956z"/>
</g>
</svg>
