<?xml version="1.0" encoding="utf-8"?>
<!-- Generator: Adobe Illustrator 16.0.0, SVG Export Plug-In . SVG Version: 6.00 Build 0)  -->
<!DOCTYPE svg PUBLIC "-//W3C//DTD SVG 1.1//EN" "http://www.w3.org/Graphics/SVG/1.1/DTD/svg11.dtd">
<svg version="1.1" id="Calque_1" xmlns="http://www.w3.org/2000/svg" xmlns:xlink="http://www.w3.org/1999/xlink" x="0px" y="0px"
	 width="127px" height="103px" viewBox="0 0 127 103" enable-background="new 0 0 127 103" xml:space="preserve">
<g>
	<path fill="#FFFFFF" d="M78.612,53.903c0.178-1.104,0.211-2.224,0.168-3.339c-0.096-1.113-0.264-2.218-0.572-3.292
		c2.186-1.509,4.189-3.397,5.914-5.63c-0.834-1.708-1.846-3.335-3.078-4.778c-2.873,0.47-5.551,1.413-7.912,2.756
		c-0.852-0.722-1.812-1.305-2.809-1.812c-0.992-0.51-2.053-0.873-3.131-1.169c-0.219-2.616-0.854-5.332-1.922-7.918
		c-1.895-0.166-3.791-0.042-5.662,0.252c-1.035,2.741-1.555,5.535-1.59,8.226c-1.029,0.427-2.041,0.916-2.963,1.543
		c-0.926,0.624-1.809,1.321-2.564,2.141c-2.418-1.157-5.033-1.925-7.828-2.321c-1.088,1.557-1.943,3.27-2.617,5.05
		c1.854,2.269,4.012,4.113,6.338,5.486c-0.174,1.104-0.209,2.223-0.166,3.337c0.094,1.111,0.264,2.217,0.574,3.294
		c-2.188,1.507-4.193,3.396-5.916,5.627c0.834,1.707,1.846,3.337,3.078,4.78c2.873-0.473,5.551-1.414,7.914-2.758
		c0.852,0.725,1.814,1.309,2.805,1.812c0.994,0.513,2.057,0.873,3.133,1.168c0.221,2.617,0.854,5.333,1.924,7.921
		c1.896,0.165,3.787,0.04,5.66-0.254c1.033-2.74,1.555-5.536,1.588-8.227c1.033-0.425,2.041-0.916,2.965-1.541
		s1.811-1.319,2.564-2.142c2.418,1.156,5.035,1.924,7.83,2.321c1.088-1.554,1.939-3.27,2.617-5.049
		C83.099,57.122,80.94,55.275,78.612,53.903z M70.001,51.101c0.117,2.272-0.961,4.583-2.918,5.825
		c-1.859,1.271-4.479,1.434-6.479,0.397c-2.092-0.995-3.447-3.156-3.609-5.427c-0.115-2.271,0.965-4.581,2.918-5.823
		c1.861-1.272,4.48-1.435,6.479-0.396C68.485,46.672,69.843,48.832,70.001,51.101z"/>
</g>
</svg>
