<?xml version="1.0" encoding="utf-8"?>
<!-- Generator: Adobe Illustrator 16.0.0, SVG Export Plug-In . SVG Version: 6.00 Build 0)  -->
<!DOCTYPE svg PUBLIC "-//W3C//DTD SVG 1.1//EN" "http://www.w3.org/Graphics/SVG/1.1/DTD/svg11.dtd">
<svg version="1.1" id="Calque_1" xmlns="http://www.w3.org/2000/svg" xmlns:xlink="http://www.w3.org/1999/xlink" x="0px" y="0px"
	 width="127px" height="103px" viewBox="0 0 127 103" enable-background="new 0 0 127 103" xml:space="preserve">
<g>
	<rect x="21.86" y="14.629" fill="#FDC922" width="92.672" height="73.746"/>
	<g>
		<g>
			<g>
				<path fill="#FDC922" d="M111.058,59.164c1.935,0,1.935-3,0-3S109.123,59.164,111.058,59.164L111.058,59.164z"/>
			</g>
		</g>
	</g>
	<path fill="none" stroke="#1583DC" stroke-width="2" stroke-linecap="round" stroke-miterlimit="10" d="M33.292,88.875
		c3.104-28.129,27.675-48.146,51.305-48.365c18.71-0.17,30.842,4.295,30.316-22.326"/>
	<path fill="none" stroke="#45C1F2" stroke-width="4" stroke-miterlimit="10" d="M115.159,86.922
		c-8.489,1.543-49.237-27.201-58.387-34.646C43.322,41.328,41.28,33.939,19.458,29.148"/>
	<path fill="none" stroke="#1583DC" stroke-width="2" stroke-linecap="round" stroke-miterlimit="10" d="M116.823,50.979
		c-1.833,8.611-17.307,5.113-27.952,7.555c-18.369,4.221-9.951,7.543-6.864,17.186c1.319,4.113,2.468,8.209,1.799,12.43"/>
	<path fill="none" stroke="#1583DC" stroke-width="2" stroke-linecap="round" stroke-miterlimit="10" d="M52.928,13.766
		c2.545,7.953-1.436,16.346,4.094,23.633c5.953,7.848,21.812,7.135,25.491,17.23c5.347,14.686-12.921,16.984-20.845,17.006
		c-7.049,0.018-11.536-3.209-17.803-4.502c-1.665-0.348-2.138-2.25-3.967-1.957c-4.606,0.734-3.441,3.283-6.936,6.197
		c-4.646,3.873-6.342,5.004-12.228,1.037"/>
	<path fill="none" stroke="#1583DC" stroke-width="2" stroke-linecap="round" stroke-miterlimit="10" d="M86.382,14.539
		c-1.642,16.924,10.252,23.689,16.85,36.115c2.304,4.34,2.605,6.857,4.068,12.08c1.755,6.26,5.122,12.311,8.962,16.666"/>
	<g>
		<path fill="#0A609B" d="M78.04,31.336c0,3.641-7.323,16.727-7.323,16.727s-7.323-13.086-7.323-16.727
			c0-3.643,3.278-6.594,7.323-6.594S78.04,27.693,78.04,31.336z"/>
		<ellipse fill="#FDC922" cx="70.715" cy="30.971" rx="4.204" ry="3.787"/>
	</g>
	<g>
		<g>
			<g>
				<path fill="#FFFFFF" d="M8.776,10.502c-1.56,0-2.835,1.275-2.835,2.835v76.326c0,1.56,1.275,2.835,2.835,2.835h109.447
					c1.56,0,2.835-1.275,2.835-2.835V13.337c0-1.56-1.275-2.835-2.835-2.835H8.776z M114.532,85.54c0,1.56-1.275,2.835-2.835,2.835
					H24.695c-1.56,0-2.835-1.275-2.835-2.835V17.464c0-1.56,1.275-2.835,2.835-2.835h87.002c1.56,0,2.835,1.275,2.835,2.835V85.54z"
					/>
			</g>
		</g>
		<path fill="#CDDAE6" d="M13.292,54.266c-1.695,0-3.065-1.369-3.065-3.061c0-1.689,1.37-3.061,3.065-3.061
			c1.688,0,3.058,1.371,3.058,3.061C16.35,52.896,14.979,54.266,13.292,54.266z"/>
	</g>
</g>
</svg>
