<?xml version="1.0" encoding="utf-8"?>
<!-- Generator: Adobe Illustrator 16.0.0, SVG Export Plug-In . SVG Version: 6.00 Build 0)  -->
<!DOCTYPE svg PUBLIC "-//W3C//DTD SVG 1.1//EN" "http://www.w3.org/Graphics/SVG/1.1/DTD/svg11.dtd">
<svg version="1.1" xmlns="http://www.w3.org/2000/svg" xmlns:xlink="http://www.w3.org/1999/xlink" x="0px" y="0px" width="216px"
	 height="231.121px" viewBox="0 0 216 231.121" enable-background="new 0 0 216 231.121" xml:space="preserve">
<g id="Background">
</g>
<g id="Tablet_back">
</g>
<g id="tablet_x5F_1">
</g>
<g id="Layer_6">
</g>
<g id="Layer_1">
</g>
<g id="FRAME">
</g>
<g id="Shadow">
</g>
<g id="processor">
	<g>
		<path fill="#FDC922" d="M121.676,68.482c0-4.113-3.874-7.445-8.653-7.445c-4.777,0-8.65,3.332-8.65,7.445v12.492h-0.98V70.861
			c0-3.906-3.874-7.07-8.648-7.07c-4.78,0-8.656,3.164-8.656,7.07v10.195c-0.328,0.025-0.652,0.062-0.978,0.105v-5.688
			c0-3.178-3.874-5.76-8.651-5.76c-4.781,0-8.653,2.582-8.653,5.76v3.898c-0.177,1.037-0.292,2.092-0.292,3.174v37.674
			c0.003,6.404,3.604,16.174,9.879,24.26v28.965h52.787l1.396-23.779c4.029-1.416,8.289-5.057,10.242-7.76
			c8.791-12.158,6.363-43.07,6.363-43.07c-0.871-4.355-3.34-8.93-8.223-7.629c-1.486,0.396,0-50.916,0-50.916
			c0-3.867-3.872-7.004-8.652-7.004c-4.777,0-8.651,3.137-8.651,7.004v40.891c-0.325-0.043-0.648-0.09-0.979-0.119V68.482z"/>
		<g>
			<path fill="#0A609B" d="M74.022,168.219c-1.979,0-3.6,1.62-3.6,3.6v22.416c0,1.979,1.62,3.6,3.6,3.6h61.326
				c1.979,0,3.6-1.62,3.6-3.6v-22.416c0-1.979-1.62-3.6-3.6-3.6H74.022z"/>
		</g>
		<rect x="68.681" y="168.219" fill="#0A609B" width="68.525" height="29.615"/>
	</g>
</g>
</svg>
