<?xml version="1.0" encoding="utf-8"?>
<!-- Generator: Adobe Illustrator 16.0.0, SVG Export Plug-In . SVG Version: 6.00 Build 0)  -->
<!DOCTYPE svg PUBLIC "-//W3C//DTD SVG 1.1//EN" "http://www.w3.org/Graphics/SVG/1.1/DTD/svg11.dtd">
<svg version="1.1" id="Calque_1" xmlns="http://www.w3.org/2000/svg" xmlns:xlink="http://www.w3.org/1999/xlink" x="0px" y="0px"
	 width="127px" height="103px" viewBox="0 0 127 103" enable-background="new 0 0 127 103" xml:space="preserve">
<g>
	<g>
		<g>
			<g>
				<path fill="#FFFFFF" d="M9.273,92.145c-1.56,0-2.835-1.275-2.835-2.835V13.69c0-1.56,1.275-2.835,2.835-2.835h108.453
					c1.56,0,2.835,1.275,2.835,2.835V89.31c0,1.56-1.275,2.835-2.835,2.835H9.273z"/>
			</g>
			<rect x="22.221" y="14.949" fill="#45C1F2" width="91.872" height="73.104"/>
			<path fill="#CDDAE6" d="M13.727,54.242c-1.681,0-3.037-1.358-3.037-3.035s1.356-3.035,3.037-3.035
				c1.675,0,3.034,1.358,3.034,3.035S15.401,54.242,13.727,54.242z"/>
		</g>
	</g>
	<g>
		<g>
			<path fill="#FDC922" d="M90.877,72.201c0,0-0.97-8.839,1.195-11.871c2.166-3.032,6.269-7.771,6.269-17.953
				c0-10.178-9.597-20.642-26.85-20.642c-15.271,0-21.658,13.104-21.658,20.035c0,0,1.01,6.534-1.083,9.133
				c-2.094,2.6-6.317,5.776-3.718,7.147c2.598,1.372,3.608,2.454,3.608,3.826s-0.812,2.608,0.298,2.987
				c1.11,0.379,1.191,0.705,0.786,0.947c-0.407,0.244-1.679,1.598-0.353,2.355c1.327,0.759,2.059,1.896,1.813,2.653
				c-0.243,0.759-2.545,3.818,0.867,4.739c3.411,0.92,8.393,0.434,10.071,1.624s4.115,7.633,2.762,10.881h29.002
				C93.888,88.064,91.095,76.222,90.877,72.201z"/>
		</g>
	</g>
	<g>
		<g>
			<g>
				<path fill="#1583DC" d="M93.589,46.187c0-1.79-0.676-3.422-1.788-4.654c0.779-1.123,1.235-2.485,1.235-3.956
					c0-3.779-3.014-6.852-6.769-6.949c-0.817-2.932-3.506-5.082-6.698-5.082c-1.585,0-3.044,0.53-4.214,1.423
					c-1.143-0.826-2.547-1.313-4.064-1.313c-2.158,0-4.087,0.983-5.362,2.525c-0.374-0.063-0.758-0.097-1.151-0.097
					c-3.841,0-6.953,3.113-6.953,6.954c0,0.225,0.012,0.447,0.032,0.667c-2.354,1.115-3.981,3.511-3.981,6.287
					c0,3.841,3.114,6.955,6.955,6.955c0.921,0,1.801-0.181,2.604-0.507c1.261,1.775,3.331,2.935,5.674,2.935
					c1.94,0,3.694-0.795,4.956-2.077c-0.008,0.14-0.014,0.279-0.014,0.422c0,3.841,3.113,6.954,6.954,6.954
					c2.602,0,4.869-1.431,6.062-3.547C90.706,52.902,93.589,49.881,93.589,46.187z"/>
			</g>
		</g>
		<g>
			<g>
				<g>
					<path fill="#FFFFFF" d="M89.249,45.233c-0.564-0.01-1.129-0.137-1.66-0.324c-1.169-0.413-1.678-1.357-1.435-2.549
						c1.959,0.227,4.148-0.528,4.12-2.853c-0.008-0.561-0.877-0.562-0.87,0c0.013,1.062-0.671,1.745-1.673,1.983
						c-1.557,0.369-3.037-0.623-4.601-0.434c-1.421,0.173-2.634,1.29-3.042,2.65c-0.162,0.538,0.677,0.767,0.838,0.231
						c0.146-0.482,0.452-0.925,0.8-1.281c1.006-1.034,2.328-0.764,3.576-0.46c-0.267,1.374,0.185,2.597,1.461,3.29
						c0.737,0.401,1.647,0.599,2.485,0.615C89.811,46.113,89.81,45.244,89.249,45.233z"/>
				</g>
			</g>
			<g>
				<g>
					<path fill="#FFFFFF" d="M69.452,38.343c0.47-1.664,0.904-4.384-0.478-5.821c0.774-0.631,1.268-1.586,1.477-2.677
						c0.105-0.549-0.731-0.782-0.837-0.231c-0.315,1.638-1.243,2.78-2.973,2.841c-0.759,0.026-1.565-0.134-2.27-0.424
						c-0.52-0.212-0.742,0.63-0.23,0.84c0.891,0.364,1.927,0.517,2.883,0.429c0.432-0.039,0.822-0.145,1.174-0.301
						c0.039,0.035,0.081,0.074,0.102,0.097c0.204,0.223,0.35,0.511,0.459,0.79c0.526,1.344,0.233,2.89-0.145,4.227
						C68.462,38.651,69.3,38.881,69.452,38.343z"/>
				</g>
			</g>
			<g>
				<g>
					<path fill="#FFFFFF" d="M80.731,31.745c1.008,2.087,3.258,2.947,5.474,2.075c0.516-0.204,0.291-1.044-0.23-0.839
						c-1.291,0.509-2.578,0.502-3.627-0.48c-0.386-0.362-0.805-1.006-0.949-1.382c-0.083-0.219-0.29-0.374-0.534-0.304
						c-1.677,0.481-3.782,0.202-4.297-1.752c-0.144-0.541-0.981-0.312-0.839,0.231C76.331,31.582,78.673,32.198,80.731,31.745z"/>
				</g>
			</g>
			<g>
				<g>
					<path fill="#FFFFFF" d="M66.605,44.673c-1.571-0.306-2.67-1.762-3.138-3.23c0.021-1.877-1.646-3.287-3.434-3.353
						c-0.561-0.021-0.559,0.85,0,0.87c1.423,0.052,2.487,1.104,2.561,2.52c-0.001,0.021,0,0.044,0.004,0.068
						c0.037,1.424-1.215,2.49-2.564,2.54c-0.559,0.021-0.561,0.89,0,0.87c1.424-0.053,2.584-0.861,3.118-2.06
						c0.691,1.265,1.799,2.336,3.223,2.613C66.922,45.618,67.155,44.779,66.605,44.673z"/>
				</g>
			</g>
			<g>
				<g>
					<path fill="#FFFFFF" d="M80.931,46.843c0.173-0.727-0.945-1.035-1.116-0.308c-0.296,1.249-1.016,2.121-2.346,2.194
						c-0.582,0.032-1.198-0.073-1.744-0.281c-0.699-0.268-0.999,0.854-0.309,1.117c0.758,0.289,1.64,0.387,2.439,0.289
						c0.241-0.03,0.467-0.083,0.681-0.152c0.781,0.798,1.172,2.012,1.257,3.113c0.058,0.74,1.217,0.746,1.159,0
						c-0.101-1.301-0.519-2.671-1.369-3.681C80.259,48.587,80.71,47.78,80.931,46.843z"/>
				</g>
			</g>
			<g>
				<g>
					<path fill="#FFFFFF" d="M78.121,39.024c0.283,0.046,0.483-0.038,0.654-0.267c-0.126,0.17,0.171-0.183,0.231-0.245
						c0.236-0.241,0.504-0.438,0.793-0.61c1.118-0.672,2.33-0.38,3.371,0.29c0.631,0.406,1.212-0.598,0.585-1
						c-1.91-1.229-4.234-1.015-5.722,0.66c-1.379-0.149-2.727,0.138-3.681,1.247c-0.389,0.451-0.706,1.026-0.881,1.619
						c-1.437-0.218-2.868,0-3.79,1.269c-0.471,0.646-0.689,1.589-0.651,2.383c0.034,0.745,1.193,0.748,1.159,0
						c-0.023-0.478,0.074-0.986,0.273-1.42c0.603-1.304,2.079-1.278,3.297-1.001c0.277,0.063,0.666-0.082,0.713-0.405
						C74.741,39.682,76.307,38.723,78.121,39.024z"/>
				</g>
			</g>
		</g>
	</g>
</g>
</svg>
