<?xml version="1.0" encoding="utf-8"?>
<!-- Generator: Adobe Illustrator 16.0.0, SVG Export Plug-In . SVG Version: 6.00 Build 0)  -->
<!DOCTYPE svg PUBLIC "-//W3C//DTD SVG 1.1//EN" "http://www.w3.org/Graphics/SVG/1.1/DTD/svg11.dtd">
<svg version="1.1" id="Calque_1" xmlns="http://www.w3.org/2000/svg" xmlns:xlink="http://www.w3.org/1999/xlink" x="0px" y="0px"
	 width="127px" height="103px" viewBox="0 0 127 103" enable-background="new 0 0 127 103" xml:space="preserve">
<g>
	<g>
		<path fill="#FFFFFF" d="M85.053,55.297c0.126-0.516,0.202-1.051,0.202-1.605c0-3.717-3.015-6.73-6.732-6.73
			c-1.819,0-3.468,0.725-4.679,1.896c-1.548-3.094-4.736-5.223-8.432-5.223c-5.067,0-9.19,4-9.409,9.016
			c-0.008,0-0.015-0.002-0.021-0.002c-4.068,0-7.366,3.299-7.366,7.365c0,4.07,3.298,7.367,7.366,7.367h28.557
			c3.298,0,5.926-2.844,5.926-6.141C90.464,58.131,88.088,55.58,85.053,55.297z"/>
	</g>
	<g>
		<path fill="#FFFFFF" d="M47.103,60.014c0-4.436,3.271-8.123,7.53-8.775c0.869-5.209,5.369-9.117,10.779-9.117
			c3.558,0,6.811,1.693,8.849,4.514c1.072-0.65,2.28-1.029,3.54-1.139c-1.015-5.615-5.917-9.877-11.824-9.877
			c-4.384,0-8.209,2.354-10.312,5.857c-1.223-0.674-2.628-1.059-4.123-1.059c-4.729,0-8.562,3.834-8.562,8.562
			c0,0.455,0.046,0.896,0.113,1.332c-3.662,0.25-6.558,3.295-6.558,7.021c0,3.889,3.153,7.045,7.045,7.045h4.677
			C47.525,63.088,47.103,61.602,47.103,60.014z"/>
	</g>
</g>
</svg>
