<?xml version="1.0" encoding="utf-8"?>
<!-- Generator: Adobe Illustrator 16.0.0, SVG Export Plug-In . SVG Version: 6.00 Build 0)  -->
<!DOCTYPE svg PUBLIC "-//W3C//DTD SVG 1.1//EN" "http://www.w3.org/Graphics/SVG/1.1/DTD/svg11.dtd">
<svg version="1.1" id="Calque_1" xmlns="http://www.w3.org/2000/svg" xmlns:xlink="http://www.w3.org/1999/xlink" x="0px" y="0px"
	 width="127px" height="103px" viewBox="0 0 127 103" enable-background="new 0 0 127 103" xml:space="preserve">
<g>
	<g>
		<g>
			<g>
				<path fill="#FFFFFF" d="M9.273,92.145c-1.56,0-2.835-1.275-2.835-2.835V13.69c0-1.56,1.275-2.835,2.835-2.835h108.453
					c1.56,0,2.835,1.275,2.835,2.835V89.31c0,1.56-1.275,2.835-2.835,2.835H9.273z"/>
			</g>
			<rect x="22.222" y="14.947" fill="#1583DC" width="91.87" height="73.107"/>
			<path fill="#CDDAE6" d="M13.726,54.242c-1.68,0-3.037-1.359-3.037-3.033c0-1.68,1.357-3.037,3.037-3.037
				c1.676,0,3.033,1.357,3.033,3.037C16.759,52.883,15.401,54.242,13.726,54.242z"/>
		</g>
	</g>
	<rect x="27.066" y="49.371" fill="#FCFCFC" width="81.101" height="1.504"/>
	<rect x="27.066" y="55.381" fill="#FCFCFC" width="81.101" height="1.502"/>
	<rect x="27.066" y="37.605" fill="#FCFCFC" width="81.101" height="1.502"/>
	<rect x="26.815" y="20.25" fill="#FDC922" width="81.627" height="11.373"/>
	<rect x="27.066" y="43.613" fill="#FCFCFC" width="81.101" height="1.502"/>
	<rect x="50.402" y="61.506" fill="#FCFCFC" width="57.765" height="1.502"/>
	<rect x="50.402" y="68.4" fill="#FCFCFC" width="57.765" height="1.504"/>
	<rect x="50.402" y="74.41" fill="#FCFCFC" width="57.765" height="1.504"/>
	<rect x="50.402" y="80.42" fill="#FCFCFC" width="57.723" height="1.502"/>
	<rect x="28.333" y="61.613" fill="#45C1F2" width="18" height="22"/>
</g>
</svg>
