<?xml version="1.0" encoding="utf-8"?>
<!-- Generator: Adobe Illustrator 16.0.0, SVG Export Plug-In . SVG Version: 6.00 Build 0)  -->
<!DOCTYPE svg PUBLIC "-//W3C//DTD SVG 1.1//EN" "http://www.w3.org/Graphics/SVG/1.1/DTD/svg11.dtd">
<svg version="1.1" id="Calque_1" xmlns="http://www.w3.org/2000/svg" xmlns:xlink="http://www.w3.org/1999/xlink" x="0px" y="0px"
	 width="127px" height="103px" viewBox="0 0 127 103" enable-background="new 0 0 127 103" xml:space="preserve">
<g>
	<g>
		<path fill="#FFFFFF" d="M85.053,55.297c0.126-0.516,0.202-1.051,0.202-1.605c0-3.717-3.015-6.73-6.732-6.73
			c-1.819,0-3.468,0.725-4.679,1.896c-1.548-3.094-4.736-5.223-8.432-5.223c-5.067,0-9.19,4-9.409,9.016
			c-0.008,0-0.015-0.002-0.021-0.002c-4.068,0-7.366,3.299-7.366,7.365c0,4.07,3.298,7.367,7.366,7.367h28.557
			c3.298,0,5.926-2.844,5.926-6.141C90.464,58.131,88.088,55.58,85.053,55.297z"/>
	</g>
	<g>
		<path fill="#FFFFFF" d="M47.103,60.014c0-4.436,3.271-8.123,7.53-8.775c0.869-5.209,5.369-9.117,10.779-9.117
			c3.558,0,6.811,1.693,8.849,4.514c1.072-0.65,2.28-1.029,3.54-1.139c-1.015-5.615-5.917-9.877-11.824-9.877
			c-4.384,0-8.209,2.354-10.312,5.857c-1.223-0.674-2.628-1.059-4.123-1.059c-4.729,0-8.562,3.834-8.562,8.562
			c0,0.455,0.046,0.896,0.113,1.332c-3.662,0.25-6.558,3.295-6.558,7.021c0,3.889,3.153,7.045,7.045,7.045h4.677
			C47.525,63.088,47.103,61.602,47.103,60.014z"/>
	</g>
</g>
<g>
	<g>
		<path fill="#FFFFFF" d="M94.675,35.987l-0.502-0.436l-2.26,2.601l0.5,0.437c1.564,1.358,3.354,1.884,3.975,1.17
			C97.007,39.042,96.237,37.347,94.675,35.987z"/>
		<path fill="#FFFFFF" d="M91.044,40.165l-0.5-0.438l-2.26,2.603l0.498,0.437c1.562,1.357,3.354,1.884,3.975,1.168
			C93.378,43.221,92.608,41.523,91.044,40.165z"/>
		<path fill="#FFFFFF" d="M87.413,44.34l-0.498-0.435l-2.262,2.602l0.5,0.435c1.564,1.359,3.352,1.886,3.973,1.17
			S88.979,45.698,87.413,44.34z"/>
		<path fill="#FFFFFF" d="M83.784,48.52l-0.5-0.438l-2.26,2.601l0.498,0.438c1.564,1.356,3.354,1.884,3.975,1.168
			C86.118,51.574,85.349,49.875,83.784,48.52z"/>
		<path fill="#FFFFFF" d="M80.155,52.693l-0.5-0.436l-2.262,2.603l0.5,0.435c1.562,1.358,3.352,1.884,3.975,1.169
			C82.487,55.749,81.72,54.052,80.155,52.693z"/>
		<path fill="#FFFFFF" d="M76.526,56.869l-0.5-0.434l-2.262,2.6l0.5,0.437c1.562,1.358,3.352,1.884,3.973,1.17
			C78.858,59.926,78.089,58.229,76.526,56.869z"/>
		<path fill="#FFFFFF" d="M72.896,61.048l-0.5-0.438l-2.26,2.601l0.5,0.438c1.562,1.358,3.352,1.884,3.973,1.169
			C75.229,64.104,74.462,62.405,72.896,61.048z"/>
		<path fill="#FFFFFF" d="M69.267,65.223l-0.502-0.435l-2.26,2.601l0.498,0.437c1.568,1.358,3.354,1.883,3.977,1.17
			C71.601,68.279,70.831,66.582,69.267,65.223z"/>
		<path fill="#FFFFFF" d="M65.638,69.401l-0.502-0.437l-2.26,2.601l0.498,0.437c1.566,1.356,3.354,1.883,3.975,1.168
			C67.97,72.456,67.2,70.759,65.638,69.401z"/>
		<path fill="#FFFFFF" d="M62.009,73.575l-0.504-0.434l-2.258,2.601l0.5,0.435c1.564,1.36,3.35,1.884,3.973,1.171
			C64.341,76.633,63.569,74.937,62.009,73.575z"/>
		<path fill="#FFFFFF" d="M58.38,77.751l-0.502-0.433l-2.262,2.601l0.5,0.435c1.566,1.358,3.352,1.885,3.973,1.171
			C60.712,80.809,59.942,79.111,58.38,77.751z"/>
		<path fill="#FFFFFF" d="M54.749,81.93l-0.502-0.437l-2.26,2.604l0.5,0.434c1.562,1.359,3.352,1.885,3.973,1.17
			C57.083,84.986,56.312,83.288,54.749,81.93z"/>
	</g>
	<path fill="#FDC922" d="M98.202,31.76c0.346,0.301,0.383,0.831,0.082,1.177L49.97,88.532c-0.301,0.347-0.83,0.384-1.178,0.082
		L28.798,71.239c-0.346-0.301-0.383-0.83-0.082-1.177L77.03,14.468c0.301-0.347,0.832-0.385,1.178-0.083L98.202,31.76z"/>
	<g>
		<path fill="#FFFFFF" d="M78.021,48.346c-0.264,0.057-0.547-0.006-0.766-0.196l-13.039-11.33c-0.367-0.319-0.406-0.878-0.086-1.246
			c0.32-0.367,0.877-0.407,1.244-0.087l13.039,11.33c0.367,0.32,0.408,0.878,0.088,1.245C78.37,48.212,78.2,48.307,78.021,48.346z"
			/>
	</g>
	<g>
		<path fill="#FFFFFF" d="M70.304,57.224c-0.262,0.057-0.547-0.007-0.766-0.196L56.503,45.695c-0.369-0.32-0.408-0.878-0.088-1.247
			c0.32-0.367,0.877-0.407,1.246-0.087l13.035,11.331c0.369,0.321,0.408,0.879,0.088,1.247
			C70.655,57.09,70.485,57.185,70.304,57.224z"/>
	</g>
	<g>
		<path fill="#FFFFFF" d="M62.591,66.097c-0.262,0.057-0.547-0.007-0.766-0.196L48.788,54.57c-0.367-0.32-0.406-0.878-0.088-1.246
			c0.32-0.368,0.879-0.407,1.246-0.087l13.037,11.329c0.369,0.32,0.408,0.879,0.088,1.246C62.94,65.962,62.772,66.059,62.591,66.097
			z"/>
	</g>
	<g>
		<path fill="#FFFFFF" d="M54.88,74.974c-0.264,0.057-0.549-0.007-0.768-0.196L41.075,63.445c-0.367-0.32-0.406-0.878-0.086-1.247
			c0.32-0.368,0.877-0.406,1.246-0.086l13.037,11.331c0.367,0.32,0.406,0.878,0.086,1.246C55.229,74.84,55.06,74.935,54.88,74.974z"
			/>
	</g>
	<g>
		<path fill="#FFFFFF" d="M85.731,39.472c-0.264,0.057-0.549-0.007-0.768-0.196L71.929,27.944c-0.367-0.32-0.406-0.878-0.086-1.246
			c0.32-0.367,0.877-0.407,1.246-0.088l13.033,11.331c0.369,0.32,0.408,0.878,0.088,1.246
			C86.081,39.337,85.909,39.434,85.731,39.472z"/>
	</g>
	<path fill="#FFFFFF" d="M35.091,76.375c1.936-2.227,5.305-2.462,7.527-0.53c1.111,0.968,1.729,2.292,1.822,3.656
		c0.1,1.362-0.326,2.762-1.293,3.873"/>
	<path fill="#FFFFFF" d="M92.278,26.841c-1.934,2.226-5.305,2.46-7.529,0.527c-1.111-0.964-1.725-2.29-1.822-3.653
		c-0.096-1.364,0.33-2.763,1.295-3.874"/>
</g>
</svg>
