<?xml version="1.0" encoding="utf-8"?>
<!-- Generator: Adobe Illustrator 16.0.0, SVG Export Plug-In . SVG Version: 6.00 Build 0)  -->
<!DOCTYPE svg PUBLIC "-//W3C//DTD SVG 1.1//EN" "http://www.w3.org/Graphics/SVG/1.1/DTD/svg11.dtd">
<svg version="1.1" id="Calque_1" xmlns="http://www.w3.org/2000/svg" xmlns:xlink="http://www.w3.org/1999/xlink" x="0px" y="0px"
	 width="127px" height="103px" viewBox="0 0 127 103" enable-background="new 0 0 127 103" xml:space="preserve">
<g>
	<g>
		<g>
			<g>
				<path fill="#FFFFFF" d="M7.246,92.854c-1.56,0-2.835-1.275-2.835-2.835V13.797c0-1.56,1.275-2.835,2.835-2.835h109.3
					c1.56,0,2.835,1.275,2.835,2.835v76.222c0,1.56-1.275,2.835-2.835,2.835H7.246z"/>
			</g>
			<rect x="20.312" y="15.084" fill="#45C1F2" width="92.553" height="73.648"/>
			<path fill="#CDDAE6" d="M11.753,54.669c-1.693,0-3.059-1.368-3.059-3.057c0-1.69,1.365-3.058,3.059-3.058
				c1.688,0,3.056,1.367,3.056,3.058C14.809,53.301,13.441,54.669,11.753,54.669z"/>
		</g>
		<g>
			<rect x="44.333" y="66.613" fill="#45C1F2" width="12" height="10"/>
			<rect x="80.333" y="66.613" fill="#45C1F2" width="10" height="10"/>
		</g>
	</g>
	<rect x="53.03" y="43.621" fill="#1583DC" width="26.834" height="13.017"/>
	<rect x="81.113" y="57.479" fill="#1583DC" width="26.833" height="13.017"/>
	<rect x="53.024" y="57.479" fill="#FDC922" width="26.832" height="26.924"/>
	<rect x="24.636" y="43.621" fill="#FDC922" width="26.973" height="13.017"/>
	<rect x="24.636" y="57.479" fill="#1583DC" width="13.016" height="13.017"/>
	<rect x="38.556" y="57.479" fill="#1583DC" width="13.018" height="13.017"/>
	<rect x="81.113" y="43.621" fill="#1583DC" width="13.016" height="13.017"/>
	<rect x="24.636" y="71.367" fill="#FDC922" width="13.016" height="13.018"/>
	<rect x="38.573" y="71.385" fill="#1583DC" width="12.981" height="12.979"/>
	<rect x="81.113" y="71.385" fill="#1583DC" width="13.016" height="13.018"/>
	<rect x="94.795" y="43.615" fill="#FDC922" width="13.022" height="13.022"/>
	<rect x="94.795" y="71.385" fill="#FDC922" width="13.014" height="13.013"/>
	<g>
		<g>
			<path fill="#FFFFFF" d="M48.505,64.555c0.02-0.082,0.031-0.167,0.031-0.256c0-0.589-0.477-1.066-1.065-1.066
				c-0.288,0-0.549,0.113-0.742,0.301c-0.245-0.491-0.751-0.828-1.335-0.828c-0.805,0-1.458,0.635-1.492,1.429c0,0-0.002,0-0.004,0
				c-0.645,0-1.167,0.523-1.167,1.167c0,0.646,0.522,1.168,1.167,1.168h4.525c0.523,0,0.94-0.451,0.94-0.973
				C49.363,65.003,48.986,64.598,48.505,64.555z"/>
		</g>
		<g>
			<path fill="#FFFFFF" d="M42.49,65.301c0-0.703,0.519-1.288,1.195-1.391c0.136-0.825,0.85-1.444,1.708-1.444
				c0.562,0,1.078,0.269,1.4,0.715c0.17-0.104,0.363-0.163,0.562-0.181c-0.162-0.89-0.938-1.565-1.874-1.565
				c-0.695,0-1.301,0.374-1.636,0.929c-0.192-0.106-0.416-0.168-0.653-0.168c-0.749,0-1.355,0.607-1.355,1.356
				c0,0.072,0.006,0.143,0.019,0.212c-0.582,0.04-1.04,0.521-1.04,1.112c0,0.616,0.499,1.116,1.116,1.116h0.742
				C42.557,65.789,42.49,65.553,42.49,65.301z"/>
		</g>
	</g>
	<g>
		<path fill="#FFFFFF" d="M90.153,47.631c-0.619-0.651-1.484-0.983-2.57-0.983c-1.09,0-1.957,0.332-2.582,0.982
			c-1.084,1.13-1.027,2.8-1.026,2.872c0.005,0.095,0.056,0.175,0.128,0.224c-0.003,1.581,0.493,2.549,0.516,2.593
			c0.027,0.05,0.078,0.078,0.13,0.078c0.023,0,0.047-0.005,0.068-0.017c0.073-0.038,0.1-0.127,0.062-0.199
			c-0.004-0.008-0.481-0.943-0.48-2.446c0.091-0.05,0.148-0.146,0.144-0.256c-0.001-0.015-0.049-1.5,0.868-2.456
			c0.514-0.536,1.245-0.808,2.174-0.808c0.922,0,1.649,0.271,2.156,0.804c0.906,0.951,0.846,2.442,0.846,2.457
			c-0.006,0.1,0.041,0.188,0.115,0.243c0.006,1.512-0.475,2.454-0.48,2.462c-0.037,0.072-0.01,0.161,0.062,0.199
			c0.021,0.012,0.045,0.017,0.067,0.017c0.054,0,0.104-0.028,0.13-0.078c0.023-0.044,0.517-1.004,0.516-2.577
			c0.088-0.045,0.149-0.133,0.154-0.236C91.154,50.434,91.226,48.76,90.153,47.631z"/>
		<path fill="#FFFFFF" d="M85.547,50.568c0,0-0.673,0.171-0.62,1.235c0.053,1.068,0.474,1.931,1.071,1.816
			c0.599-0.117,0.311-0.719,0.245-1.078c-0.061-0.343-0.152-0.86-0.142-1.333C86.104,51.018,86.014,50.46,85.547,50.568z"/>
		<path fill="#FFFFFF" d="M89.604,50.568c0,0,0.673,0.171,0.621,1.235c-0.054,1.068-0.475,1.931-1.073,1.816
			c-0.598-0.117-0.308-0.719-0.243-1.078c0.06-0.343,0.15-0.86,0.14-1.333C89.044,51.018,89.137,50.46,89.604,50.568z"/>
	</g>
	<g>
		<polygon fill="#FFFFFF" points="99.427,48.234 99.427,48.14 98.569,48.14 98.569,48.234 98.446,48.234 98.446,48.438 
			99.535,48.438 99.535,48.234 		"/>
		<g>
			<path fill="#FFFFFF" d="M101.892,52.963c-0.881,0-1.596-0.716-1.596-1.598c0-0.88,0.715-1.596,1.596-1.596
				s1.596,0.716,1.596,1.596C103.487,52.247,102.772,52.963,101.892,52.963z M101.892,50.118c-0.689,0-1.249,0.561-1.249,1.247
				c0,0.688,0.56,1.249,1.249,1.249s1.248-0.561,1.248-1.249C103.14,50.679,102.581,50.118,101.892,50.118z"/>
		</g>
		<path fill="#FFFFFF" d="M98.01,48.656v4.153h2.639c-0.405-0.35-0.663-0.865-0.663-1.444c0-1.052,0.854-1.905,1.906-1.905
			s1.905,0.854,1.905,1.905c0,0.579-0.257,1.095-0.663,1.444h1.303v-4.153H98.01z M103.893,49.406c-0.104,0-0.19-0.086-0.19-0.191
			c0-0.106,0.086-0.19,0.19-0.19c0.106,0,0.19,0.084,0.19,0.19C104.083,49.32,103.999,49.406,103.893,49.406z"/>
	</g>
	<g>
		<circle fill="#FFFFFF" cx="66.718" cy="71.272" r="3.808"/>
		<g>
			<path fill="#FFFFFF" d="M61.324,69.402l1.136,0.462c0.064-0.191,0.143-0.377,0.229-0.556l-1.138-0.463
				c-0.154-0.065-0.332,0.011-0.395,0.164C61.095,69.166,61.171,69.341,61.324,69.402z"/>
			<path fill="#FFFFFF" d="M64.704,67.268c0.178-0.088,0.363-0.168,0.555-0.232l-0.478-1.132c-0.063-0.153-0.24-0.226-0.394-0.161
				c-0.154,0.063-0.227,0.241-0.161,0.395L64.704,67.268z"/>
			<path fill="#FFFFFF" d="M63.262,68.416c0.18-0.219,0.38-0.42,0.6-0.6l-1.388-1.388c-0.166-0.166-0.434-0.166-0.601,0
				c-0.166,0.165-0.166,0.434,0,0.6L63.262,68.416z"/>
			<path fill="#FFFFFF" d="M70.176,68.416l1.388-1.388c0.167-0.166,0.167-0.435,0-0.6c-0.167-0.166-0.436-0.166-0.601,0
				l-1.387,1.388C69.794,67.996,69.997,68.197,70.176,68.416z"/>
			<path fill="#FFFFFF" d="M70.958,69.814l1.131-0.479c0.153-0.064,0.226-0.24,0.16-0.394c-0.063-0.154-0.24-0.227-0.395-0.162
				l-1.131,0.478C70.813,69.438,70.892,69.622,70.958,69.814z"/>
			<path fill="#FFFFFF" d="M66.719,66.787c0.144,0,0.284,0.006,0.425,0.02v-1.961c0-0.235-0.189-0.425-0.425-0.425
				s-0.425,0.189-0.425,0.425v1.961C66.434,66.793,66.575,66.787,66.719,66.787z"/>
			<path fill="#FFFFFF" d="M62.229,71.272c0-0.142,0.008-0.283,0.023-0.426h-1.961c-0.235,0-0.426,0.19-0.426,0.426
				s0.19,0.424,0.426,0.424h1.961C62.237,71.56,62.229,71.417,62.229,71.272z"/>
			<path fill="#FFFFFF" d="M68.684,67.245l0.464-1.14c0.062-0.153-0.012-0.329-0.166-0.393c-0.155-0.062-0.331,0.011-0.394,0.167
				l-0.463,1.135C68.317,67.078,68.503,67.157,68.684,67.245z"/>
			<path fill="#FFFFFF" d="M70.176,74.13c-0.179,0.219-0.382,0.42-0.6,0.602l1.387,1.387c0.083,0.083,0.192,0.126,0.302,0.126
				c0.107,0,0.218-0.043,0.299-0.126c0.167-0.166,0.167-0.434,0-0.601L70.176,74.13z"/>
			<path fill="#FFFFFF" d="M68.732,75.277c-0.178,0.091-0.362,0.169-0.554,0.235l0.477,1.132c0.049,0.114,0.161,0.185,0.279,0.185
				c0.037,0,0.077-0.008,0.114-0.023c0.153-0.065,0.228-0.242,0.162-0.395L68.732,75.277z"/>
			<path fill="#FFFFFF" d="M72.113,73.144l-1.136-0.463c-0.064,0.193-0.143,0.377-0.23,0.557l1.138,0.464
				c0.037,0.016,0.077,0.023,0.115,0.023c0.118,0,0.231-0.07,0.279-0.188C72.341,73.382,72.267,73.206,72.113,73.144z"/>
			<path fill="#FFFFFF" d="M62.478,72.733l-1.129,0.476c-0.154,0.065-0.227,0.243-0.161,0.396c0.048,0.117,0.161,0.184,0.278,0.184
				c0.039,0,0.076-0.007,0.116-0.023l1.132-0.477C62.623,73.11,62.545,72.924,62.478,72.733z"/>
			<path fill="#FFFFFF" d="M73.146,70.847h-1.959c0.011,0.143,0.021,0.284,0.021,0.426c0,0.145-0.011,0.287-0.021,0.424h1.959
				c0.235,0,0.424-0.188,0.424-0.424S73.381,70.847,73.146,70.847z"/>
			<path fill="#FFFFFF" d="M63.262,74.13l-1.389,1.388c-0.166,0.167-0.166,0.435,0,0.601c0.083,0.083,0.192,0.126,0.3,0.126
				c0.108,0,0.217-0.043,0.301-0.126l1.388-1.387C63.642,74.55,63.441,74.349,63.262,74.13z"/>
			<path fill="#FFFFFF" d="M66.719,75.761c-0.144,0-0.285-0.008-0.425-0.021v1.961c0,0.235,0.189,0.424,0.425,0.424
				s0.425-0.188,0.425-0.424V75.74C67.003,75.753,66.862,75.761,66.719,75.761z"/>
			<path fill="#FFFFFF" d="M64.754,75.303L64.29,76.44c-0.062,0.154,0.012,0.331,0.165,0.394c0.038,0.016,0.077,0.021,0.114,0.021
				c0.119,0,0.232-0.07,0.279-0.187l0.464-1.138C65.118,75.467,64.933,75.392,64.754,75.303z"/>
		</g>
	</g>
	<g>
		<polygon fill="#FFFFFF" points="100.11,76.955 100.11,75.336 98.296,76.117 98.296,78.623 		"/>
		<g>
			<polygon fill="#FFFFFF" points="99.097,79.559 98.296,80.541 98.296,80.864 99.471,80.293 			"/>
			<polygon fill="#FFFFFF" points="100.11,77.929 100.11,77.565 98.296,79.317 98.296,80.126 			"/>
			<polygon fill="#FFFFFF" points="99.223,79.403 99.626,80.219 100.11,79.982 100.11,78.312 			"/>
		</g>
		<polygon fill="#FFFFFF" points="102.616,77.329 102.616,76.135 100.421,75.336 100.421,76.959 		"/>
		<g>
			<polygon fill="#FFFFFF" points="102.616,79.789 102.616,78.446 102.055,78.348 102.055,79.63 			"/>
			<polygon fill="#FFFFFF" points="102.616,78.155 102.616,77.899 100.421,77.496 100.421,77.803 			"/>
			<polygon fill="#FFFFFF" points="100.421,79.168 101.826,79.565 101.826,78.311 100.421,78.066 			"/>
			<polygon fill="#FFFFFF" points="101.826,79.837 100.421,79.451 100.421,80.029 101.826,80.563 			"/>
			<polygon fill="#FFFFFF" points="102.055,79.899 102.055,80.65 102.616,80.864 102.616,80.054 			"/>
		</g>
		<path fill="#FFFFFF" d="M104.741,75.615v-0.279l-1.825,0.708v1.102C103.185,77.026,103.834,76.656,104.741,75.615z"/>
		<g>
			<polygon fill="#FFFFFF" points="104.741,78.941 104.741,77.354 104.059,77.691 104.059,79.228 			"/>
			<path fill="#FFFFFF" d="M104.741,77.021v-0.714c-0.298,0.295-1.2,1.156-1.825,1.428v0.221L104.741,77.021z"/>
			<polygon fill="#FFFFFF" points="102.916,79.708 103.897,79.296 103.897,77.772 102.916,78.259 			"/>
			<polygon fill="#FFFFFF" points="103.897,79.605 102.916,80.008 102.916,80.765 103.897,80.358 			"/>
			<polygon fill="#FFFFFF" points="104.059,79.537 104.059,80.292 104.741,80.011 104.741,79.258 			"/>
		</g>
	</g>
	<g>
		<path fill="#FFFFFF" d="M31.934,50.399c-0.142,0.111-0.286,0.151-0.419,0.151c-0.19,0-0.352-0.082-0.439-0.153l-2.637-1.946v3.68
			h6.109v-3.629C33.769,49.061,32.223,50.172,31.934,50.399z"/>
		<path fill="#FFFFFF" d="M31.276,50.141c0.028,0.021,0.235,0.175,0.456,0.002c0.325-0.257,2.131-1.554,2.815-2.044v-0.324h-6.109
			v0.271L31.276,50.141z"/>
	</g>
	<g>
		<path fill="#FFFFFF" d="M32.673,76.333l-4.752,1.021v3.486l4.766,0.967l0.994-0.368v-4.712L32.673,76.333z M31.499,78.974h-1.381
			v-1.062l1.381-0.199V78.974z M29.991,77.929v1.045h-1.089v-0.89L29.991,77.929z M28.902,79.069h1.089v1.045l-1.089-0.142V79.069z
			 M30.118,80.131v-1.062h1.381v1.239L30.118,80.131z"/>
		<g>
			<path fill="#FFFFFF" d="M30.212,76.633l0.215-0.038v-0.405c-0.003-0.016-0.027-0.328,0.34-0.477v-0.12
				c0-0.031-0.005-0.067-0.014-0.104c-0.584,0.191-0.541,0.713-0.541,0.713V76.633z"/>
			<path fill="#FFFFFF" d="M31.194,75.635c0.16-0.002,0.278,0.031,0.348,0.095c0.072,0.07,0.065,0.159,0.064,0.174v0.478l0.215-0.04
				l-0.001-0.425c0.008-0.071-0.009-0.222-0.127-0.337c-0.111-0.109-0.286-0.164-0.516-0.156c0.013,0.06,0.017,0.119,0.017,0.17
				V75.635z"/>
			<g>
				<path fill="#FFFFFF" d="M29.45,76.772v-1.047c0-0.021,0.009-0.502,0.725-0.581c0.26-0.026,0.451,0.011,0.567,0.115
					c0.11,0.1,0.132,0.236,0.132,0.333v0.922l0.214-0.04v-0.882c0-0.142-0.034-0.341-0.201-0.49
					c-0.165-0.149-0.412-0.206-0.737-0.171c-0.904,0.101-0.913,0.786-0.913,0.794v1.086L29.45,76.772z"/>
			</g>
		</g>
	</g>
	<g>
		<rect x="92.174" y="22.506" fill="#1583DC" width="6.244" height="6.243"/>
		<g>
			<circle fill="#1583DC" cx="103.811" cy="24.775" r="2.412"/>
			<g>
				<polygon fill="#1583DC" points="106.767,28.466 104.11,25.78 104.529,25.358 107.185,28.044 				"/>
			</g>
		</g>
	</g>
	<g>
		<path fill="#1583DC" d="M32.758,30.298c0,0.973-0.353,1.731-1.057,2.275c-0.706,0.545-1.663,0.816-2.873,0.816
			c-1.31,0-2.315-0.17-3.022-0.507v-1.238c0.453,0.19,0.947,0.342,1.482,0.453c0.534,0.111,1.062,0.164,1.587,0.164
			c0.855,0,1.501-0.161,1.934-0.486c0.435-0.324,0.649-0.776,0.649-1.356c0-0.383-0.076-0.696-0.229-0.941
			c-0.154-0.243-0.412-0.469-0.771-0.675c-0.36-0.208-0.91-0.442-1.645-0.703c-1.028-0.368-1.762-0.805-2.203-1.309
			c-0.439-0.504-0.661-1.161-0.661-1.972c0-0.852,0.319-1.53,0.96-2.034c0.641-0.503,1.487-0.755,2.54-0.755
			c1.097,0,2.108,0.2,3.03,0.604l-0.4,1.118c-0.912-0.383-1.799-0.575-2.661-0.575c-0.681,0-1.211,0.146-1.594,0.439
			c-0.384,0.292-0.575,0.697-0.575,1.218c0,0.383,0.071,0.695,0.211,0.939c0.142,0.245,0.38,0.469,0.715,0.673
			s0.848,0.429,1.538,0.678c1.159,0.412,1.957,0.856,2.394,1.328C32.541,28.927,32.758,29.543,32.758,30.298z"/>
		<path fill="#1583DC" d="M37.505,32.354c0.223,0,0.437-0.017,0.643-0.05c0.207-0.032,0.37-0.067,0.49-0.103v0.96
			c-0.135,0.065-0.336,0.12-0.601,0.164c-0.263,0.042-0.503,0.063-0.715,0.063c-1.601,0-2.402-0.845-2.402-2.533V25.93h-1.186
			v-0.605l1.186-0.52l0.528-1.769h0.727v1.92h2.402v0.974h-2.402v4.875c0,0.498,0.117,0.882,0.355,1.149
			C36.768,32.22,37.093,32.354,37.505,32.354z"/>
		<path fill="#1583DC" d="M45.388,33.238l-0.249-1.179h-0.062c-0.413,0.519-0.826,0.87-1.235,1.054
			c-0.41,0.184-0.922,0.276-1.538,0.276c-0.82,0-1.464-0.213-1.932-0.635c-0.465-0.424-0.698-1.024-0.698-1.806
			c0-1.674,1.339-2.55,4.014-2.631l1.405-0.047v-0.513c0-0.649-0.141-1.131-0.42-1.439c-0.279-0.31-0.727-0.465-1.342-0.465
			c-0.689,0-1.47,0.212-2.342,0.636l-0.385-0.961c0.408-0.223,0.854-0.395,1.34-0.522c0.488-0.126,0.976-0.188,1.463-0.188
			c0.988,0,1.72,0.218,2.196,0.657c0.476,0.438,0.714,1.141,0.714,2.107v5.654H45.388z M42.554,32.354
			c0.781,0,1.395-0.215,1.84-0.644c0.445-0.428,0.669-1.026,0.669-1.798v-0.749l-1.255,0.054c-0.997,0.035-1.717,0.19-2.156,0.464
			c-0.441,0.274-0.662,0.702-0.662,1.282c0,0.452,0.137,0.799,0.411,1.034C41.677,32.234,42.06,32.354,42.554,32.354z"/>
		<path fill="#1583DC" d="M52.682,24.805c0.366,0,0.696,0.03,0.989,0.091l-0.174,1.162c-0.343-0.075-0.646-0.112-0.906-0.112
			c-0.672,0-1.244,0.271-1.72,0.816c-0.476,0.543-0.716,1.222-0.716,2.033v4.443h-1.254v-8.282h1.035l0.145,1.534h0.061
			c0.307-0.541,0.678-0.956,1.11-1.248C51.685,24.949,52.161,24.805,52.682,24.805z"/>
		<path fill="#1583DC" d="M57.895,32.354c0.223,0,0.437-0.017,0.644-0.05c0.207-0.032,0.37-0.067,0.49-0.103v0.96
			c-0.136,0.065-0.336,0.12-0.6,0.164c-0.265,0.042-0.503,0.063-0.715,0.063c-1.603,0-2.404-0.845-2.404-2.533V25.93h-1.185v-0.605
			l1.185-0.52l0.53-1.769h0.726v1.92h2.403v0.974h-2.403v4.875c0,0.498,0.119,0.882,0.354,1.149
			C57.157,32.22,57.481,32.354,57.895,32.354z"/>
	</g>
	<path fill="#FFFFFF" d="M64.042,52.322c-0.046-1.833-0.845-3.635-1.016-4.023c-0.172-0.389-0.368-0.477-0.368-0.477
		s-0.06-0.049-0.554-0.223c-0.547-0.191-0.893,0.156-1.031,0.341c-0.198,0.263-0.361,0.265-0.361,0.265H58.93
		c0,0-0.161-0.002-0.358-0.265c-0.142-0.185-0.487-0.532-1.033-0.341c-0.494,0.174-0.556,0.223-0.556,0.223
		s-0.193,0.088-0.367,0.477c-0.171,0.389-0.97,2.19-1.017,4.023s1.297,0.792,1.297,0.792s0.705-0.497,1.08-0.901
		s0.783-0.404,0.969-0.404c0.188,0,1.564,0,1.752,0s0.595,0,0.97,0.404s1.079,0.901,1.079,0.901S64.088,54.155,64.042,52.322z
		 M59.821,49.921c-0.31,0-0.559-0.249-0.559-0.558s0.249-0.561,0.559-0.561c0.309,0,0.557,0.252,0.557,0.561
		S60.13,49.921,59.821,49.921z"/>
</g>
</svg>
