<?xml version="1.0" encoding="utf-8"?>
<!-- Generator: Adobe Illustrator 16.0.0, SVG Export Plug-In . SVG Version: 6.00 Build 0)  -->
<!DOCTYPE svg PUBLIC "-//W3C//DTD SVG 1.1//EN" "http://www.w3.org/Graphics/SVG/1.1/DTD/svg11.dtd">
<svg version="1.1" id="Calque_1" xmlns="http://www.w3.org/2000/svg" xmlns:xlink="http://www.w3.org/1999/xlink" x="0px" y="0px"
	 width="520px" height="322px" viewBox="0 0 520 322" enable-background="new 0 0 520 322" xml:space="preserve">
<rect x="71.75" y="31" fill="#0A609B" width="0" height="0.75"/>
<g>
	<g>
		<g>
			<g>
				<path fill="#FFFFFF" d="M186.871,215.108c-1.56,0-2.835-1.275-2.835-2.835V109.727c0-1.56,1.275-2.835,2.835-2.835h146.258
					c1.56,0,2.835,1.275,2.835,2.835v102.547c0,1.56-1.275,2.835-2.835,2.835H186.871z"/>
			</g>
			<rect x="205.047" y="112.339" fill="#1583DC" width="122.305" height="97.323"/>
			<path fill="#CDDAE6" d="M193.736,164.648c-2.236,0-4.042-1.808-4.042-4.038c0-2.233,1.806-4.041,4.042-4.041
				c2.231,0,4.039,1.808,4.039,4.041C197.775,162.841,195.968,164.648,193.736,164.648z"/>
		</g>
	</g>
	<g>
		<path fill="#FFFFFF" d="M235.372,124.465l-18.302,3.931v13.431l18.354,3.722l3.827-1.417v-18.148L235.372,124.465z
			 M230.847,134.635h-5.316v-4.095l5.316-0.764V134.635z M225.04,130.61v4.024h-4.196v-3.421L225.04,130.61z M220.844,135.004h4.196
			v4.023l-4.196-0.543V135.004z M225.53,139.09v-4.086h5.316v4.771L225.53,139.09z"/>
		<g>
			<path fill="#FFFFFF" d="M225.894,125.624l0.829-0.15l-0.004-1.561c-0.008-0.063-0.107-1.263,1.311-1.837v-0.46
				c0-0.119-0.018-0.262-0.051-0.404c-2.253,0.737-2.088,2.743-2.085,2.743V125.624z"/>
			<path fill="#FFFFFF" d="M229.68,121.775c0.615-0.009,1.069,0.119,1.331,0.368c0.28,0.267,0.257,0.612,0.251,0.664v1.84
				l0.829-0.151l-0.003-1.639c0.028-0.273-0.041-0.853-0.489-1.295c-0.431-0.425-1.101-0.629-1.984-0.607
				c0.046,0.234,0.065,0.462,0.065,0.661V121.775z"/>
			<g>
				<path fill="#FFFFFF" d="M222.958,126.155v-4.033c0-0.079,0.032-1.93,2.788-2.23c1.004-0.108,1.741,0.039,2.188,0.443
					c0.419,0.376,0.509,0.905,0.509,1.281v3.547l0.823-0.153v-3.394c0-0.546-0.135-1.315-0.777-1.892
					c-0.634-0.574-1.59-0.789-2.834-0.653c-3.485,0.382-3.523,3.023-3.523,3.051v4.186L222.958,126.155z"/>
			</g>
		</g>
	</g>
	<g>
		<rect x="212" y="160.281" fill="#FDC922" width="13" height="11"/>
		<rect x="231" y="160.281" fill="#45C1F2" width="13" height="11"/>
		<rect x="251" y="160.281" fill="#FFFFFF" width="13" height="11"/>
		<rect x="212" y="176.281" fill="#45C1F2" width="13" height="11"/>
		<rect x="231" y="176.281" fill="#FDC922" width="13" height="11"/>
		<rect x="251" y="176.281" fill="#FFFFFF" width="13" height="11"/>
		<rect x="212" y="191.281" fill="#FFFFFF" width="13" height="11"/>
		<rect x="231" y="191.281" fill="#FFFFFF" width="13" height="11"/>
		<rect x="287" y="160.281" fill="#FDC922" width="13" height="11"/>
		<rect x="306" y="160.281" fill="#45C1F2" width="13" height="11"/>
		<rect x="287" y="176.281" fill="#45C1F2" width="13" height="11"/>
		<rect x="306" y="176.281" fill="#FDC922" width="13" height="11"/>
		<rect x="287" y="191.281" fill="#FFFFFF" width="13" height="11"/>
		<rect x="306" y="191.281" fill="#FFFFFF" width="13" height="11"/>
		<rect x="251" y="191.281" fill="#45C1F2" width="13" height="11"/>
		<rect x="269" y="160.281" fill="#FDC922" width="13" height="11"/>
		<rect x="269" y="177.281" fill="#45C1F2" width="13" height="11"/>
		<rect x="269" y="191.281" fill="#FDC922" width="13" height="11"/>
	</g>
	<g>
		<path fill="#FFFFFF" d="M255.59,139.521l-1.386-3.54h-4.462l-1.37,3.54h-1.31l4.401-11.177h1.088l4.379,11.177H255.59z
			 M253.801,134.815l-1.294-3.449c-0.168-0.437-0.341-0.972-0.519-1.606c-0.111,0.487-0.271,1.022-0.479,1.606l-1.31,3.449H253.801z
			"/>
		<path fill="#FFFFFF" d="M262.152,139.673c-0.542,0-1.038-0.101-1.488-0.301c-0.448-0.2-0.826-0.509-1.13-0.925h-0.092
			c0.061,0.487,0.092,0.949,0.092,1.386v3.434h-1.264v-12.091h1.027l0.175,1.143h0.062c0.325-0.457,0.702-0.787,1.134-0.99
			s0.926-0.305,1.484-0.305c1.106,0,1.961,0.379,2.562,1.135c0.602,0.757,0.902,1.817,0.902,3.183c0,1.37-0.306,2.436-0.917,3.194
			C264.088,139.294,263.239,139.673,262.152,139.673z M261.97,132.097c-0.853,0-1.47,0.236-1.85,0.709
			c-0.381,0.472-0.576,1.223-0.586,2.254v0.281c0,1.172,0.195,2.011,0.586,2.517c0.391,0.505,1.018,0.757,1.881,0.757
			c0.72,0,1.285-0.291,1.693-0.875c0.409-0.584,0.613-1.389,0.613-2.414c0-1.041-0.204-1.838-0.613-2.395
			C263.286,132.375,262.712,132.097,261.97,132.097z"/>
		<path fill="#FFFFFF" d="M271.708,139.673c-0.543,0-1.039-0.101-1.488-0.301s-0.826-0.509-1.131-0.925h-0.091
			c0.06,0.487,0.091,0.949,0.091,1.386v3.434h-1.264v-12.091h1.028l0.175,1.143h0.061c0.325-0.457,0.704-0.787,1.135-0.99
			s0.927-0.305,1.484-0.305c1.107,0,1.961,0.379,2.562,1.135c0.603,0.757,0.902,1.817,0.902,3.183c0,1.37-0.306,2.436-0.917,3.194
			S272.794,139.673,271.708,139.673z M271.525,132.097c-0.854,0-1.469,0.236-1.851,0.709c-0.38,0.472-0.575,1.223-0.586,2.254v0.281
			c0,1.172,0.195,2.011,0.586,2.517c0.391,0.505,1.019,0.757,1.881,0.757c0.722,0,1.286-0.291,1.694-0.875
			c0.409-0.584,0.613-1.389,0.613-2.414c0-1.041-0.204-1.838-0.613-2.395C272.842,132.375,272.267,132.097,271.525,132.097z"/>
		<path fill="#FFFFFF" d="M287.902,136.559c0,0.979-0.355,1.744-1.065,2.292c-0.711,0.549-1.675,0.822-2.894,0.822
			c-1.319,0-2.335-0.17-3.046-0.51v-1.249c0.458,0.193,0.954,0.346,1.492,0.457s1.071,0.167,1.6,0.167
			c0.862,0,1.513-0.164,1.949-0.49c0.437-0.328,0.654-0.784,0.654-1.367c0-0.386-0.077-0.701-0.232-0.947
			c-0.154-0.246-0.413-0.474-0.776-0.682c-0.362-0.208-0.914-0.444-1.656-0.709c-1.035-0.37-1.775-0.81-2.219-1.316
			c-0.444-0.508-0.667-1.17-0.667-1.987c0-0.857,0.322-1.54,0.968-2.049c0.645-0.507,1.497-0.761,2.558-0.761
			c1.106,0,2.125,0.203,3.054,0.609l-0.404,1.126c-0.918-0.386-1.812-0.578-2.68-0.578c-0.686,0-1.221,0.147-1.606,0.441
			c-0.386,0.295-0.578,0.703-0.578,1.227c0,0.385,0.071,0.701,0.213,0.948c0.142,0.245,0.382,0.471,0.72,0.677
			c0.337,0.205,0.854,0.434,1.549,0.682c1.168,0.416,1.971,0.862,2.41,1.34S287.902,135.797,287.902,136.559z"/>
		<path fill="#FFFFFF" d="M292.684,138.63c0.224,0,0.439-0.017,0.647-0.05s0.374-0.067,0.494-0.103v0.967
			c-0.137,0.065-0.338,0.121-0.604,0.164s-0.506,0.064-0.72,0.064c-1.614,0-2.421-0.851-2.421-2.551v-4.964h-1.195v-0.608
			l1.195-0.526l0.533-1.781h0.73v1.934h2.422v0.982h-2.422v4.91c0,0.503,0.119,0.889,0.357,1.158
			C291.94,138.495,292.268,138.63,292.684,138.63z"/>
		<path fill="#FFFFFF" d="M302.696,135.341c0,1.359-0.343,2.422-1.028,3.187c-0.686,0.764-1.632,1.146-2.84,1.146
			c-0.746,0-1.408-0.175-1.987-0.525c-0.578-0.35-1.025-0.853-1.34-1.508c-0.314-0.654-0.472-1.421-0.472-2.299
			c0-1.36,0.34-2.42,1.02-3.179c0.681-0.759,1.625-1.139,2.832-1.139c1.168,0,2.096,0.389,2.783,1.165
			C302.353,132.966,302.696,134.016,302.696,135.341z M296.339,135.341c0,1.066,0.213,1.878,0.639,2.436
			c0.427,0.559,1.054,0.838,1.881,0.838s1.456-0.277,1.885-0.833c0.429-0.557,0.644-1.37,0.644-2.44
			c0-1.061-0.215-1.867-0.644-2.417c-0.429-0.552-1.062-0.827-1.899-0.827c-0.827,0-1.452,0.272-1.873,0.815
			C296.549,133.455,296.339,134.265,296.339,135.341z"/>
		<path fill="#FFFFFF" d="M308.719,131.023c0.37,0,0.702,0.031,0.997,0.092l-0.176,1.172c-0.345-0.076-0.649-0.113-0.913-0.113
			c-0.675,0-1.252,0.273-1.732,0.821c-0.479,0.549-0.72,1.231-0.72,2.049v4.477h-1.264v-8.345h1.043l0.146,1.546h0.061
			c0.31-0.543,0.683-0.962,1.119-1.257C307.716,131.171,308.196,131.023,308.719,131.023z"/>
		<path fill="#FFFFFF" d="M314.802,139.673c-1.233,0-2.206-0.376-2.92-1.127c-0.713-0.751-1.069-1.794-1.069-3.129
			c0-1.346,0.331-2.414,0.993-3.206c0.663-0.791,1.552-1.188,2.669-1.188c1.045,0,1.872,0.345,2.481,1.031
			c0.61,0.688,0.914,1.596,0.914,2.723v0.8h-5.748c0.025,0.979,0.272,1.723,0.742,2.23c0.469,0.507,1.131,0.762,1.983,0.762
			c0.898,0,1.787-0.188,2.665-0.563v1.127c-0.447,0.192-0.869,0.331-1.269,0.414C315.847,139.631,315.365,139.673,314.802,139.673z
			 M314.459,132.082c-0.67,0-1.204,0.219-1.603,0.655c-0.398,0.436-0.633,1.04-0.704,1.812h4.363c0-0.797-0.178-1.407-0.534-1.831
			C315.627,132.294,315.119,132.082,314.459,132.082z"/>
	</g>
</g>
</svg>
