<?xml version="1.0" encoding="utf-8"?>
<!-- Generator: Adobe Illustrator 16.0.4, SVG Export Plug-In . SVG Version: 6.00 Build 0)  -->
<!DOCTYPE svg PUBLIC "-//W3C//DTD SVG 1.1//EN" "http://www.w3.org/Graphics/SVG/1.1/DTD/svg11.dtd">
<svg version="1.1" id="Layer_1" xmlns="http://www.w3.org/2000/svg" xmlns:xlink="http://www.w3.org/1999/xlink" x="0px" y="0px"
	 width="1050px" height="740px" viewBox="0 0 1050 740" enable-background="new 0 0 1050 740" xml:space="preserve">
<g>
	<g>
		<g>
			<g>
				<path fill="none" enable-background="new    " d="z"/>
			</g>
		</g>
		<g>
			<g>
				<path fill="none" enable-background="new    " d="z"/>
			</g>
		</g>
	</g>
</g>
<g>
	<g>
		<g>
			<g transform="matrix(1 0 0 1 -6.103516e-05 0)">
				<path fill="none" enable-background="new    " d="z"/>
			</g>
		</g>
		<g>
			<g transform="matrix(1 0 0 1 -1.220703e-04 0)">
				<path fill="none" enable-background="new    " d="z"/>
			</g>
		</g>
	</g>
</g>
<g>
	<g>
		<g>
			<g>
				<g>
					<g>
						<g>
							<g>
								<g>
									<g>
										<g>
											<g id="Part_2">
												<g>
													<g>
														<path fill="#FFFFFF" d="M602.5,427.9c0,1.987-1.611,3.6-3.6,3.6H566.1c-1.987,0-3.6-1.611-3.6-3.6V404.1
															c0-1.987,1.611-3.6,3.6-3.6H598.9c1.987,0,3.6,1.611,3.6,3.6V427.9z"/>
													</g>
													<g>
														<path fill="#45C1F2" d="M504.5,404.188c0-1.979,2.02-3.688,4-3.688h33c1.979,0,4,1.708,4,3.688v24.265
															c0,1.979-1.82,3.6-3.8,3.6l-33.3-0.002c-1.98,0-3.9-1.62-3.9-3.6V404.188L504.5,404.188z"/>
													</g>
													<g>
														<path fill="#1583DC" d="M487.5,427.9c0,1.987-1.611,3.6-3.6,3.6H451.1c-1.987,0-3.6-1.611-3.6-3.6V404.1
															c0-1.987,1.611-3.6,3.6-3.6H483.9c1.987,0,3.6,1.611,3.6,3.6V427.9z"/>
													</g>
													<g>
														<path fill="#45C1F2" d="M602.5,380.9c0,1.987-1.612,3.6-3.601,3.6h-32.8c-1.987,0-3.601-1.611-3.601-3.6V357.1
															c0-1.987,1.612-3.6,3.601-3.6h32.8c1.987,0,3.601,1.612,3.601,3.6V380.9z"/>
													</g>
													<g>
														<path fill="#FFFFFF" d="M544.5,380.9c0,1.987-1.612,3.6-3.601,3.6h-32.8c-1.987,0-3.601-1.611-3.601-3.6V357.1
															c0-1.987,1.612-3.6,3.601-3.6h32.8c1.987,0,3.601,1.612,3.601,3.6V380.9z"/>
													</g>
													<g>
														<path fill="#1583DC" d="M487.5,380.9c0,1.987-1.611,3.6-3.6,3.6H451.1c-1.987,0-3.6-1.611-3.6-3.6V357.1
															c0-1.987,1.611-3.6,3.6-3.6H483.9c1.987,0,3.6,1.612,3.6,3.6V380.9z"/>
													</g>
													<g>
														<path fill="#1583DC" d="M602.5,334.9c0,1.987-1.612,3.6-3.601,3.6h-32.8c-1.987,0-3.601-1.612-3.601-3.6V311.1
															c0-1.987,1.612-3.6,3.601-3.6h32.8c1.987,0,3.601,1.612,3.601,3.6V334.9z"/>
													</g>
													<g>
														<path fill="#1583DC" d="M544.5,334.9c0,1.987-1.612,3.6-3.601,3.6h-32.8c-1.987,0-3.601-1.612-3.601-3.6V311.1
															c0-1.987,1.612-3.6,3.601-3.6h32.8c1.987,0,3.601,1.612,3.601,3.6V334.9z"/>
													</g>
													<g>
														<path fill="#45C1F2" d="M487.5,334.9c0,1.987-1.611,3.6-3.6,3.6H451.1c-1.987,0-3.6-1.612-3.6-3.6V311.1
															c0-1.987,1.611-3.6,3.6-3.6H483.9c1.987,0,3.6,1.612,3.6,3.6V334.9z"/>
													</g>
												</g>
											</g>
											<g id="Part_1">
											</g>
										</g>
									</g>
								</g>
							</g>
						</g>
					</g>
				</g>
			</g>
		</g>
	</g>
</g>
</svg>
