<?xml version="1.0" encoding="utf-8"?>
<!-- Generator: Adobe Illustrator 16.0.4, SVG Export Plug-In . SVG Version: 6.00 Build 0)  -->
<!DOCTYPE svg PUBLIC "-//W3C//DTD SVG 1.1//EN" "http://www.w3.org/Graphics/SVG/1.1/DTD/svg11.dtd">
<svg version="1.1" id="Layer_1" xmlns="http://www.w3.org/2000/svg" xmlns:xlink="http://www.w3.org/1999/xlink" x="0px" y="0px"
	 width="220px" height="231px" viewBox="0 0 220 231" enable-background="new 0 0 220 231" xml:space="preserve">
<g>
	<g>
		<g>
			<g>
				<path fill="none" enable-background="new    " d="z"/>
			</g>
		</g>
		<g>
			<g>
				<path fill="none" enable-background="new    " d="z"/>
			</g>
		</g>
	</g>
	<g>
		<g>
			<g>
				<path fill="none" enable-background="new    " d="z"/>
			</g>
		</g>
		<g>
			<g transform="matrix(1 0 0 1 -1.220703e-04 0)">
				<path fill="none" enable-background="new    " d="z"/>
			</g>
		</g>
	</g>
	<g>
		<g>
			<g>
				<g>
					<g>
						<g>
							<g>
								<g>
									<g>
										<g>
											<g>
												<g id="tablet_x5F_1">
													<g>
														<g>
															<g transform="matrix(1 0 0 1 0 1.220703e-04)">
																<path fill="none" enable-background="new    " d="z"/>
															</g>
														</g>
													</g>
												</g>
												<g id="FRAME">
												</g>
												<g id="processor">
													<g>
														<path fill="#0A609B" d="M185.25,24.75c-3.5-1.5-29.51,33.824-29.51,33.824C135.75,47,84.25,46.75,63.279,59.062
															C63.279,59.062,37.5,22.5,34,24s-4.93,99.582-4.93,100.607c0,44.34,36.009,79.478,80.348,79.478
															c44.336,0,80.344-35.085,80.352-81.085C189.771,123,188.75,26.25,185.25,24.75z"/>
													</g>
													<path fill="#FDC922" d="M94.174,118.864c0,0-9.832,5.194-27.909-0.812c-18.075-6.002-11.222-26.639,6.856-20.627
														C91.2,103.422,94.174,118.864,94.174,118.864z"/>
													<path fill="#FDC922" d="M124.943,118.864c0,0,9.83,5.194,27.908-0.812c18.074-6.002,11.223-26.639-6.855-20.627
														C127.917,103.422,124.943,118.864,124.943,118.864z"/>
												</g>
											</g>
										</g>
									</g>
								</g>
							</g>
						</g>
					</g>
				</g>
			</g>
		</g>
	</g>
</g>
</svg>
