<?xml version="1.0" encoding="utf-8"?>
<!-- Generator: Adobe Illustrator 16.0.4, SVG Export Plug-In . SVG Version: 6.00 Build 0)  -->
<!DOCTYPE svg PUBLIC "-//W3C//DTD SVG 1.1//EN" "http://www.w3.org/Graphics/SVG/1.1/DTD/svg11.dtd">
<svg version="1.1" id="Calque_1" xmlns="http://www.w3.org/2000/svg" xmlns:xlink="http://www.w3.org/1999/xlink" x="0px" y="0px"
	 width="520px" height="322px" viewBox="0 0 520 322" enable-background="new 0 0 520 322" xml:space="preserve">
<rect x="71.75" y="31" fill="#0A609B" width="0" height="0.75"/>
<g>
	<g>
		<g>
			<path fill="#FFFFFF" d="M186.871,215.107c-1.56,0-2.835-1.274-2.835-2.834V109.727c0-1.56,1.275-2.835,2.835-2.835h146.258
				c1.561,0,2.835,1.275,2.835,2.835v102.546c0,1.561-1.274,2.836-2.835,2.836H186.871V215.107z"/>
		</g>
		<rect x="205.047" y="112.339" fill="#45C1F2" width="122.305" height="97.323"/>
		<path fill="#CDDAE6" d="M193.736,164.648c-2.236,0-4.042-1.809-4.042-4.039c0-2.233,1.806-4.041,4.042-4.041
			c2.231,0,4.039,1.808,4.039,4.041C197.775,162.841,195.968,164.648,193.736,164.648z"/>
	</g>
</g>
</svg>
