<?xml version="1.0" encoding="utf-8"?>
<!-- Generator: Adobe Illustrator 16.0.4, SVG Export Plug-In . SVG Version: 6.00 Build 0)  -->
<!DOCTYPE svg PUBLIC "-//W3C//DTD SVG 1.1//EN" "http://www.w3.org/Graphics/SVG/1.1/DTD/svg11.dtd">
<svg version="1.1" id="Layer_1" xmlns="http://www.w3.org/2000/svg" xmlns:xlink="http://www.w3.org/1999/xlink" x="0px" y="0px"
	 width="1050px" height="740px" viewBox="0 0 1050 740" enable-background="new 0 0 1050 740" xml:space="preserve">
<g>
	<g>
		<g>
			<g>
				<g>
					<path fill="none" enable-background="new    " d="z"/>
				</g>
			</g>
			<g>
				<g>
					<path fill="none" enable-background="new    " d="z"/>
				</g>
			</g>
		</g>
	</g>
	<g>
		<g>
			<g>
				<g transform="matrix(1 0 0 1 -6.103516e-05 0)">
					<path fill="none" enable-background="new    " d="z"/>
				</g>
			</g>
			<g>
				<g transform="matrix(1 0 0 1 -1.220703e-04 0)">
					<path fill="none" enable-background="new    " d="z"/>
				</g>
			</g>
		</g>
	</g>
	<g>
		<g>
			<g>
				<g>
					<g>
						<g>
							<g>
								<g>
									<g>
										<g>
											<g>
												<g id="Part_2">
													<g>
														<g>
															<g>
																
																	<path fill="none" stroke="#FFFFFF" stroke-width="2" stroke-linecap="round" stroke-linejoin="round" stroke-miterlimit="10" d="
																	M448.717,350.17"/>
																
																	<path fill="none" stroke="#FFFFFF" stroke-width="2" stroke-linecap="round" stroke-linejoin="round" stroke-miterlimit="10" d="
																	M485.906,427.916h-32.494c-2.584,0-4.695-2.111-4.695-4.695v-33.166"/>
																
																	<path fill="none" stroke="#FFFFFF" stroke-width="2" stroke-linecap="round" stroke-linejoin="round" stroke-miterlimit="10" d="
																	M485.906,427.916"/>
																
																	<path fill="none" stroke="#FFFFFF" stroke-width="2" stroke-linecap="round" stroke-linejoin="round" stroke-miterlimit="10" d="
																	M601.283,390.055v33.166c0,2.584-2.111,4.695-4.695,4.695H567.83c-2.582,0-5.432,0-6.33,0c-0.9,0-1.635,0-1.635,0"
																	/>
																
																	<path fill="none" stroke="#FFFFFF" stroke-width="2" stroke-linecap="round" stroke-linejoin="round" stroke-miterlimit="10" d="
																	M601.283,390.055"/>
																
																	<path fill="none" stroke="#FFFFFF" stroke-width="2" stroke-linecap="round" stroke-linejoin="round" stroke-miterlimit="10" d="
																	M601.283,350.17"/>
																
																	<path fill="none" stroke="#FFFFFF" stroke-width="2" stroke-linecap="round" stroke-linejoin="round" stroke-miterlimit="10" d="
																	M563.537,312.083h33.051c2.584,0,4.695,2.112,4.695,4.695v33.392"/>
																
																	<path fill="none" stroke="#FFFFFF" stroke-width="2" stroke-linecap="round" stroke-linejoin="round" stroke-miterlimit="10" d="
																	M563.537,312.083"/>
																
																	<path fill="none" stroke="#FFFFFF" stroke-width="2" stroke-linecap="round" stroke-linejoin="round" stroke-miterlimit="10" d="
																	M486.318,312.083"/>
																
																	<path fill="none" stroke="#FFFFFF" stroke-width="2" stroke-linecap="round" stroke-linejoin="round" stroke-miterlimit="10" d="
																	M448.717,350.17v-33.392c0-2.583,2.111-4.695,4.695-4.695h32.906"/>
															</g>
														</g>
														
															<path fill="none" stroke="#FFFFFF" stroke-width="2" stroke-linecap="round" stroke-linejoin="round" stroke-miterlimit="10" d="
															M556.238,370c0,17.252-13.984,31.241-31.24,31.241c-17.252,0-31.236-13.988-31.236-31.241
															c0-17.254,13.984-31.24,31.236-31.24C542.254,338.759,556.238,352.746,556.238,370z"/>
													</g>
												</g>
												<g id="Part_1">
												</g>
											</g>
										</g>
									</g>
								</g>
							</g>
						</g>
					</g>
				</g>
			</g>
		</g>
	</g>
</g>
</svg>
