<?xml version="1.0" encoding="utf-8"?>
<!-- Generator: Adobe Illustrator 16.0.4, SVG Export Plug-In . SVG Version: 6.00 Build 0)  -->
<!DOCTYPE svg PUBLIC "-//W3C//DTD SVG 1.1//EN" "http://www.w3.org/Graphics/SVG/1.1/DTD/svg11.dtd">
<svg version="1.1" id="Layer_1" xmlns="http://www.w3.org/2000/svg" xmlns:xlink="http://www.w3.org/1999/xlink" x="0px" y="0px"
	 width="700px" height="500px" viewBox="0 0 700 500" enable-background="new 0 0 700 500" xml:space="preserve">
<g>
	<g>
		<g>
			<g>
				<path fill="none" enable-background="new    " d="z"/>
			</g>
		</g>
		<g>
			<g>
				<path fill="none" enable-background="new    " d="z"/>
			</g>
		</g>
	</g>
	<g>
		<g>
			<g transform="matrix(1 0 0 1 -6.103516e-05 0)">
				<path fill="none" enable-background="new    " d="z"/>
			</g>
		</g>
		<g>
			<g transform="matrix(1 0 0 1 -1.220703e-04 0)">
				<path fill="none" enable-background="new    " d="z"/>
			</g>
		</g>
	</g>
	<g>
		<g>
			<g>
				<g>
					<g>
						<g>
							<g>
								<g>
									<g>
										<g>
											<g>
												<g id="tablet_x5F_1">
													<g>
														<g>
															<g transform="matrix(1 0 0 1 0 6.103516e-05)">
																<path fill="none" enable-background="new    " d="z"/>
															</g>
														</g>
													</g>
												</g>
												<g id="FRAME">
												</g>
												<g id="processor">
													<g>
														<path fill="#FDC922" d="M390.5,204.366l-17.496,17.357c-6.561-4.546-40.346-4.45-46.975,0.247L308.5,204.366v49.227
															c0,0.515,0.391,1.031,0.391,1.552c0,22.438,18.402,40.308,40.842,40.308c22.438,0,40.84-17.951,40.844-40.951H390.5
															V204.366z"/>
														<g>
															<path fill="#FFFFFF" d="M345.106,250.539c-0.031,0.092-5.641,1.699-11.28-0.175c-5.64-1.873-9.11-6.703-9.142-6.611
																c-0.03,0.093,5.641-1.699,11.28,0.176C341.604,245.801,345.259,250.079,345.106,250.539z"/>
															
																<ellipse transform="matrix(0.3151 -0.949 0.949 0.3151 -5.2167 487.0717)" fill="#FDC922" cx="334.873" cy="247.15" rx="2.229" ry="1.918"/>
														</g>
														<g>
															<path fill="#FFFFFF" d="M357.05,250.301c-0.022-0.094,3.856-4.453,9.623-5.888
																c5.769-1.433,11.283,0.791,11.261,0.697c-0.023-0.095-3.856,4.453-9.625,5.887
																C362.542,252.43,357.166,250.771,357.05,250.301z"/>
															
																<ellipse transform="matrix(0.2412 0.9705 -0.9705 0.2412 519.2466 -168.6806)" fill="#FDC922" cx="367.491" cy="247.706" rx="2.229" ry="1.917"/>
														</g>
													</g>
												</g>
											</g>
										</g>
									</g>
								</g>
							</g>
						</g>
					</g>
				</g>
			</g>
		</g>
	</g>
</g>
</svg>
