<?xml version="1.0" encoding="utf-8"?>
<!-- Generator: Adobe Illustrator 16.0.4, SVG Export Plug-In . SVG Version: 6.00 Build 0)  -->
<!DOCTYPE svg PUBLIC "-//W3C//DTD SVG 1.1//EN" "http://www.w3.org/Graphics/SVG/1.1/DTD/svg11.dtd">
<svg version="1.1" id="Layer_1" xmlns="http://www.w3.org/2000/svg" xmlns:xlink="http://www.w3.org/1999/xlink" x="0px" y="0px"
	 width="220px" height="231px" viewBox="0 0 220 231" enable-background="new 0 0 220 231" xml:space="preserve">
<g>
	<g>
		<g>
			<g>
				<path fill="none" enable-background="new    " d="z"/>
			</g>
		</g>
		<g>
			<g>
				<path fill="none" enable-background="new    " d="z"/>
			</g>
		</g>
	</g>
	<g>
		<g>
			<g>
				<path fill="none" enable-background="new    " d="z"/>
			</g>
		</g>
		<g>
			<g transform="matrix(1 0 0 1 -1.220703e-04 0)">
				<path fill="none" enable-background="new    " d="z"/>
			</g>
		</g>
	</g>
	<g>
		<g>
			<g>
				<g>
					<g>
						<g>
							<g>
								<g>
									<g>
										<g>
											<g>
												<g id="tablet_x5F_1">
													<g>
														<g>
															<g transform="matrix(1 0 0 1 0 1.220703e-04)">
																<path fill="none" enable-background="new    " d="z"/>
															</g>
														</g>
													</g>
												</g>
												<g id="FRAME">
												</g>
												<g id="processor">
													<g>
														<g>
															<path fill="#0A609B" d="M81.966,108.921c0.057,5.18-3.508,9.408-7.967,9.463c-4.455,0.048-8.11-4.113-8.164-9.286
																c-0.06-5.181,3.507-9.418,7.967-9.463C78.253,99.589,81.908,103.746,81.966,108.921z"/>
														</g>
														<g>
															<path fill="#0A609B" d="M137.152,109.158c-0.103-5.173,3.433-9.438,7.889-9.524c4.458-0.079,8.146,4.05,8.238,9.229
																c0.104,5.168-3.434,9.438-7.891,9.516C140.936,118.463,137.25,114.334,137.152,109.158z"/>
														</g>
													</g>
												</g>
											</g>
										</g>
									</g>
								</g>
							</g>
						</g>
					</g>
				</g>
			</g>
		</g>
	</g>
</g>
</svg>
