<?xml version="1.0" encoding="utf-8"?>
<!-- Generator: Adobe Illustrator 16.0.4, SVG Export Plug-In . SVG Version: 6.00 Build 0)  -->
<!DOCTYPE svg PUBLIC "-//W3C//DTD SVG 1.1//EN" "http://www.w3.org/Graphics/SVG/1.1/DTD/svg11.dtd">
<svg version="1.1" id="Layer_1" xmlns="http://www.w3.org/2000/svg" xmlns:xlink="http://www.w3.org/1999/xlink" x="0px" y="0px"
	 width="700px" height="500px" viewBox="0 0 700 500" enable-background="new 0 0 700 500" xml:space="preserve">
<g>
	<g>
		<g>
			<g>
				<path fill="none" enable-background="new    " d="z"/>
			</g>
		</g>
		<g>
			<g>
				<path fill="none" enable-background="new    " d="z"/>
			</g>
		</g>
	</g>
	<g>
		<g>
			<g transform="matrix(1 0 0 1 -6.103516e-05 0)">
				<path fill="none" enable-background="new    " d="z"/>
			</g>
		</g>
		<g>
			<g transform="matrix(1 0 0 1 -1.220703e-04 0)">
				<path fill="none" enable-background="new    " d="z"/>
			</g>
		</g>
	</g>
	<g>
		<g>
			<g>
				<g>
					<g>
						<g>
							<g>
								<g>
									<g>
										<g>
											<g>
												<g id="tablet_x5F_1">
													<g>
														<g>
															<g transform="matrix(1 0 0 1 0 6.103516e-05)">
																<path fill="none" enable-background="new    " d="z"/>
															</g>
														</g>
													</g>
												</g>
												<g id="FRAME">
												</g>
												<g id="processor">
													<g>
														<g>
															<path fill="#FFFFFF" d="M473.82,312.761c0,1.561-1.275,2.835-2.835,2.835h-241.97c-1.56,0-2.835-1.274-2.835-2.835
																V156.388c0-1.56,1.275-2.835,2.835-2.835h241.971c1.56,0,2.835,1.275,2.835,2.835L473.82,312.761L473.82,312.761z"/>
														</g>
														<g>
															<path fill="#FFFFFF" d="M391.705,338.857c0-1.561-1.275-2.835-2.835-2.835h-77.74c-1.56,0-2.835,1.274-2.835,2.835
																v4.755c0,1.56,1.275,2.835,2.835,2.835h77.74c1.56,0,2.835-1.275,2.835-2.835V338.857z"/>
														</g>
														<rect x="341.797" y="315.596" fill="#FFFFFF" width="16.406" height="28.718"/>
														<rect x="341.797" y="315.596" fill="#FFFFFF" width="16.406" height="28.718"/>
														<rect x="237.5" y="165.5" fill="#0A609B" width="225" height="138"/>
														<g id="rHSMlV_6_">
															<g>
																<path fill="#FFFFFF" d="M317.473,222.335c0,0.863,0.004,1.629-0.018,2.394c0,0.108-0.109,0.23-0.199,0.325
																	c-3.006,3.453-5.043,7.402-5.971,11.892c-0.826,3.962-0.605,7.845,1.119,11.556c1.529,3.292,4.031,5.67,7.125,7.479
																	c2.984,1.73,6.219,2.783,9.564,3.5c2.463,0.526,4.947,0.845,7.455,1.053c3.225,0.27,6.453,0.283,9.684,0.176
																	c1.994-0.066,3.996-0.189,5.982-0.371c4.326-0.396,8.584-1.145,12.806-2.165c5.137-1.235,10.172-2.792,15.01-4.921
																	c2.02-0.893,3.963-1.949,5.934-2.938c0.098-0.049,0.188-0.099,0.326-0.176c0.01,0.162,0.02,0.278,0.02,0.407
																	c0,2.089-0.01,4.189,0.016,6.28c0,0.362-0.129,0.538-0.43,0.696c-3.955,2.084-8.104,3.688-12.365,5.021
																	c-4.188,1.3-8.452,2.346-12.782,3.077c-2.39,0.401-4.812,0.709-7.224,0.979c-3.953,0.459-7.921,0.584-11.897,0.451
																	c-2.271-0.072-4.543-0.287-6.801-0.525c-3.477-0.371-6.889-1.119-10.195-2.238c-3.447-1.166-6.695-2.73-9.562-5
																	c-4.051-3.188-6.658-7.252-7.543-12.38c-0.387-2.23-0.514-4.468-0.279-6.713c0.465-4.404,2.148-8.32,4.713-11.884
																	c1.521-2.106,3.281-3.991,5.217-5.719C317.238,222.524,317.309,222.467,317.473,222.335z"/>
																<path fill="#FFFFFF" d="M388.23,246.24c0-0.421,0-0.763,0-1.104c0-1.177,0.014-2.363-0.008-3.538
																	c-0.009-0.392,0.112-0.613,0.45-0.824c2.912-1.826,5.281-4.192,6.964-7.208c1.395-2.503,2.163-5.184,2.042-8.057
																	c-0.18-4.352-1.954-7.989-5.184-10.912c-2.679-2.413-5.849-3.927-9.244-5.01c-2.629-0.836-5.319-1.368-8.058-1.692
																	c-2.975-0.357-5.961-0.538-8.952-0.416c-2.746,0.126-5.496,0.288-8.226,0.624
																	c-6.762,0.81-13.326,2.413-19.729,4.711c-3.414,1.226-6.75,2.632-9.988,4.278c-0.109,0.058-0.23,0.104-0.391,0.172
																	c0-0.552-0.027-1.053,0.02-1.556c0.008-0.139,0.174-0.309,0.305-0.392c2.557-1.542,5.201-2.897,7.924-4.104
																	c5.607-2.482,11.428-4.292,17.445-5.453c2.342-0.448,4.717-0.767,7.086-1.068c3.102-0.395,6.231-0.554,9.352-0.457
																	c2.234,0.068,4.469,0.225,6.691,0.461c4.039,0.418,7.959,1.336,11.737,2.866c3.185,1.285,6.111,2.988,8.578,5.406
																	c2.881,2.806,4.662,6.205,5.234,10.188c0.735,5.188-0.375,9.974-3.271,14.328c-2.489,3.751-5.784,6.589-9.926,8.408
																	C388.826,246.008,388.555,246.107,388.23,246.24z"/>
																<path fill="#FFFFFF" d="M373.463,240.693c0.98,0.938,1.949,1.872,2.951,2.823c-0.742,0.764-1.537,1.394-2.43,1.898
																	c-1.92,1.076-4.017,1.27-6.154,1.115c-1.441-0.095-2.811-0.489-4.057-1.247c-2.031-1.235-3.183-3.099-3.685-5.372
																	c-0.592-2.698-0.575-5.374,0.49-7.948c1.28-3.095,3.631-4.83,6.948-5.252c1.845-0.232,3.621-0.022,5.257,0.927
																	c1.985,1.164,3.112,2.967,3.739,5.126c0.486,1.65,0.496,3.341,0.486,5.033c0,0.214-0.09,0.29-0.281,0.283
																	c-0.123-0.003-0.239,0-0.362,0c-3.748,0-7.496,0-11.253,0c-0.561,0-0.561,0.004-0.514,0.573
																	c0.16,2.153,1.66,3.648,3.793,3.825c1.912,0.153,3.59-0.313,4.945-1.728
																	C373.363,240.733,373.391,240.729,373.463,240.693z M368.359,234.817c0,0.01,0,0.01,0,0.01c1.104,0,2.207,0,3.301,0
																	c0.498,0,0.521-0.01,0.453-0.516c-0.062-0.457-0.152-0.917-0.301-1.346c-0.367-1.094-1.062-1.917-2.211-2.192
																	c-2.291-0.561-4.802,0.595-5.015,3.62c-0.022,0.339,0.062,0.437,0.397,0.434
																	C366.109,234.809,367.232,234.817,368.359,234.817z"/>
																<path fill="#FFFFFF" d="M330.383,226.979c0.141-0.003,0.244-0.02,0.346-0.02c3.33,0,6.656-0.013,9.979,0.007
																	c3.193,0.018,5.414,2.2,5.443,5.398c0.035,4.521,0.006,9.035,0.006,13.558c0,0.091-0.014,0.178-0.021,0.302
																	c-1.588,0-3.152,0-4.789,0c0-0.175,0-0.338,0-0.503c0-4.229,0-8.457-0.004-12.689c0-0.263-0.016-0.526-0.07-0.787
																	c-0.146-0.755-0.617-1.29-1.371-1.328c-1.525-0.064-3.043-0.03-4.568-0.049c-0.043,0-0.078,0.033-0.143,0.058
																	c0,5.078,0,10.164,0,15.285c-1.611,0-3.189,0-4.807,0C330.383,239.813,330.383,233.418,330.383,226.979z"/>
																<path fill="#FFFFFF" d="M358.434,226.956c0,0.277,0,0.515,0,0.742c0,0.906-0.014,1.805,0.008,2.709
																	c0.009,0.353-0.123,0.452-0.461,0.444c-0.942-0.017-1.881,0.003-2.821-0.009c-0.33-0.008-0.427,0.108-0.427,0.438
																	c0.021,3.051,0.004,6.121,0.009,9.179c0,1.16,0.61,1.753,1.776,1.756c0.529,0.008,1.062,0.012,1.59,0
																	c0.242-0.008,0.326,0.082,0.326,0.322c-0.01,1.12,0.008,2.252-0.01,3.381c0,0.107-0.152,0.305-0.23,0.305
																	c-1.405-0.034-2.842,0.035-4.229-0.175c-2.092-0.321-3.639-2.048-3.953-4.142c-0.072-0.481-0.107-0.973-0.107-1.462
																	c-0.01-6.063-0.004-12.131,0-18.199c0-0.571,0-0.571,0.557-0.571c1.272,0,2.545,0.011,3.812-0.006
																	c0.352,0,0.487,0.078,0.479,0.461c-0.024,1.471,0,2.939-0.021,4.41c-0.004,0.336,0.105,0.426,0.431,0.426
																	C356.219,226.946,357.277,226.956,358.434,226.956z"/>
																<path fill="#FFFFFF" d="M384.779,246.008c-2.404-0.089-4.463-1.479-4.791-4.055
																	c-0.053-0.422-0.074-0.844-0.074-1.268c0-7.101,0-14.196,0-21.298c0-0.131,0-0.263,0-0.428c1.631,0,3.234,0,4.865,0
																	C384.779,227.971,384.779,236.973,384.779,246.008z"/>
																<path fill="#FFFFFF" d="M325.928,246.445c-2.322-0.164-4.234-1.301-4.738-3.672
																	c-0.115-0.533-0.154-1.101-0.154-1.653c-0.01-3.811-0.004-7.629-0.004-11.438c0-0.889,0-1.778,0-2.696
																	c1.658,0,3.268,0,4.896,0C325.928,233.483,325.928,239.961,325.928,246.445z"/>
																<path fill="#FFFFFF" d="M321.082,219.565c0.918,0,1.801,0,2.686,0c0.592,0,1.189,0.012,1.781-0.005
																	c0.252-0.009,0.363,0.049,0.363,0.319c-0.008,1.335,0,2.677-0.014,4.008c0,0.113-0.15,0.309-0.225,0.309
																	c-1.52,0.021-3.041,0.014-4.592,0.014C321.082,222.663,321.082,221.149,321.082,219.565z"/>
															</g>
														</g>
													</g>
												</g>
											</g>
										</g>
									</g>
								</g>
							</g>
						</g>
					</g>
				</g>
			</g>
		</g>
	</g>
</g>
</svg>
