<?xml version="1.0" encoding="utf-8"?>
<!-- Generator: Adobe Illustrator 16.0.4, SVG Export Plug-In . SVG Version: 6.00 Build 0)  -->
<!DOCTYPE svg PUBLIC "-//W3C//DTD SVG 1.1//EN" "http://www.w3.org/Graphics/SVG/1.1/DTD/svg11.dtd">
<svg version="1.1" id="Layer_1" xmlns="http://www.w3.org/2000/svg" xmlns:xlink="http://www.w3.org/1999/xlink" x="0px" y="0px"
	 width="1050px" height="740px" viewBox="0 0 1050 740" enable-background="new 0 0 1050 740" xml:space="preserve">
<g>
	<g>
		<g>
			<g>
				<g>
					<path fill="none" enable-background="new    " d="z"/>
				</g>
			</g>
			<g>
				<g>
					<path fill="none" enable-background="new    " d="z"/>
				</g>
			</g>
		</g>
	</g>
	<g>
		<g>
			<g>
				<g transform="matrix(1 0 0 1 -6.103516e-05 0)">
					<path fill="none" enable-background="new    " d="z"/>
				</g>
			</g>
			<g>
				<g transform="matrix(1 0 0 1 -1.220703e-04 0)">
					<path fill="none" enable-background="new    " d="z"/>
				</g>
			</g>
		</g>
	</g>
	<g>
		<g>
			<g>
				<g>
					<g>
						<g>
							<g>
								<g>
									<g>
										<g>
											<g>
												<g id="Part_2">
													<rect x="93.5" y="298.5" fill="#0A609B" width="804" height="144"/>
													<g>
														<path fill="#45C1F2" d="M258.5,407.5c0,4.971-4.029,9-9,9h-138c-4.971,0-9-4.029-9-9v-72c0-4.971,4.029-9,9-9h138
															c4.971,0,9,4.029,9,9V407.5z"/>
													</g>
													<g>
														<path fill="#45C1F2" d="M425.5,407.5c0,4.971-4.029,9-9,9h-138c-4.971,0-9-4.029-9-9v-72c0-4.971,4.029-9,9-9h138
															c4.971,0,9,4.029,9,9V407.5z"/>
													</g>
													<g>
														<path fill="#45C1F2" d="M924.5,408.5c0,4.971-4.029,9-9,9h-138c-4.971,0-9-4.029-9-9v-72c0-4.971,4.029-9,9-9h138
															c4.971,0,9,4.029,9,9V408.5z"/>
													</g>
													<g>
														<path fill="#45C1F2" d="M591.5,408.5c0,4.971-4.029,9-9,9h-138c-4.971,0-9-4.029-9-9v-72c0-4.971,4.029-9,9-9h138
															c4.971,0,9,4.029,9,9V408.5z"/>
													</g>
													<g>
														<path fill="#45C1F2" d="M758.5,408.5c0,4.971-4.029,9-9,9h-138c-4.971,0-9-4.029-9-9v-72c0-4.971,4.029-9,9-9h138
															c4.971,0,9,4.029,9,9V408.5z"/>
													</g>
													<g>
														<path fill="#0A609B" d="M208.485,367.575c1.799,0.828,1.845,2.274,0.103,3.215l-42.836,23.075
															c-1.742,0.939-3.252,0.09-3.252-1.891v-41.89c0-1.979,1.555-2.923,3.354-2.095L208.485,367.575z"/>
													</g>
													<g>
														<path fill="#45C1F2" d="M244.5,318.27c0,0.792-0.48,1.23-1.271,1.23H222.68c-0.793,0-1.18-0.438-1.18-1.23v-10.508
															c0-0.792,0.387-1.262,1.18-1.262h20.549c0.791,0,1.271,0.47,1.271,1.262V318.27L244.5,318.27z"/>
													</g>
													<g>
														<path fill="#45C1F2" d="M209.5,318.27c0,0.792-0.623,1.23-1.416,1.23h-20.549c-0.791,0-1.035-0.438-1.035-1.23
															v-10.508c0-0.792,0.244-1.262,1.035-1.262h20.549c0.793,0,1.416,0.47,1.416,1.262V318.27z"/>
													</g>
													<g>
														<path fill="#45C1F2" d="M176.5,318.27c0,0.792-1.092,1.23-1.885,1.23h-20.549c-0.791,0-1.566-0.438-1.566-1.23
															v-10.508c0-0.792,0.775-1.262,1.566-1.262h20.549c0.793,0,1.885,0.47,1.885,1.262V318.27z"/>
													</g>
													<g>
														<path fill="#45C1F2" d="M140.5,318.27c0,0.792-0.236,1.23-1.027,1.23h-20.549c-0.793,0-1.424-0.438-1.424-1.23
															v-10.508c0-0.792,0.631-1.262,1.424-1.262h20.549c0.791,0,1.027,0.47,1.027,1.262V318.27z"/>
													</g>
													<g>
														<path fill="#45C1F2" d="M279.5,318.27c0,0.792-0.338,1.23-1.129,1.23h-20.549c-0.793,0-1.322-0.438-1.322-1.23
															v-10.508c0-0.792,0.529-1.262,1.322-1.262h20.549c0.791,0,1.129,0.47,1.129,1.262V318.27z"/>
													</g>
													<g>
														<path fill="#45C1F2" d="M453.5,318.27c0,0.792-0.295,1.23-1.088,1.23h-20.549c-0.791,0-1.363-0.438-1.363-1.23
															v-10.508c0-0.792,0.572-1.262,1.363-1.262h20.549c0.793,0,1.088,0.47,1.088,1.262V318.27z"/>
													</g>
													<g>
														<path fill="#45C1F2" d="M418.5,318.27c0,0.792-0.439,1.23-1.23,1.23h-20.549c-0.793,0-1.221-0.438-1.221-1.23v-10.508
															c0-0.792,0.428-1.262,1.221-1.262h20.549c0.791,0,1.23,0.47,1.23,1.262V318.27z"/>
													</g>
													<g>
														<path fill="#45C1F2" d="M385.5,318.27c0,0.792-0.908,1.23-1.701,1.23H363.25c-0.791,0-1.75-0.438-1.75-1.23v-10.508
															c0-0.792,0.959-1.262,1.75-1.262h20.549c0.793,0,1.701,0.47,1.701,1.262V318.27z"/>
													</g>
													<g>
														<path fill="#45C1F2" d="M350.5,318.27c0,0.792-1.051,1.23-1.844,1.23h-20.549c-0.791,0-1.607-0.438-1.607-1.23
															v-10.508c0-0.792,0.816-1.262,1.607-1.262h20.549c0.793,0,1.844,0.47,1.844,1.262V318.27z"/>
													</g>
													<g>
														<path fill="#45C1F2" d="M314.5,318.27c0,0.792-0.193,1.23-0.986,1.23h-20.549c-0.791,0-1.465-0.438-1.465-1.23
															v-10.508c0-0.792,0.674-1.262,1.465-1.262h20.549c0.793,0,0.986,0.47,0.986,1.262V318.27z"/>
													</g>
													<g>
														<path fill="#45C1F2" d="M488.5,318.27c0,0.792-0.152,1.23-0.945,1.23h-20.549c-0.791,0-1.506-0.438-1.506-1.23
															v-10.508c0-0.792,0.715-1.262,1.506-1.262h20.549c0.793,0,0.945,0.47,0.945,1.262V318.27z"/>
													</g>
													<g>
														<path fill="#45C1F2" d="M666.5,318.27c0,0.792-0.764,1.23-1.557,1.23h-20.55c-0.791,0-1.895-0.438-1.895-1.23v-10.508
															c0-0.792,1.104-1.262,1.895-1.262h20.55c0.793,0,1.557,0.47,1.557,1.262V318.27z"/>
													</g>
													<g>
														<path fill="#45C1F2" d="M631.5,318.27c0,0.792-0.908,1.23-1.699,1.23h-20.549c-0.793,0-1.752-0.438-1.752-1.23
															v-10.508c0-0.792,0.959-1.262,1.752-1.262h20.549c0.791,0,1.699,0.47,1.699,1.262V318.27z"/>
													</g>
													<g>
														<path fill="#45C1F2" d="M597.5,318.27c0,0.792-0.377,1.23-1.168,1.23h-20.549c-0.793,0-1.283-0.438-1.283-1.23
															v-10.508c0-0.792,0.49-1.262,1.283-1.262h20.549c0.791,0,1.168,0.47,1.168,1.262V318.27z"/>
													</g>
													<g>
														<path fill="#45C1F2" d="M562.5,318.27c0,0.792-0.52,1.23-1.312,1.23h-20.549c-0.791,0-1.139-0.438-1.139-1.23v-10.508
															c0-0.792,0.348-1.262,1.139-1.262h20.549c0.794,0,1.312,0.47,1.312,1.262V318.27z"/>
													</g>
													<g>
														<path fill="#45C1F2" d="M527.5,318.27c0,0.792-0.662,1.23-1.455,1.23h-20.549c-0.791,0-0.996-0.438-0.996-1.23
															v-10.508c0-0.792,0.205-1.262,0.996-1.262h20.549c0.793,0,1.455,0.47,1.455,1.262V318.27z"/>
													</g>
													<g>
														<path fill="#45C1F2" d="M701.5,318.27c0,0.792-0.621,1.23-1.414,1.23h-20.549c-0.791,0-1.037-0.438-1.037-1.23
															v-10.508c0-0.792,0.246-1.262,1.037-1.262h20.549c0.793,0,1.414,0.47,1.414,1.262V318.27z"/>
													</g>
													<g>
														<path fill="#45C1F2" d="M873.5,318.27c0,0.792-0.254,1.23-1.045,1.23h-20.549c-0.793,0-1.406-0.438-1.406-1.23
															v-10.508c0-0.792,0.613-1.262,1.406-1.262h20.549c0.791,0,1.045,0.47,1.045,1.262V318.27z"/>
													</g>
													<g>
														<path fill="#45C1F2" d="M838.5,318.27c0,0.792-0.396,1.23-1.188,1.23h-20.55c-0.793,0-1.264-0.438-1.264-1.23v-10.508
															c0-0.792,0.471-1.262,1.264-1.262h20.55c0.791,0,1.188,0.47,1.188,1.262V318.27z"/>
													</g>
													<g>
														<path fill="#45C1F2" d="M805.5,318.27c0,0.792-0.865,1.23-1.658,1.23h-20.549c-0.791,0-1.793-0.438-1.793-1.23
															v-10.508c0-0.792,1.002-1.262,1.793-1.262h20.549c0.793,0,1.658,0.47,1.658,1.262V318.27z"/>
													</g>
													<g>
														<path fill="#45C1F2" d="M769.5,318.06c0,0.796-0.645,1.44-1.439,1.44h-20.12c-0.796,0-1.439-0.645-1.439-1.44V307.94
															c0-0.796,0.646-1.44,1.439-1.44h20.12c0.795,0,1.439,0.645,1.439,1.44V318.06z"/>
													</g>
													<g>
														<path fill="#45C1F2" d="M734.5,318.27c0,0.792-0.152,1.23-0.943,1.23h-20.549c-0.793,0-1.508-0.438-1.508-1.23
															v-10.508c0-0.792,0.715-1.262,1.508-1.262h20.549c0.791,0,0.943,0.47,0.943,1.262V318.27z"/>
													</g>
													<g>
														<path fill="#45C1F2" d="M908.5,318.06c0,0.796-0.645,1.44-1.439,1.44h-20.12c-0.796,0-1.439-0.645-1.439-1.44V307.94
															c0-0.796,0.646-1.44,1.439-1.44h20.12c0.795,0,1.439,0.645,1.439,1.44V318.06z"/>
													</g>
													<g>
														<path fill="#45C1F2" d="M244.5,437.086c0,0.792-0.48,1.414-1.271,1.414H222.68c-0.793,0-1.18-0.622-1.18-1.414
															v-10.507c0-0.792,0.387-1.079,1.18-1.079h20.549c0.791,0,1.271,0.287,1.271,1.079V437.086L244.5,437.086z"/>
													</g>
													<g>
														<path fill="#45C1F2" d="M209.5,437.086c0,0.792-0.623,1.414-1.416,1.414h-20.549c-0.791,0-1.035-0.622-1.035-1.414
															v-10.507c0-0.792,0.244-1.079,1.035-1.079h20.549c0.793,0,1.416,0.287,1.416,1.079V437.086z"/>
													</g>
													<g>
														<path fill="#45C1F2" d="M176.5,437.086c0,0.792-1.092,1.414-1.885,1.414h-20.549c-0.791,0-1.566-0.622-1.566-1.414
															v-10.507c0-0.792,0.775-1.079,1.566-1.079h20.549c0.793,0,1.885,0.287,1.885,1.079V437.086z"/>
													</g>
													<g>
														<path fill="#45C1F2" d="M140.5,437.086c0,0.792-0.236,1.414-1.027,1.414h-20.549c-0.793,0-1.424-0.622-1.424-1.414
															v-10.507c0-0.792,0.631-1.079,1.424-1.079h20.549c0.791,0,1.027,0.287,1.027,1.079V437.086z"/>
													</g>
													<g>
														<path fill="#45C1F2" d="M279.5,437.086c0,0.792-0.338,1.414-1.129,1.414h-20.549c-0.793,0-1.322-0.622-1.322-1.414
															v-10.507c0-0.792,0.529-1.079,1.322-1.079h20.549c0.791,0,1.129,0.287,1.129,1.079V437.086z"/>
													</g>
													<g>
														<path fill="#45C1F2" d="M453.5,437.086c0,0.792-0.295,1.414-1.088,1.414h-20.549c-0.791,0-1.363-0.622-1.363-1.414
															v-10.507c0-0.792,0.572-1.079,1.363-1.079h20.549c0.793,0,1.088,0.287,1.088,1.079V437.086z"/>
													</g>
													<g>
														<path fill="#45C1F2" d="M418.5,437.086c0,0.792-0.439,1.414-1.23,1.414h-20.549c-0.793,0-1.221-0.622-1.221-1.414
															v-10.507c0-0.792,0.428-1.079,1.221-1.079h20.549c0.791,0,1.23,0.287,1.23,1.079V437.086z"/>
													</g>
													<g>
														<path fill="#45C1F2" d="M385.5,437.086c0,0.792-0.908,1.414-1.701,1.414H363.25c-0.791,0-1.75-0.622-1.75-1.414
															v-10.507c0-0.792,0.959-1.079,1.75-1.079h20.549c0.793,0,1.701,0.287,1.701,1.079V437.086z"/>
													</g>
													<g>
														<path fill="#45C1F2" d="M350.5,437.086c0,0.792-1.051,1.414-1.844,1.414h-20.549c-0.791,0-1.607-0.622-1.607-1.414
															v-10.507c0-0.792,0.816-1.079,1.607-1.079h20.549c0.793,0,1.844,0.287,1.844,1.079V437.086z"/>
													</g>
													<g>
														<path fill="#45C1F2" d="M314.5,437.086c0,0.792-0.193,1.414-0.986,1.414h-20.549c-0.791,0-1.465-0.622-1.465-1.414
															v-10.507c0-0.792,0.674-1.079,1.465-1.079h20.549c0.793,0,0.986,0.287,0.986,1.079V437.086z"/>
													</g>
													<g>
														<path fill="#45C1F2" d="M488.5,437.086c0,0.792-0.152,1.414-0.945,1.414h-20.549c-0.791,0-1.506-0.622-1.506-1.414
															v-10.507c0-0.792,0.715-1.079,1.506-1.079h20.549c0.793,0,0.945,0.287,0.945,1.079V437.086z"/>
													</g>
													<g>
														<path fill="#45C1F2" d="M666.5,437.086c0,0.792-0.764,1.414-1.557,1.414h-20.55c-0.791,0-1.895-0.622-1.895-1.414
															v-10.507c0-0.792,1.104-1.079,1.895-1.079h20.55c0.793,0,1.557,0.287,1.557,1.079V437.086z"/>
													</g>
													<g>
														<path fill="#45C1F2" d="M631.5,437.086c0,0.792-0.908,1.414-1.699,1.414h-20.549c-0.793,0-1.752-0.622-1.752-1.414
															v-10.507c0-0.792,0.959-1.079,1.752-1.079h20.549c0.791,0,1.699,0.287,1.699,1.079V437.086z"/>
													</g>
													<g>
														<path fill="#45C1F2" d="M597.5,437.086c0,0.792-0.377,1.414-1.168,1.414h-20.549c-0.793,0-1.283-0.622-1.283-1.414
															v-10.507c0-0.792,0.49-1.079,1.283-1.079h20.549c0.791,0,1.168,0.287,1.168,1.079V437.086z"/>
													</g>
													<g>
														<path fill="#45C1F2" d="M562.5,437.086c0,0.792-0.52,1.414-1.312,1.414h-20.549c-0.791,0-1.139-0.622-1.139-1.414
															v-10.507c0-0.792,0.348-1.079,1.139-1.079h20.549c0.794,0,1.312,0.287,1.312,1.079V437.086z"/>
													</g>
													<g>
														<path fill="#45C1F2" d="M527.5,437.086c0,0.792-0.662,1.414-1.455,1.414h-20.549c-0.791,0-0.996-0.622-0.996-1.414
															v-10.507c0-0.792,0.205-1.079,0.996-1.079h20.549c0.793,0,1.455,0.287,1.455,1.079V437.086z"/>
													</g>
													<g>
														<path fill="#45C1F2" d="M701.5,437.086c0,0.792-0.621,1.414-1.414,1.414h-20.549c-0.791,0-1.037-0.622-1.037-1.414
															v-10.507c0-0.792,0.246-1.079,1.037-1.079h20.549c0.793,0,1.414,0.287,1.414,1.079V437.086z"/>
													</g>
													<g>
														<path fill="#45C1F2" d="M873.5,437.086c0,0.792-0.254,1.414-1.045,1.414h-20.549c-0.793,0-1.406-0.622-1.406-1.414
															v-10.507c0-0.792,0.613-1.079,1.406-1.079h20.549c0.791,0,1.045,0.287,1.045,1.079V437.086z"/>
													</g>
													<g>
														<path fill="#45C1F2" d="M838.5,437.086c0,0.792-0.396,1.414-1.188,1.414h-20.55c-0.793,0-1.264-0.622-1.264-1.414
															v-10.507c0-0.792,0.471-1.079,1.264-1.079h20.55c0.791,0,1.188,0.287,1.188,1.079V437.086z"/>
													</g>
													<g>
														<path fill="#45C1F2" d="M805.5,437.086c0,0.792-0.865,1.414-1.658,1.414h-20.549c-0.791,0-1.793-0.622-1.793-1.414
															v-10.507c0-0.792,1.002-1.079,1.793-1.079h20.549c0.793,0,1.658,0.287,1.658,1.079V437.086z"/>
													</g>
													<g>
														<path fill="#45C1F2" d="M769.5,437.06c0,0.797-0.645,1.44-1.439,1.44h-20.12c-0.796,0-1.439-0.645-1.439-1.44V426.94
															c0-0.797,0.646-1.44,1.439-1.44h20.12c0.795,0,1.439,0.645,1.439,1.44V437.06z"/>
													</g>
													<g>
														<path fill="#45C1F2" d="M734.5,437.086c0,0.792-0.152,1.414-0.943,1.414h-20.549c-0.793,0-1.508-0.622-1.508-1.414
															v-10.507c0-0.792,0.715-1.079,1.508-1.079h20.549c0.791,0,0.943,0.287,0.943,1.079V437.086z"/>
													</g>
													<g>
														<path fill="#45C1F2" d="M908.5,437.06c0,0.797-0.645,1.44-1.439,1.44h-20.12c-0.796,0-1.439-0.645-1.439-1.44V426.94
															c0-0.797,0.646-1.44,1.439-1.44h20.12c0.795,0,1.439,0.645,1.439,1.44V437.06z"/>
													</g>
													<path fill="#45C1F2" d="M104.33,306.5H93.5v13h10.83c0.791,0,1.17-0.438,1.17-1.23v-10.508
														C105.5,306.97,105.121,306.5,104.33,306.5z"/>
													<path fill="#45C1F2" d="M104.33,425.5H93.5v13h10.83c0.791,0,1.17-0.622,1.17-1.414v-10.507
														C105.5,425.787,105.121,425.5,104.33,425.5z"/>
												</g>
												<g id="Part_1">
												</g>
											</g>
										</g>
									</g>
								</g>
							</g>
						</g>
					</g>
				</g>
			</g>
		</g>
	</g>
</g>
</svg>
