<?xml version="1.0" encoding="utf-8"?>
<!-- Generator: Adobe Illustrator 16.0.0, SVG Export Plug-In . SVG Version: 6.00 Build 0)  -->
<!DOCTYPE svg PUBLIC "-//W3C//DTD SVG 1.1//EN" "http://www.w3.org/Graphics/SVG/1.1/DTD/svg11.dtd">
<svg version="1.1" id="Calque_1" xmlns="http://www.w3.org/2000/svg" xmlns:xlink="http://www.w3.org/1999/xlink" x="0px" y="0px"
	 width="127px" height="103px" viewBox="0 0 127 103" enable-background="new 0 0 127 103" xml:space="preserve">
<path fill="#31D2F5" d="M96.446,52.912l-0.037-3.308c2.602-0.993,5.174-2.19,7.719-3.591c-0.143-1.563-0.586-3.081-0.893-4.617
	c-2.906-0.513-5.863-0.759-8.686-0.793c-0.334-1.051-0.846-2.035-1.264-3.056c-0.459-1.003-1.049-1.94-1.566-2.914
	c1.873-2.112,3.557-4.351,5.162-6.778c-0.848-1.322-1.949-2.447-2.934-3.661c-2.809,0.903-5.541,2.056-8.055,3.336
	c-0.791-0.769-1.693-1.411-2.537-2.121c-0.877-0.667-1.826-1.235-2.736-1.858c0.674-2.727,1.137-5.504,1.43-8.399
	c-1.369-0.773-2.869-1.264-4.312-1.884c-2.07,2.099-3.951,4.396-5.58,6.702c-1.055-0.329-2.156-0.455-3.234-0.688
	c-1.082-0.22-2.191-0.235-3.287-0.358c-0.67-2.801-1.553-5.403-2.635-8.106c-1.564-0.031-3.123,0.147-4.678,0.338
	c-0.869,2.769-1.471,5.693-1.838,8.518c-1.092,0.192-2.135,0.545-3.186,0.889c-1.064,0.295-2.064,0.767-3.078,1.205
	c-1.889-2.144-3.92-4.113-6.115-5.955c-1.396,0.723-2.711,1.571-3.98,2.487c0.525,2.858,1.348,5.71,2.34,8.39
	c-0.869,0.676-1.637,1.474-2.402,2.265c-0.807,0.758-1.471,1.646-2.17,2.495c-2.668-1.025-5.367-1.823-8.176-2.445
	c-0.906,1.282-1.664,2.654-2.379,4.054c1.787,2.287,3.848,4.439,5.969,6.349c-0.459,1.005-0.766,2.063-1.074,3.125
	c-0.361,1.047-0.545,2.135-0.75,3.219c-2.834,0.339-5.635,0.889-8.379,1.648c-0.168,1.556-0.277,3.114-0.215,4.68
	c2.691,1.19,5.404,2.142,8.23,2.848c0.119,1.097,0.217,2.196,0.492,3.267c0.225,1.082,0.447,2.162,0.826,3.2
	c-2.287,1.592-4.615,3.417-6.666,5.358c0.631,1.435,1.197,2.903,2.004,4.25c2.963-0.211,5.775-0.613,8.605-1.314
	c0.629,0.905,1.221,1.841,1.965,2.659c0.701,0.85,1.404,1.703,2.217,2.449c-1.289,2.474-2.496,5.161-3.42,7.832
	c1.219,0.99,2.41,2.012,3.742,2.84c2.523-1.553,4.836-3.226,7.02-5.154c0.979,0.516,1.938,1.065,2.975,1.444
	c1.02,0.427,2.033,0.86,3.105,1.136c0.01,2.783,0.195,5.734,0.625,8.53c1.541,0.276,3.07,0.676,4.631,0.764
	c1.508-2.589,2.773-5.093,3.807-7.823c1.102-0.035,2.209,0.036,3.305-0.098c1.094-0.147,2.201-0.186,3.279-0.43
	c1.303,2.469,2.809,4.902,4.514,7.273c1.496-0.46,3.008-0.902,4.467-1.476c0.137-2.992,0.061-5.87-0.262-8.702
	c0.957-0.548,1.949-1.041,2.873-1.635c0.898-0.642,1.85-1.209,2.699-1.914c2.301,1.58,4.764,3.029,7.373,4.338
	c1.109-1.102,2.244-2.186,3.26-3.372c-1.266-2.716-2.656-5.22-4.266-7.587c0.594-0.93,1.256-1.818,1.793-2.78
	c0.496-0.985,1.084-1.927,1.502-2.947c2.773,0.33,5.627,0.469,8.545,0.411c0.477-1.493,0.963-2.989,1.324-4.515
	c-2.381-1.809-4.818-3.385-7.307-4.722L96.446,52.912z M62.876,64.163c-6.945-0.275-12.352-6.127-12.076-13.068
	c0.275-6.945,6.125-12.354,13.07-12.079c6.943,0.275,12.35,6.128,12.076,13.073C75.671,59.031,69.819,64.438,62.876,64.163z"/>
</svg>
