<?xml version="1.0" encoding="utf-8"?>
<!-- Generator: Adobe Illustrator 16.0.4, SVG Export Plug-In . SVG Version: 6.00 Build 0)  -->
<!DOCTYPE svg PUBLIC "-//W3C//DTD SVG 1.1//EN" "http://www.w3.org/Graphics/SVG/1.1/DTD/svg11.dtd">
<svg version="1.1" id="Layer_1" xmlns="http://www.w3.org/2000/svg" xmlns:xlink="http://www.w3.org/1999/xlink" x="0px" y="0px"
	 width="700px" height="500px" viewBox="0 0 700 500" enable-background="new 0 0 700 500" xml:space="preserve">
<g>
	<g>
		<g>
			<g>
				<path fill="none" enable-background="new    " d="z"/>
			</g>
		</g>
		<g>
			<g>
				<path fill="none" enable-background="new    " d="z"/>
			</g>
		</g>
	</g>
	<g>
		<g>
			<g transform="matrix(1 0 0 1 -6.103516e-05 0)">
				<path fill="none" enable-background="new    " d="z"/>
			</g>
		</g>
		<g>
			<g transform="matrix(1 0 0 1 -1.220703e-04 0)">
				<path fill="none" enable-background="new    " d="z"/>
			</g>
		</g>
	</g>
	<g>
		<g>
			<g>
				<g>
					<g>
						<g>
							<g>
								<g>
									<g>
										<g>
											<g>
												<g id="tablet_x5F_1">
													<g>
														<g>
															<g transform="matrix(1 0 0 1 0 6.103516e-05)">
																<path fill="none" enable-background="new    " d="z"/>
															</g>
														</g>
													</g>
												</g>
												<g id="FRAME">
												</g>
												<g id="processor">
													<g>
														<path fill="#45C1F2" d="M363.391,203.904c0-4.029-3.793-7.293-8.473-7.293c-4.678,0-8.472,3.264-8.472,7.293v12.23
															h-0.959v-9.902c0-3.824-3.793-6.924-8.468-6.924c-4.681,0-8.476,3.1-8.476,6.924v9.982
															c-0.322,0.023-0.641,0.061-0.958,0.104v-5.568c0-3.111-3.794-5.641-8.472-5.641c-4.681,0-8.473,2.529-8.473,5.641
															v3.816c-0.173,1.016-0.286,2.047-0.286,3.109v36.888c0.003,6.271,3.53,15.838,9.674,23.754v28.36h51.687l1.368-23.282
															c3.944-1.388,8.116-4.951,10.028-7.599c8.606-11.905,6.229-42.172,6.229-42.172c-0.853-4.266-3.271-8.744-8.051-7.471
															c-1.456,0.389,0-49.854,0-49.854c0-3.787-3.792-6.859-8.474-6.859c-4.678,0-8.471,3.072-8.471,6.859v40.037
															c-0.318-0.043-0.635-0.088-0.957-0.117v-12.315H363.391z"/>
														<g>
															<path fill="#FFFFFF" d="M316.806,301.561c-1.979,0-3.6,1.621-3.6,3.601v21.799c0,1.979,1.62,3.6,3.6,3.6h59.896
																c1.979,0,3.6-1.619,3.6-3.6v-21.8c0-1.979-1.62-3.6-3.6-3.6H316.806L316.806,301.561z"/>
														</g>
														<rect x="311.5" y="301.561" fill="none" width="67.098" height="28.998"/>
													</g>
												</g>
											</g>
										</g>
									</g>
								</g>
							</g>
						</g>
					</g>
				</g>
			</g>
		</g>
	</g>
</g>
</svg>
