<?xml version="1.0" encoding="utf-8"?>
<!-- Generator: Adobe Illustrator 16.0.4, SVG Export Plug-In . SVG Version: 6.00 Build 0)  -->
<!DOCTYPE svg PUBLIC "-//W3C//DTD SVG 1.1//EN" "http://www.w3.org/Graphics/SVG/1.1/DTD/svg11.dtd">
<svg version="1.1" id="Layer_1" xmlns="http://www.w3.org/2000/svg" xmlns:xlink="http://www.w3.org/1999/xlink" x="0px" y="0px"
	 width="1050px" height="750px" viewBox="0 0 1050 750" enable-background="new 0 0 1050 750" xml:space="preserve">
<g>
	<g>
		<g>
			<g transform="matrix(1 0 0 1 -1.220703e-04 6.103516e-05)">
				<path fill="none" enable-background="new    " d="z"/>
			</g>
		</g>
		<g>
			<g transform="matrix(1 0 0 1 0 6.103516e-05)">
				<path fill="none" enable-background="new    " d="z"/>
			</g>
		</g>
	</g>
	<g>
		<g>
			<g transform="matrix(1 0 0 1 0 6.103516e-05)">
				<path fill="none" enable-background="new    " d="z"/>
			</g>
		</g>
		<g>
			<g transform="matrix(1 0 0 1 0 6.103516e-05)">
				<path fill="none" enable-background="new    " d="z"/>
			</g>
		</g>
	</g>
	<g>
		<g>
			<g>
				<g>
					<g>
						<g>
							<g>
								<g>
									<g>
										<g>
											<g>
												<g id="tablet_x5F_1">
													<g>
														<g>
															<g transform="matrix(1 0 0 1 0 1.220703e-04)">
																<path fill="none" enable-background="new    " d="z"/>
															</g>
														</g>
													</g>
												</g>
												<g id="FRAME">
												</g>
												<g id="processor">
													<g>
														<g>
															<g>
																<path fill="#FFFFFF" d="M371.419,414.635c-1.559,0-2.834-1.274-2.834-2.835V194.645c0-1.56,1.275-2.835,2.834-2.835
																	H678.58c1.559,0,2.834,1.275,2.834,2.835V411.8c0,1.561-1.275,2.835-2.834,2.835H371.419L371.419,414.635z"/>
															</g>
															<rect x="411.846" y="203.025" fill="#45C1F2" width="251.835" height="200.398"/>
															<path fill="#CDDAE6" d="M388.559,310.736c-4.606,0-8.325-3.726-8.325-8.314c0-4.598,3.719-8.322,8.325-8.322
																c4.592,0,8.313,3.725,8.313,8.322C396.872,307.012,393.15,310.736,388.559,310.736z"/>
														</g>
														<g>
															<rect x="453" y="327" fill="#1583DC" width="170" height="76"/>
															<polygon fill="#0A609B" points="630.411,283 448.723,283 441.522,327 637.61,327 															"/>
															<rect x="474" y="261" fill="#0A609B" width="23" height="28"/>
															<rect x="525" y="365" fill="#45C1F2" width="24" height="38"/>
															<rect x="473" y="342" fill="#45C1F2" width="33" height="32"/>
															<rect x="572" y="342" fill="#45C1F2" width="32" height="32"/>
														</g>
														<g>
															<path fill="#0A609B" d="M563.19,239.184c0,9.896-19.9,45.454-19.9,45.454s-19.899-35.559-19.899-45.454
																c0-9.896,8.909-17.92,19.899-17.92C554.279,221.264,563.19,229.287,563.19,239.184z"/>
															<ellipse fill="#45C1F2" cx="543.29" cy="239.184" rx="9" ry="8.104"/>
														</g>
													</g>
												</g>
											</g>
										</g>
									</g>
								</g>
							</g>
						</g>
					</g>
				</g>
			</g>
		</g>
	</g>
</g>
</svg>
