<?xml version="1.0" encoding="utf-8"?>
<!-- Generator: Adobe Illustrator 16.0.0, SVG Export Plug-In . SVG Version: 6.00 Build 0)  -->
<!DOCTYPE svg PUBLIC "-//W3C//DTD SVG 1.1//EN" "http://www.w3.org/Graphics/SVG/1.1/DTD/svg11.dtd">
<svg version="1.1" xmlns="http://www.w3.org/2000/svg" xmlns:xlink="http://www.w3.org/1999/xlink" x="0px" y="0px" width="387px"
	 height="283px" viewBox="0 0 387 283" enable-background="new 0 0 387 283" xml:space="preserve">
<g id="Background">
</g>
<g id="Tablet_back">
</g>
<g id="tablet_x5F_1">
</g>
<g id="Layer_6">
</g>
<g id="Layer_1">
</g>
<g id="FRAME">
</g>
<g id="Shadow">
</g>
<g id="processor">
	<g>
		<g id="rHSMlV_2_">
			<g>
				<path fill-rule="evenodd" clip-rule="evenodd" fill="#FFFFFF" d="M85.082,102.829c0,2.509,0.015,4.731-0.047,6.95
					c0,0.312-0.323,0.67-0.582,0.943c-8.721,10.022-14.638,21.492-17.332,34.526c-2.402,11.501-1.759,22.778,3.243,33.555
					c4.441,9.552,11.706,16.457,20.696,21.701c8.66,5.037,18.049,8.093,27.761,10.168c7.154,1.53,14.362,2.45,21.638,3.054
					c9.372,0.778,18.746,0.825,28.128,0.508c5.787-0.188,11.598-0.55,17.362-1.072c12.558-1.156,24.919-3.329,37.183-6.292
					c14.906-3.588,29.522-8.104,43.574-14.288c5.865-2.588,11.509-5.65,17.231-8.526c0.286-0.144,0.537-0.286,0.941-0.513
					c0.032,0.468,0.054,0.812,0.054,1.183c0,6.067-0.021,12.167,0.052,18.234c0,1.055-0.379,1.562-1.252,2.027
					c-11.486,6.046-23.532,10.703-35.9,14.575c-12.167,3.772-24.543,6.807-37.111,8.928c-6.938,1.168-13.963,2.061-20.967,2.852
					c-11.479,1.336-23.01,1.69-34.548,1.311c-6.598-0.217-13.194-0.837-19.745-1.53c-10.097-1.076-19.996-3.25-29.604-6.496
					c-10.008-3.391-19.432-7.933-27.759-14.513c-11.755-9.261-19.33-21.061-21.896-35.945c-1.127-6.477-1.496-12.973-0.812-19.493
					c1.344-12.782,6.228-24.158,13.686-34.504c4.413-6.111,9.515-11.582,15.136-16.603
					C84.406,103.382,84.606,103.206,85.082,102.829z"/>
				<path fill-rule="evenodd" clip-rule="evenodd" fill="#FFFFFF" d="M290.518,172.229c0-1.215,0-2.21,0-3.201
					c0-3.418,0.044-6.855-0.022-10.269c-0.032-1.142,0.33-1.779,1.312-2.391c8.455-5.309,15.328-12.174,20.22-20.928
					c4.042-7.268,6.276-15.048,5.93-23.396c-0.527-12.635-5.679-23.192-15.056-31.683c-7.779-7.001-16.97-11.393-26.834-14.539
					c-7.638-2.431-15.449-3.971-23.397-4.924c-8.635-1.03-17.302-1.553-25.999-1.198c-7.96,0.362-15.949,0.836-23.875,1.807
					c-19.628,2.351-38.686,7.009-57.281,13.68c-9.907,3.556-19.597,7.645-29.001,12.423c-0.315,0.165-0.671,0.301-1.129,0.495
					c0-1.597-0.079-3.046,0.05-4.51c0.031-0.409,0.507-0.899,0.892-1.141c7.418-4.476,15.1-8.416,23-11.908
					c16.287-7.208,33.176-12.467,50.653-15.836c6.799-1.304,13.691-2.223,20.574-3.107c9.003-1.142,18.097-1.6,27.15-1.318
					c6.484,0.194,12.975,0.646,19.422,1.336c11.733,1.215,23.111,3.879,34.085,8.321c9.239,3.729,17.743,8.673,24.905,15.691
					c8.361,8.149,13.541,18.021,15.2,29.582c2.134,15.064-1.095,28.956-9.503,41.597c-7.229,10.899-16.8,19.133-28.813,24.422
					C292.247,171.561,291.451,171.845,290.518,172.229z"/>
				<path fill-rule="evenodd" clip-rule="evenodd" fill="#FFFFFF" d="M247.645,156.129c2.837,2.729,5.658,5.438,8.563,8.191
					c-2.156,2.229-4.458,4.054-7.048,5.518c-5.577,3.123-11.659,3.689-17.872,3.243c-4.185-0.278-8.156-1.424-11.779-3.62
					c-5.899-3.595-9.236-8.997-10.693-15.602c-1.723-7.832-1.676-15.597,1.422-23.076c3.719-8.988,10.548-14.021,20.184-15.242
					c5.351-0.683,10.506-0.079,15.255,2.686c5.762,3.382,9.036,8.61,10.86,14.88c1.409,4.796,1.441,9.697,1.409,14.611
					c0,0.629-0.256,0.846-0.82,0.823c-0.354-0.007-0.69,0-1.053,0c-10.872,0-21.765,0-32.67,0c-1.619,0-1.619,0.015-1.493,1.658
					c0.471,6.258,4.822,10.604,11.021,11.117c5.553,0.437,10.42-0.914,14.353-5.02C247.356,156.247,247.43,156.24,247.645,156.129z
					 M232.831,139.07c0,0.03,0,0.03,0,0.03c3.199,0,6.397,0,9.577,0c1.448,0,1.515-0.03,1.311-1.496
					c-0.183-1.328-0.437-2.664-0.867-3.909c-1.062-3.179-3.076-5.569-6.415-6.367c-6.653-1.624-13.946,1.732-14.564,10.51
					c-0.069,0.981,0.18,1.27,1.161,1.263C226.293,139.046,229.556,139.07,232.831,139.07z"/>
				<path fill-rule="evenodd" clip-rule="evenodd" fill="#FFFFFF" d="M122.565,116.307c0.416-0.007,0.707-0.052,1.01-0.052
					c9.66,0,19.313-0.036,28.967,0.025c9.273,0.042,15.718,6.383,15.804,15.666c0.106,13.125,0.013,26.233,0.013,39.363
					c0,0.261-0.037,0.51-0.06,0.872c-4.604,0-9.155,0-13.904,0c0-0.497,0-0.98,0-1.456c0-12.277,0-24.558-0.021-36.84
					c0-0.765-0.035-1.533-0.195-2.29c-0.429-2.188-1.794-3.743-3.975-3.847c-4.44-0.194-8.837-0.099-13.275-0.152
					c-0.113,0-0.22,0.101-0.407,0.167c0,14.747,0,29.517,0,44.376c-4.68,0-9.261,0-13.955,0
					C122.565,153.576,122.565,135.007,122.565,116.307z"/>
				<path fill-rule="evenodd" clip-rule="evenodd" fill="#FFFFFF" d="M204.011,116.248c0,0.806,0,1.493,0,2.159
					c0,2.624-0.047,5.236,0.021,7.854c0.024,1.035-0.362,1.316-1.343,1.294c-2.733-0.047-5.456,0.015-8.196-0.024
					c-0.951-0.022-1.24,0.308-1.24,1.273c0.062,8.857,0.025,17.773,0.032,26.65c0,3.363,1.774,5.084,5.163,5.091
					c1.522,0.032,3.068,0.04,4.618,0c0.695-0.021,0.944,0.242,0.944,0.937c-0.032,3.263,0.021,6.546-0.032,9.82
					c0,0.309-0.437,0.88-0.663,0.88c-4.091-0.096-8.256,0.106-12.277-0.497c-6.075-0.935-10.565-5.947-11.489-12.029
					c-0.209-1.402-0.308-2.819-0.308-4.241c-0.022-17.615-0.016-35.229,0-52.841c0-1.661,0-1.661,1.621-1.661
					c3.699,0,7.391,0.032,11.062-0.015c1.021,0,1.415,0.217,1.39,1.336c-0.076,4.272,0,8.536-0.062,12.8
					c-0.007,0.98,0.311,1.247,1.255,1.247C197.573,116.219,200.644,116.248,204.011,116.248z"/>
				<path fill-rule="evenodd" clip-rule="evenodd" fill="#FFFFFF" d="M280.495,171.561c-6.979-0.259-12.951-4.298-13.907-11.777
					c-0.16-1.222-0.214-2.449-0.214-3.672c0-20.621,0-41.222,0-61.838c0-0.377,0-0.765,0-1.247c4.733,0,9.389,0,14.121,0
					C280.495,119.193,280.495,145.33,280.495,171.561z"/>
				<path fill-rule="evenodd" clip-rule="evenodd" fill="#FFFFFF" d="M109.632,172.825c-6.742-0.476-12.295-3.773-13.759-10.653
					c-0.34-1.548-0.445-3.204-0.445-4.804c-0.037-11.062-0.016-22.147-0.016-33.21c0-2.575,0-5.165,0-7.829c4.813,0,9.488,0,14.22,0
					C109.632,135.199,109.632,154.005,109.632,172.825z"/>
				<path fill-rule="evenodd" clip-rule="evenodd" fill="#FFFFFF" d="M95.565,94.788c2.664,0,5.229,0,7.792,0
					c1.721,0,3.458,0.034,5.181-0.008c0.725-0.031,1.04,0.139,1.04,0.927c-0.018,3.869,0,7.766-0.03,11.635
					c0,0.322-0.438,0.892-0.657,0.892c-4.406,0.06-8.828,0.035-13.325,0.035C95.565,103.778,95.565,99.389,95.565,94.788z"/>
			</g>
		</g>
	</g>
</g>
</svg>
