<?xml version="1.0" encoding="utf-8"?>
<!-- Generator: Adobe Illustrator 16.0.4, SVG Export Plug-In . SVG Version: 6.00 Build 0)  -->
<!DOCTYPE svg PUBLIC "-//W3C//DTD SVG 1.1//EN" "http://www.w3.org/Graphics/SVG/1.1/DTD/svg11.dtd">
<svg version="1.1" id="Layer_1" xmlns="http://www.w3.org/2000/svg" xmlns:xlink="http://www.w3.org/1999/xlink" x="0px" y="0px"
	 width="1050px" height="750px" viewBox="0 0 1050 750" enable-background="new 0 0 1050 750" xml:space="preserve">
<g>
	<g>
		<g>
			<g transform="matrix(1 0 0 1 -1.220703e-04 6.103516e-05)">
				<path fill="none" enable-background="new    " d="z"/>
			</g>
		</g>
		<g>
			<g transform="matrix(1 0 0 1 0 6.103516e-05)">
				<path fill="none" enable-background="new    " d="z"/>
			</g>
		</g>
	</g>
	<g>
		<g>
			<g transform="matrix(1 0 0 1 0 6.103516e-05)">
				<path fill="none" enable-background="new    " d="z"/>
			</g>
		</g>
		<g>
			<g transform="matrix(1 0 0 1 0 6.103516e-05)">
				<path fill="none" enable-background="new    " d="z"/>
			</g>
		</g>
	</g>
	<g>
		<g>
			<g>
				<g>
					<g>
						<g>
							<g>
								<g>
									<g>
										<g>
											<g>
												<g id="tablet_x5F_1">
													<g>
														<g>
															<g transform="matrix(1 0 0 1 0 1.220703e-04)">
																<path fill="none" enable-background="new    " d="z"/>
															</g>
														</g>
													</g>
												</g>
												<g id="FRAME">
												</g>
												<g id="processor">
													<path fill="#45C1F2" d="M804.785,538h81.43c19.036-13,31.532-35.137,31.532-59.935
														c0-39.902-32.347-72.372-72.247-72.372c-39.902,0-72.248,32.531-72.248,72.435
														C773.252,502.926,785.748,525,804.785,538z"/>
													<polygon fill="#0A609B" points="913.5,280 778.5,280 750.5,421 940.5,421 													"/>
												</g>
											</g>
										</g>
									</g>
								</g>
							</g>
						</g>
					</g>
				</g>
			</g>
		</g>
	</g>
</g>
</svg>
