<?xml version="1.0" encoding="utf-8"?>
<!-- Generator: Adobe Illustrator 16.0.4, SVG Export Plug-In . SVG Version: 6.00 Build 0)  -->
<!DOCTYPE svg PUBLIC "-//W3C//DTD SVG 1.1//EN" "http://www.w3.org/Graphics/SVG/1.1/DTD/svg11.dtd">
<svg version="1.1" id="Layer_1" xmlns="http://www.w3.org/2000/svg" xmlns:xlink="http://www.w3.org/1999/xlink" x="0px" y="0px"
	 width="700px" height="500px" viewBox="0 0 700 500" enable-background="new 0 0 700 500" xml:space="preserve">
<g>
	<g>
		<g>
			<g>
				<path fill="none" enable-background="new    " d="z"/>
			</g>
		</g>
		<g>
			<g>
				<path fill="none" enable-background="new    " d="z"/>
			</g>
		</g>
	</g>
	<g>
		<g>
			<g transform="matrix(1 0 0 1 -6.103516e-05 0)">
				<path fill="none" enable-background="new    " d="z"/>
			</g>
		</g>
		<g>
			<g transform="matrix(1 0 0 1 -1.220703e-04 0)">
				<path fill="none" enable-background="new    " d="z"/>
			</g>
		</g>
	</g>
	<g>
		<g>
			<g>
				<g>
					<g>
						<g>
							<g>
								<g>
									<g>
										<g>
											<g>
												<g id="tablet_x5F_1">
													<g>
														<g>
															<g transform="matrix(1 0 0 1 0 6.103516e-05)">
																<path fill="none" enable-background="new    " d="z"/>
															</g>
														</g>
													</g>
												</g>
												<g id="FRAME">
												</g>
												<g id="processor">
													<g>
														<g>
															<g>
																<path fill="#FFFFFF" d="M434.365,292.104c0,1.561-1.275,2.836-2.835,2.836H268.47c-1.56,0-2.835-1.275-2.835-2.836
																	V188.469c0-1.56,1.275-2.835,2.835-2.835h163.06c1.56,0,2.835,1.275,2.835,2.835V292.104z"/>
															</g>
														</g>
														<g>
															<path fill="#FFFFFF" d="M446.507,310.169c0-1.56-1.274-2.835-2.835-2.835H256.328c-1.56,0-2.835,1.275-2.835,2.835
																v1.362c0,1.56,1.275,2.835,2.835,2.835h187.344c1.561,0,2.835-1.275,2.835-2.835V310.169z"/>
														</g>
														<rect x="273.5" y="195.5" fill="#0A609B" width="152" height="90"/>
														<g id="rHSMlV_5_">
															<g>
																<path fill="#FFFFFF" d="M321.465,230.435c0,0.658,0.005,1.245-0.012,1.829c0,0.083-0.084,0.176-0.153,0.249
																	c-2.299,2.64-3.854,5.66-4.565,9.092c-0.631,3.029-0.463,5.997,0.856,8.836c1.169,2.518,3.081,4.334,5.447,5.716
																	c2.282,1.323,4.754,2.13,7.312,2.677c1.883,0.402,3.782,0.645,5.699,0.807c2.467,0.203,4.936,0.217,7.405,0.133
																	c1.524-0.051,3.054-0.145,4.573-0.283c3.308-0.303,6.562-0.877,9.792-1.656c3.926-0.943,7.774-2.134,11.476-3.762
																	c1.544-0.682,3.03-1.49,4.537-2.245c0.073-0.038,0.142-0.076,0.247-0.138c0.01,0.125,0.016,0.215,0.016,0.312
																	c0,1.598-0.006,3.202,0.012,4.801c0,0.278-0.098,0.411-0.328,0.535c-3.022,1.592-6.197,2.818-9.452,3.838
																	c-3.204,0.993-6.464,1.793-9.773,2.352c-1.825,0.309-3.678,0.543-5.522,0.75c-3.023,0.354-6.059,0.445-9.098,0.346
																	c-1.736-0.057-3.474-0.221-5.199-0.4c-2.658-0.285-5.268-0.856-7.795-1.711c-2.637-0.894-5.121-2.091-7.312-3.824
																	c-3.096-2.438-5.089-5.545-5.768-9.466c-0.295-1.704-0.394-3.416-0.213-5.133c0.354-3.365,1.642-6.359,3.604-9.085
																	c1.161-1.611,2.507-3.051,3.986-4.371C321.286,230.578,321.34,230.533,321.465,230.435z"/>
																<path fill="#FFFFFF" d="M375.564,248.71c0-0.321,0-0.582,0-0.842c0-0.9,0.012-1.807-0.006-2.706
																	c-0.007-0.3,0.088-0.469,0.346-0.63c2.226-1.396,4.037-3.206,5.322-5.512c1.065-1.912,1.654-3.963,1.562-6.159
																	c-0.139-3.327-1.495-6.107-3.963-8.343c-2.051-1.846-4.471-3.003-7.069-3.831c-2.01-0.64-4.067-1.046-6.159-1.295
																	c-2.274-0.272-4.557-0.409-6.847-0.316c-2.099,0.095-4.2,0.22-6.288,0.477c-5.169,0.619-10.188,1.845-15.084,3.602
																	c-2.609,0.938-5.16,2.013-7.637,3.271c-0.082,0.045-0.179,0.08-0.3,0.133c0-0.423-0.02-0.805,0.016-1.19
																	c0.006-0.105,0.133-0.235,0.234-0.298c1.953-1.18,3.976-2.218,6.057-3.14c4.287-1.896,8.737-3.28,13.339-4.168
																	c1.792-0.343,3.604-0.585,5.417-0.816c2.372-0.303,4.767-0.423,7.15-0.35c1.709,0.052,3.415,0.171,5.114,0.352
																	c3.09,0.32,6.088,1.022,8.977,2.191c2.436,0.983,4.673,2.285,6.559,4.133c2.201,2.146,3.564,4.746,4.004,7.791
																	c0.561,3.966-0.287,7.625-2.502,10.954c-1.904,2.869-4.425,5.039-7.59,6.429
																	C376.02,248.534,375.812,248.609,375.564,248.71z"/>
																<path fill="#FFFFFF" d="M364.273,244.47c0.75,0.717,1.49,1.431,2.256,2.158c-0.567,0.584-1.174,1.065-1.856,1.452
																	c-1.467,0.822-3.069,0.971-4.706,0.853c-1.102-0.071-2.146-0.374-3.101-0.953c-1.556-0.945-2.433-2.368-2.815-4.107
																	c-0.453-2.063-0.441-4.108,0.373-6.077c0.979-2.367,2.778-3.692,5.314-4.015c1.41-0.18,2.768-0.019,4.017,0.707
																	c1.521,0.892,2.384,2.269,2.862,3.919c0.367,1.263,0.378,2.556,0.367,3.849c0,0.164-0.065,0.224-0.215,0.218
																	c-0.094-0.003-0.181,0-0.274,0c-2.866,0-5.731,0-8.604,0c-0.428,0-0.428,0.003-0.395,0.437
																	c0.124,1.648,1.271,2.791,2.9,2.926c1.463,0.116,2.746-0.24,3.781-1.32
																	C364.198,244.501,364.218,244.497,364.273,244.47z M360.372,239.977c0,0.007,0,0.007,0,0.007
																	c0.844,0,1.688,0,2.522,0c0.381,0,0.399-0.007,0.348-0.393c-0.049-0.348-0.116-0.701-0.229-1.028
																	c-0.281-0.836-0.812-1.468-1.69-1.677c-1.755-0.43-3.673,0.455-3.835,2.768c-0.02,0.259,0.047,0.335,0.306,0.33
																	C358.652,239.97,359.51,239.977,360.372,239.977z"/>
																<path fill="#FFFFFF" d="M331.338,233.984c0.106-0.003,0.187-0.015,0.264-0.015c2.544,0,5.087-0.01,7.629,0.004
																	c2.441,0.014,4.139,1.684,4.16,4.129c0.028,3.456,0.005,6.907,0.005,10.364c0,0.07-0.011,0.136-0.017,0.23
																	c-1.212,0-2.409,0-3.661,0c0-0.131,0-0.258,0-0.383c0-3.234,0-6.468-0.003-9.703c0-0.202-0.012-0.402-0.054-0.601
																	c-0.112-0.578-0.472-0.986-1.048-1.015c-1.167-0.051-2.326-0.024-3.494-0.038c-0.032,0-0.059,0.024-0.107,0.044
																	c0,3.882,0,7.771,0,11.685c-1.233,0-2.439,0-3.674,0C331.338,243.796,331.338,238.908,331.338,233.984z"/>
																<path fill="#FFFFFF" d="M352.783,233.967c0,0.214,0,0.393,0,0.566c0,0.694-0.012,1.38,0.006,2.073
																	c0.005,0.269-0.096,0.345-0.354,0.339c-0.722-0.014-1.438,0.002-2.158-0.008c-0.252-0.006-0.326,0.084-0.326,0.335
																	c0.016,2.334,0.005,4.682,0.008,7.019c0,0.887,0.467,1.341,1.356,1.344c0.406,0.005,0.812,0.009,1.218,0
																	c0.185-0.008,0.249,0.062,0.249,0.246c-0.008,0.857,0.006,1.721-0.008,2.585c0,0.08-0.116,0.231-0.176,0.231
																	c-1.074-0.024-2.174,0.028-3.233-0.131c-1.598-0.246-2.781-1.567-3.022-3.169c-0.055-0.366-0.082-0.742-0.082-1.117
																	c-0.007-4.636-0.003-9.276,0-13.913c0-0.438,0-0.438,0.428-0.438c0.972,0,1.944,0.008,2.912-0.006
																	c0.267,0,0.372,0.061,0.366,0.353c-0.02,1.125,0,2.247-0.016,3.372c-0.001,0.259,0.08,0.325,0.329,0.325
																	C351.09,233.96,351.898,233.967,352.783,233.967z"/>
																<path fill="#FFFFFF" d="M372.926,248.534c-1.839-0.068-3.412-1.133-3.662-3.103
																	c-0.041-0.321-0.057-0.646-0.057-0.966c0-5.431,0-10.855,0-16.285c0-0.101,0-0.201,0-0.328c1.245,0,2.473,0,3.719,0
																	C372.926,234.743,372.926,241.626,372.926,248.534z"/>
																<path fill="#FFFFFF" d="M327.931,248.867c-1.774-0.125-3.239-0.995-3.624-2.806
																	c-0.089-0.41-0.118-0.843-0.118-1.265c-0.007-2.915-0.003-5.832-0.003-8.746c0-0.68,0-1.358,0-2.06
																	c1.269,0,2.499,0,3.745,0C327.931,238.958,327.931,243.91,327.931,248.867z"/>
																<path fill="#FFFFFF" d="M324.224,228.317c0.703,0,1.379,0,2.057,0c0.452,0,0.909,0.008,1.361-0.005
																	c0.192-0.008,0.276,0.037,0.276,0.245c-0.007,1.021,0,2.046-0.011,3.064c0,0.085-0.115,0.236-0.172,0.236
																	c-1.16,0.014-2.323,0.01-3.512,0.01C324.224,230.685,324.224,229.527,324.224,228.317z"/>
															</g>
														</g>
													</g>
												</g>
											</g>
										</g>
									</g>
								</g>
							</g>
						</g>
					</g>
				</g>
			</g>
		</g>
	</g>
</g>
</svg>
