<?xml version="1.0" encoding="utf-8"?>
<!-- Generator: Adobe Illustrator 16.0.4, SVG Export Plug-In . SVG Version: 6.00 Build 0)  -->
<!DOCTYPE svg PUBLIC "-//W3C//DTD SVG 1.1//EN" "http://www.w3.org/Graphics/SVG/1.1/DTD/svg11.dtd">
<svg version="1.1" id="Layer_1" xmlns="http://www.w3.org/2000/svg" xmlns:xlink="http://www.w3.org/1999/xlink" x="0px" y="0px"
	 width="1050px" height="750px" viewBox="0 0 1050 750" enable-background="new 0 0 1050 750" xml:space="preserve">
<g>
	<g>
		<g>
			<g transform="matrix(1 0 0 1 -1.220703e-04 6.103516e-05)">
				<path fill="none" enable-background="new    " d="z"/>
			</g>
		</g>
		<g>
			<g transform="matrix(1 0 0 1 0 6.103516e-05)">
				<path fill="none" enable-background="new    " d="z"/>
			</g>
		</g>
	</g>
	<g>
		<g>
			<g transform="matrix(1 0 0 1 0 6.103516e-05)">
				<path fill="none" enable-background="new    " d="z"/>
			</g>
		</g>
		<g>
			<g transform="matrix(1 0 0 1 0 6.103516e-05)">
				<path fill="none" enable-background="new    " d="z"/>
			</g>
		</g>
	</g>
	<g>
		<g>
			<g>
				<g>
					<g>
						<g>
							<g>
								<g>
									<g>
										<g>
											<g>
												<g id="tablet_x5F_1">
													<g>
														<g>
															<g transform="matrix(1 0 0 1 0 1.220703e-04)">
																<path fill="none" enable-background="new    " d="z"/>
															</g>
														</g>
													</g>
												</g>
												<g id="FRAME">
												</g>
												<g id="processor">
													<g>
														<rect x="412.645" y="275.51" fill="#FDC922" width="250.058" height="198.982"/>
														<g>
															<g>
																<g>
																	<path fill="#FDC922" d="M653.324,393.135c1.935,0,1.935-3,0-3C651.389,390.135,651.39,393.135,653.324,393.135
																		L653.324,393.135z"/>
																</g>
															</g>
														</g>
														<path fill="none" stroke="#1583DC" stroke-width="2" stroke-linecap="round" stroke-miterlimit="10" d="
															M443.494,475.85c8.37-75.901,74.671-129.912,138.431-130.502c50.485-0.463,83.225,11.584,81.802-60.242"/>
														<path fill="none" stroke="#45C1F2" stroke-width="4" stroke-miterlimit="10" d="M664.39,470.576
															c-22.905,4.16-132.854-73.394-157.543-93.484c-36.292-29.533-41.802-49.473-100.686-62.399"/>
														<path fill="none" stroke="#1583DC" stroke-width="2" stroke-linecap="round" stroke-miterlimit="10" d="
															M668.88,373.594c-4.946,23.232-46.7,13.795-75.422,20.388c-49.563,11.383-26.85,20.35-18.519,46.364
															c3.554,11.101,6.654,22.156,4.853,33.539"/>
														<path fill="none" stroke="#1583DC" stroke-width="2" stroke-linecap="round" stroke-miterlimit="10" d="
															M496.471,273.186c6.868,21.459-3.869,44.102,11.048,63.768c16.06,21.172,58.855,19.25,68.779,46.494
															c14.431,39.619-34.86,45.819-56.244,45.879c-19.018,0.053-31.123-8.656-48.03-12.15
															c-4.497-0.93-5.771-6.065-10.704-5.276c-12.432,1.987-9.288,8.86-18.714,16.723
															c-12.539,10.451-17.112,13.508-32.994,2.801"/>
														<path fill="none" stroke="#1583DC" stroke-width="2" stroke-linecap="round" stroke-miterlimit="10" d="
															M586.742,275.271c-4.43,45.662,27.66,63.92,45.463,97.447c6.216,11.709,7.029,18.506,10.979,32.597
															c4.734,16.889,13.818,33.219,24.184,44.971"/>
														<g>
															<path fill="#0A609B" d="M564.23,320.592c0,9.826-19.759,45.133-19.759,45.133s-19.759-35.307-19.759-45.133
																c0-9.828,8.847-17.793,19.759-17.793C555.385,302.799,564.23,310.764,564.23,320.592z"/>
															<path fill="#FDC922" d="M555.816,319.609c0,5.641-5.079,10.215-11.345,10.215s-11.344-4.574-11.344-10.215
																c0-5.64,5.078-10.213,11.344-10.213S555.816,313.971,555.816,319.609z"/>
														</g>
														<g>
															<g>
																<g>
																	<path fill="#FFFFFF" d="M372.525,264.375c-1.559,0-2.834,1.275-2.834,2.835v215.58c0,1.56,1.275,2.835,2.834,2.835
																		h304.949c1.56,0,2.834-1.275,2.834-2.835V267.21c0-1.56-1.274-2.835-2.834-2.835H372.525z M662.702,471.657
																		c0,1.56-1.275,2.835-2.834,2.835h-244.39c-1.559,0-2.834-1.275-2.834-2.835V278.345
																		c0-1.56,1.275-2.835,2.834-2.835h244.389c1.559,0,2.834,1.275,2.834,2.835L662.702,471.657L662.702,471.657z"/>
																</g>
															</g>
															<path fill="#CDDAE6" d="M389.523,382.461c-4.574,0-8.265-3.697-8.265-8.256c0-4.564,3.691-8.264,8.265-8.264
																c4.559,0,8.255,3.698,8.255,8.264C397.778,378.764,394.082,382.461,389.523,382.461z"/>
														</g>
													</g>
												</g>
											</g>
										</g>
									</g>
								</g>
							</g>
						</g>
					</g>
				</g>
			</g>
		</g>
	</g>
</g>
</svg>
