<?xml version="1.0" encoding="utf-8"?>
<!-- Generator: Adobe Illustrator 16.0.4, SVG Export Plug-In . SVG Version: 6.00 Build 0)  -->
<!DOCTYPE svg PUBLIC "-//W3C//DTD SVG 1.1//EN" "http://www.w3.org/Graphics/SVG/1.1/DTD/svg11.dtd">
<svg version="1.1" id="Calque_1" xmlns="http://www.w3.org/2000/svg" xmlns:xlink="http://www.w3.org/1999/xlink" x="0px" y="0px"
	 width="127px" height="103px" viewBox="0 0 127 103" enable-background="new 0 0 127 103" xml:space="preserve">
<g>
	<g>
		<g>
			<g>
				<g>
					<path fill="#FFFFFF" d="M9.273,92.145c-1.56,0-2.835-1.274-2.835-2.834V13.69c0-1.56,1.275-2.835,2.835-2.835h108.454
						c1.56,0,2.834,1.275,2.834,2.835v75.621c0,1.56-1.274,2.834-2.834,2.834H9.273z"/>
				</g>
				<rect x="22.222" y="14.947" fill="#45C1F2" width="91.869" height="73.104"/>
				<circle fill="#CDDAE6" cx="13.724" cy="51.206" r="3.034"/>
			</g>
		</g>
	</g>
	<g>
		<g>
			<path fill="#FFFFFF" d="M96.333,23.173c0,0.796-0.646,1.44-1.438,1.44h-7.121c-0.795,0-1.439-0.645-1.439-1.44v-3.119
				c0-0.796,0.645-1.44,1.439-1.44h7.121c0.795,0,1.438,0.645,1.438,1.44V23.173z"/>
		</g>
		<g>
			<path fill="#FFFFFF" d="M80.333,23.173c0,0.796-0.646,1.44-1.438,1.44h-7.121c-0.795,0-1.439-0.645-1.439-1.44v-3.119
				c0-0.796,0.645-1.44,1.439-1.44h7.121c0.795,0,1.438,0.645,1.438,1.44V23.173z"/>
		</g>
		<g>
			<path fill="#FFFFFF" d="M66.333,23.173c0,0.796-0.646,1.44-1.438,1.44h-7.122c-0.795,0-1.439-0.645-1.439-1.44v-3.119
				c0-0.796,0.645-1.44,1.439-1.44h7.122c0.795,0,1.438,0.645,1.438,1.44V23.173z"/>
		</g>
		<g>
			<path fill="#FFFFFF" d="M50.333,23.173c0,0.796-0.645,1.44-1.439,1.44h-7.121c-0.795,0-1.439-0.645-1.439-1.44v-3.119
				c0-0.796,0.645-1.44,1.439-1.44h7.121c0.795,0,1.439,0.645,1.439,1.44V23.173z"/>
		</g>
		<g>
			<path fill="#FFFFFF" d="M35.333,23.173c0,0.796-0.645,1.44-1.439,1.44h-7.121c-0.795,0-1.439-0.645-1.439-1.44v-3.119
				c0-0.796,0.645-1.44,1.439-1.44h7.121c0.795,0,1.439,0.645,1.439,1.44V23.173z"/>
		</g>
		<g>
			<path fill="#FFFFFF" d="M111.333,23.173c0,0.796-0.646,1.44-1.438,1.44h-7.121c-0.795,0-1.439-0.645-1.439-1.44v-3.119
				c0-0.796,0.645-1.44,1.439-1.44h7.121c0.795,0,1.438,0.645,1.438,1.44V23.173z"/>
		</g>
	</g>
	<g>
		<g>
			<path fill="#FFFFFF" d="M96.333,84.173c0,0.796-0.646,1.44-1.438,1.44h-7.121c-0.795,0-1.439-0.646-1.439-1.44v-3.118
				c0-0.797,0.645-1.44,1.439-1.44h7.121c0.795,0,1.438,0.645,1.438,1.44V84.173z"/>
		</g>
		<g>
			<path fill="#FFFFFF" d="M80.333,84.173c0,0.796-0.646,1.44-1.438,1.44h-7.121c-0.795,0-1.439-0.646-1.439-1.44v-3.118
				c0-0.797,0.645-1.44,1.439-1.44h7.121c0.795,0,1.438,0.645,1.438,1.44V84.173z"/>
		</g>
		<g>
			<path fill="#FFFFFF" d="M66.333,84.173c0,0.796-0.646,1.44-1.438,1.44h-7.122c-0.795,0-1.439-0.646-1.439-1.44v-3.118
				c0-0.797,0.645-1.44,1.439-1.44h7.122c0.795,0,1.438,0.645,1.438,1.44V84.173z"/>
		</g>
		<g>
			<path fill="#FFFFFF" d="M50.333,84.173c0,0.796-0.645,1.44-1.439,1.44h-7.121c-0.795,0-1.439-0.646-1.439-1.44v-3.118
				c0-0.797,0.645-1.44,1.439-1.44h7.121c0.795,0,1.439,0.645,1.439,1.44V84.173z"/>
		</g>
		<g>
			<path fill="#FFFFFF" d="M35.333,84.173c0,0.796-0.645,1.44-1.439,1.44h-7.121c-0.795,0-1.439-0.646-1.439-1.44v-3.118
				c0-0.797,0.645-1.44,1.439-1.44h7.121c0.795,0,1.439,0.645,1.439,1.44V84.173z"/>
		</g>
		<g>
			<path fill="#FFFFFF" d="M111.333,84.173c0,0.796-0.646,1.44-1.438,1.44h-7.121c-0.795,0-1.439-0.646-1.439-1.44v-3.118
				c0-0.797,0.645-1.44,1.439-1.44h7.121c0.795,0,1.438,0.645,1.438,1.44V84.173z"/>
		</g>
	</g>
	<g>
		<path fill="#FDC922" d="M107.333,66.613c0,4.971-4.028,9-9,9h-60c-4.971,0-9-4.029-9-9v-28c0-4.971,4.029-9,9-9h60
			c4.972,0,9,4.029,9,9V66.613z"/>
	</g>
	<g>
		<g>
			<path fill="#FFFFFF" d="M77.885,48.37c1.799,0.827,1.846,2.274,0.104,3.215l-15.592,8.474c-1.742,0.94-3.062,0.09-3.062-1.89
				V43.332c0-1.979,1.366-2.922,3.165-2.095L77.885,48.37z"/>
		</g>
	</g>
</g>
</svg>
