<?xml version="1.0" encoding="utf-8"?>
<!-- Generator: Adobe Illustrator 16.0.4, SVG Export Plug-In . SVG Version: 6.00 Build 0)  -->
<!DOCTYPE svg PUBLIC "-//W3C//DTD SVG 1.1//EN" "http://www.w3.org/Graphics/SVG/1.1/DTD/svg11.dtd">
<svg version="1.1" id="Calque_1" xmlns="http://www.w3.org/2000/svg" xmlns:xlink="http://www.w3.org/1999/xlink" x="0px" y="0px"
	 width="127px" height="103px" viewBox="0 0 127 103" enable-background="new 0 0 127 103" xml:space="preserve">
<g>
	<g>
		<g>
			<g>
				<path fill="#FFFFFF" d="M9.273,92.145c-1.56,0-2.835-1.274-2.835-2.834V13.69c0-1.56,1.275-2.835,2.835-2.835h108.454
					c1.56,0,2.834,1.275,2.834,2.835v75.621c0,1.56-1.274,2.834-2.834,2.834H9.273z"/>
			</g>
			<rect x="22.221" y="14.949" fill="#1583DC" width="91.872" height="73.104"/>
			<path fill="#CDDAE6" d="M13.727,54.242c-1.681,0-3.037-1.358-3.037-3.035s1.356-3.035,3.037-3.035
				c1.675,0,3.034,1.358,3.034,3.035S15.401,54.242,13.727,54.242z"/>
		</g>
	</g>
	<g>
		<path fill="#FFFFFF" d="M45.001,24.058L31.253,27.01v10.089l13.787,2.796l2.875-1.065V25.197L45.001,24.058z M41.602,31.695
			h-3.994V28.62l3.994-0.573V31.695z M37.24,28.674v3.021h-3.153v-2.569L37.24,28.674z M34.087,31.973h3.153v3.023l-3.153-0.408
			V31.973z M37.607,35.043v-3.07h3.994v3.585L37.607,35.043z"/>
		<g>
			<path fill="#FFFFFF" d="M37.882,24.927l0.623-0.112L38.5,23.642c-0.005-0.047-0.08-0.947,0.985-1.379v-0.347
				c0-0.088-0.014-0.195-0.037-0.303c-1.693,0.554-1.569,2.061-1.566,2.061V24.927z"/>
			<path fill="#FFFFFF" d="M40.726,22.037c0.462-0.007,0.803,0.09,1,0.276c0.211,0.2,0.193,0.459,0.188,0.498v1.383l0.622-0.113
				l-0.002-1.231c0.021-0.206-0.03-0.642-0.367-0.973c-0.324-0.318-0.827-0.472-1.49-0.456c0.033,0.177,0.049,0.346,0.049,0.495
				V22.037z"/>
			<g>
				<path fill="#FFFFFF" d="M35.676,25.327v-3.029c0-0.061,0.024-1.45,2.095-1.676c0.754-0.082,1.309,0.028,1.643,0.332
					c0.316,0.283,0.385,0.681,0.385,0.962v2.666l0.617-0.116v-2.55c0-0.408-0.103-0.987-0.584-1.419
					c-0.478-0.433-1.193-0.593-2.129-0.492c-2.618,0.287-2.646,2.271-2.646,2.293v3.145L35.676,25.327z"/>
			</g>
		</g>
	</g>
	<g>
		<rect x="27.333" y="50.613" fill="#FDC922" width="10" height="8"/>
		<rect x="27.333" y="62.613" fill="#45C1F2" width="10" height="8"/>
		<rect x="27.333" y="74.613" fill="#FDC922" width="10" height="7"/>
	</g>
	<g>
		<rect x="97.333" y="50.613" fill="#45C1F2" width="10" height="8"/>
		<rect x="97.333" y="62.613" fill="#FDC922" width="10" height="8"/>
		<rect x="97.333" y="74.613" fill="#FFFFFF" width="10" height="7"/>
	</g>
	<g>
		<rect x="41.333" y="50.613" fill="#FDC922" width="10" height="8"/>
		<rect x="41.333" y="62.613" fill="#45C1F2" width="10" height="8"/>
		<rect x="41.333" y="74.613" fill="#FFFFFF" width="10" height="7"/>
	</g>
	<g>
		<path fill="#FFFFFF" d="M60.188,35.366l-1.04-2.66h-3.353l-1.029,2.66h-0.983l3.306-8.396h0.818l3.289,8.396H60.188z
			 M58.844,31.831l-0.972-2.59c-0.126-0.328-0.256-0.73-0.39-1.208c-0.084,0.366-0.204,0.77-0.359,1.208l-0.983,2.59H58.844z"/>
		<path fill="#FFFFFF" d="M65.118,35.48c-0.408,0-0.78-0.075-1.119-0.226c-0.337-0.151-0.619-0.383-0.849-0.694h-0.067
			c0.044,0.365,0.067,0.711,0.067,1.04v2.58h-0.949v-9.083h0.772l0.131,0.858h0.046c0.245-0.344,0.528-0.592,0.852-0.744
			c0.324-0.152,0.696-0.228,1.116-0.228c0.83,0,1.473,0.283,1.925,0.852c0.451,0.567,0.678,1.365,0.678,2.39
			c0,1.03-0.229,1.831-0.688,2.399C66.57,35.195,65.936,35.48,65.118,35.48z M64.98,29.788c-0.642,0-1.104,0.18-1.392,0.534
			c-0.285,0.354-0.432,0.918-0.439,1.692v0.211c0,0.881,0.147,1.511,0.439,1.892c0.294,0.378,0.767,0.568,1.413,0.568
			c0.542,0,0.966-0.219,1.271-0.656c0.309-0.439,0.463-1.044,0.463-1.815c0-0.781-0.154-1.38-0.463-1.797
			C65.969,29.998,65.537,29.788,64.98,29.788z"/>
		<path fill="#FFFFFF" d="M72.296,35.48c-0.407,0-0.782-0.075-1.118-0.226c-0.337-0.151-0.621-0.383-0.851-0.694H70.26
			c0.045,0.365,0.067,0.711,0.067,1.04v2.58h-0.949v-9.083h0.772l0.132,0.858h0.045c0.245-0.344,0.528-0.592,0.853-0.744
			s0.696-0.228,1.116-0.228c0.831,0,1.474,0.283,1.925,0.852c0.451,0.567,0.678,1.365,0.678,2.39c0,1.03-0.23,1.831-0.688,2.399
			C73.749,35.195,73.111,35.48,72.296,35.48z M72.158,29.788c-0.643,0-1.104,0.18-1.393,0.534c-0.283,0.354-0.43,0.918-0.438,1.692
			v0.211c0,0.881,0.147,1.511,0.438,1.892c0.295,0.378,0.767,0.568,1.414,0.568c0.543,0,0.967-0.219,1.272-0.656
			c0.308-0.439,0.461-1.044,0.461-1.815c0-0.781-0.153-1.38-0.461-1.797C73.146,29.998,72.714,29.788,72.158,29.788z"/>
		<path fill="#FFFFFF" d="M84.46,33.141c0,0.736-0.267,1.312-0.801,1.722c-0.534,0.414-1.259,0.618-2.175,0.618
			c-0.989,0-1.754-0.127-2.287-0.383V34.16c0.345,0.146,0.718,0.261,1.121,0.344c0.404,0.082,0.805,0.125,1.201,0.125
			c0.647,0,1.137-0.123,1.465-0.367c0.326-0.247,0.49-0.59,0.49-1.027c0-0.29-0.057-0.527-0.175-0.712
			c-0.114-0.185-0.312-0.355-0.582-0.512c-0.272-0.157-0.688-0.334-1.243-0.533c-0.777-0.278-1.334-0.607-1.668-0.988
			c-0.334-0.381-0.502-0.88-0.502-1.493c0-0.645,0.243-1.156,0.729-1.539c0.483-0.379,1.123-0.572,1.922-0.572
			c0.83,0,1.596,0.154,2.292,0.459l-0.303,0.847c-0.69-0.292-1.361-0.436-2.014-0.436c-0.516,0-0.916,0.11-1.207,0.331
			c-0.289,0.223-0.435,0.528-0.435,0.921c0,0.291,0.054,0.527,0.16,0.714c0.104,0.184,0.286,0.354,0.541,0.508
			c0.252,0.154,0.641,0.326,1.163,0.513c0.877,0.312,1.479,0.647,1.81,1.007C84.296,32.105,84.46,32.569,84.46,33.141z"/>
		<path fill="#FFFFFF" d="M88.051,34.698c0.168,0,0.331-0.014,0.486-0.039c0.156-0.023,0.281-0.049,0.372-0.076v0.727
			c-0.103,0.049-0.255,0.09-0.455,0.123c-0.199,0.032-0.38,0.048-0.541,0.048c-1.212,0-1.817-0.638-1.817-1.917v-3.728h-0.897
			v-0.457l0.897-0.395l0.401-1.338h0.547v1.451h1.819v0.738h-1.819v3.688c0,0.379,0.09,0.668,0.271,0.87
			C87.492,34.596,87.738,34.698,88.051,34.698z"/>
		<path fill="#FFFFFF" d="M95.572,32.226c0,1.022-0.258,1.82-0.772,2.395c-0.514,0.573-1.225,0.86-2.132,0.86
			c-0.562,0-1.059-0.131-1.495-0.395c-0.433-0.263-0.771-0.64-1.006-1.133c-0.235-0.491-0.354-1.066-0.354-1.728
			c0-1.021,0.256-1.817,0.767-2.387c0.512-0.57,1.22-0.854,2.127-0.854c0.877,0,1.573,0.29,2.09,0.875
			C95.312,30.441,95.572,31.231,95.572,32.226z M90.798,32.226c0,0.802,0.16,1.412,0.479,1.831c0.32,0.419,0.793,0.629,1.414,0.629
			s1.092-0.208,1.414-0.627c0.324-0.418,0.483-1.027,0.483-1.833c0-0.796-0.159-1.401-0.483-1.814
			c-0.322-0.415-0.797-0.623-1.426-0.623c-0.621,0-1.094,0.206-1.406,0.613C90.955,30.81,90.798,31.419,90.798,32.226z"/>
		<path fill="#FFFFFF" d="M100.098,28.984c0.276,0,0.526,0.021,0.748,0.068l-0.133,0.88c-0.259-0.058-0.486-0.085-0.686-0.085
			c-0.508,0-0.941,0.204-1.301,0.617c-0.36,0.412-0.541,0.925-0.541,1.539v3.362h-0.949v-6.269h0.783l0.108,1.161h0.045
			c0.231-0.408,0.515-0.722,0.841-0.944C99.343,29.094,99.704,28.984,100.098,28.984z"/>
		<path fill="#FFFFFF" d="M104.665,35.48c-0.927,0-1.656-0.283-2.192-0.846c-0.537-0.565-0.804-1.348-0.804-2.352
			c0-1.011,0.249-1.812,0.746-2.408c0.498-0.594,1.165-0.891,2.004-0.891c0.786,0,1.408,0.258,1.864,0.774
			c0.458,0.516,0.688,1.198,0.688,2.044v0.602h-4.318c0.021,0.734,0.207,1.293,0.559,1.676c0.352,0.38,0.85,0.571,1.49,0.571
			c0.675,0,1.343-0.141,2.002-0.423v0.847c-0.337,0.145-0.654,0.248-0.954,0.311C105.45,35.449,105.088,35.48,104.665,35.48z
			 M104.407,29.779c-0.503,0-0.903,0.164-1.203,0.492c-0.3,0.327-0.476,0.78-0.529,1.36h3.277c0-0.599-0.134-1.057-0.401-1.375
			C105.285,29.938,104.902,29.779,104.407,29.779z"/>
	</g>
	<g>
		<rect x="56.333" y="50.613" fill="#FFFFFF" width="9" height="8"/>
		<rect x="56.333" y="62.613" fill="#FFFFFF" width="9" height="8"/>
		<rect x="56.333" y="74.613" fill="#45C1F2" width="9" height="7"/>
	</g>
	<g>
		<rect x="68.333" y="50.613" fill="#FDC922" width="11" height="8"/>
		<rect x="68.333" y="62.613" fill="#45C1F2" width="11" height="8"/>
		<rect x="68.333" y="74.613" fill="#FDC922" width="11" height="7"/>
	</g>
	<g>
		<rect x="83.333" y="50.613" fill="#FDC922" width="9" height="8"/>
		<rect x="83.333" y="62.613" fill="#45C1F2" width="9" height="8"/>
		<rect x="83.333" y="74.613" fill="#FFFFFF" width="9" height="7"/>
	</g>
</g>
</svg>
