<?xml version="1.0" encoding="utf-8"?>
<!-- Generator: Adobe Illustrator 16.0.4, SVG Export Plug-In . SVG Version: 6.00 Build 0)  -->
<!DOCTYPE svg PUBLIC "-//W3C//DTD SVG 1.1//EN" "http://www.w3.org/Graphics/SVG/1.1/DTD/svg11.dtd">
<svg version="1.1" id="Calque_1" xmlns="http://www.w3.org/2000/svg" xmlns:xlink="http://www.w3.org/1999/xlink" x="0px" y="0px"
	 width="127px" height="103px" viewBox="0 0 127 103" enable-background="new 0 0 127 103" xml:space="preserve">
<g>
	<g>
		<g>
			<g>
				<path fill="#FFFFFF" d="M9.273,92.145c-1.56,0-2.835-1.274-2.835-2.834V13.69c0-1.56,1.275-2.835,2.835-2.835h108.454
					c1.56,0,2.834,1.275,2.834,2.835v75.621c0,1.56-1.274,2.834-2.834,2.834H9.273z"/>
			</g>
			<rect x="22.222" y="14.947" fill="#45C1F2" width="91.869" height="73.104"/>
			<rect x="22.222" y="14.947" fill="#1583DC" width="91.871" height="73.104"/>
			<path fill="#CDDAE6" d="M13.726,54.24c-1.682,0-3.035-1.357-3.035-3.033c0-1.678,1.354-3.035,3.035-3.035
				c1.676,0,3.033,1.357,3.033,3.035C16.759,52.883,15.401,54.24,13.726,54.24z"/>
		</g>
	</g>
	<g>
		<rect x="73.857" y="42.576" fill="#45C1F2" width="33.677" height="8.434"/>
		<rect x="73.857" y="53.76" fill="#45C1F2" width="33.677" height="8.436"/>
		<path fill="#1583DC" d="M76.169,59.906c-0.465,0.225-0.844-0.012-0.844-0.529v-2.631c0-0.514,0.381-0.754,0.846-0.533l3.019,1.428
			c0.465,0.221,0.467,0.584,0.002,0.81L76.169,59.906z"/>
		<path fill="#1583DC" d="M76.415,48.418c-0.467,0.225-0.847-0.016-0.847-0.531v-2.629c0-0.516,0.382-0.756,0.847-0.537l3.019,1.43
			c0.465,0.221,0.467,0.586,0.002,0.809L76.415,48.418z"/>
		<rect x="73.857" y="64.578" fill="#45C1F2" width="33.677" height="8.434"/>
		<path fill="#1583DC" d="M76.169,70.727c-0.465,0.224-0.844-0.016-0.844-0.531v-2.629c0-0.514,0.381-0.756,0.846-0.534l3.019,1.428
			c0.465,0.222,0.467,0.584,0.002,0.81L76.169,70.727z"/>
		<rect x="73.857" y="75.58" fill="#45C1F2" width="33.677" height="8.434"/>
		<path fill="#1583DC" d="M76.169,81.729c-0.465,0.224-0.844-0.016-0.844-0.53v-2.63c0-0.516,0.381-0.758,0.846-0.536l3.019,1.43
			c0.465,0.222,0.467,0.586,0.002,0.81L76.169,81.729z"/>
	</g>
	<rect x="27.567" y="42.201" fill="#FDC922" width="42.064" height="42.064"/>
	<rect x="27.065" y="19.916" fill="#FFFFFF" width="81.126" height="17.025"/>
	<path fill="#1583DC" d="M32.644,31.508c-0.934,0.449-1.697-0.029-1.697-1.064v-5.289c0-1.035,0.766-1.521,1.701-1.078l6.064,2.875
		c0.938,0.443,0.939,1.174,0.008,1.625L32.644,31.508z"/>
	<rect x="43.333" y="26.613" fill="#1583DC" width="61" height="2"/>
	<path fill="#1583DC" d="M32.511,84.613h33.307c-1.611-7-5.531-13.579-10.549-16.422c1.482-1.914,2.4-4.289,2.4-7.166
		c0-5.871-3.809-10.52-8.506-10.52c-4.697,0-8.506,4.814-8.506,10.688c0,2.875,0.916,5.058,2.4,6.97
		C38.04,71.005,34.12,77.613,32.511,84.613z"/>
</g>
</svg>
