<?xml version="1.0" encoding="utf-8"?>
<!-- Generator: Adobe Illustrator 16.0.0, SVG Export Plug-In . SVG Version: 6.00 Build 0)  -->
<!DOCTYPE svg PUBLIC "-//W3C//DTD SVG 1.1//EN" "http://www.w3.org/Graphics/SVG/1.1/DTD/svg11.dtd">
<svg version="1.1" id="Calque_1" xmlns="http://www.w3.org/2000/svg" xmlns:xlink="http://www.w3.org/1999/xlink" x="0px" y="0px"
	 width="127px" height="103px" viewBox="0 0 127 103" enable-background="new 0 0 127 103" xml:space="preserve">
<g>
	<g>
		<g>
			<g>
				<path fill="#FFFFFF" d="M9.513,91.975c-1.56,0-2.835-1.275-2.835-2.835V13.86c0-1.56,1.275-2.835,2.835-2.835h107.975
					c1.56,0,2.835,1.275,2.835,2.835V89.14c0,1.56-1.275,2.835-2.835,2.835H9.513z"/>
			</g>
			<rect x="22.394" y="15.102" fill="#45C1F2" width="91.487" height="72.799"/>
			<path fill="#CDDAE6" d="M13.934,54.229c-1.675,0-3.024-1.352-3.024-3.02c0-1.672,1.35-3.023,3.024-3.023
				c1.669,0,3.021,1.352,3.021,3.023C16.954,52.877,15.603,54.229,13.934,54.229z"/>
		</g>
	</g>
	<g>
		<rect x="26.333" y="65.613" fill="#1583DC" width="10" height="18"/>
		<rect x="36.333" y="55.613" fill="#FDC922" width="10" height="28"/>
		<rect x="46.333" y="43.613" fill="#FFFFFF" width="7" height="40"/>
		<rect x="53.333" y="65.613" fill="#1583DC" width="10" height="18"/>
		<rect x="63.333" y="59.613" fill="#FDC922" width="9" height="24"/>
		<rect x="72.333" y="71.613" fill="#FFFFFF" width="8" height="12"/>
		<rect x="80.333" y="49.613" fill="#1583DC" width="10" height="34"/>
		<rect x="90.333" y="55.613" fill="#FDC922" width="9" height="28"/>
		<rect x="99.333" y="45.613" fill="#FFFFFF" width="8" height="38"/>
	</g>
	<rect x="26.927" y="20.459" fill="#FCFCFC" width="81.099" height="1.502"/>
	<rect x="26.927" y="26.469" fill="#FCFCFC" width="81.099" height="1.502"/>
	<rect x="26.927" y="32.477" fill="#FCFCFC" width="47.088" height="1.504"/>
</g>
</svg>
