<?xml version="1.0" encoding="utf-8"?>
<!-- Generator: Adobe Illustrator 16.0.4, SVG Export Plug-In . SVG Version: 6.00 Build 0)  -->
<!DOCTYPE svg PUBLIC "-//W3C//DTD SVG 1.1//EN" "http://www.w3.org/Graphics/SVG/1.1/DTD/svg11.dtd">
<svg version="1.1" id="Calque_1" xmlns="http://www.w3.org/2000/svg" xmlns:xlink="http://www.w3.org/1999/xlink" x="0px" y="0px"
	 width="127px" height="103px" viewBox="0 0 127 103" enable-background="new 0 0 127 103" xml:space="preserve">
<g>
	<g>
		<g>
			<g>
				<g>
					<g>
						<path fill="#FFFFFF" d="M9.274,92.145c-1.56,0-2.835-1.274-2.835-2.834V13.69c0-1.56,1.275-2.835,2.835-2.835h108.451
							c1.561,0,2.836,1.275,2.836,2.835v75.621c0,1.56-1.275,2.834-2.836,2.834H9.274z"/>
					</g>
					<rect x="22.221" y="14.947" fill="#45C1F2" width="91.871" height="73.104"/>
					<path fill="#CDDAE6" d="M13.726,54.24c-1.681,0-3.036-1.357-3.036-3.033c0-1.678,1.355-3.035,3.036-3.035
						c1.676,0,3.033,1.357,3.033,3.035C16.759,52.883,15.401,54.24,13.726,54.24z"/>
				</g>
			</g>
		</g>
		<g>
			<rect x="28.333" y="20.613" fill="#FDC922" width="15" height="11"/>
			<rect x="49.333" y="20.613" fill="#1583DC" width="18" height="11"/>
			<rect x="71.333" y="20.613" fill="#FFFFFF" width="15" height="11"/>
			<rect x="28.333" y="37.613" fill="#1583DC" width="15" height="12"/>
			<rect x="49.333" y="37.613" fill="#FDC922" width="18" height="12"/>
			<rect x="71.333" y="37.613" fill="#1583DC" width="15" height="12"/>
			<rect x="28.333" y="55.613" fill="#FFFFFF" width="15" height="12"/>
			<rect x="49.333" y="55.613" fill="#1583DC" width="18" height="12"/>
			<rect x="71.333" y="55.613" fill="#FDC922" width="15" height="12"/>
			<rect x="94.333" y="20.613" fill="#1583DC" width="14" height="11"/>
			<rect x="28.333" y="71.613" fill="#FDC922" width="15" height="13"/>
			<rect x="49.333" y="71.613" fill="#1583DC" width="18" height="13"/>
			<rect x="71.333" y="71.613" fill="#1583DC" width="15" height="13"/>
			<rect x="94.333" y="71.613" fill="#1583DC" width="14" height="13"/>
			<rect x="94.333" y="38.613" fill="#FDC922" width="14" height="12"/>
			<rect x="94.333" y="55.613" fill="#FFFFFF" width="14" height="12"/>
		</g>
	</g>
	<path fill="#45C1F2" d="M52.814,50.613h9.912c-0.479-3-1.646-4.019-3.139-4.864c0.44-0.57,0.715-1.269,0.715-2.122
		c0-1.748-1.135-3.126-2.532-3.126c-1.398,0-2.532,1.436-2.532,3.184c0,0.855,0.273,1.483,0.714,2.054
		C54.459,46.584,53.293,47.613,52.814,50.613z"/>
	<g>
		<path fill="#45C1F2" d="M94.637,84.613h8.717c-0.42-1-1.445-3.161-2.761-3.905c0.388-0.5,0.628-0.927,0.628-1.679
			c0-1.537-0.996-2.655-2.226-2.655s-2.228,1.31-2.228,2.846c0,0.753,0.239,0.956,0.629,1.456
			C96.083,81.42,95.057,83.613,94.637,84.613z"/>
		<path fill="#45C1F2" d="M100.104,85.613h8.717c-0.42-1-1.446-3.271-2.76-4.016c0.388-0.5,0.627-0.98,0.627-1.732
			c0-1.537-0.996-2.686-2.226-2.686s-2.228,1.297-2.228,2.834c0,0.752,0.24,1.059,0.629,1.561
			C101.549,82.316,100.523,84.613,100.104,85.613z"/>
	</g>
	<path fill="#45C1F2" d="M99.906,31.613h6.309c-0.307-1-1.047-1.929-1.999-2.468c0.282-0.363,0.455-0.489,0.455-1.034
		c0-1.111-0.721-1.831-1.61-1.831c-0.891,0-1.61,0.99-1.61,2.102c0,0.545,0.173,0.356,0.452,0.718
		C100.952,29.637,100.21,30.613,99.906,31.613z"/>
</g>
</svg>
