<?xml version="1.0" encoding="utf-8"?>
<!-- Generator: Adobe Illustrator 16.0.4, SVG Export Plug-In . SVG Version: 6.00 Build 0)  -->
<!DOCTYPE svg PUBLIC "-//W3C//DTD SVG 1.1//EN" "http://www.w3.org/Graphics/SVG/1.1/DTD/svg11.dtd">
<svg version="1.1" id="Layer_1" xmlns="http://www.w3.org/2000/svg" xmlns:xlink="http://www.w3.org/1999/xlink" x="0px" y="0px"
	 width="700px" height="500px" viewBox="0 0 700 500" enable-background="new 0 0 700 500" xml:space="preserve">
<g>
	<g>
		<g>
			<g>
				<path fill="none" enable-background="new    " d="z"/>
			</g>
		</g>
		<g>
			<g>
				<path fill="none" enable-background="new    " d="z"/>
			</g>
		</g>
	</g>
	<g>
		<g>
			<g transform="matrix(1 0 0 1 -6.103516e-05 0)">
				<path fill="none" enable-background="new    " d="z"/>
			</g>
		</g>
		<g>
			<g transform="matrix(1 0 0 1 -1.220703e-04 0)">
				<path fill="none" enable-background="new    " d="z"/>
			</g>
		</g>
	</g>
	<g>
		<g>
			<g>
				<g>
					<g>
						<g>
							<g>
								<g>
									<g>
										<g>
											<g>
												<g id="tablet_x5F_1">
													<g>
														<g>
															<g transform="matrix(1 0 0 1 0 6.103516e-05)">
																<path fill="none" enable-background="new    " d="z"/>
															</g>
														</g>
													</g>
												</g>
												<g id="FRAME">
												</g>
												<g id="processor">
													<g>
														<path fill="#FDC922" d="M392.825,234.156c-1.531-9.229-9.966-16.285-20.144-16.285c-3.539,0-6.867,0.854-9.768,2.355
															c-2.893-3.754-8.123-6.262-14.096-6.262c-4.413,0-8.422,1.369-11.381,3.6c-0.822-0.084-1.656-0.127-2.504-0.127
															c-8.215,0-15.404,4.012-19.35,10.006c-0.345-0.018-0.691-0.027-1.042-0.027c-9.345,0-16.77,6.604-16.77,14.752
															c0,5.854,3.727,10.91,9.727,13.293V286.5h82v-25.734c0,0.039,0.768,0.06,1.125,0.06
															c6.35,0,11.529-6.021,11.529-13.451C402.154,240.801,398.154,235.328,392.825,234.156z"/>
														
															<ellipse transform="matrix(0.9702 -0.2425 0.2425 0.9702 -49.3584 85.088)" fill="#1583DC" cx="320.981" cy="243.057" rx="4.773" ry="3.254"/>
														
															<ellipse transform="matrix(-0.9656 -0.2601 0.2601 -0.9656 628.293 536.2429)" fill="#1583DC" cx="349.625" cy="226.552" rx="4.772" ry="3.111"/>
														<ellipse fill="#1583DC" cx="377.089" cy="246.941" rx="4.556" ry="3.469"/>
													</g>
												</g>
											</g>
										</g>
									</g>
								</g>
							</g>
						</g>
					</g>
				</g>
			</g>
		</g>
	</g>
</g>
</svg>
