<?xml version="1.0" encoding="utf-8"?>
<!-- Generator: Adobe Illustrator 16.0.4, SVG Export Plug-In . SVG Version: 6.00 Build 0)  -->
<!DOCTYPE svg PUBLIC "-//W3C//DTD SVG 1.1//EN" "http://www.w3.org/Graphics/SVG/1.1/DTD/svg11.dtd">
<svg version="1.1" id="Calque_1" xmlns="http://www.w3.org/2000/svg" xmlns:xlink="http://www.w3.org/1999/xlink" x="0px" y="0px"
	 width="127px" height="103px" viewBox="0 0 127 103" enable-background="new 0 0 127 103" xml:space="preserve">
<g>
	<rect x="45.976" y="38.77" fill="#1583DC" width="35.461" height="17.201"/>
	<rect x="83.085" y="57.082" fill="#1583DC" width="35.461" height="17.201"/>
	<rect x="45.968" y="57.082" fill="#FDC922" width="35.458" height="35.578"/>
	<rect x="8.454" y="38.77" fill="#FDC922" width="35.644" height="17.201"/>
	<rect x="8.454" y="57.082" fill="#1583DC" width="17.201" height="17.201"/>
	<rect x="26.849" y="57.082" fill="#1583DC" width="17.201" height="17.201"/>
	<rect x="83.085" y="38.77" fill="#1583DC" width="17.201" height="17.201"/>
	<rect x="8.454" y="75.436" fill="#FDC922" width="17.201" height="17.2"/>
	<rect x="26.872" y="75.458" fill="#1583DC" width="17.154" height="17.153"/>
	<rect x="83.085" y="75.458" fill="#1583DC" width="17.201" height="17.202"/>
	<rect x="101.167" y="38.762" fill="#FDC922" width="17.209" height="17.208"/>
	<rect x="101.167" y="75.458" fill="#FDC922" width="17.194" height="17.196"/>
	<g>
		<g>
			<path fill="#FFFFFF" d="M39.996,66.432c0.026-0.107,0.042-0.221,0.042-0.338c0-0.777-0.631-1.408-1.409-1.408
				c-0.381,0-0.726,0.15-0.979,0.396c-0.325-0.646-0.993-1.094-1.766-1.094c-1.062,0-1.926,0.838-1.971,1.889
				c-0.002,0-0.004-0.001-0.005-0.001c-0.853,0-1.544,0.69-1.544,1.544c0,0.852,0.691,1.542,1.544,1.542h5.979
				c0.691,0,1.242-0.596,1.242-1.286C41.13,67.023,40.633,66.49,39.996,66.432z"/>
		</g>
		<g>
			<path fill="#FFFFFF" d="M32.048,67.42c0-0.931,0.686-1.703,1.578-1.839c0.181-1.091,1.124-1.909,2.258-1.909
				c0.744,0,1.426,0.354,1.853,0.945c0.225-0.137,0.478-0.217,0.741-0.238c-0.213-1.178-1.239-2.068-2.477-2.068
				c-0.918,0-1.719,0.492-2.16,1.228c-0.255-0.142-0.55-0.224-0.862-0.224c-0.99,0-1.793,0.805-1.793,1.795
				c0,0.095,0.009,0.187,0.023,0.277c-0.767,0.053-1.374,0.69-1.374,1.471c0,0.814,0.66,1.476,1.476,1.476h0.98
				C32.137,68.062,32.048,67.75,32.048,67.42z"/>
		</g>
	</g>
	<g>
		<path fill="#FFFFFF" d="M95.032,44.068c-0.818-0.861-1.962-1.299-3.398-1.299c-1.438,0-2.583,0.438-3.409,1.298
			c-1.433,1.491-1.357,3.7-1.354,3.794c0.005,0.125,0.071,0.232,0.169,0.297c-0.006,2.09,0.65,3.369,0.682,3.426
			c0.034,0.066,0.102,0.104,0.172,0.104c0.029,0,0.062-0.007,0.09-0.023c0.096-0.049,0.131-0.166,0.082-0.262
			c-0.008-0.012-0.638-1.247-0.637-3.232c0.119-0.066,0.196-0.193,0.19-0.339c-0.001-0.02-0.065-1.981,1.146-3.245
			c0.68-0.709,1.646-1.067,2.87-1.067c1.222,0,2.181,0.357,2.853,1.062c1.197,1.256,1.117,3.229,1.115,3.247
			c-0.006,0.132,0.057,0.251,0.155,0.322c0.005,1.997-0.63,3.241-0.636,3.253c-0.051,0.096-0.014,0.213,0.082,0.262
			c0.027,0.017,0.061,0.023,0.09,0.023c0.068,0,0.137-0.037,0.172-0.104c0.03-0.057,0.682-1.327,0.682-3.406
			c0.114-0.058,0.196-0.174,0.203-0.312C96.354,47.773,96.449,45.56,95.032,44.068z"/>
		<path fill="#FFFFFF" d="M88.945,47.95c0,0-0.891,0.225-0.819,1.634s0.626,2.551,1.416,2.397s0.409-0.95,0.323-1.425
			c-0.079-0.451-0.199-1.136-0.188-1.761C89.684,48.543,89.562,47.807,88.945,47.95z"/>
		<path fill="#FFFFFF" d="M94.309,47.95c0,0,0.89,0.225,0.818,1.634c-0.07,1.409-0.627,2.551-1.417,2.397s-0.408-0.95-0.321-1.425
			c0.078-0.451,0.197-1.136,0.187-1.761C93.568,48.543,93.689,47.807,94.309,47.95z"/>
	</g>
	<g>
		<polygon fill="#FFFFFF" points="107.286,44.865 107.286,44.74 106.154,44.74 106.154,44.865 105.991,44.865 105.991,45.135 
			107.432,45.135 107.432,44.865 		"/>
		<g>
			<path fill="#FFFFFF" d="M110.545,51.115c-1.164,0-2.109-0.947-2.109-2.111c0-1.163,0.945-2.109,2.109-2.109
				c1.163,0,2.107,0.946,2.107,2.109C112.652,50.168,111.708,51.115,110.545,51.115z M110.545,47.355
				c-0.911,0-1.65,0.739-1.65,1.648c0,0.91,0.739,1.65,1.65,1.65c0.909,0,1.648-0.74,1.648-1.65
				C112.193,48.095,111.454,47.355,110.545,47.355z"/>
		</g>
		<path fill="#FFFFFF" d="M105.416,45.424v5.487h3.484c-0.534-0.462-0.875-1.144-0.875-1.907c0-1.391,1.127-2.519,2.52-2.519
			c1.391,0,2.518,1.128,2.518,2.519c0,0.764-0.34,1.445-0.875,1.907h1.722v-5.487H105.416z M113.188,46.414
			c-0.139,0-0.25-0.113-0.25-0.253c0-0.14,0.111-0.252,0.25-0.252c0.141,0,0.252,0.112,0.252,0.252
			C113.439,46.301,113.328,46.414,113.188,46.414z"/>
	</g>
	<g>
		<circle fill="#FFFFFF" cx="64.064" cy="75.311" r="5.033"/>
		<g>
			<path fill="#FFFFFF" d="M56.936,72.839l1.502,0.611c0.084-0.255,0.187-0.499,0.304-0.736l-1.505-0.61
				c-0.202-0.086-0.438,0.015-0.52,0.217C56.634,72.525,56.733,72.757,56.936,72.839z"/>
			<path fill="#FFFFFF" d="M61.402,70.018c0.235-0.117,0.48-0.222,0.733-0.309l-0.631-1.495c-0.085-0.202-0.317-0.298-0.521-0.213
				c-0.202,0.085-0.298,0.319-0.213,0.522L61.402,70.018z"/>
			<path fill="#FFFFFF" d="M59.495,71.535c0.238-0.289,0.505-0.555,0.793-0.793l-1.833-1.834c-0.22-0.219-0.574-0.219-0.793,0
				c-0.22,0.22-0.22,0.574,0,0.793L59.495,71.535z"/>
			<path fill="#FFFFFF" d="M68.634,71.535l1.833-1.834c0.221-0.219,0.221-0.573,0-0.793c-0.22-0.219-0.574-0.219-0.793,0
				l-1.833,1.834C68.13,70.98,68.396,71.246,68.634,71.535z"/>
			<path fill="#FFFFFF" d="M69.667,73.382l1.494-0.631c0.202-0.085,0.299-0.317,0.213-0.521c-0.085-0.203-0.317-0.299-0.521-0.213
				l-1.496,0.631C69.477,72.885,69.578,73.129,69.667,73.382z"/>
			<path fill="#FFFFFF" d="M64.062,69.381c0.19,0,0.377,0.01,0.562,0.028v-2.593c0-0.312-0.251-0.562-0.562-0.562
				c-0.309,0-0.561,0.25-0.561,0.562v2.593C63.688,69.391,63.875,69.381,64.062,69.381z"/>
			<path fill="#FFFFFF" d="M58.134,75.311c0-0.188,0.011-0.375,0.029-0.562h-2.592c-0.311,0-0.562,0.251-0.562,0.562
				c0,0.312,0.251,0.562,0.562,0.562h2.592C58.145,75.688,58.134,75.5,58.134,75.311z"/>
			<path fill="#FFFFFF" d="M66.662,69.986l0.611-1.504c0.082-0.203-0.017-0.437-0.219-0.521c-0.205-0.082-0.438,0.017-0.521,0.222
				l-0.611,1.5C66.178,69.768,66.424,69.871,66.662,69.986z"/>
			<path fill="#FFFFFF" d="M68.634,79.086c-0.237,0.289-0.504,0.557-0.793,0.795l1.833,1.832c0.109,0.109,0.253,0.166,0.396,0.166
				c0.145,0,0.287-0.057,0.396-0.166c0.221-0.219,0.221-0.572,0-0.793L68.634,79.086z"/>
			<path fill="#FFFFFF" d="M66.727,80.604c-0.234,0.119-0.479,0.223-0.732,0.311l0.63,1.495c0.063,0.151,0.213,0.243,0.368,0.243
				c0.052,0,0.104-0.01,0.154-0.03c0.201-0.086,0.297-0.319,0.211-0.521L66.727,80.604z"/>
			<path fill="#FFFFFF" d="M71.191,77.783l-1.5-0.611c-0.084,0.254-0.188,0.498-0.305,0.734l1.506,0.613
				c0.049,0.02,0.101,0.029,0.149,0.029c0.156,0,0.306-0.093,0.369-0.249C71.494,78.098,71.396,77.865,71.191,77.783z"/>
			<path fill="#FFFFFF" d="M58.462,77.24l-1.494,0.63c-0.203,0.085-0.299,0.319-0.213,0.521c0.064,0.153,0.213,0.243,0.367,0.243
				c0.052,0,0.104-0.01,0.155-0.03l1.496-0.631C58.653,77.736,58.549,77.492,58.462,77.24z"/>
			<path fill="#FFFFFF" d="M72.559,74.749h-2.591c0.017,0.187,0.027,0.372,0.027,0.562c0,0.19-0.013,0.377-0.027,0.562h2.591
				c0.311,0,0.562-0.25,0.562-0.562C73.12,75,72.868,74.749,72.559,74.749z"/>
			<path fill="#FFFFFF" d="M59.495,79.086l-1.833,1.834c-0.22,0.221-0.22,0.574,0,0.793c0.109,0.109,0.253,0.166,0.396,0.166
				c0.144,0,0.289-0.057,0.397-0.166l1.833-1.832C60,79.643,59.733,79.375,59.495,79.086z"/>
			<path fill="#FFFFFF" d="M64.062,81.241c-0.188,0-0.375-0.011-0.561-0.028v2.592c0,0.312,0.252,0.562,0.561,0.562
				c0.312,0,0.562-0.25,0.562-0.562v-2.592C64.439,81.23,64.254,81.241,64.062,81.241z"/>
			<path fill="#FFFFFF" d="M61.468,80.635l-0.613,1.504c-0.081,0.204,0.017,0.438,0.221,0.521c0.049,0.021,0.1,0.028,0.149,0.028
				c0.157,0,0.307-0.094,0.369-0.248l0.611-1.502C61.951,80.854,61.705,80.752,61.468,80.635z"/>
		</g>
	</g>
	<g>
		<polygon fill="#FFFFFF" points="108.191,82.818 108.191,80.68 105.793,81.711 105.793,85.023 		"/>
		<g>
			<polygon fill="#FFFFFF" points="106.852,86.26 105.793,87.559 105.793,87.984 107.346,87.23 			"/>
			<polygon fill="#FFFFFF" points="108.191,84.105 108.191,83.627 105.793,85.939 105.793,87.009 			"/>
			<polygon fill="#FFFFFF" points="107.018,86.055 107.551,87.132 108.191,86.82 108.191,84.613 			"/>
		</g>
		<polygon fill="#FFFFFF" points="111.503,83.314 111.503,81.734 108.602,80.68 108.602,82.824 		"/>
		<g>
			<polygon fill="#FFFFFF" points="111.503,86.564 111.503,84.789 110.759,84.66 110.759,86.354 			"/>
			<polygon fill="#FFFFFF" points="111.503,84.405 111.503,84.066 108.602,83.533 108.602,83.939 			"/>
			<polygon fill="#FFFFFF" points="108.602,85.742 110.459,86.27 110.459,84.609 108.602,84.288 			"/>
			<polygon fill="#FFFFFF" points="110.459,86.627 108.602,86.117 108.602,86.881 110.459,87.587 			"/>
			<polygon fill="#FFFFFF" points="110.759,86.709 110.759,87.701 111.503,87.984 111.503,86.914 			"/>
		</g>
		<path fill="#FFFFFF" d="M114.309,81.05v-0.37l-2.41,0.936v1.455C112.252,82.913,113.109,82.426,114.309,81.05z"/>
		<g>
			<polygon fill="#FFFFFF" points="114.309,85.441 114.309,83.348 113.409,83.793 113.409,85.822 			"/>
			<path fill="#FFFFFF" d="M114.309,82.906v-0.943c-0.393,0.389-1.584,1.528-2.41,1.887v0.293L114.309,82.906z"/>
			<polygon fill="#FFFFFF" points="111.896,86.457 113.193,85.912 113.193,83.9 111.896,84.542 			"/>
			<polygon fill="#FFFFFF" points="113.193,86.32 111.896,86.854 111.896,87.854 113.193,87.316 			"/>
			<polygon fill="#FFFFFF" points="113.409,86.23 113.409,87.229 114.309,86.855 114.309,85.861 			"/>
		</g>
	</g>
	<g>
		<path fill="#FFFFFF" d="M18.098,46.727c-0.187,0.148-0.378,0.201-0.553,0.201c-0.252,0-0.467-0.109-0.581-0.203l-3.485-2.572
			v4.863h8.072v-4.797C20.521,44.957,18.48,46.425,18.098,46.727z"/>
		<path fill="#FFFFFF" d="M17.229,46.384c0.037,0.03,0.312,0.232,0.603,0.004c0.43-0.339,2.816-2.053,3.72-2.7v-0.43H13.48v0.359
			L17.229,46.384z"/>
	</g>
	<g>
		<path fill="#FFFFFF" d="M19.075,81.997l-6.279,1.349v4.607l6.297,1.277l1.313-0.486v-6.227L19.075,81.997z M17.522,85.486h-1.824
			v-1.405l1.824-0.263V85.486z M15.53,84.105v1.381h-1.439v-1.174L15.53,84.105z M14.091,85.613h1.439v1.38l-1.439-0.187V85.613z
			 M15.698,87.016v-1.401h1.824v1.637L15.698,87.016z"/>
		<g>
			<path fill="#FFFFFF" d="M15.823,82.395l0.284-0.052l-0.001-0.534c-0.003-0.021-0.037-0.435,0.449-0.631V81.02
				c0-0.041-0.006-0.09-0.018-0.139c-0.772,0.253-0.716,0.941-0.715,0.941v0.572H15.823z"/>
			<path fill="#FFFFFF" d="M17.122,81.074c0.211-0.004,0.367,0.041,0.457,0.126c0.096,0.092,0.088,0.21,0.086,0.229v0.631
				l0.284-0.053l-0.001-0.562c0.01-0.094-0.014-0.291-0.168-0.443c-0.147-0.146-0.377-0.216-0.681-0.208
				c0.016,0.08,0.022,0.158,0.022,0.228L17.122,81.074L17.122,81.074z"/>
			<g>
				<path fill="#FFFFFF" d="M14.816,82.577v-1.384c0-0.027,0.011-0.662,0.956-0.767c0.345-0.036,0.598,0.015,0.751,0.152
					c0.144,0.129,0.175,0.312,0.175,0.438v1.217l0.282-0.053V81.02c0-0.188-0.046-0.451-0.267-0.648
					c-0.218-0.196-0.545-0.271-0.973-0.225c-1.195,0.131-1.209,1.037-1.209,1.047v1.437L14.816,82.577z"/>
			</g>
		</g>
	</g>
	<g>
		<g>
			<circle fill="#1583DC" cx="113.081" cy="13.865" r="3.188"/>
			<g>
				<polygon fill="#1583DC" points="116.986,18.742 113.479,15.194 114.029,14.637 117.539,18.185 				"/>
			</g>
		</g>
	</g>
	<g>
		<path fill="#1583DC" d="M14.391,16.75c0,0.754-0.273,1.342-0.82,1.764c-0.547,0.422-1.289,0.633-2.227,0.633
			c-1.016,0-1.797-0.131-2.344-0.393v-0.961c0.352,0.148,0.734,0.266,1.148,0.352s0.824,0.129,1.23,0.129
			c0.664,0,1.164-0.126,1.5-0.378s0.504-0.603,0.504-1.052c0-0.297-0.06-0.54-0.179-0.729c-0.119-0.189-0.318-0.364-0.598-0.524
			c-0.28-0.16-0.704-0.342-1.274-0.545c-0.797-0.285-1.366-0.623-1.708-1.014c-0.342-0.391-0.513-0.9-0.513-1.529
			c0-0.66,0.248-1.186,0.744-1.576c0.496-0.39,1.152-0.586,1.969-0.586c0.852,0,1.635,0.156,2.35,0.469l-0.311,0.867
			c-0.707-0.297-1.395-0.445-2.062-0.445c-0.527,0-0.939,0.113-1.236,0.34c-0.297,0.227-0.445,0.541-0.445,0.943
			c0,0.297,0.055,0.54,0.164,0.729c0.109,0.189,0.294,0.363,0.554,0.521c0.26,0.158,0.657,0.333,1.192,0.524
			c0.898,0.32,1.517,0.664,1.854,1.031C14.22,15.687,14.391,16.164,14.391,16.75z"/>
		<path fill="#1583DC" d="M18.07,18.344c0.172,0,0.338-0.013,0.498-0.038c0.16-0.025,0.287-0.052,0.381-0.079v0.744
			c-0.105,0.051-0.261,0.093-0.466,0.126c-0.205,0.033-0.39,0.05-0.554,0.05c-1.242,0-1.863-0.654-1.863-1.963v-3.82h-0.92v-0.469
			l0.92-0.404l0.41-1.371h0.562v1.488h1.863v0.756h-1.863v3.779c0,0.387,0.092,0.684,0.275,0.891S17.75,18.344,18.07,18.344z"/>
		<path fill="#1583DC" d="M24.182,19.029l-0.193-0.914h-0.047c-0.32,0.402-0.64,0.675-0.958,0.817s-0.716,0.214-1.192,0.214
			c-0.637,0-1.136-0.164-1.497-0.492c-0.361-0.328-0.542-0.795-0.542-1.4c0-1.297,1.037-1.977,3.111-2.039l1.09-0.035v-0.398
			c0-0.504-0.108-0.876-0.325-1.116c-0.217-0.24-0.563-0.36-1.04-0.36c-0.535,0-1.141,0.164-1.816,0.492l-0.299-0.744
			c0.316-0.172,0.663-0.307,1.04-0.404s0.755-0.146,1.134-0.146c0.766,0,1.333,0.17,1.702,0.51c0.369,0.34,0.554,0.885,0.554,1.635
			v4.383h-0.722V19.029z M21.984,18.344c0.605,0,1.081-0.166,1.427-0.498c0.346-0.332,0.519-0.797,0.519-1.395v-0.58l-0.973,0.041
			c-0.773,0.027-1.331,0.147-1.673,0.36c-0.342,0.213-0.513,0.544-0.513,0.993c0,0.352,0.106,0.619,0.319,0.803
			C21.303,18.252,21.602,18.344,21.984,18.344z"/>
		<path fill="#1583DC" d="M29.836,12.49c0.285,0,0.541,0.023,0.768,0.07l-0.135,0.902c-0.266-0.059-0.5-0.088-0.703-0.088
			c-0.52,0-0.964,0.211-1.333,0.633c-0.369,0.422-0.554,0.947-0.554,1.576v3.445h-0.973v-6.422h0.803l0.111,1.189h0.047
			c0.238-0.418,0.525-0.74,0.861-0.967S29.434,12.49,29.836,12.49z"/>
		<path fill="#1583DC" d="M33.879,18.344c0.172,0,0.338-0.013,0.498-0.038s0.287-0.052,0.381-0.079v0.744
			c-0.105,0.051-0.261,0.093-0.466,0.126c-0.205,0.033-0.39,0.05-0.554,0.05c-1.242,0-1.863-0.654-1.863-1.963v-3.82h-0.92v-0.469
			l0.92-0.404l0.41-1.371h0.562v1.488h1.863v0.756h-1.863v3.779c0,0.387,0.092,0.684,0.275,0.891S33.559,18.344,33.879,18.344z"/>
	</g>
	<path fill="#FFFFFF" d="M60.527,50.268c-0.061-2.422-1.115-4.804-1.342-5.316c-0.229-0.514-0.485-0.63-0.485-0.63
		s-0.08-0.065-0.734-0.294c-0.721-0.252-1.179,0.207-1.362,0.451c-0.262,0.346-0.477,0.349-0.477,0.349h-2.355
		c0,0-0.213-0.003-0.475-0.349c-0.185-0.244-0.643-0.703-1.364-0.451c-0.653,0.229-0.733,0.294-0.733,0.294s-0.258,0.116-0.486,0.63
		c-0.227,0.513-1.28,2.895-1.342,5.316c-0.062,2.421,1.714,1.047,1.714,1.047s0.931-0.657,1.427-1.191
		c0.495-0.533,1.033-0.533,1.28-0.533c0.248,0,2.066,0,2.314,0c0.247,0,0.785,0,1.281,0.533c0.495,0.534,1.427,1.191,1.427,1.191
		S60.59,52.689,60.527,50.268z M54.949,47.096c-0.408,0-0.738-0.33-0.738-0.738c0-0.408,0.33-0.74,0.738-0.74
		c0.408,0,0.738,0.332,0.738,0.74C55.687,46.766,55.357,47.096,54.949,47.096z"/>
</g>
</svg>
