<?xml version="1.0" encoding="utf-8"?>
<!-- Generator: Adobe Illustrator 16.0.4, SVG Export Plug-In . SVG Version: 6.00 Build 0)  -->
<!DOCTYPE svg PUBLIC "-//W3C//DTD SVG 1.1//EN" "http://www.w3.org/Graphics/SVG/1.1/DTD/svg11.dtd">
<svg version="1.1" id="Layer_1" xmlns="http://www.w3.org/2000/svg" xmlns:xlink="http://www.w3.org/1999/xlink" x="0px" y="0px"
	 width="700px" height="500px" viewBox="0 0 700 500" enable-background="new 0 0 700 500" xml:space="preserve">
<g>
	<g>
		<g>
			<g>
				<path fill="none" enable-background="new    " d="z"/>
			</g>
		</g>
		<g>
			<g>
				<path fill="none" enable-background="new    " d="z"/>
			</g>
		</g>
	</g>
	<g>
		<g>
			<g transform="matrix(1 0 0 1 -6.103516e-05 0)">
				<path fill="none" enable-background="new    " d="z"/>
			</g>
		</g>
		<g>
			<g transform="matrix(1 0 0 1 -1.220703e-04 0)">
				<path fill="none" enable-background="new    " d="z"/>
			</g>
		</g>
	</g>
	<g>
		<g>
			<g>
				<g>
					<g>
						<g>
							<g>
								<g>
									<g>
										<g>
											<g>
												<g id="tablet_x5F_1">
													<g>
														<g>
															<g transform="matrix(1 0 0 1 0 6.103516e-05)">
																<path fill="none" enable-background="new    " d="z"/>
															</g>
														</g>
													</g>
												</g>
												<g id="FRAME">
												</g>
												<g id="processor">
													<g>
														<polygon fill="#FDC922" points="355.307,271.281 351.666,272.938 328.835,222.726 328.688,217.108 332.477,221.07 
																													"/>
														<g>
															
																<rect x="362.004" y="210.896" transform="matrix(-0.9955 -0.0946 0.0946 -0.9955 703.8107 510.1715)" fill="#0A609B" width="3.998" height="54.999"/>
															<polygon fill="#0A609B" points="365.416,212.93 362.43,212.646 362.391,213.061 362.261,214.42 361.197,225.588 
																362.193,225.683 363.234,214.731 365.227,214.921 															"/>
														</g>
														<g>
															
																<rect x="343.369" y="206.204" transform="matrix(0.9843 -0.1768 0.1768 0.9843 -35.8623 64.8385)" fill="#0A609B" width="5.232" height="54.997"/>
															<polygon fill="#0A609B" points="342.74,208.384 346.602,207.689 346.676,208.1 346.917,209.444 348.904,220.485 
																347.616,220.717 345.669,209.89 343.094,210.353 															"/>
														</g>
														<g>
															<polygon fill="#FFFFFF" points="369.557,235.5 330.443,235.5 334.449,293.5 365.786,293.5 															"/>
															<rect x="327.5" y="234.5" fill="#FFFFFF" width="44" height="5"/>
														</g>
													</g>
												</g>
											</g>
										</g>
									</g>
								</g>
							</g>
						</g>
					</g>
				</g>
			</g>
		</g>
	</g>
</g>
</svg>
