<?xml version="1.0" encoding="utf-8"?>
<!-- Generator: Adobe Illustrator 16.0.4, SVG Export Plug-In . SVG Version: 6.00 Build 0)  -->
<!DOCTYPE svg PUBLIC "-//W3C//DTD SVG 1.1//EN" "http://www.w3.org/Graphics/SVG/1.1/DTD/svg11.dtd">
<svg version="1.1" id="Layer_1" xmlns="http://www.w3.org/2000/svg" xmlns:xlink="http://www.w3.org/1999/xlink" x="0px" y="0px"
	 width="1050px" height="740px" viewBox="0 0 1050 740" enable-background="new 0 0 1050 740" xml:space="preserve">
<g>
	<g>
		<g>
			<g>
				<g>
					<path fill="none" enable-background="new    " d="z"/>
				</g>
			</g>
			<g>
				<g>
					<path fill="none" enable-background="new    " d="z"/>
				</g>
			</g>
		</g>
	</g>
	<g>
		<g>
			<g>
				<g transform="matrix(1 0 0 1 -6.103516e-05 0)">
					<path fill="none" enable-background="new    " d="z"/>
				</g>
			</g>
			<g>
				<g transform="matrix(1 0 0 1 -1.220703e-04 0)">
					<path fill="none" enable-background="new    " d="z"/>
				</g>
			</g>
		</g>
	</g>
	<g>
		<g>
			<g>
				<g>
					<g>
						<g>
							<g>
								<g>
									<g>
										<g>
											<g>
												<g id="Part_2">
													<g>
														
															<rect x="344" y="300" fill="#FFFFFF" stroke="#DEDFE0" stroke-width="3" stroke-miterlimit="10" width="359" height="144"/>
														<rect x="362.5" y="310.5" fill="#FDC922" width="38" height="30"/>
														<rect x="417.5" y="310.5" fill="#45C1F2" width="39" height="30"/>
														<rect x="473.5" y="310.5" fill="#1583DC" width="38" height="30"/>
														<rect x="362.5" y="357.5" fill="#45C1F2" width="38" height="30"/>
														<rect x="417.5" y="357.5" fill="#FDC922" width="39" height="30"/>
														<rect x="473.5" y="357.5" fill="#1583DC" width="38" height="30"/>
														<rect x="362.5" y="399.5" fill="#1583DC" width="38" height="30"/>
														<rect x="417.5" y="399.5" fill="#1583DC" width="39" height="30"/>
														<rect x="473.5" y="399.5" fill="#45C1F2" width="38" height="30"/>
														<rect x="526.5" y="310.5" fill="#1583DC" width="39" height="30"/>
														<rect x="582.5" y="310.5" fill="#45C1F2" width="38" height="30"/>
														<rect x="637.5" y="310.5" fill="#1583DC" width="39" height="30"/>
														<rect x="526.5" y="357.5" fill="#45C1F2" width="39" height="30"/>
														<rect x="582.5" y="357.5" fill="#FDC922" width="38" height="30"/>
														<rect x="637.5" y="357.5" fill="#1583DC" width="39" height="30"/>
														<rect x="526.5" y="399.5" fill="#1583DC" width="39" height="30"/>
														<rect x="582.5" y="399.5" fill="#45C1F2" width="38" height="30"/>
														<rect x="637.5" y="399.5" fill="#FDC922" width="39" height="30"/>
													</g>
												</g>
												<g id="Part_1">
												</g>
											</g>
										</g>
									</g>
								</g>
							</g>
						</g>
					</g>
				</g>
			</g>
		</g>
	</g>
</g>
</svg>
