<?xml version="1.0" encoding="utf-8"?>
<!-- Generator: Adobe Illustrator 16.0.4, SVG Export Plug-In . SVG Version: 6.00 Build 0)  -->
<!DOCTYPE svg PUBLIC "-//W3C//DTD SVG 1.1//EN" "http://www.w3.org/Graphics/SVG/1.1/DTD/svg11.dtd">
<svg version="1.1" id="Layer_1" xmlns="http://www.w3.org/2000/svg" xmlns:xlink="http://www.w3.org/1999/xlink" x="0px" y="0px"
	 width="432px" height="231px" viewBox="0 0 432 231" enable-background="new 0 0 432 231" xml:space="preserve">
<g>
	<g>
		<g>
			<g transform="matrix(1 0 0 1 -3.051758e-05 0)">
				<path fill="none" enable-background="new    " d="z"/>
			</g>
		</g>
		<g>
			<g>
				<path fill="none" enable-background="new    " d="z"/>
			</g>
		</g>
	</g>
	<g>
		<g>
			<g transform="matrix(1 0 0 1 -1.220703e-04 0)">
				<path fill="none" enable-background="new    " d="z"/>
			</g>
		</g>
		<g>
			<g>
				<path fill="none" enable-background="new    " d="z"/>
			</g>
		</g>
	</g>
	<g>
		<g>
			<g>
				<g>
					<g>
						<g>
							<g>
								<g>
									<g>
										<g>
											<g>
												<g id="tablet_x5F_1">
													<g>
														<g>
															<g transform="matrix(1 0 0 1 -3.051758e-05 1.220703e-04)">
																<path fill="none" enable-background="new    " d="z"/>
															</g>
														</g>
													</g>
												</g>
												<g id="FRAME">
												</g>
												<g id="processor">
													<g>
														<rect x="106" y="97" fill="#FDC922" width="220" height="38"/>
														<rect x="273" y="106" fill="#0A609B" width="4" height="29"/>
														<rect x="254" y="118" fill="#0A609B" width="4" height="17"/>
														<rect x="234" y="118" fill="#0A609B" width="4" height="17"/>
														<rect x="214" y="106" fill="#0A609B" width="4" height="29"/>
														<rect x="194" y="118" fill="#0A609B" width="4" height="17"/>
														<rect x="174" y="118" fill="#0A609B" width="4" height="17"/>
														<rect x="155" y="106" fill="#0A609B" width="4" height="29"/>
														<rect x="135" y="118" fill="#0A609B" width="4" height="17"/>
														<rect x="115" y="118" fill="#0A609B" width="4" height="17"/>
														<rect x="293" y="118" fill="#0A609B" width="4" height="17"/>
														<rect x="313" y="118" fill="#0A609B" width="4" height="17"/>
													</g>
												</g>
											</g>
										</g>
									</g>
								</g>
							</g>
						</g>
					</g>
				</g>
			</g>
		</g>
	</g>
</g>
</svg>
