<?xml version="1.0" encoding="utf-8"?>
<!-- Generator: Adobe Illustrator 16.0.4, SVG Export Plug-In . SVG Version: 6.00 Build 0)  -->
<!DOCTYPE svg PUBLIC "-//W3C//DTD SVG 1.1//EN" "http://www.w3.org/Graphics/SVG/1.1/DTD/svg11.dtd">
<svg version="1.1" id="Layer_1" xmlns="http://www.w3.org/2000/svg" xmlns:xlink="http://www.w3.org/1999/xlink" x="0px" y="0px"
	 width="700px" height="500px" viewBox="0 0 700 500" enable-background="new 0 0 700 500" xml:space="preserve">
<g>
	<g>
		<g>
			<g>
				<path fill="none" enable-background="new    " d="z"/>
			</g>
		</g>
		<g>
			<g>
				<path fill="none" enable-background="new    " d="z"/>
			</g>
		</g>
	</g>
	<g>
		<g>
			<g transform="matrix(1 0 0 1 -6.103516e-05 0)">
				<path fill="none" enable-background="new    " d="z"/>
			</g>
		</g>
		<g>
			<g transform="matrix(1 0 0 1 -1.220703e-04 0)">
				<path fill="none" enable-background="new    " d="z"/>
			</g>
		</g>
	</g>
	<g>
		<g>
			<g>
				<g>
					<g>
						<g>
							<g>
								<g>
									<g>
										<g>
											<g>
												<g id="tablet_x5F_1">
													<g>
														<g>
															<g transform="matrix(1 0 0 1 0 6.103516e-05)">
																<path fill="none" enable-background="new    " d="z"/>
															</g>
														</g>
													</g>
												</g>
												<g id="FRAME">
												</g>
												<g id="processor">
													<g>
														<g>
															<rect x="265.5" y="234.5" fill="#45C1F2" width="169" height="33"/>
														</g>
														<g>
															<rect x="424.5" y="232.5" fill="#0A609B" width="1" height="17"/>
														</g>
														<g>
															<rect x="413.5" y="232.5" fill="#0A609B" width="2" height="17"/>
														</g>
														<g>
															<rect x="404.5" y="232.5" fill="#0A609B" width="2" height="17"/>
														</g>
														<g>
															<rect x="394.5" y="232.5" fill="#0A609B" width="1" height="26"/>
														</g>
														<g>
															<rect x="383.5" y="232.5" fill="#0A609B" width="2" height="17"/>
														</g>
														<g>
															<rect x="374.5" y="232.5" fill="#0A609B" width="2" height="17"/>
														</g>
														<g>
															<rect x="364.5" y="232.5" fill="#0A609B" width="1" height="17"/>
														</g>
														<g>
															<rect x="353.5" y="232.5" fill="#0A609B" width="3" height="26"/>
														</g>
														<g>
															<rect x="344.5" y="232.5" fill="#0A609B" width="2" height="17"/>
														</g>
														<g>
															<rect x="334.5" y="232.5" fill="#0A609B" width="1" height="17"/>
														</g>
														<g>
															<rect x="323.5" y="232.5" fill="#0A609B" width="3" height="17"/>
														</g>
														<g>
															<rect x="314.5" y="232.5" fill="#0A609B" width="2" height="26"/>
														</g>
														<g>
															<rect x="304.5" y="232.5" fill="#0A609B" width="1" height="17"/>
														</g>
														<g>
															<rect x="295.5" y="232.5" fill="#0A609B" width="1" height="17"/>
														</g>
														<g>
															<rect x="284.5" y="232.5" fill="#0A609B" width="2" height="17"/>
														</g>
														<g>
															<rect x="274.5" y="232.5" fill="#0A609B" width="1" height="26"/>
														</g>
													</g>
												</g>
											</g>
										</g>
									</g>
								</g>
							</g>
						</g>
					</g>
				</g>
			</g>
		</g>
	</g>
</g>
</svg>
