<?xml version="1.0" encoding="utf-8"?>
<!-- Generator: Adobe Illustrator 16.0.4, SVG Export Plug-In . SVG Version: 6.00 Build 0)  -->
<!DOCTYPE svg PUBLIC "-//W3C//DTD SVG 1.1//EN" "http://www.w3.org/Graphics/SVG/1.1/DTD/svg11.dtd">
<svg version="1.1" id="Layer_1" xmlns="http://www.w3.org/2000/svg" xmlns:xlink="http://www.w3.org/1999/xlink" x="0px" y="0px"
	 width="700px" height="500px" viewBox="0 0 700 500" enable-background="new 0 0 700 500" xml:space="preserve">
<g>
	<g>
		<g>
			<g>
				<path fill="none" enable-background="new    " d="z"/>
			</g>
		</g>
		<g>
			<g>
				<path fill="none" enable-background="new    " d="z"/>
			</g>
		</g>
	</g>
	<g>
		<g>
			<g transform="matrix(1 0 0 1 -6.103516e-05 0)">
				<path fill="none" enable-background="new    " d="z"/>
			</g>
		</g>
		<g>
			<g transform="matrix(1 0 0 1 -1.220703e-04 0)">
				<path fill="none" enable-background="new    " d="z"/>
			</g>
		</g>
	</g>
	<g>
		<g>
			<g>
				<g>
					<g>
						<g>
							<g>
								<g>
									<g>
										<g>
											<g>
												<g id="tablet_x5F_1">
													<g>
														<g>
															<g transform="matrix(1 0 0 1 0 6.103516e-05)">
																<path fill="none" enable-background="new    " d="z"/>
															</g>
														</g>
													</g>
												</g>
												<g id="FRAME">
												</g>
												<g id="processor">
													<g>
														<g>
															<rect x="333.5" y="132.5" fill="#45C1F2" width="33" height="235"/>
														</g>
														<g>
															<rect x="349.5" y="138.5" fill="#0A609B" width="17" height="1"/>
														</g>
														<g>
															<rect x="349.5" y="357.5" fill="#0A609B" width="17" height="1"/>
														</g>
														<g>
															<rect x="349.5" y="346.5" fill="#0A609B" width="17" height="2"/>
														</g>
														<g>
															<rect x="349.5" y="337.5" fill="#0A609B" width="17" height="2"/>
														</g>
														<g>
															<rect x="340.5" y="327.5" fill="#0A609B" width="26" height="1"/>
														</g>
														<g>
															<rect x="349.5" y="316.5" fill="#0A609B" width="17" height="2"/>
														</g>
														<g>
															<rect x="349.5" y="307.5" fill="#0A609B" width="17" height="2"/>
														</g>
														<g>
															<rect x="349.5" y="297.5" fill="#0A609B" width="17" height="1"/>
														</g>
														<g>
															<rect x="340.5" y="286.5" fill="#0A609B" width="26" height="3"/>
														</g>
														<g>
															<rect x="349.5" y="277.5" fill="#0A609B" width="17" height="2"/>
														</g>
														<g>
															<rect x="349.5" y="267.5" fill="#0A609B" width="17" height="1"/>
														</g>
														<g>
															<rect x="349.5" y="256.5" fill="#0A609B" width="17" height="3"/>
														</g>
														<g>
															<rect x="340.5" y="247.5" fill="#0A609B" width="26" height="2"/>
														</g>
														<g>
															<rect x="349.5" y="237.5" fill="#0A609B" width="17" height="1"/>
														</g>
														<g>
															<rect x="349.5" y="228.5" fill="#0A609B" width="17" height="1"/>
														</g>
														<g>
															<rect x="349.5" y="217.5" fill="#0A609B" width="17" height="2"/>
														</g>
														<g>
															<rect x="340.5" y="207.5" fill="#0A609B" width="26" height="1"/>
														</g>
														<g>
															<rect x="349.5" y="198.5" fill="#0A609B" width="17" height="1"/>
														</g>
														<g>
															<rect x="349.5" y="187.5" fill="#0A609B" width="17" height="2"/>
														</g>
														<g>
															<rect x="349.5" y="177.5" fill="#0A609B" width="17" height="1"/>
														</g>
														<g>
															<rect x="340.5" y="168.5" fill="#0A609B" width="26" height="1"/>
														</g>
														<g>
															<rect x="349.5" y="157.5" fill="#0A609B" width="17" height="2"/>
														</g>
														<g>
															<rect x="349.5" y="148.5" fill="#0A609B" width="17" height="2"/>
														</g>
													</g>
												</g>
											</g>
										</g>
									</g>
								</g>
							</g>
						</g>
					</g>
				</g>
			</g>
		</g>
	</g>
</g>
</svg>
