<?xml version="1.0" encoding="utf-8"?>
<!-- Generator: Adobe Illustrator 16.0.0, SVG Export Plug-In . SVG Version: 6.00 Build 0)  -->
<!DOCTYPE svg PUBLIC "-//W3C//DTD SVG 1.1//EN" "http://www.w3.org/Graphics/SVG/1.1/DTD/svg11.dtd">
<svg version="1.1" xmlns="http://www.w3.org/2000/svg" xmlns:xlink="http://www.w3.org/1999/xlink" x="0px" y="0px" width="387px"
	 height="283px" viewBox="0 0 387 283" enable-background="new 0 0 387 283" xml:space="preserve">
<g id="Background">
</g>
<g id="Tablet_back">
</g>
<g id="tablet_x5F_1">
</g>
<g id="Layer_6">
</g>
<g id="Layer_1">
</g>
<g id="FRAME">
</g>
<g id="Shadow">
</g>
<g id="processor">
	<g>
		<g>
			<g>
				<path fill="#FFFFFF" d="M319.156,205.534c0,1.56-1.275,2.835-2.835,2.835H71.996c-1.559,0-2.834-1.275-2.834-2.835V49.256
					c0-1.56,1.275-2.835,2.834-2.835h244.325c1.56,0,2.835,1.275,2.835,2.835V205.534z"/>
			</g>
		</g>
		<g>
			<path fill="#FFFFFF" d="M337.146,229.569c0-1.56-1.275-2.835-2.835-2.835H54.008c-1.56,0-2.835,1.275-2.835,2.835v4.749
				c0,1.56,1.275,2.835,2.835,2.835h280.303c1.56,0,2.835-1.275,2.835-2.835V229.569z"/>
		</g>
		<rect x="81" y="62" fill="#FDC922" width="226" height="133"/>
	</g>
</g>
</svg>
