<?xml version="1.0" encoding="utf-8"?>
<!-- Generator: Adobe Illustrator 16.0.0, SVG Export Plug-In . SVG Version: 6.00 Build 0)  -->
<!DOCTYPE svg PUBLIC "-//W3C//DTD SVG 1.1//EN" "http://www.w3.org/Graphics/SVG/1.1/DTD/svg11.dtd">
<svg version="1.1" xmlns="http://www.w3.org/2000/svg" xmlns:xlink="http://www.w3.org/1999/xlink" x="0px" y="0px" width="387px"
	 height="283px" viewBox="0 0 387 283" enable-background="new 0 0 387 283" xml:space="preserve">
<g id="Background">
</g>
<g id="Tablet_back">
</g>
<g id="tablet_x5F_1">
</g>
<g id="Layer_6">
</g>
<g id="Layer_1">
</g>
<g id="FRAME">
</g>
<g id="Shadow">
</g>
<g id="processor">
	<g>
		<g>
			<path fill="#FFFFFF" d="M261.558,234.212c0,1.56-1.275,2.835-2.835,2.835H128.277c-1.56,0-2.835-1.275-2.835-2.835V48.788
				c0-1.56,1.275-2.835,2.835-2.835h130.445c1.56,0,2.835,1.275,2.835,2.835V234.212z"/>
		</g>
		<rect x="132.293" y="56.785" fill="#45C1F2" width="122.417" height="153.835"/>
		<path fill="#CDDAE6" d="M198.089,224.848c0,2.812-2.274,5.084-5.079,5.084c-2.808,0-5.083-2.272-5.083-5.084
			c0-2.806,2.275-5.081,5.083-5.081C195.814,219.767,198.089,222.042,198.089,224.848z"/>
	</g>
</g>
</svg>
