<?xml version="1.0" encoding="utf-8"?>
<!-- Generator: Adobe Illustrator 16.0.0, SVG Export Plug-In . SVG Version: 6.00 Build 0)  -->
<!DOCTYPE svg PUBLIC "-//W3C//DTD SVG 1.1//EN" "http://www.w3.org/Graphics/SVG/1.1/DTD/svg11.dtd">
<svg version="1.1" xmlns="http://www.w3.org/2000/svg" xmlns:xlink="http://www.w3.org/1999/xlink" x="0px" y="0px" width="387px"
	 height="283px" viewBox="0 0 387 283" enable-background="new 0 0 387 283" xml:space="preserve">
<g id="Background">
</g>
<g id="Tablet_back">
</g>
<g id="tablet_x5F_1">
</g>
<g id="Layer_6">
</g>
<g id="Layer_1">
</g>
<g id="FRAME">
</g>
<g id="Shadow">
</g>
<g id="processor">
	<g>
		<g>
			<path fill="#FFFFFF" d="M317.32,204.261c0,1.56-1.275,2.835-2.835,2.835H72.515c-1.56,0-2.835-1.275-2.835-2.835V47.888
				c0-1.56,1.275-2.835,2.835-2.835h241.971c1.56,0,2.835,1.275,2.835,2.835V204.261z"/>
		</g>
		<g>
			<path fill="#FFFFFF" d="M235.205,230.357c0-1.56-1.275-2.835-2.835-2.835h-77.74c-1.56,0-2.835,1.275-2.835,2.835v4.755
				c0,1.56,1.275,2.835,2.835,2.835h77.74c1.56,0,2.835-1.275,2.835-2.835V230.357z"/>
		</g>
		<rect x="185.297" y="207.096" fill="#FFFFFF" width="16.406" height="28.717"/>
		<rect x="185.297" y="207.096" fill="#FFFFFF" width="16.406" height="28.717"/>
		<rect x="81" y="57" fill="#0A609B" width="225" height="138"/>
	</g>
</g>
</svg>
