<?xml version="1.0" encoding="utf-8"?>
<!-- Generator: Adobe Illustrator 16.0.4, SVG Export Plug-In . SVG Version: 6.00 Build 0)  -->
<!DOCTYPE svg PUBLIC "-//W3C//DTD SVG 1.1//EN" "http://www.w3.org/Graphics/SVG/1.1/DTD/svg11.dtd">
<svg version="1.1" id="Layer_1" xmlns="http://www.w3.org/2000/svg" xmlns:xlink="http://www.w3.org/1999/xlink" x="0px" y="0px"
	 width="700px" height="500px" viewBox="0 0 700 500" enable-background="new 0 0 700 500" xml:space="preserve">
<g>
	<g>
		<g>
			<g>
				<path fill="none" enable-background="new    " d="z"/>
			</g>
		</g>
		<g>
			<g>
				<path fill="none" enable-background="new    " d="z"/>
			</g>
		</g>
	</g>
	<g>
		<g>
			<g transform="matrix(1 0 0 1 -6.103516e-05 0)">
				<path fill="none" enable-background="new    " d="z"/>
			</g>
		</g>
		<g>
			<g transform="matrix(1 0 0 1 -1.220703e-04 0)">
				<path fill="none" enable-background="new    " d="z"/>
			</g>
		</g>
	</g>
	<g>
		<g>
			<g>
				<g>
					<g>
						<g>
							<g>
								<g>
									<g>
										<g>
											<g>
												<g id="tablet_x5F_1">
													<g>
														<g>
															<g transform="matrix(1 0 0 1 0 6.103516e-05)">
																<path fill="none" enable-background="new    " d="z"/>
															</g>
														</g>
													</g>
												</g>
												<g id="FRAME">
												</g>
												<g id="processor">
													<g>
														<g>
															<path fill="#FFFFFF" d="M393.127,307.712c0,1.561-1.275,2.835-2.835,2.835h-80.584c-1.56,0-2.835-1.274-2.835-2.835
																V192.288c0-1.56,1.275-2.835,2.835-2.835h80.584c1.56,0,2.835,1.275,2.835,2.835V307.712L393.127,307.712z"/>
														</g>
														<rect x="311.214" y="196.317" fill="#0A609B" width="77.574" height="97.483"/>
														<circle fill="#CDDAE6" cx="349.688" cy="302.816" r="3.22"/>
														<g id="rHSMlV_7_">
															<g>
																<path fill="#FFFFFF" d="M328.894,237.643c0,0.507,0.003,0.958-0.01,1.407c0,0.062-0.065,0.136-0.117,0.191
																	c-1.767,2.029-2.965,4.353-3.511,6.992c-0.486,2.33-0.356,4.613,0.657,6.796c0.898,1.936,2.37,3.334,4.19,4.396
																	c1.755,1.021,3.656,1.64,5.624,2.06c1.448,0.311,2.908,0.496,4.382,0.619c1.898,0.158,3.797,0.166,5.696,0.103
																	c1.173-0.038,2.35-0.11,3.518-0.218c2.543-0.232,5.047-0.674,7.53-1.273c3.019-0.727,5.979-1.642,8.824-2.895
																	c1.188-0.523,2.331-1.145,3.489-1.728c0.06-0.028,0.108-0.058,0.19-0.104c0.007,0.095,0.012,0.165,0.012,0.239
																	c0,1.229-0.005,2.465,0.011,3.692c0,0.214-0.075,0.315-0.254,0.411c-2.326,1.225-4.767,2.167-7.271,2.951
																	c-2.465,0.765-4.972,1.379-7.519,1.809c-1.403,0.237-2.827,0.417-4.246,0.577c-2.324,0.271-4.66,0.343-6.997,0.267
																	c-1.336-0.043-2.672-0.17-3.998-0.311c-2.046-0.219-4.051-0.658-5.996-1.314c-2.027-0.688-3.937-1.606-5.622-2.939
																	c-2.381-1.876-3.916-4.266-4.436-7.28c-0.228-1.312-0.303-2.628-0.164-3.948c0.272-2.589,1.262-4.893,2.771-6.988
																	c0.895-1.237,1.928-2.346,3.066-3.362C328.757,237.754,328.797,237.719,328.894,237.643z"/>
																<path fill="#FFFFFF" d="M370.501,251.698c0-0.246,0-0.448,0-0.648c0-0.692,0.011-1.39-0.005-2.08
																	c-0.006-0.23,0.066-0.36,0.268-0.484c1.711-1.075,3.104-2.466,4.094-4.238c0.819-1.472,1.271-3.048,1.201-4.738
																	c-0.106-2.559-1.148-4.697-3.049-6.417c-1.576-1.418-3.438-2.308-5.436-2.945c-1.547-0.492-3.129-0.804-4.738-0.996
																	c-1.749-0.21-3.505-0.315-5.266-0.243c-1.612,0.073-3.231,0.17-4.836,0.365c-3.977,0.477-7.835,1.42-11.603,2.771
																	c-2.007,0.72-3.969,1.548-5.873,2.516c-0.064,0.033-0.137,0.061-0.229,0.101c0-0.324-0.016-0.617,0.011-0.914
																	c0.006-0.082,0.103-0.182,0.181-0.23c1.502-0.906,3.058-1.704,4.658-2.412c3.299-1.46,6.719-2.525,10.259-3.207
																	c1.378-0.264,2.772-0.45,4.167-0.629c1.822-0.231,3.664-0.324,5.498-0.268c1.313,0.039,2.629,0.131,3.934,0.271
																	c2.377,0.246,4.682,0.785,6.904,1.686c1.871,0.755,3.594,1.756,5.043,3.178c1.693,1.65,2.742,3.649,3.078,5.991
																	c0.434,3.051-0.222,5.865-1.924,8.425c-1.465,2.208-3.402,3.875-5.836,4.946
																	C370.852,251.562,370.689,251.62,370.501,251.698z"/>
																<path fill="#FFFFFF" d="M361.818,248.438c0.574,0.552,1.146,1.101,1.733,1.658
																	c-0.438,0.451-0.903,0.821-1.428,1.118c-1.13,0.634-2.36,0.747-3.619,0.657c-0.849-0.057-1.651-0.289-2.386-0.734
																	c-1.195-0.728-1.871-1.821-2.166-3.159c-0.35-1.586-0.34-3.159,0.287-4.674c0.754-1.82,2.137-2.84,4.089-3.088
																	c1.084-0.138,2.128-0.015,3.089,0.545c1.168,0.685,1.831,1.743,2.199,3.014c0.285,0.971,0.292,1.964,0.285,2.959
																	c0,0.127-0.051,0.171-0.166,0.167c-0.071-0.002-0.139,0-0.213,0c-2.203,0-4.407,0-6.616,0
																	c-0.328,0-0.328,0.003-0.304,0.336c0.096,1.268,0.979,2.147,2.231,2.252c1.125,0.088,2.11-0.186,2.907-1.017
																	C361.76,248.461,361.775,248.459,361.818,248.438z M358.816,244.982c0,0.006,0,0.006,0,0.006
																	c0.648,0,1.297,0,1.939,0c0.294,0,0.309-0.006,0.268-0.303c-0.037-0.27-0.09-0.54-0.176-0.792
																	c-0.217-0.644-0.625-1.128-1.301-1.29c-1.348-0.328-2.824,0.352-2.949,2.129c-0.014,0.199,0.036,0.257,0.235,0.256
																	C357.494,244.978,358.154,244.982,358.816,244.982z"/>
																<path fill="#FFFFFF" d="M336.485,240.372c0.084-0.001,0.144-0.011,0.205-0.011c1.956,0,3.911-0.008,5.866,0.005
																	c1.878,0.009,3.184,1.293,3.2,3.173c0.021,2.658,0.003,5.312,0.003,7.973c0,0.055-0.008,0.104-0.012,0.178
																	c-0.933,0-1.854,0-2.815,0c0-0.102,0-0.198,0-0.295c0-2.486,0-4.975-0.005-7.462c0-0.154-0.008-0.311-0.04-0.463
																	c-0.087-0.443-0.363-0.758-0.806-0.779c-0.898-0.04-1.789-0.02-2.688-0.031c-0.022,0-0.044,0.021-0.082,0.034
																	c0,2.986,0,5.978,0,8.987c-0.948,0-1.876,0-2.826,0C336.485,247.92,336.485,244.16,336.485,240.372z"/>
																<path fill="#FFFFFF" d="M352.98,240.359c0,0.164,0,0.303,0,0.438c0,0.532-0.01,1.061,0.004,1.592
																	c0.005,0.209-0.073,0.266-0.271,0.261c-0.554-0.009-1.105,0.003-1.66-0.005c-0.191-0.004-0.25,0.063-0.25,0.259
																	c0.012,1.793,0.004,3.6,0.006,5.397c0,0.682,0.359,1.029,1.045,1.031c0.311,0.006,0.623,0.008,0.937,0
																	c0.142-0.005,0.19,0.049,0.19,0.189c-0.006,0.66,0.006,1.325-0.006,1.988c0,0.062-0.088,0.179-0.135,0.179
																	c-0.828-0.02-1.672,0.021-2.487-0.101c-1.23-0.188-2.14-1.204-2.326-2.437c-0.043-0.284-0.062-0.571-0.062-0.858
																	c-0.005-3.567-0.003-7.135,0-10.703c0-0.336,0-0.336,0.329-0.336c0.749,0,1.496,0.006,2.24-0.003
																	c0.206,0,0.286,0.044,0.28,0.271c-0.016,0.865,0,1.729-0.012,2.592c-0.002,0.199,0.062,0.253,0.254,0.253
																	C351.677,240.354,352.299,240.359,352.98,240.359z"/>
																<path fill="#FFFFFF" d="M368.473,251.562c-1.414-0.054-2.623-0.871-2.818-2.386
																	c-0.031-0.248-0.043-0.497-0.043-0.744c0-4.176,0-8.349,0-12.524c0-0.076,0-0.154,0-0.252c0.959,0,1.902,0,2.861,0
																	C368.473,240.956,368.473,246.251,368.473,251.562z"/>
																<path fill="#FFFFFF" d="M333.865,251.818c-1.364-0.096-2.489-0.764-2.786-2.158c-0.068-0.312-0.09-0.647-0.09-0.972
																	c-0.008-2.241-0.004-4.486-0.004-6.727c0-0.521,0-1.046,0-1.585c0.976,0,1.922,0,2.88,0
																	C333.865,244.198,333.865,248.007,333.865,251.818z"/>
																<path fill="#FFFFFF" d="M331.017,236.013c0.539,0,1.059,0,1.579,0c0.348,0,0.699,0.008,1.048-0.001
																	c0.146-0.006,0.211,0.029,0.211,0.188c-0.003,0.784,0,1.573-0.006,2.357c0,0.065-0.089,0.18-0.133,0.18
																	c-0.893,0.013-1.788,0.008-2.699,0.008C331.017,237.835,331.017,236.945,331.017,236.013z"/>
															</g>
														</g>
													</g>
												</g>
											</g>
										</g>
									</g>
								</g>
							</g>
						</g>
					</g>
				</g>
			</g>
		</g>
	</g>
</g>
</svg>
