<?xml version="1.0" encoding="utf-8"?>
<!-- Generator: Adobe Illustrator 16.0.4, SVG Export Plug-In . SVG Version: 6.00 Build 0)  -->
<!DOCTYPE svg PUBLIC "-//W3C//DTD SVG 1.1//EN" "http://www.w3.org/Graphics/SVG/1.1/DTD/svg11.dtd">
<svg version="1.1" id="Layer_1" xmlns="http://www.w3.org/2000/svg" xmlns:xlink="http://www.w3.org/1999/xlink" x="0px" y="0px"
	 width="1050px" height="750px" viewBox="0 0 1050 750" enable-background="new 0 0 1050 750" xml:space="preserve">
<g>
	<g>
		<g>
			<g transform="matrix(1 0 0 1 -1.220703e-04 6.103516e-05)">
				<path fill="none" enable-background="new    " d="z"/>
			</g>
		</g>
		<g>
			<g transform="matrix(1 0 0 1 0 6.103516e-05)">
				<path fill="none" enable-background="new    " d="z"/>
			</g>
		</g>
	</g>
	<g>
		<g>
			<g transform="matrix(1 0 0 1 0 6.103516e-05)">
				<path fill="none" enable-background="new    " d="z"/>
			</g>
		</g>
		<g>
			<g transform="matrix(1 0 0 1 0 6.103516e-05)">
				<path fill="none" enable-background="new    " d="z"/>
			</g>
		</g>
	</g>
	<g>
		<g>
			<g>
				<g>
					<g>
						<g>
							<g>
								<g>
									<g>
										<g>
											<g>
												<g id="tablet_x5F_1">
													<g>
														<g>
															<g transform="matrix(1 0 0 1 0 1.220703e-04)">
																<path fill="none" enable-background="new    " d="z"/>
															</g>
														</g>
													</g>
												</g>
												<g id="FRAME">
												</g>
												<g id="processor">
													<g>
														<g>
															<path fill="#FFFFFF" d="M634.994,526.587c0,1.56-1.275,2.835-2.834,2.835H417.841c-1.559,0-2.834-1.275-2.834-2.835
																V223.413c0-1.56,1.275-2.835,2.834-2.835h214.318c1.559,0,2.834,1.275,2.834,2.835L634.994,526.587L634.994,526.587z
																"/>
														</g>
														<rect x="426.079" y="238.086" fill="#0A609B" width="197.847" height="248.627"/>
														<path fill="#CDDAE6" d="M532.419,509.703c0,4.547-3.677,8.219-8.209,8.219c-4.538,0-8.216-3.672-8.216-8.219
															c0-4.533,3.678-8.207,8.216-8.207C528.742,501.496,532.419,505.17,532.419,509.703z"/>
														<g>
															<rect x="436" y="250" fill="#1583DC" width="177" height="13"/>
															<rect x="436" y="269" fill="#45C1F2" width="177" height="63"/>
															<g>
																<rect x="436" y="340" fill="#1583DC" width="177" height="8"/>
																<rect x="436" y="356" fill="#1583DC" width="177" height="7"/>
																<rect x="436" y="371" fill="#1583DC" width="177" height="8"/>
																<rect x="436" y="388" fill="#1583DC" width="177" height="8"/>
																<rect x="519" y="404" fill="#1583DC" width="94" height="8"/>
																<rect x="519" y="419" fill="#1583DC" width="94" height="8"/>
																<rect x="519" y="435" fill="#1583DC" width="94" height="8"/>
																<rect x="519" y="451" fill="#1583DC" width="94" height="8"/>
																<rect x="519" y="465" fill="#1583DC" width="94" height="8"/>
															</g>
															<rect x="436" y="404" fill="#45C1F2" width="74" height="69"/>
														</g>
													</g>
												</g>
											</g>
										</g>
									</g>
								</g>
							</g>
						</g>
					</g>
				</g>
			</g>
		</g>
	</g>
</g>
</svg>
