<?xml version="1.0" encoding="utf-8"?>
<!-- Generator: Adobe Illustrator 16.0.4, SVG Export Plug-In . SVG Version: 6.00 Build 0)  -->
<!DOCTYPE svg PUBLIC "-//W3C//DTD SVG 1.1//EN" "http://www.w3.org/Graphics/SVG/1.1/DTD/svg11.dtd">
<svg version="1.1" id="Layer_1" xmlns="http://www.w3.org/2000/svg" xmlns:xlink="http://www.w3.org/1999/xlink" x="0px" y="0px"
	 width="1050px" height="750px" viewBox="0 0 1050 750" enable-background="new 0 0 1050 750" xml:space="preserve">
<g>
	<g>
		<g>
			<g transform="matrix(1 0 0 1 -1.220703e-04 6.103516e-05)">
				<path fill="none" enable-background="new    " d="z"/>
			</g>
		</g>
		<g>
			<g transform="matrix(1 0 0 1 0 6.103516e-05)">
				<path fill="none" enable-background="new    " d="z"/>
			</g>
		</g>
	</g>
	<g>
		<g>
			<g transform="matrix(1 0 0 1 0 6.103516e-05)">
				<path fill="none" enable-background="new    " d="z"/>
			</g>
		</g>
		<g>
			<g transform="matrix(1 0 0 1 0 6.103516e-05)">
				<path fill="none" enable-background="new    " d="z"/>
			</g>
		</g>
	</g>
	<g>
		<g>
			<g>
				<g>
					<g>
						<g>
							<g>
								<g>
									<g>
										<g>
											<g>
												<g id="tablet_x5F_1">
													<g>
														<g>
															<g transform="matrix(1 0 0 1 0 1.220703e-04)">
																<path fill="none" enable-background="new    " d="z"/>
															</g>
														</g>
													</g>
												</g>
												<g id="FRAME">
												</g>
												<g id="processor">
													<g>
														<g>
															<g>
																<path fill="#0A609B" d="M1288.936,632.872c0,22.079-17.895,39.971-39.969,39.971s-39.974-17.892-39.974-39.971
																	c0-22.076,17.899-39.969,39.974-39.969C1271.042,592.903,1288.936,610.796,1288.936,632.872z"/>
																<path fill="#1583DC" d="M1275.369,632.872c0,14.587-11.82,26.409-26.402,26.409
																	c-14.588,0-26.401-11.822-26.401-26.409c0-14.58,11.813-26.402,26.401-26.402
																	C1263.549,606.47,1275.369,618.292,1275.369,632.872z"/>
																<path fill="#FFFFFF" d="M1271.141,632.872c0,12.252-9.928,22.179-22.174,22.179
																	c-12.25,0-22.177-9.927-22.177-22.179c0-12.247,9.927-22.175,22.177-22.175
																	C1261.213,610.697,1271.141,620.625,1271.141,632.872z"/>
															</g>
														</g>
														<g>
															<g>
																<path fill="#0A609B" d="M1472.119,632.872c0,22.079-17.897,39.971-39.973,39.971
																	c-22.074,0-39.972-17.892-39.972-39.971c0-22.076,17.896-39.971,39.972-39.971S1472.119,610.796,1472.119,632.872z"
																	/>
																<path fill="#1583DC" d="M1458.548,632.872c0,14.583-11.817,26.407-26.401,26.407
																	c-14.586,0-26.403-11.824-26.403-26.407s11.817-26.402,26.403-26.402
																	C1446.73,606.47,1458.548,618.289,1458.548,632.872z"/>
																<circle fill="#FFFFFF" cx="1432.146" cy="632.872" r="22.177"/>
															</g>
														</g>
													</g>
												</g>
											</g>
										</g>
									</g>
								</g>
							</g>
						</g>
					</g>
				</g>
			</g>
		</g>
	</g>
</g>
</svg>
