<?xml version="1.0" encoding="utf-8"?>
<!-- Generator: Adobe Illustrator 16.0.4, SVG Export Plug-In . SVG Version: 6.00 Build 0)  -->
<!DOCTYPE svg PUBLIC "-//W3C//DTD SVG 1.1//EN" "http://www.w3.org/Graphics/SVG/1.1/DTD/svg11.dtd">
<svg version="1.1" id="Layer_1" xmlns="http://www.w3.org/2000/svg" xmlns:xlink="http://www.w3.org/1999/xlink" x="0px" y="0px"
	 width="432px" height="231px" viewBox="0 0 432 231" enable-background="new 0 0 432 231" xml:space="preserve">
<g>
	<g>
		<g>
			<g transform="matrix(1 0 0 1 -3.051758e-05 0)">
				<path fill="none" enable-background="new    " d="z"/>
			</g>
		</g>
		<g>
			<g>
				<path fill="none" enable-background="new    " d="z"/>
			</g>
		</g>
	</g>
	<g>
		<g>
			<g transform="matrix(1 0 0 1 -1.220703e-04 0)">
				<path fill="none" enable-background="new    " d="z"/>
			</g>
		</g>
		<g>
			<g>
				<path fill="none" enable-background="new    " d="z"/>
			</g>
		</g>
	</g>
	<g>
		<g>
			<g>
				<g>
					<g>
						<g>
							<g>
								<g>
									<g>
										<g>
											<g>
												<g id="tablet_x5F_1">
													<g>
														<g>
															<g transform="matrix(1 0 0 1 -3.051758e-05 1.220703e-04)">
																<path fill="none" enable-background="new    " d="z"/>
															</g>
														</g>
													</g>
												</g>
												<g id="FRAME">
												</g>
												<g id="processor">
													<g>
														<g>
															<g>
																<path fill="#0A609B" d="M170.936,118.872c0,22.079-17.895,39.971-39.969,39.971
																	c-22.074,0-39.974-17.892-39.974-39.971c0-22.076,17.899-39.969,39.974-39.969
																	C153.042,78.903,170.936,96.796,170.936,118.872z"/>
																<path fill="#1583DC" d="M157.369,118.872c0,14.587-11.82,26.409-26.402,26.409
																	c-14.588,0-26.402-11.822-26.402-26.409c0-14.58,11.814-26.402,26.402-26.402
																	C145.549,92.47,157.369,104.292,157.369,118.872z"/>
																<path fill="#FFFFFF" d="M153.141,118.872c0,12.252-9.928,22.179-22.174,22.179c-12.25,0-22.177-9.927-22.177-22.179
																	c0-12.247,9.927-22.175,22.177-22.175C143.213,96.697,153.141,106.625,153.141,118.872z"/>
															</g>
														</g>
														<g>
															<g>
																<path fill="#0A609B" d="M354.119,118.872c0,22.079-17.896,39.971-39.973,39.971
																	c-22.074,0-39.972-17.892-39.972-39.971c0-22.076,17.896-39.971,39.972-39.971S354.119,96.796,354.119,118.872z"/>
																<path fill="#1583DC" d="M340.548,118.872c0,14.583-11.817,26.407-26.401,26.407
																	c-14.586,0-26.403-11.824-26.403-26.407s11.817-26.402,26.403-26.402C328.73,92.47,340.548,104.289,340.548,118.872
																	z"/>
																<circle fill="#FFFFFF" cx="314.146" cy="118.872" r="22.177"/>
															</g>
														</g>
													</g>
												</g>
											</g>
										</g>
									</g>
								</g>
							</g>
						</g>
					</g>
				</g>
			</g>
		</g>
	</g>
</g>
</svg>
