<?xml version="1.0" encoding="utf-8"?>
<!-- Generator: Adobe Illustrator 16.0.0, SVG Export Plug-In . SVG Version: 6.00 Build 0)  -->
<!DOCTYPE svg PUBLIC "-//W3C//DTD SVG 1.1//EN" "http://www.w3.org/Graphics/SVG/1.1/DTD/svg11.dtd">
<svg version="1.1" id="Calque_1" xmlns="http://www.w3.org/2000/svg" xmlns:xlink="http://www.w3.org/1999/xlink" x="0px" y="0px"
	 width="520px" height="322px" viewBox="0 0 520 322" enable-background="new 0 0 520 322" xml:space="preserve">
<g>
	<path fill-rule="evenodd" clip-rule="evenodd" fill="#FFFFFF" d="M95.298,180.01c3.742-13.94,7.699-27.829,11.102-41.852
		c1.135-4.675,2.857-6.798,8.289-5.008c-0.478,2.063-0.893,4.244-1.488,6.374c-4.259,15.21-8.551,30.41-12.838,45.612
		c-1.871,6.634-1.877,6.632-9.684,5.843c-4.271-14.966-8.588-30.089-12.905-45.212c-0.328,0.014-0.655,0.026-0.983,0.04
		c-3.895,13.696-7.961,27.349-11.568,41.12c-0.975,3.719-2.68,5.187-6.13,4.315c-1.407-0.354-3.321-1.551-3.687-2.762
		c-5.422-17.989-10.625-36.045-15.861-54.09c-0.127-0.437-0.057-0.931-0.087-1.59c2.22,0,4.335,0,6.752,0
		c4.491,16.042,8.952,31.979,13.413,47.914c0.314-0.011,0.627-0.021,0.94-0.033c4.177-14.492,8.3-29,12.599-43.456
		c0.498-1.675,1.671-3.942,3.038-4.392c2.478-0.813,4.854-0.563,5.808,3.254c3.264,13.063,7.013,26.006,10.588,38.991
		c0.466,1.694,0.998,3.37,1.5,5.055C94.495,180.093,94.897,180.051,95.298,180.01z"/>
	<path fill-rule="evenodd" clip-rule="evenodd" fill="#FFFFFF" d="M409.393,159.283c10.689,8.908,12.795,19.449,5.428,27.188
		c-7.148,7.51-21.797,7.642-29.002,0.261c-7.92-8.112-6.052-18.031,5.174-27.47c-8.372-8.497-9.501-16.397-3.26-22.806
		c6.215-6.381,18.041-6.555,24.5-0.36C418.898,142.491,417.91,150.573,409.393,159.283z M388.352,174.385
		c0.01,7.3,4.492,12.017,11.533,12.14c7.162,0.126,12.256-4.861,12.311-12.052c0.053-7.116-5.064-12.214-12.195-12.148
		C393.082,162.389,388.342,167.297,388.352,174.385z M390.424,147.075c0.059,5.515,4.277,9.825,9.66,9.87
		c5.604,0.047,10.051-4.461,9.98-10.117c-0.068-5.588-4.195-9.724-9.744-9.764C394.439,137.021,390.363,141.146,390.424,147.075z"/>
	<path fill-rule="evenodd" clip-rule="evenodd" fill="#FFFFFF" d="M212.239,185.011c-6.598,6.923-13.625,9.05-20.604,6.106
		c-7.464-3.149-10.443-9.544-10.785-17.146c-0.177-3.924,0.172-8.032,1.177-11.82c3.907-14.726,21.497-17.961,30.737-7.323
		c0-5.035,0-9.046,0-13.058c0-3.964,0-7.928,0-12.176c2.224,0,3.973,0,6.141,0c0,20.48,0,40.834,0,61.471c-1.873,0-3.631,0-5.701,0
		C212.906,189.195,212.601,187.282,212.239,185.011z M213.374,169.636c-0.203-0.046-0.405-0.092-0.607-0.138
		c0-0.832,0.01-1.664-0.002-2.495c-0.106-7.305-3.921-12.05-10.472-13.03c-6.315-0.945-12.337,2.634-13.716,9.518
		c-0.974,4.861-0.795,10.243,0.191,15.125c0.984,4.872,4.914,7.732,10.186,8.057c5.454,0.336,9.995-2.006,12.055-7.014
		C212.297,176.523,212.618,172.99,213.374,169.636z"/>
	<path fill-rule="evenodd" clip-rule="evenodd" fill="#FFFFFF" d="M330.464,149.969c-3.941,13.068-7.789,26.103-11.928,39.046
		c-0.349,1.092-2.663,2.198-4.018,2.144c-1.333-0.054-3.406-1.323-3.779-2.497c-3.006-9.45-5.687-19.005-9.596-28.669
		c-1.657,5.243-3.312,10.486-4.972,15.729c-1.405,4.436-2.606,8.955-4.366,13.245c-0.475,1.153-2.642,2.157-4.067,2.207
		c-1.196,0.041-3.215-1.16-3.554-2.229c-4.07-12.81-7.895-25.697-11.82-38.688c4.697-1.895,6.892-0.5,8.009,4.088
		c2.269,9.312,4.948,18.525,8.489,27.888c1.225-3.7,2.503-7.384,3.66-11.104c1.875-6.03,3.729-12.067,5.471-18.138
		c0.659-2.302,1.631-4.32,4.305-3.371c1.491,0.529,3.281,2.013,3.713,3.438c2.701,8.905,5.049,17.917,7.541,26.886
		c0.198,0.713,0.612,1.364,1.49,3.269c2.805-10.286,5.312-19.323,7.722-28.386C324.26,149.194,324.192,149.177,330.464,149.969z"/>
	<path fill-rule="evenodd" clip-rule="evenodd" fill="#FFFFFF" d="M269.41,170.01c0.048,13.363-8.285,22.263-20.864,22.283
		c-12.242,0.021-20.275-8.434-20.428-21.498c-0.159-13.661,8.034-22.271,21.229-22.307
		C261.822,148.455,269.362,156.542,269.41,170.01z M262.72,170.414c-0.025-8.899-3.389-14.395-9.818-16.048
		c-7.779-1.999-14.722,1.656-17.111,9.01c-3.121,9.599,0.256,19.429,7.674,22.34C254.209,189.932,262.759,183.139,262.72,170.414z"
		/>
	<path fill-rule="evenodd" clip-rule="evenodd" fill="#FFFFFF" d="M144.265,191.109c-2.066,0-3.843,0-5.976,0
		c0-13.729,0-27.424,0-41.357c1.948,0,3.724,0,5.862,0c0.23,1.679,0.463,3.37,0.66,4.814c3.272-1.934,6.252-4.562,9.703-5.565
		c9.074-2.637,16.844,2.149,17.671,11.61c0.876,10.016,0.196,20.167,0.196,30.496c-1.891,0-3.495,0-6.059,0
		c0-4.22,0.027-8.455-0.007-12.69c-0.036-4.487,0.104-8.992-0.249-13.457c-0.604-7.636-4.123-11.351-10.076-11.16
		c-6.004,0.192-11.078,5.205-11.34,11.778c-0.277,6.974-0.078,13.966-0.121,20.95C144.521,187.987,144.365,189.446,144.265,191.109z
		"/>
	<path fill-rule="evenodd" clip-rule="evenodd" fill="#FFFFFF" d="M467.209,185.332c4.65,0,8.566,0,12.494,0
		c1.23,3.554,1.096,5.521-3.033,5.455c-8.312-0.132-16.631-0.137-24.941,0.023c-3.586,0.068-4.383-1.474-3.297-5.257
		c3.82,0,7.865,0,12.182,0c0-15.25,0-29.811,0-44.968c-4.293,1.178-8.332,2.286-12.316,3.379c-1.584-4.312-0.025-6.097,3.857-7.007
		c4.812-1.13,9.498-2.804,15.055-4.491C467.209,150.227,467.209,167.519,467.209,185.332z"/>
	<path fill-rule="evenodd" clip-rule="evenodd" fill="#FFFFFF" d="M357.161,155.433c-3.724-0.523-7.248-1.739-10.499-1.226
		c-2.221,0.352-5.325,2.871-5.712,4.87c-0.381,1.967,1.689,5.067,3.553,6.642c2.339,1.975,5.62,2.796,8.391,4.306
		c4.505,2.453,6.883,6.232,6.311,11.476c-0.528,4.832-4.053,8.87-9.278,9.871c-3.353,0.643-6.958,0.75-10.34,0.285
		c-6.057-0.832-6.033-1.104-5.625-7.267c3.909,0.762,7.809,1.842,11.772,2.192c3.158,0.279,6.576-1.074,6.603-4.58
		c0.018-2.267-1.886-5.09-3.761-6.69c-2.333-1.991-5.559-2.914-8.334-4.417c-4.514-2.443-6.974-6.17-6.386-11.423
		c0.58-5.18,3.624-8.634,8.54-9.939c2.983-0.793,6.231-0.91,9.345-0.817C356.089,148.845,358.792,150.713,357.161,155.433z"/>
	<path fill-rule="evenodd" clip-rule="evenodd" fill="#FFFFFF" d="M127.192,191.084c-1.91,0-3.672,0-5.835,0
		c0-13.697,0-27.363,0-41.299c1.922,0,3.692,0,5.835,0C127.192,163.476,127.192,177.15,127.192,191.084z"/>
	<path fill-rule="evenodd" clip-rule="evenodd" fill="#FFFFFF" d="M130.415,135.718c-2.977,1.841-4.851,3.896-6.166,3.586
		c-1.65-0.389-2.842-2.719-4.232-4.211c1.514-1.204,2.988-3.291,4.551-3.359C126.058,131.669,127.64,133.709,130.415,135.718z"/>
	<path fill-rule="evenodd" clip-rule="evenodd" fill="#FFFFFF" d="M436.92,188.33c-1.693,1.095-3.406,3.056-5.074,3.018
		c-1.391-0.031-3.76-2.38-3.797-3.754c-0.037-1.37,2.211-3.843,3.594-3.943c1.666-0.121,3.475,1.751,5.223,2.76
		C436.885,187.051,436.902,187.69,436.92,188.33z"/>
</g>
</svg>
