<?xml version="1.0" encoding="utf-8"?>
<!-- Generator: Adobe Illustrator 16.0.4, SVG Export Plug-In . SVG Version: 6.00 Build 0)  -->
<!DOCTYPE svg PUBLIC "-//W3C//DTD SVG 1.1//EN" "http://www.w3.org/Graphics/SVG/1.1/DTD/svg11.dtd">
<svg version="1.1" id="Calque_1" xmlns="http://www.w3.org/2000/svg" xmlns:xlink="http://www.w3.org/1999/xlink" x="0px" y="0px"
	 width="520px" height="322px" viewBox="0 0 520 322" enable-background="new 0 0 520 322" xml:space="preserve">
<rect x="71.75" y="31" fill="#0A609B" width="0" height="0.75"/>
<g>
	<path fill="#FFFFFF" d="M103.269,284.771c3.742-13.94,7.699-27.83,11.102-41.853c1.135-4.675,2.857-6.798,8.289-5.008
		c-0.478,2.063-0.893,4.243-1.488,6.374c-4.259,15.21-8.551,30.41-12.838,45.611c-1.871,6.635-1.877,6.633-9.684,5.844
		c-4.271-14.967-8.588-30.09-12.905-45.213c-0.328,0.015-0.655,0.026-0.983,0.041c-3.895,13.695-7.961,27.349-11.568,41.119
		c-0.975,3.719-2.68,5.188-6.13,4.315c-1.407-0.354-3.321-1.551-3.687-2.762c-5.422-17.989-10.625-36.046-15.861-54.091
		c-0.127-0.437-0.057-0.931-0.087-1.59c2.22,0,4.335,0,6.752,0c4.491,16.043,8.952,31.979,13.413,47.914
		c0.314-0.011,0.627-0.021,0.94-0.033c4.177-14.491,8.3-29,12.599-43.455c0.498-1.676,1.671-3.942,3.038-4.393
		c2.478-0.812,4.854-0.562,5.808,3.254c3.264,13.063,7.013,26.006,10.588,38.991c0.466,1.694,0.998,3.37,1.5,5.056
		C102.466,284.854,102.868,284.812,103.269,284.771z"/>
	<path fill="#FFFFFF" d="M417.363,264.044c10.688,8.908,12.795,19.449,5.428,27.188c-7.148,7.51-21.797,7.642-29.002,0.261
		c-7.92-8.112-6.053-18.031,5.174-27.47c-8.372-8.498-9.501-16.397-3.26-22.807c6.215-6.381,18.041-6.555,24.5-0.359
		C426.869,247.252,425.881,255.334,417.363,264.044z M396.322,279.146c0.01,7.299,4.492,12.017,11.533,12.14
		c7.161,0.126,12.256-4.861,12.311-12.052c0.053-7.116-5.064-12.215-12.195-12.148C401.053,267.148,396.312,272.059,396.322,279.146
		z M398.395,251.836c0.06,5.516,4.277,9.825,9.66,9.87c5.604,0.047,10.052-4.461,9.98-10.117c-0.068-5.588-4.195-9.724-9.744-9.764
		C402.41,241.782,398.334,245.906,398.395,251.836z"/>
	<path fill="#FFFFFF" d="M220.21,289.771c-6.598,6.922-13.625,9.049-20.604,6.105c-7.464-3.148-10.443-9.544-10.785-17.146
		c-0.177-3.924,0.172-8.031,1.177-11.819c3.907-14.726,21.497-17.961,30.737-7.323c0-5.035,0-9.046,0-13.059
		c0-3.963,0-7.928,0-12.176c2.224,0,3.973,0,6.141,0c0,20.48,0,40.834,0,61.472c-1.873,0-3.631,0-5.701,0
		C220.877,293.956,220.571,292.043,220.21,289.771z M221.345,274.396c-0.203-0.047-0.405-0.092-0.607-0.139
		c0-0.832,0.01-1.664-0.002-2.494c-0.106-7.306-3.921-12.051-10.472-13.031c-6.315-0.944-12.337,2.635-13.716,9.519
		c-0.974,4.86-0.795,10.243,0.191,15.125c0.984,4.872,4.914,7.731,10.186,8.058c5.454,0.336,9.995-2.007,12.055-7.015
		C220.268,281.284,220.589,277.751,221.345,274.396z"/>
	<path fill="#FFFFFF" d="M338.436,254.729c-3.941,13.068-7.789,26.104-11.929,39.047c-0.349,1.092-2.663,2.197-4.019,2.144
		c-1.332-0.054-3.405-1.323-3.778-2.497c-3.006-9.449-5.687-19.005-9.597-28.669c-1.656,5.243-3.312,10.485-4.971,15.729
		c-1.406,4.436-2.606,8.955-4.367,13.244c-0.475,1.153-2.642,2.157-4.066,2.207c-1.195,0.041-3.215-1.16-3.555-2.229
		c-4.069-12.811-7.895-25.697-11.819-38.688c4.697-1.896,6.892-0.5,8.009,4.088c2.27,9.312,4.948,18.524,8.489,27.888
		c1.226-3.7,2.503-7.384,3.66-11.104c1.875-6.029,3.729-12.066,5.471-18.138c0.659-2.302,1.632-4.319,4.306-3.371
		c1.49,0.529,3.28,2.013,3.713,3.438c2.701,8.904,5.049,17.916,7.541,26.886c0.197,0.713,0.611,1.364,1.49,3.269
		c2.805-10.285,5.312-19.322,7.721-28.386C332.23,253.955,332.163,253.938,338.436,254.729z"/>
	<path fill="#FFFFFF" d="M277.381,274.771c0.049,13.362-8.285,22.263-20.864,22.283c-12.242,0.021-20.275-8.435-20.428-21.498
		c-0.159-13.662,8.034-22.271,21.229-22.308C269.793,253.216,277.333,261.303,277.381,274.771z M270.689,275.175
		c-0.024-8.899-3.389-14.396-9.817-16.048c-7.779-1.999-14.722,1.656-17.111,9.01c-3.121,9.6,0.256,19.43,7.674,22.34
		C262.18,294.691,270.729,287.898,270.689,275.175z"/>
	<path fill="#FFFFFF" d="M152.235,295.87c-2.066,0-3.843,0-5.976,0c0-13.729,0-27.425,0-41.356c1.948,0,3.724,0,5.862,0
		c0.23,1.678,0.463,3.369,0.66,4.813c3.272-1.935,6.252-4.562,9.703-5.565c9.074-2.637,16.844,2.149,17.671,11.61
		c0.876,10.017,0.196,20.167,0.196,30.496c-1.891,0-3.495,0-6.059,0c0-4.22,0.027-8.455-0.007-12.69
		c-0.036-4.486,0.104-8.992-0.249-13.457c-0.604-7.636-4.123-11.351-10.076-11.16c-6.004,0.192-11.078,5.205-11.34,11.778
		c-0.277,6.974-0.078,13.966-0.121,20.95C152.492,292.748,152.336,294.207,152.235,295.87z"/>
	<path fill="#FFFFFF" d="M475.18,290.093c4.65,0,8.566,0,12.494,0c1.23,3.554,1.096,5.521-3.033,5.455
		c-8.312-0.132-16.631-0.137-24.94,0.022c-3.586,0.068-4.383-1.473-3.297-5.256c3.819,0,7.864,0,12.182,0c0-15.25,0-29.812,0-44.969
		c-4.293,1.178-8.332,2.286-12.316,3.379c-1.584-4.312-0.024-6.097,3.857-7.007c4.812-1.13,9.498-2.804,15.055-4.491
		C475.18,254.986,475.18,272.279,475.18,290.093z"/>
	<path fill="#FFFFFF" d="M365.132,260.193c-3.724-0.523-7.248-1.739-10.499-1.227c-2.221,0.352-5.324,2.871-5.712,4.87
		c-0.381,1.968,1.688,5.067,3.554,6.642c2.338,1.976,5.619,2.797,8.391,4.307c4.505,2.453,6.883,6.232,6.311,11.476
		c-0.527,4.832-4.053,8.87-9.277,9.871c-3.354,0.644-6.959,0.75-10.34,0.285c-6.058-0.832-6.033-1.104-5.625-7.267
		c3.908,0.762,7.809,1.842,11.771,2.191c3.158,0.279,6.576-1.074,6.604-4.58c0.018-2.267-1.887-5.09-3.762-6.689
		c-2.333-1.991-5.559-2.914-8.334-4.418c-4.514-2.442-6.974-6.17-6.386-11.422c0.58-5.181,3.624-8.635,8.54-9.939
		c2.982-0.793,6.23-0.91,9.345-0.816C364.061,253.605,366.764,255.475,365.132,260.193z"/>
	<path fill="#FFFFFF" d="M135.163,295.846c-1.91,0-3.672,0-5.835,0c0-13.697,0-27.363,0-41.3c1.922,0,3.692,0,5.835,0
		C135.163,268.236,135.163,281.911,135.163,295.846z"/>
	<path fill="#FFFFFF" d="M138.386,240.479c-2.977,1.842-4.851,3.896-6.166,3.586c-1.65-0.389-2.842-2.719-4.232-4.211
		c1.514-1.203,2.988-3.291,4.551-3.358C134.028,236.43,135.61,238.471,138.386,240.479z"/>
	<path fill="#FFFFFF" d="M444.891,293.091c-1.692,1.095-3.405,3.056-5.073,3.019c-1.392-0.031-3.761-2.381-3.798-3.754
		c-0.036-1.371,2.212-3.844,3.595-3.943c1.666-0.121,3.475,1.751,5.223,2.76C444.855,291.812,444.873,292.451,444.891,293.091z"/>
</g>
</svg>
