<?xml version="1.0" encoding="utf-8"?>
<!-- Generator: Adobe Illustrator 16.0.4, SVG Export Plug-In . SVG Version: 6.00 Build 0)  -->
<!DOCTYPE svg PUBLIC "-//W3C//DTD SVG 1.1//EN" "http://www.w3.org/Graphics/SVG/1.1/DTD/svg11.dtd">
<svg version="1.1" id="Calque_1" xmlns="http://www.w3.org/2000/svg" xmlns:xlink="http://www.w3.org/1999/xlink" x="0px" y="0px"
	 width="520px" height="322px" viewBox="0 0 520 322" enable-background="new 0 0 520 322" xml:space="preserve">
<rect x="71.75" y="31" fill="#0A609B" width="0" height="0.75"/>
<g>
	<path fill="#FFFFFF" d="M259.178,119.53c0-22.635,0-44.934,0-68.188c30.288-4.226,60.407-8.429,91.403-12.752
		c0,27.381,0,53.807,0,80.94C320.242,119.53,289.868,119.53,259.178,119.53z"/>
	<path fill="#FFFFFF" d="M350.871,123.874c0,26.821,0,53.046,0,80.836c-30.568-4.219-60.627-8.368-91.338-12.606
		c0-22.605,0-45.094,0-68.229C289.486,123.874,319.602,123.874,350.871,123.874z"/>
	<path fill="#FFFFFF" d="M255.141,51.873c0,23.201,0,44.982,0,67.559c-23.246,0-46.27,0-70.009,0c0-19.046,0-37.852,0-57.74
		C208.048,58.478,231.202,55.229,255.141,51.873z"/>
	<path fill="#FFFFFF" d="M255.042,123.873c0,22.557,0,44.318,0,67.464c-23.59-3.249-46.651-6.426-70.132-9.66
		c0-19.436,0-38.296,0-57.804C208.247,123.873,231.297,123.873,255.042,123.873z"/>
</g>
</svg>
