<?xml version="1.0" encoding="utf-8"?>
<!-- Generator: Adobe Illustrator 16.0.4, SVG Export Plug-In . SVG Version: 6.00 Build 0)  -->
<!DOCTYPE svg PUBLIC "-//W3C//DTD SVG 1.1//EN" "http://www.w3.org/Graphics/SVG/1.1/DTD/svg11.dtd">
<svg version="1.1" id="Layer_1" xmlns="http://www.w3.org/2000/svg" xmlns:xlink="http://www.w3.org/1999/xlink" x="0px" y="0px"
	 width="220px" height="231px" viewBox="0 0 220 231" enable-background="new 0 0 220 231" xml:space="preserve">
<g>
	<g>
		<g>
			<g>
				<path fill="none" enable-background="new    " d="z"/>
			</g>
		</g>
		<g>
			<g>
				<path fill="none" enable-background="new    " d="z"/>
			</g>
		</g>
	</g>
	<g>
		<g>
			<g>
				<path fill="none" enable-background="new    " d="z"/>
			</g>
		</g>
		<g>
			<g transform="matrix(1 0 0 1 -1.220703e-04 0)">
				<path fill="none" enable-background="new    " d="z"/>
			</g>
		</g>
	</g>
	<g>
		<g>
			<g>
				<g>
					<g>
						<g>
							<g>
								<g>
									<g>
										<g>
											<g>
												<g id="tablet_x5F_1">
													<g>
														<g>
															<g transform="matrix(1 0 0 1 0 1.220703e-04)">
																<path fill="none" enable-background="new    " d="z"/>
															</g>
														</g>
													</g>
												</g>
												<g id="FRAME">
												</g>
												<g id="processor">
													<g>
														<path fill="#FDC922" d="M125.118,73.66c0-4.114-3.874-7.446-8.653-7.446c-4.777,0-8.651,3.332-8.651,7.446v12.491
															h-0.98V76.039c0-3.906-3.874-7.071-8.648-7.071c-4.781,0-8.656,3.165-8.656,7.071v10.194
															c-0.329,0.025-0.653,0.062-0.978,0.105v-5.687c0-3.178-3.874-5.761-8.651-5.761c-4.781,0-8.653,2.583-8.653,5.761
															v3.898c-0.177,1.036-0.292,2.091-0.292,3.174v37.673c0.003,6.404,3.605,16.174,9.88,24.26v28.965h52.787l1.396-23.779
															c4.028-1.416,8.289-5.057,10.241-7.759c8.791-12.159,6.363-43.07,6.363-43.07c-0.871-4.355-3.34-8.931-8.222-7.629
															c-1.487,0.396,0-50.916,0-50.916c0-3.867-3.873-7.004-8.653-7.004c-4.776,0-8.651,3.137-8.651,7.004v40.89
															c-0.324-0.042-0.647-0.09-0.979-0.118L125.118,73.66L125.118,73.66z"/>
														<g>
															<path fill="#0A609B" d="M77.466,173.396c-1.98,0-3.6,1.619-3.6,3.6v22.416c0,1.979,1.62,3.6,3.6,3.6h61.324
																c1.979,0,3.601-1.619,3.601-3.6v-22.416c0-1.979-1.621-3.6-3.601-3.6H77.466z"/>
														</g>
														<rect x="72.124" y="173.396" fill="#0A609B" width="68.524" height="29.614"/>
													</g>
												</g>
											</g>
										</g>
									</g>
								</g>
							</g>
						</g>
					</g>
				</g>
			</g>
		</g>
	</g>
</g>
</svg>
