<svg xmlns="http://www.w3.org/2000/svg" xmlns:xlink="http://www.w3.org/1999/xlink" version="1.1" x="0px" y="0px" width="400px" height="400px" viewBox="0 0 75 75" enable-background="new 0 0 75 75" xml:space="preserve"><style>.style0{fill:	#fff;}</style><g><g><path d="M37.5 23.345c-10.297 0-29.771-1.476-29.771-7.06c0-5.585 19.474-7.06 29.771-7.06 c10.297 0 29.8 1.5 29.8 7.06C67.271 21.9 47.8 23.3 37.5 23.345z M37.5 11.37c-17.875 0-27.626 3.247-27.626 4.9 s9.751 4.9 27.6 4.916c17.875 0 27.627-3.248 27.627-4.916S55.375 11.4 37.5 11.37z" class="style0"/><path d="M37.5 65.774c-10.297 0-29.771-1.475-29.771-7.059v-1.072h2.144v1.072c0 1.7 9.8 4.9 27.6 4.9 c17.875 0 27.627-3.248 27.627-4.915v-1.072h2.144v1.072C67.271 64.3 47.8 65.8 37.5 65.774z" class="style0"/><path d="M37.5 37.488c-10.297 0-29.771-1.476-29.771-7.06v-1.072h2.144v1.072c0 1.7 9.8 4.9 27.6 4.9 c17.875 0 27.627-3.248 27.627-4.916v-1.072h2.144v1.072C67.271 36 47.8 37.5 37.5 37.488z" class="style0"/><path d="M37.5 51.631c-10.297 0-29.771-1.475-29.771-7.059V43.5h2.144v1.072c0 1.7 9.8 4.9 27.6 4.9 c17.875 0 27.627-3.248 27.627-4.915V43.5h2.144v1.072C67.271 50.2 47.8 51.6 37.5 51.631z" class="style0"/><rect x="7.7" y="15.5" width="2.1" height="44.4" class="style0"/></g><rect x="65.1" y="15.6" width="2.1" height="44.1" class="style0"/></g></svg>