<svg xmlns="http://www.w3.org/2000/svg" xmlns:xlink="http://www.w3.org/1999/xlink" version="1.1" x="0px" y="0px" width="400px" height="400px" viewBox="0 0 75 75" enable-background="new 0 0 75 75" xml:space="preserve"><style>.style0{fill:	#fff;}</style><g><path d="M55.317 68.743H19.683c-2.645 0-4.796-2.151-4.796-4.795V11.052c0-2.644 2.151-4.795 4.796-4.795h35.635 c2.644 0 4.8 2.2 4.8 4.795v52.896C60.113 66.6 58 68.7 55.3 68.743z M19.683 8.8 c-1.266 0-2.295 1.029-2.295 2.294v52.896c0 1.3 1 2.3 2.3 2.294h35.635c1.266 0 2.295-1.029 2.295-2.294V11.052 c0-1.265-1.029-2.294-2.295-2.294H19.683z" class="style0"/><path d="M58.559 60.447H16.442c-0.691 0-1.25-0.56-1.25-1.25V16.442c0-0.691 0.559-1.25 1.25-1.25h42.116 c0.691 0 1.2 0.6 1.2 1.25v42.754C59.809 59.9 59.2 60.4 58.6 60.447z M17.693 57.946h39.614V17.693H17.693V57.946z" class="style0"/><circle cx="37.5" cy="63.7" r="1.6" class="style0"/></g></svg>