<svg xmlns="http://www.w3.org/2000/svg" xmlns:xlink="http://www.w3.org/1999/xlink" version="1.1" x="0px" y="0px" width="400px" height="400px" viewBox="0 0 400 400" enable-background="new 0 0 400 400" xml:space="preserve"><style>.style0{fill:	#FFFFFF;}</style><g><path d="M281.24 360.344H33.298c-12.151 0-22.039-9.884-22.039-22.034V43.249c0-12.15 9.888-22.035 22.039-22.035 h265.863c12.149 0 22 9.9 22 22.035v72.736h-9.22V43.249c0-7.065-5.752-12.813-12.817-12.813H33.298 c-7.066 0-12.817 5.748-12.817 12.813V338.31c0 7.1 5.8 12.8 12.8 12.813H281.24V360.344z" class="style0"/><path d="M351.937 369.379h-26.896v-25.755h26.896V369.379z M334.263 360.158h8.451v-7.312h-8.451V360.158z" class="style0"/><path d="M335.03 378.786h-56.863v-44.568h56.863V378.786z M287.388 369.564h38.422v-26.125h-38.422V369.564z" class="style0"/><path d="M316.624 317.38c-39.753 0-72.094-45.171-72.094-100.696c0-66.818 24.254-100.698 72.094-100.698 c49.918 0 70.8 29.1 72.1 100.614c0.568 31.771-10.285 62.141-29.046 81.238C347.115 310.6 332.2 317.4 316.6 317.38z M316.624 125.206c-42.306 0-62.872 29.924-62.872 91.478c0 50.4 28.2 91.5 62.9 91.5 c13.076 0 25.688-5.802 36.471-16.782c17.062-17.369 26.931-45.264 26.402-74.609C377.973 132.3 346.2 125.2 316.6 125.2 z" class="style0"/><rect x="310.4" y="175.9" width="9.2" height="32.3" class="style0"/><path d="M221.304 328.07h-95.285V49.9h95.285V328.07z M135.24 318.849h76.842V59.121H135.24V318.849z" class="style0"/><path d="M249.868 197.438c-0.512 5.965-0.792 12.324-0.792 19.173c0 53.1 30.2 96.1 67.5 96.1 c37.275 0 68.438-43.029 67.482-96.091c-0.119-6.867-0.449-13.229-0.952-19.173H249.868z" class="style0"/><path d="M97.107 99.08c-0.024 0.003-0.072 0.006-0.12 0h-23.39c-1.446 0-2.803-0.677-3.674-1.828 c-0.871-1.15-1.152-2.645-0.763-4.035l11.695-41.494c0.559-1.987 2.372-3.358 4.437-3.358c2.065 0 3.9 1.4 4.4 3.4 l11.424 40.526c0.361 0.7 0.6 1.4 0.6 2.22C101.718 97 99.7 99.1 97.1 99.08z M79.685 89.858H90.9L85.292 70 L79.685 89.858z" class="style0"/><path d="M70.176 297.334H62.75c-8.271 0-12.037-11.422-12.037-22.036V222.1h9.222v53.198 c0 7.7 2.4 12.3 3.4 12.935l6.88-0.119V297.334z" class="style0"/><path d="M105.271 312.702H65.314V89.858h39.958V312.702z M74.535 303.48h21.516V99.08H74.535V303.48z" class="style0"/><path d="M101.814 325.578H70.308v-25.755h31.506V325.578z M79.529 316.358h13.063v-7.313H79.529V316.358z" class="style0"/><rect x="132.9" y="66" width="32.3" height="9.2" class="style0"/><rect x="134.5" y="83.2" width="32.3" height="9.2" class="style0"/><rect x="134.5" y="100.3" width="32.3" height="9.2" class="style0"/><rect x="134.5" y="117.4" width="61.2" height="9.2" class="style0"/><rect x="134.5" y="134.5" width="32.3" height="9.2" class="style0"/><rect x="134.5" y="151.6" width="32.3" height="9.2" class="style0"/><rect x="134.5" y="168.7" width="32.3" height="9.2" class="style0"/><rect x="134.5" y="185.9" width="61.2" height="9.2" class="style0"/><rect x="134.5" y="203" width="32.3" height="9.2" class="style0"/><rect x="134.5" y="220.1" width="32.3" height="9.2" class="style0"/><rect x="134.5" y="237.2" width="32.3" height="9.2" class="style0"/><rect x="134.5" y="254.3" width="61.2" height="9.2" class="style0"/><rect x="134.5" y="271.5" width="32.3" height="9.2" class="style0"/><rect x="134.5" y="288.6" width="32.3" height="9.2" class="style0"/><rect x="134.5" y="305.7" width="32.3" height="9.2" class="style0"/><rect x="70.4" y="107.5" width="32.3" height="9.2" class="style0"/><rect x="70.4" y="123.9" width="32.3" height="9.2" class="style0"/></g></svg>