<?xml version="1.0" encoding="utf-8"?>
<!-- Generator: Adobe Illustrator 16.0.0, SVG Export Plug-In . SVG Version: 6.00 Build 0)  -->
<!DOCTYPE svg PUBLIC "-//W3C//DTD SVG 1.1//EN" "http://www.w3.org/Graphics/SVG/1.1/DTD/svg11.dtd">
<svg version="1.1" id="Layer_1" xmlns="http://www.w3.org/2000/svg" xmlns:xlink="http://www.w3.org/1999/xlink" x="0px" y="0px"
	 width="400px" height="400px" viewBox="0 0 69.854 72.556" enable-background="new 0 0 69.854 72.556" xml:space="preserve">
<g>
	<g>
		<g>
			<g>
				<path fill="#FFFFFF" d="M60.556,14.448h-0.45v2.339h0.45c1.407,0,2.558-0.525,2.558-1.169
					C63.113,14.977,61.963,14.448,60.556,14.448z"/>
				<path fill="#FFFFFF" d="M60.556,18.206h-0.45v2.339h0.45c1.407,0,2.558-0.527,2.558-1.17S61.963,18.206,60.556,18.206z"/>
				<path fill="#FFFFFF" d="M60.556,21.961h-0.45v2.34h0.45c1.407,0,2.558-0.526,2.558-1.17
					C63.113,22.488,61.963,21.961,60.556,21.961z"/>
				<path fill="#FFFFFF" d="M60.556,25.718h-0.45v2.34h0.45c1.407,0,2.558-0.527,2.558-1.17
					C63.113,26.244,61.963,25.718,60.556,25.718z"/>
				<path fill="#FFFFFF" d="M60.556,29.474h-0.45v2.34h0.45c1.407,0,2.558-0.527,2.558-1.17C63.113,30,61.963,29.474,60.556,29.474z
					"/>
				<path fill="#FFFFFF" d="M60.556,33.229h-0.45v2.341h0.45c1.407,0,2.558-0.528,2.558-1.17
					C63.113,33.757,61.963,33.229,60.556,33.229z"/>
				<path fill="#FFFFFF" d="M60.556,36.986h-0.45v2.341h0.45c1.407,0,2.558-0.528,2.558-1.171
					C63.113,37.513,61.963,36.986,60.556,36.986z"/>
				<path fill="#FFFFFF" d="M60.556,40.744h-0.45v2.339h0.45c1.407,0,2.558-0.528,2.558-1.17
					C63.113,41.27,61.963,40.744,60.556,40.744z"/>
				<path fill="#FFFFFF" d="M60.556,44.5h-0.45v2.339h0.45c1.407,0,2.558-0.527,2.558-1.17C63.113,45.025,61.963,44.5,60.556,44.5z"
					/>
				<path fill="#FFFFFF" d="M60.556,48.256h-0.45v2.339h0.45c1.407,0,2.558-0.525,2.558-1.169
					C63.113,48.781,61.963,48.256,60.556,48.256z"/>
				<path fill="#FFFFFF" d="M60.556,52.012h-0.45v2.339h0.45c1.407,0,2.558-0.525,2.558-1.169
					C63.113,52.537,61.963,52.012,60.556,52.012z"/>
				<path fill="#FFFFFF" d="M60.556,55.768h-0.45v2.339h0.45c1.407,0,2.558-0.525,2.558-1.169
					C63.113,56.296,61.963,55.768,60.556,55.768z"/>
			</g>
			<g>
				<path fill="#FFFFFF" d="M9.298,58.106h0.45v-2.339h-0.45c-1.406,0-2.558,0.528-2.558,1.17
					C6.74,57.581,7.892,58.106,9.298,58.106z"/>
				<path fill="#FFFFFF" d="M9.298,54.351h0.45v-2.339h-0.45c-1.406,0-2.558,0.525-2.558,1.17
					C6.74,53.825,7.892,54.351,9.298,54.351z"/>
				<path fill="#FFFFFF" d="M9.298,50.595h0.45v-2.339h-0.45c-1.406,0-2.558,0.525-2.558,1.17
					C6.74,50.069,7.892,50.595,9.298,50.595z"/>
				<path fill="#FFFFFF" d="M9.298,46.839h0.45V44.5h-0.45c-1.406,0-2.558,0.525-2.558,1.169C6.74,46.312,7.892,46.839,9.298,46.839
					z"/>
				<path fill="#FFFFFF" d="M9.298,43.083h0.45v-2.339h-0.45c-1.406,0-2.558,0.525-2.558,1.169
					C6.74,42.555,7.892,43.083,9.298,43.083z"/>
				<path fill="#FFFFFF" d="M9.298,39.327h0.45v-2.341h-0.45c-1.406,0-2.558,0.526-2.558,1.17
					C6.74,38.799,7.892,39.327,9.298,39.327z"/>
				<path fill="#FFFFFF" d="M9.298,35.57h0.45v-2.341h-0.45c-1.406,0-2.558,0.527-2.558,1.171C6.74,35.042,7.892,35.57,9.298,35.57z
					"/>
				<path fill="#FFFFFF" d="M9.298,31.813h0.45v-2.34h-0.45c-1.406,0-2.558,0.526-2.558,1.17C6.74,31.286,7.892,31.813,9.298,31.813
					z"/>
				<path fill="#FFFFFF" d="M9.298,28.058h0.45v-2.34h-0.45c-1.406,0-2.558,0.526-2.558,1.17C6.74,27.53,7.892,28.058,9.298,28.058z
					"/>
				<path fill="#FFFFFF" d="M9.298,24.301h0.45v-2.34h-0.45c-1.406,0-2.558,0.527-2.558,1.17C6.74,23.774,7.892,24.301,9.298,24.301
					z"/>
				<path fill="#FFFFFF" d="M9.298,20.545h0.45v-2.339h-0.45c-1.406,0-2.558,0.526-2.558,1.169S7.892,20.545,9.298,20.545z"/>
				<path fill="#FFFFFF" d="M9.298,16.787h0.45v-2.339h-0.45c-1.406,0-2.558,0.528-2.558,1.17
					C6.74,16.262,7.892,16.787,9.298,16.787z"/>
			</g>
			<path fill="#FFFFFF" d="M57.369,62.804H12.486c-2.332,0-4.229-1.896-4.229-4.228V13.693c0-2.332,1.897-4.229,4.229-4.229h44.883
				c2.332,0,4.229,1.896,4.229,4.229v44.883C61.598,60.907,59.701,62.804,57.369,62.804z M12.486,11.67
				c-1.116,0-2.023,0.907-2.023,2.023v44.883c0,1.116,0.907,2.022,2.023,2.022h44.883c1.116,0,2.023-0.906,2.023-2.022V13.693
				c0-1.116-0.907-2.023-2.023-2.023H12.486z"/>
			<g>
				<path fill="#FFFFFF" d="M13.098,10.347v0.45h2.339v-0.45c0-1.407-0.527-2.558-1.168-2.558
					C13.625,7.789,13.098,8.939,13.098,10.347z"/>
				<path fill="#FFFFFF" d="M16.854,10.347v0.45h2.34v-0.45c0-1.407-0.526-2.558-1.17-2.558
					C17.382,7.789,16.854,8.939,16.854,10.347z"/>
				<path fill="#FFFFFF" d="M20.61,10.347v0.45h2.339v-0.45c0-1.407-0.526-2.558-1.17-2.558C21.137,7.789,20.61,8.939,20.61,10.347z
					"/>
				<path fill="#FFFFFF" d="M24.367,10.347v0.45h2.339v-0.45c0-1.407-0.528-2.558-1.169-2.558
					C24.894,7.789,24.367,8.939,24.367,10.347z"/>
				<path fill="#FFFFFF" d="M28.123,10.347v0.45h2.339v-0.45c0-1.407-0.527-2.558-1.17-2.558
					C28.65,7.789,28.123,8.939,28.123,10.347z"/>
				<path fill="#FFFFFF" d="M31.879,10.347v0.45h2.34v-0.45c0-1.407-0.527-2.558-1.171-2.558
					C32.406,7.789,31.879,8.939,31.879,10.347z"/>
				<path fill="#FFFFFF" d="M35.634,10.347v0.45h2.341v-0.45c0-1.407-0.527-2.558-1.17-2.558
					C36.161,7.789,35.634,8.939,35.634,10.347z"/>
				<path fill="#FFFFFF" d="M39.392,10.347v0.45h2.339v-0.45c0-1.407-0.526-2.558-1.169-2.558S39.392,8.939,39.392,10.347z"/>
				<path fill="#FFFFFF" d="M43.147,10.347v0.45h2.339v-0.45c0-1.407-0.526-2.558-1.17-2.558
					C43.675,7.789,43.147,8.939,43.147,10.347z"/>
				<path fill="#FFFFFF" d="M46.904,10.347v0.45h2.339v-0.45c0-1.407-0.525-2.558-1.169-2.558
					C47.43,7.789,46.904,8.939,46.904,10.347z"/>
				<path fill="#FFFFFF" d="M50.659,10.347v0.45H53v-0.45c0-1.407-0.527-2.558-1.17-2.558C51.187,7.789,50.659,8.939,50.659,10.347z
					"/>
				<path fill="#FFFFFF" d="M54.417,10.347v0.45h2.34v-0.45c0-1.407-0.528-2.558-1.171-2.558S54.417,8.939,54.417,10.347z"/>
			</g>
			<g>
				<path fill="#FFFFFF" d="M56.757,62.21v-0.45h-2.34v0.45c0,1.406,0.526,2.557,1.169,2.557S56.757,63.616,56.757,62.21z"/>
				<path fill="#FFFFFF" d="M53,62.21v-0.45h-2.341v0.45c0,1.406,0.527,2.557,1.171,2.557C52.473,64.767,53,63.616,53,62.21z"/>
				<path fill="#FFFFFF" d="M49.243,62.21v-0.45h-2.339v0.45c0,1.406,0.525,2.557,1.17,2.557
					C48.718,64.767,49.243,63.616,49.243,62.21z"/>
				<path fill="#FFFFFF" d="M45.486,62.21v-0.45h-2.339v0.45c0,1.406,0.527,2.557,1.169,2.557
					C44.96,64.767,45.486,63.616,45.486,62.21z"/>
				<path fill="#FFFFFF" d="M41.73,62.21v-0.45h-2.339v0.45c0,1.406,0.527,2.557,1.17,2.557S41.73,63.616,41.73,62.21z"/>
				<path fill="#FFFFFF" d="M37.975,62.21v-0.45h-2.341v0.45c0,1.406,0.527,2.557,1.171,2.557
					C37.447,64.767,37.975,63.616,37.975,62.21z"/>
				<path fill="#FFFFFF" d="M34.22,62.21v-0.45h-2.34v0.45c0,1.406,0.526,2.557,1.169,2.557C33.693,64.767,34.22,63.616,34.22,62.21
					z"/>
				<path fill="#FFFFFF" d="M30.462,62.21v-0.45h-2.339v0.45c0,1.406,0.527,2.557,1.168,2.557
					C29.935,64.767,30.462,63.616,30.462,62.21z"/>
				<path fill="#FFFFFF" d="M26.706,62.21v-0.45h-2.339v0.45c0,1.406,0.526,2.557,1.169,2.557
					C26.178,64.767,26.706,63.616,26.706,62.21z"/>
				<path fill="#FFFFFF" d="M22.949,62.21v-0.45H20.61v0.45c0,1.406,0.527,2.557,1.169,2.557
					C22.423,64.767,22.949,63.616,22.949,62.21z"/>
				<path fill="#FFFFFF" d="M19.194,62.21v-0.45h-2.34v0.45c0,1.406,0.528,2.557,1.169,2.557
					C18.667,64.767,19.194,63.616,19.194,62.21z"/>
				<path fill="#FFFFFF" d="M15.437,62.21v-0.45h-2.339v0.45c0,1.406,0.526,2.557,1.17,2.557
					C14.91,64.767,15.437,63.616,15.437,62.21z"/>
			</g>
		</g>
		<g>
			<path fill="#FFFFFF" d="M26.133,57.833H17.6c-2.331,0-4.228-1.897-4.228-4.228v-8.684c0-0.609,0.494-1.103,1.103-1.103
				s1.103,0.493,1.103,1.103v8.684c0,1.116,0.907,2.022,2.023,2.022h8.534c0.609,0,1.103,0.493,1.103,1.103
				S26.742,57.833,26.133,57.833z"/>
			<path fill="#FFFFFF" d="M52.253,57.833h-8.231c-0.609,0-1.103-0.493-1.103-1.103s0.493-1.103,1.103-1.103h8.231
				c1.116,0,2.023-0.906,2.023-2.022v-8.834c0-0.609,0.493-1.103,1.103-1.103c0.61,0,1.104,0.493,1.104,1.103v8.834
				C56.482,55.936,54.585,57.833,52.253,57.833z"/>
			<path fill="#FFFFFF" d="M55.379,28.736c-0.609,0-1.103-0.494-1.103-1.103v-8.685c0-1.115-0.907-2.022-2.023-2.022h-8.832
				c-0.609,0-1.103-0.494-1.103-1.104c0-0.608,0.493-1.103,1.103-1.103h8.832c2.332,0,4.229,1.897,4.229,4.229v8.685
				C56.482,28.242,55.989,28.736,55.379,28.736z"/>
			<path fill="#FFFFFF" d="M14.474,28.736c-0.609,0-1.103-0.494-1.103-1.103v-8.685c0-2.331,1.897-4.229,4.228-4.229h8.685
				c0.609,0,1.103,0.494,1.103,1.103c0,0.609-0.494,1.104-1.103,1.104H17.6c-1.116,0-2.023,0.907-2.023,2.022v8.685
				C15.577,28.242,15.083,28.736,14.474,28.736z"/>
		</g>
	</g>
	<g id="rHSMlV_2_">
		<g>
			<path fill-rule="evenodd" clip-rule="evenodd" fill="#FFFFFF" d="M25.154,32.792c0,0.226,0.001,0.426-0.004,0.626
				c0,0.028-0.029,0.061-0.053,0.085c-0.786,0.904-1.319,1.938-1.562,3.113c-0.216,1.036-0.158,2.053,0.293,3.025
				c0.401,0.861,1.055,1.483,1.865,1.955c0.781,0.454,1.627,0.73,2.502,0.918c0.645,0.138,1.295,0.219,1.951,0.275
				c0.844,0.068,1.69,0.073,2.535,0.045c0.522-0.018,1.045-0.05,1.565-0.097c1.132-0.104,2.246-0.3,3.352-0.566
				c1.344-0.323,2.662-0.732,3.928-1.288c0.529-0.234,1.037-0.511,1.554-0.769c0.025-0.014,0.048-0.026,0.085-0.048
				c0.003,0.043,0.005,0.073,0.005,0.107c0,0.548-0.002,1.097,0.005,1.644c0,0.095-0.034,0.14-0.113,0.184
				c-1.035,0.545-2.122,0.965-3.236,1.313c-1.096,0.34-2.212,0.613-3.346,0.806c-0.624,0.105-1.259,0.185-1.89,0.256
				c-1.035,0.121-2.074,0.153-3.114,0.118c-0.595-0.019-1.189-0.075-1.78-0.138c-0.91-0.097-1.803-0.293-2.668-0.586
				c-0.902-0.306-1.752-0.715-2.502-1.309c-1.06-0.834-1.742-1.897-1.974-3.24c-0.102-0.584-0.135-1.169-0.073-1.757
				c0.122-1.153,0.562-2.178,1.234-3.11c0.397-0.552,0.858-1.045,1.364-1.497C25.093,32.841,25.111,32.826,25.154,32.792z"/>
			<path fill-rule="evenodd" clip-rule="evenodd" fill="#FFFFFF" d="M43.673,39.048c0-0.109,0-0.199,0-0.288
				c0-0.308,0.005-0.618-0.002-0.926c-0.002-0.103,0.03-0.161,0.118-0.216c0.763-0.479,1.383-1.098,1.822-1.887
				c0.365-0.654,0.566-1.356,0.535-2.108c-0.048-1.14-0.512-2.092-1.356-2.855c-0.701-0.633-1.53-1.029-2.42-1.312
				c-0.688-0.218-1.393-0.357-2.108-0.442c-0.779-0.094-1.561-0.141-2.344-0.108c-0.718,0.032-1.438,0.075-2.152,0.162
				c-1.77,0.213-3.488,0.633-5.164,1.233c-0.894,0.321-1.767,0.689-2.615,1.12c-0.028,0.015-0.06,0.026-0.102,0.045
				c0-0.145-0.006-0.275,0.005-0.407c0.002-0.036,0.045-0.08,0.08-0.102c0.669-0.404,1.361-0.76,2.074-1.075
				c1.468-0.649,2.99-1.123,4.566-1.427c0.612-0.117,1.233-0.2,1.854-0.28c0.812-0.104,1.631-0.145,2.447-0.119
				c0.585,0.019,1.17,0.059,1.751,0.12c1.058,0.11,2.084,0.351,3.072,0.751c0.833,0.336,1.6,0.781,2.245,1.415
				c0.754,0.734,1.221,1.624,1.37,2.666c0.192,1.358-0.099,2.61-0.856,3.75c-0.651,0.982-1.514,1.725-2.598,2.201
				C43.829,38.988,43.758,39.014,43.673,39.048z"/>
			<path fill-rule="evenodd" clip-rule="evenodd" fill="#FFFFFF" d="M39.809,37.597c0.256,0.245,0.51,0.49,0.771,0.738
				c-0.193,0.201-0.401,0.365-0.635,0.498c-0.503,0.281-1.052,0.332-1.611,0.292c-0.377-0.025-0.735-0.128-1.062-0.326
				c-0.532-0.324-0.833-0.812-0.964-1.406c-0.155-0.707-0.151-1.407,0.128-2.081c0.335-0.81,0.951-1.265,1.818-1.374
				c0.482-0.062,0.948-0.007,1.376,0.242c0.52,0.305,0.814,0.776,0.979,1.342c0.126,0.432,0.129,0.875,0.126,1.317
				c0,0.056-0.022,0.076-0.073,0.074c-0.032-0.001-0.062,0-0.095,0c-0.981,0-1.962,0-2.945,0c-0.146,0-0.146,0.001-0.135,0.149
				c0.042,0.564,0.436,0.955,0.993,1.002c0.501,0.039,0.94-0.082,1.294-0.452C39.782,37.607,39.789,37.606,39.809,37.597z
				 M38.473,36.059c0,0.002,0,0.002,0,0.002c0.289,0,0.577,0,0.864,0c0.13,0,0.137-0.002,0.118-0.134
				c-0.017-0.12-0.04-0.24-0.079-0.353c-0.096-0.286-0.277-0.502-0.578-0.574c-0.6-0.146-1.257,0.156-1.312,0.948
				c-0.007,0.088,0.017,0.113,0.104,0.112C37.884,36.057,38.178,36.059,38.473,36.059z"/>
			<path fill-rule="evenodd" clip-rule="evenodd" fill="#FFFFFF" d="M28.534,34.008c0.037-0.002,0.063-0.006,0.09-0.006
				c0.871,0,1.741-0.003,2.611,0.002c0.835,0.005,1.417,0.575,1.425,1.413c0.01,1.183,0.001,2.365,0.001,3.549
				c0,0.023-0.003,0.046-0.005,0.078c-0.416,0-0.825,0-1.253,0c0-0.045,0-0.088,0-0.131c0-1.107,0-2.215-0.001-3.321
				c0-0.069-0.004-0.139-0.019-0.206c-0.039-0.198-0.162-0.338-0.358-0.348c-0.399-0.018-0.797-0.009-1.196-0.013
				c-0.011,0-0.02,0.008-0.037,0.015c0,1.329,0,2.66,0,4.001c-0.422,0-0.834,0-1.257,0C28.534,37.366,28.534,35.692,28.534,34.008z"
				/>
			<path fill-rule="evenodd" clip-rule="evenodd" fill="#FFFFFF" d="M35.874,34.001c0,0.073,0,0.135,0,0.195
				c0,0.236-0.003,0.471,0.003,0.708c0.002,0.093-0.033,0.118-0.121,0.116c-0.246-0.004-0.492,0.001-0.738-0.002
				c-0.087-0.002-0.111,0.028-0.111,0.114c0.004,0.799,0.001,1.603,0.002,2.402c0,0.304,0.159,0.459,0.466,0.46
				c0.138,0.002,0.276,0.003,0.415,0c0.063-0.002,0.085,0.021,0.085,0.084c-0.002,0.294,0.003,0.59-0.002,0.885
				c0,0.028-0.04,0.08-0.061,0.08c-0.368-0.009-0.744,0.01-1.106-0.045c-0.547-0.084-0.952-0.536-1.035-1.085
				c-0.018-0.126-0.028-0.254-0.028-0.382c-0.002-1.588-0.001-3.176,0-4.764c0-0.149,0-0.149,0.146-0.149
				c0.333,0,0.666,0.002,0.998-0.002c0.091,0,0.127,0.021,0.124,0.12c-0.006,0.386,0,0.771-0.004,1.155
				c-0.001,0.088,0.027,0.111,0.112,0.111C35.295,33.999,35.572,34.001,35.874,34.001z"/>
			<path fill-rule="evenodd" clip-rule="evenodd" fill="#FFFFFF" d="M42.77,38.988c-0.629-0.024-1.167-0.388-1.254-1.062
				c-0.014-0.109-0.019-0.221-0.019-0.331c0-1.859,0-3.716,0-5.574c0-0.034,0-0.069,0-0.112c0.426,0,0.846,0,1.272,0
				C42.77,34.267,42.77,36.623,42.77,38.988z"/>
			<path fill-rule="evenodd" clip-rule="evenodd" fill="#FFFFFF" d="M27.367,39.103c-0.607-0.043-1.108-0.341-1.24-0.961
				c-0.03-0.14-0.04-0.289-0.04-0.433c-0.003-0.997-0.001-1.997-0.001-2.994c0-0.232,0-0.465,0-0.705c0.434,0,0.855,0,1.281,0
				C27.367,35.71,27.367,37.405,27.367,39.103z"/>
			<path fill-rule="evenodd" clip-rule="evenodd" fill="#FFFFFF" d="M26.099,32.066c0.24,0,0.472,0,0.703,0
				c0.155,0,0.312,0.004,0.466-0.001c0.066-0.002,0.095,0.014,0.095,0.084c-0.002,0.35,0,0.7-0.003,1.049
				c0,0.029-0.04,0.081-0.06,0.081c-0.397,0.006-0.795,0.003-1.202,0.003C26.099,32.878,26.099,32.481,26.099,32.066z"/>
		</g>
	</g>
</g>
</svg>
