<?xml version="1.0" encoding="utf-8"?>
<!-- Generator: Adobe Illustrator 16.0.0, SVG Export Plug-In . SVG Version: 6.00 Build 0)  -->
<!DOCTYPE svg PUBLIC "-//W3C//DTD SVG 1.1//EN" "http://www.w3.org/Graphics/SVG/1.1/DTD/svg11.dtd">
<svg version="1.1" id="Layer_1" xmlns="http://www.w3.org/2000/svg" xmlns:xlink="http://www.w3.org/1999/xlink" x="0px" y="0px"
	 width="400px" height="400px" viewBox="0 0 61.616 69.697" enable-background="new 0 0 61.616 69.697" xml:space="preserve">
<g>
	<path fill="#FFFFFF" d="M47.049,61.145H14.567c-3.678,0-6.669-2.992-6.669-6.67V37.309c0-3.677,2.991-6.669,6.669-6.669h32.482
		c3.678,0,6.669,2.992,6.669,6.669v17.166C53.718,58.152,50.727,61.145,47.049,61.145z M14.567,32.64
		c-2.574,0-4.669,2.095-4.669,4.669v17.166c0,2.574,2.095,4.67,4.669,4.67h32.482c2.574,0,4.669-2.096,4.669-4.67V37.309
		c0-2.574-2.095-4.669-4.669-4.669H14.567z"/>
	<path fill="#FFFFFF" d="M44.376,21.719c-0.219-7.308-6.207-13.166-13.568-13.166c-7.36,0-13.35,5.858-13.567,13.166H17.23v10.286
		h3.957V21.839h0.006c0.154-5.179,4.399-9.331,9.615-9.331s9.461,4.152,9.615,9.331h0.008v10.166h3.955V21.719H44.376z"/>
	<path fill="#FFFFFF" d="M34.352,43.934c0,0.979-0.397,1.863-1.038,2.504c-0.642,0.643-1.527,1.039-2.506,1.039
		c-1.957,0-3.544-1.588-3.544-3.543c0-1.109,0.51-2.1,1.309-2.75c0.61-0.496,1.388-0.795,2.235-0.795
		C32.765,40.389,34.352,41.977,34.352,43.934z"/>
	<g>
		<path fill="#FFFFFF" d="M32.66,48.817c0,1.56-0.833,2.835-1.852,2.835s-1.852-1.275-1.852-2.835V47.39
			c0-1.56,0.833-2.835,1.852-2.835s1.852,1.275,1.852,2.835V48.817z"/>
	</g>
</g>
</svg>
