<?xml version="1.0" encoding="utf-8"?>
<!-- Generator: Adobe Illustrator 15.1.0, SVG Export Plug-In . SVG Version: 6.00 Build 0)  -->
<!DOCTYPE svg PUBLIC "-//W3C//DTD SVG 1.1//EN" "http://www.w3.org/Graphics/SVG/1.1/DTD/svg11.dtd">
<svg version="1.1" id="Layer_1" xmlns="http://www.w3.org/2000/svg" xmlns:xlink="http://www.w3.org/1999/xlink" x="0px" y="0px"
	 width="400px" height="400px" viewBox="0 0 400 400" enable-background="new 0 0 400 400" xml:space="preserve">
<g>
	<g>
		<path fill="#FFFFFF" d="M349.425,276.99H147.943c-29.633,0-53.734-24.108-53.734-53.742c0-29.119,23.29-52.901,52.218-53.707
			c2.42-35.807,31.997-63.62,68.054-63.62c25.215,0,47.99,13.639,59.985,35.75c9.011-7.938,20.462-12.284,32.512-12.284
			c27.172,0,49.264,22.098,49.264,49.248c0,3.217-0.339,6.441-1.03,9.8c21.676,2.997,37.782,21.342,37.782,43.459
			C392.993,256.755,373.449,276.99,349.425,276.99z M148.07,173.055c-27.827,0-50.334,22.513-50.334,50.186
			c0,27.69,22.522,50.213,50.208,50.213h201.481c21.702,0,40.047-19.027,40.047-41.562c0-20.963-15.727-38.235-36.583-40.177
			l-2.031-0.188l0.479-1.981c0.931-3.789,1.376-7.36,1.376-10.909c0-25.209-20.519-45.72-45.734-45.72
			c-11.91,0-23.199,4.572-31.785,12.883l-1.729,1.672l-1.07-2.152c-11.069-22.133-33.262-35.877-57.912-35.877
			c-34.716,0-63.108,27.192-64.619,61.919l-0.077,1.686H148.1C148.091,173.055,148.079,173.055,148.07,173.055z"/>
	</g>
	<g>
		<path fill="#FFFFFF" d="M96.481,255.809H60.456c-28.377,0-51.47-23.084-51.47-51.47c0-26.303,20.066-48.401,46.016-51.132
			c-0.374-2.835-0.55-5.354-0.55-7.803c0-34.283,27.89-62.173,62.173-62.173c9.899,0,19.699,2.377,28.455,6.893
			c15.988-25.555,43.293-40.752,73.389-40.752c41.896,0,77.717,29.916,85.158,71.141l0.348,1.905l-1.928,0.162
			c-8.811,0.763-16.953,3.38-24.213,7.79l-1.393,0.84l-0.953-1.319c-14.285-19.777-36.525-31.115-61-31.115
			c-36.981,0-68.23,26.438-74.312,62.851l-0.211,1.263l-1.263,0.191c-29.436,4.509-51.633,30.379-51.633,60.169
			c0,10.441,2.738,20.793,7.924,29.932L96.481,255.809z M116.625,86.752c-32.336,0-58.646,26.31-58.646,58.646
			c0,2.794,0.247,5.701,0.776,9.13l0.296,1.905l-1.912,0.127c-25.019,1.708-44.626,22.698-44.626,47.779
			c0,26.438,21.506,47.942,47.942,47.942h30.05c-4.565-8.996-6.964-18.975-6.964-29.033c0-31.095,22.859-58.145,53.367-63.45
			c6.859-37.479,39.286-64.551,77.572-64.551c24.709,0,48.099,11.663,62.908,31.291c6.82-3.888,14.342-6.322,22.406-7.275
			c-7.875-38.565-41.783-66.357-81.328-66.357c-29.397,0-56.032,15.134-71.236,40.47l-0.875,1.461l-1.489-0.826
			C136.253,89.257,126.487,86.752,116.625,86.752z"/>
	</g>
</g>
<g>
	<path fill="#FFFFFF" d="M61.637,327.193c0,5.338-0.463,10.139-1.39,14.404c-0.927,4.266-2.429,7.893-4.505,10.879
		c-2.078,2.988-4.786,5.281-8.125,6.879c-3.339,1.598-7.405,2.396-12.198,2.396s-8.852-0.799-12.174-2.396
		c-3.324-1.598-6.023-3.897-8.1-6.901c-2.078-3.003-3.587-6.63-4.53-10.88c-0.943-4.25-1.414-9.043-1.414-14.381
		c0-5.303,0.471-10.088,1.414-14.354c0.942-4.266,2.452-7.893,4.53-10.88c2.077-2.987,4.776-5.288,8.1-6.901
		c3.323-1.613,7.381-2.422,12.174-2.422s8.858,0.801,12.198,2.397c3.339,1.598,6.047,3.882,8.125,6.854
		c2.077,2.971,3.578,6.59,4.505,10.855C61.173,317.01,61.637,321.826,61.637,327.193z M54.639,327.193
		c0-4.601-0.335-8.683-1.006-12.245c-0.671-3.562-1.758-6.558-3.259-8.986c-1.502-2.428-3.483-4.272-5.943-5.536
		c-2.461-1.262-5.464-1.894-9.011-1.894c-3.579,0-6.599,0.622-9.059,1.87c-2.461,1.246-4.45,3.084-5.967,5.512
		c-1.518,2.429-2.612,5.424-3.283,8.986c-0.671,3.562-1.006,7.66-1.006,12.293c0,4.603,0.335,8.677,1.006,12.224
		c0.671,3.547,1.765,6.542,3.283,8.985c1.518,2.445,3.506,4.3,5.967,5.562c2.46,1.263,5.48,1.894,9.059,1.894
		c3.546,0,6.55-0.631,9.011-1.894c2.46-1.262,4.441-3.106,5.943-5.536c1.501-2.428,2.588-5.424,3.259-8.986
		C54.304,335.878,54.639,331.796,54.639,327.193z"/>
	<path fill="#FFFFFF" d="M108.081,360.361V329.16c0-2.812-0.128-5.16-0.383-7.046c-0.256-1.886-0.703-3.388-1.342-4.507
		c-0.64-1.117-1.51-1.907-2.612-2.371c-1.102-0.463-2.485-0.695-4.146-0.695c-2.205,0-4.762,0.822-7.669,2.469
		c-2.908,1.646-5.88,3.924-8.915,6.83v36.521h-6.183v-50.277h6.183v7.956c1.438-1.373,2.883-2.636,4.338-3.786
		c1.454-1.15,2.923-2.141,4.409-2.972c1.486-0.831,2.979-1.478,4.481-1.941c1.502-0.463,3.02-0.694,4.554-0.694
		c2.684,0,4.889,0.399,6.614,1.197c1.726,0.801,3.099,1.975,4.122,3.523c1.022,1.55,1.733,3.451,2.133,5.703
		c0.399,2.252,0.599,4.834,0.599,7.74v33.551H108.081L108.081,360.361z"/>
	<path fill="#FFFFFF" d="M135.162,335.247c0,3.675,0.231,6.854,0.695,9.538c0.463,2.684,1.247,4.896,2.349,6.639
		c1.103,1.741,2.564,3.027,4.386,3.857c1.821,0.832,4.09,1.246,6.806,1.246c1.342,0,2.572-0.119,3.69-0.359
		c1.118-0.238,2.165-0.639,3.14-1.197c0.974-0.56,1.909-1.277,2.804-2.156c0.894-0.879,1.773-1.957,2.636-3.235l4.937,3.211
		c-0.895,1.438-1.877,2.717-2.947,3.835c-1.071,1.118-2.301,2.061-3.691,2.827c-1.39,0.769-2.972,1.358-4.745,1.772
		c-1.773,0.416-3.81,0.623-6.111,0.623c-3.324,0-6.248-0.479-8.771-1.438c-2.524-0.959-4.642-2.484-6.351-4.577
		s-3.004-4.801-3.882-8.124c-0.879-3.322-1.318-7.35-1.318-12.078c0-4.25,0.367-8.045,1.102-11.384s1.909-6.167,3.523-8.483
		c1.613-2.315,3.707-4.082,6.279-5.297c2.572-1.214,5.711-1.82,9.418-1.82c3.259,0,6.055,0.512,8.388,1.533
		c2.332,1.022,4.242,2.502,5.728,4.435c1.486,1.934,2.58,4.298,3.283,7.094c0.703,2.796,1.055,5.967,1.055,9.515v4.025
		L135.162,335.247L135.162,335.247z M161.475,330.214c-0.096-5.655-1.15-9.801-3.163-12.438c-2.013-2.635-5.145-3.953-9.395-3.953
		c-2.205,0-4.114,0.318-5.728,0.959c-1.614,0.64-2.972,1.629-4.074,2.972c-1.102,1.343-1.965,3.043-2.588,5.104
		c-0.623,2.061-1.047,4.514-1.271,7.355L161.475,330.214L161.475,330.214z"/>
	<path fill="#FFFFFF" d="M227.952,327.193c0,6.488-0.664,11.863-1.99,16.13c-1.326,4.266-3.274,7.661-5.846,10.186
		c-2.574,2.524-5.753,4.298-9.539,5.319c-3.787,1.023-8.142,1.533-13.061,1.533h-15.623v-66.334h15.527
		c5.206,0,9.721,0.56,13.539,1.678s6.99,2.972,9.516,5.561c2.523,2.588,4.4,5.998,5.631,10.232
		C227.337,315.732,227.952,320.964,227.952,327.193z M220.954,327.1c0-5.017-0.425-9.259-1.271-12.727
		c-0.848-3.466-2.223-6.278-4.123-8.436c-1.899-2.156-4.385-3.707-7.453-4.649c-3.066-0.94-6.822-1.413-11.261-1.413h-8.435v54.592
		h8.435c4.343,0,8.05-0.455,11.119-1.365c3.066-0.91,5.559-2.437,7.477-4.578c1.916-2.141,3.314-4.961,4.193-8.459
		C220.516,336.564,220.954,332.244,220.954,327.1z"/>
	<path fill="#FFFFFF" d="M268.788,316.171c-1.119-0.446-2.333-0.671-3.644-0.671c-1.533,0-2.933,0.191-4.193,0.575
		c-1.264,0.383-2.501,0.958-3.715,1.726c-1.215,0.768-2.452,1.719-3.715,2.852c-1.263,1.136-2.66,2.47-4.193,4.003v35.708h-6.184
		v-50.278h6.184v8.675c1.438-1.438,2.804-2.738,4.098-3.906c1.295-1.166,2.59-2.155,3.883-2.972c1.295-0.813,2.604-1.444,3.93-1.893
		c1.326-0.448,2.726-0.673,4.195-0.673c0.926,0,1.772,0.082,2.539,0.24c0.769,0.16,1.486,0.416,2.157,0.768L268.788,316.171z"/>
	<path fill="#FFFFFF" d="M288.822,297.812c0,1.631-0.344,2.74-1.03,3.332c-0.688,0.592-1.813,0.887-3.379,0.887
		c-1.63,0-2.756-0.367-3.379-1.104c-0.623-0.734-0.935-1.773-0.935-3.115c0-1.438,0.317-2.483,0.957-3.14
		c0.639-0.653,1.758-0.981,3.355-0.981c1.629,0,2.771,0.319,3.427,0.959S288.822,296.346,288.822,297.812z M281.346,360.361v-50.277
		h6.184v50.277H281.346z"/>
	<path fill="#FFFFFF" d="M323.284,360.361h-6.566l-17.686-50.277h6.614l14.521,42.705l14.427-42.705h6.375L323.284,360.361z"/>
	<path fill="#FFFFFF" d="M355.877,335.247c0,3.675,0.231,6.854,0.695,9.538c0.463,2.684,1.246,4.896,2.349,6.639
		c1.103,1.741,2.563,3.027,4.385,3.857c1.822,0.832,4.091,1.246,6.808,1.246c1.342,0,2.57-0.119,3.689-0.359
		c1.118-0.238,2.164-0.639,3.141-1.197c0.975-0.56,1.908-1.277,2.804-2.156c0.895-0.879,1.773-1.957,2.636-3.235l4.938,3.211
		c-0.896,1.438-1.878,2.717-2.948,3.835s-2.301,2.061-3.69,2.827c-1.39,0.769-2.972,1.358-4.744,1.772
		c-1.773,0.416-3.812,0.623-6.111,0.623c-3.323,0-6.247-0.479-8.771-1.438c-2.523-0.959-4.642-2.484-6.351-4.577
		c-1.71-2.093-3.004-4.801-3.883-8.124c-0.879-3.322-1.318-7.35-1.318-12.078c0-4.25,0.367-8.045,1.104-11.384
		c0.735-3.339,1.908-6.167,3.522-8.483c1.612-2.315,3.706-4.082,6.278-5.297c2.572-1.214,5.711-1.82,9.418-1.82
		c3.26,0,6.056,0.512,8.388,1.533c2.333,1.022,4.242,2.502,5.729,4.435c1.484,1.934,2.579,4.298,3.282,7.094
		c0.702,2.796,1.055,5.967,1.055,9.515v4.025L355.877,335.247L355.877,335.247z M382.19,330.214
		c-0.097-5.655-1.15-9.801-3.163-12.438c-2.015-2.635-5.146-3.953-9.396-3.953c-2.205,0-4.114,0.318-5.728,0.959
		c-1.614,0.64-2.973,1.629-4.074,2.972c-1.104,1.343-1.965,3.043-2.588,5.104c-0.623,2.061-1.047,4.514-1.271,7.355L382.19,330.214
		L382.19,330.214z"/>
</g>
</svg>
