<svg xmlns="http://www.w3.org/2000/svg" xmlns:xlink="http://www.w3.org/1999/xlink" version="1.1" x="0px" y="0px" width="400px" height="400px" viewBox="0 0 75 75" enable-background="new 0 0 75 75" xml:space="preserve"><style>.style0{fill:	#fff;}</style><g><g><g><g><g><g><path d="M21.667 59.6" class="style0"/></g><g><path d="M53.333 19.3" class="style0"/></g><g><path d="M21.835 19.3" class="style0"/></g></g></g></g></g></g><path d="M37.5 53.154c-7.577 0-13.742-6.165-13.742-13.743c0-7.577 6.165-13.742 13.742-13.742 c7.578 0 13.7 6.2 13.7 13.742C51.243 47 45.1 53.2 37.5 53.154z M37.5 27.669c-6.475 0-11.742 5.268-11.742 11.7 c0 6.5 5.3 11.7 11.7 11.743c6.476 0 11.743-5.268 11.743-11.743C49.243 32.9 44 27.7 37.5 27.669z" class="style0"/><path d="M44.567 39.411c0 1.951-0.791 3.718-2.07 4.997s-3.046 2.071-4.998 2.071c-3.902 0-7.066-3.165-7.066-7.068 c0-2.212 1.017-4.187 2.608-5.482c1.216-0.991 2.768-1.585 4.458-1.585C41.403 32.3 44.6 35.5 44.6 39.411z" class="style0"/><path d="M66.236 61.158H8.764c-2.114 0-3.835-1.721-3.835-3.835V22.678c0-2.114 1.721-3.835 3.835-3.835h57.473 c2.114 0 3.8 1.7 3.8 3.835v34.646C70.071 59.4 68.4 61.2 66.2 61.158z M8.764 20.8 c-1.012 0-1.835 0.823-1.835 1.835v34.646c0 1 0.8 1.8 1.8 1.835h57.473c1.012 0 1.835-0.823 1.835-1.835V22.678 c0-1.012-0.823-1.835-1.835-1.835H8.764z" class="style0"/><path d="M17.426 31.944h-4.014c-2.114 0-3.835-1.721-3.835-3.835v-0.825c0-2.114 1.721-3.835 3.835-3.835h4.014 c2.114 0 3.8 1.7 3.8 3.835v0.825C21.261 30.2 19.5 31.9 17.4 31.944z M13.412 25.4 c-1.012 0-1.835 0.823-1.835 1.835v0.825c0 1 0.8 1.8 1.8 1.835h4.014c1.012 0 1.835-0.823 1.835-1.835v-0.825 c0-1.012-0.823-1.835-1.835-1.835H13.412z" class="style0"/><path d="M11.223 18.972c0.047-2.219 1.883-3.977 4.099-3.931c1.109 0 2.1 0.5 2.8 1.2 c0.712 0.7 1.1 1.8 1.1 2.9" class="style0"/><path d="M66.321 19.199h-2v-2.178c0-0.558-0.754-1.179-1.835-1.179h-4.973c-1.081 0-1.835 0.621-1.835 1.179v2.178 h-2v-2.178c0-1.753 1.721-3.179 3.835-3.179h4.973c2.114 0 3.8 1.4 3.8 3.179V19.199z" class="style0"/></svg>