<?xml version="1.0" encoding="utf-8"?>
<!-- Generator: Adobe Illustrator 16.0.0, SVG Export Plug-In . SVG Version: 6.00 Build 0)  -->
<!DOCTYPE svg PUBLIC "-//W3C//DTD SVG 1.1//EN" "http://www.w3.org/Graphics/SVG/1.1/DTD/svg11.dtd">
<svg version="1.1" id="Layer_1" xmlns="http://www.w3.org/2000/svg" xmlns:xlink="http://www.w3.org/1999/xlink" x="0px" y="0px"
	 width="400px" height="400px" viewBox="0 0 400 400" enable-background="new 0 0 400 400" xml:space="preserve">
<g>
	<g>
		<path fill="#FFFFFF" d="M381.422,18.517c0,56.663,0,113.823,0,171.112c-66.172,0-130.51,0-195.712,0c0-47.572,0-94.816,0-142.99
			c30.354-4.448,60.516-8.743,90.642-13.301c31.775-4.881,63.317-9.851,95.13-14.822C374.886,18.517,377.942,18.517,381.422,18.517z
			"/>
		<path fill="#FFFFFF" d="M380.417,210.997c0,56.663,0,112.332,0,170.486c-65.311-9.454-129.724-18.773-194.801-28.208
			c0-47.467,0-94.388,0-142.159c64.849-0.243,129.699-0.243,194.812-0.119H380.417z"/>
		<path fill="#FFFFFF" d="M164.914,49.577c0,47.716,0,93.445,0,139.67c-48.268,0-96.223,0-145.257,0c0-39.271,0-78.632,0-118.789
			c48.095-6.71,95.845-13.669,145.053-20.881H164.914z"/>
		<path fill="#FFFFFF" d="M164.879,211.077c0,46.225,0,91.952,0,139.172c-30.101-4.274-59.76-8.489-89.413-12.715
			c-15.334-2.187-30.752-3.94-45.937-6.889c-4.006-0.774-10.383-5.203-10.443-8.058c-0.711-36.776-0.467-73.566-0.467-111.268
			c48.909-0.447,96.884-0.447,146.091-0.243H164.879z"/>
	</g>
</g>
</svg>
