<svg xmlns="http://www.w3.org/2000/svg" xmlns:xlink="http://www.w3.org/1999/xlink" version="1.1" x="0px" y="0px" width="400px" height="400px" viewBox="0 0 52.338 69.686" enable-background="new 0 0 52.338 69.686" xml:space="preserve"><style>.style0{fill:	#fff;}</style><g><g><path d="M48.502 9.293H1c-0.553 0-1-0.447-1-1s0.447-1 1-1h47.502c1.012 0 1.835-0.823 1.835-1.835L50.338 1 c0-0.553 0.448-1 1-1l0 0c0.553 0 1 0.4 1 1l-0.001 4.458C52.337 7.6 50.6 9.3 48.5 9.293z" class="style0"/></g><path d="M29.26 8.424c0-1.762-0.66-3.205-1.465-3.205c-0.5 0-13.2 0-13.699 0c-0.807 0-1.465 1.443-1.465 3.2 v0.562h2.416h0.514H29.26V8.424z" class="style0"/><path d="M7.504 8.424c0-1.762-0.662-3.205-1.465-3.205c-0.5 0-1.631 0-2.131 0c-0.807 0-1.467 1.443-1.467 3.2 v0.562h2.418h0.514h2.131V8.424z" class="style0"/><path d="M44.628 8.424c0-1.762-0.661-3.205-1.465-3.205c-0.5 0-7.761 0-8.26 0c-0.807 0-1.467 1.443-1.467 3.2 v0.562h2.418h6.644h2.13V8.424z" class="style0"/><g><g><path d="M44.771 8.7" class="style0"/></g><path d="M41.937 69.686H6.991c-2.114 0-3.835-1.721-3.835-3.835V7.744h2v58.106c0 1 0.8 1.8 1.8 1.8 h34.945c1.012 0 1.835-0.823 1.835-1.835V7.744h2v58.106C45.771 68 44.1 69.7 41.9 69.686z" class="style0"/><rect x="3.2" y="35.6" width="2" height="6.2" class="style0"/><rect x="3.2" y="35.6" width="2" height="6.2" class="style0"/></g><g><path d="M3.834 38.896h0.562v-2.93H3.834c-1.764 0-3.203 0.658-3.203 1.465C0.631 38.2 2.1 38.9 3.8 38.9 z" class="style0"/><path d="M3.834 34.189h0.562v-2.93H3.834c-1.764 0-3.203 0.66-3.203 1.465C0.631 33.5 2.1 34.2 3.8 34.189z " class="style0"/><path d="M3.834 29.486h0.562v-2.932H3.834c-1.764 0-3.203 0.66-3.203 1.465C0.631 28.8 2.1 29.5 3.8 29.5 z" class="style0"/><path d="M3.834 24.779h0.562v-2.932H3.834c-1.764 0-3.203 0.66-3.203 1.467C0.631 24.1 2.1 24.8 3.8 24.8 z" class="style0"/></g><g><path d="M3.834 57.766h0.562v-2.932H3.834c-1.764 0-3.203 0.662-3.203 1.5 C0.631 57.1 2.1 57.8 3.8 57.766z" class="style0"/><path d="M3.834 53.059h0.562v-2.93H3.834c-1.764 0-3.203 0.66-3.203 1.467C0.631 52.4 2.1 53.1 3.8 53.059z" class="style0"/></g><g><path d="M33.231 32.273c-0.553 0-1-0.447-1-1V16.906c0-0.553 0.447-1 1-1s1 0.4 1 1v14.367 C34.231 31.8 33.8 32.3 33.2 32.273z" class="style0"/><path d="M25.116 32.273c-0.553 0-1-0.447-1-1V16.906c0-0.553 0.447-1 1-1s1 0.4 1 1v14.367 C26.116 31.8 25.7 32.3 25.1 32.273z" class="style0"/><path d="M17 32.273c-0.553 0-1-0.447-1-1V16.906c0-0.553 0.447-1 1-1s1 0.4 1 1v14.367 C18 31.8 17.6 32.3 17 32.273z" class="style0"/></g><path d="M24.465 63.848c-7.585 0-13.756-6.171-13.756-13.756s6.171-13.756 13.756-13.756 c7.584 0 13.8 6.2 13.8 13.756S32.049 63.8 24.5 63.848z M24.465 38.336c-6.482 0-11.756 5.273-11.756 11.8 s5.273 11.8 11.8 11.756c6.481 0 11.754-5.273 11.754-11.756S30.946 38.3 24.5 38.336z" class="style0"/><path d="M24.465 57.262c-1.913 0-3.714-0.745-5.069-2.099c-1.356-1.356-2.103-3.157-2.103-5.073 c0-3.952 3.218-7.168 7.172-7.168c2.165 0 4.2 1 5.6 2.644c1.037 1.3 1.6 2.9 1.6 4.5 C31.635 54 28.4 57.3 24.5 57.262z M24.465 44.922c-2.852 0-5.172 2.318-5.172 5.168c0 1.4 0.5 2.7 1.5 3.7 c0.978 1 2.3 1.5 3.7 1.514c2.851 0 5.17-2.32 5.17-5.172c0-1.203-0.4-2.331-1.159-3.261 C27.488 45.6 26 44.9 24.5 44.922z" class="style0"/><rect x="29.7" y="49.1" width="7" height="2" class="style0"/><rect x="11.8" y="49.1" width="7" height="2" class="style0"/><rect x="23.2" y="55.6" width="2" height="7" class="style0"/><rect x="23.2" y="37.7" width="2" height="7" class="style0"/><rect x="27.1" y="55.4" transform="matrix(0.7072 0.707 -0.707 0.7072 48.8213 -5.0739)" width="7" height="2" class="style0"/><rect x="14.4" y="42.8" transform="matrix(0.707 0.7072 -0.7072 0.707 36.1983 0.1667)" width="7" height="2" class="style0"/><rect x="16.9" y="52.9" transform="matrix(0.7071 0.7071 -0.7071 0.7071 45.1323 3.8672)" width="2" height="7" class="style0"/><rect x="29.5" y="40.3" transform="matrix(0.7071 0.7071 -0.7071 0.7071 39.8968 -8.7724)" width="2" height="7" class="style0"/></g></svg>