<?xml version="1.0" encoding="utf-8"?>
<!-- Generator: Adobe Illustrator 16.0.0, SVG Export Plug-In . SVG Version: 6.00 Build 0)  -->
<!DOCTYPE svg PUBLIC "-//W3C//DTD SVG 1.1//EN" "http://www.w3.org/Graphics/SVG/1.1/DTD/svg11.dtd">
<svg version="1.1" id="Layer_1" xmlns="http://www.w3.org/2000/svg" xmlns:xlink="http://www.w3.org/1999/xlink" x="0px" y="0px"
	 width="400px" height="400px" viewBox="0 0 70 70" enable-background="new 0 0 70 70" xml:space="preserve">
<g>
	<g>
		<path fill="#FFFFFF" d="M56.39,46.808H27.833c-4.2,0-7.616-3.417-7.616-7.617c0-4.127,3.301-7.498,7.401-7.612
			c0.343-5.075,4.535-9.017,9.646-9.017c3.574,0,6.802,1.933,8.502,5.067c1.277-1.125,2.9-1.741,4.608-1.741
			c3.851,0,6.982,3.132,6.982,6.98c0,0.456-0.048,0.913-0.146,1.389c3.072,0.425,5.355,3.025,5.355,6.16
			C62.565,43.94,59.795,46.808,56.39,46.808z M27.851,32.077c-3.944,0-7.134,3.191-7.134,7.113c0,3.925,3.192,7.117,7.116,7.117
			H56.39c3.076,0,5.676-2.697,5.676-5.891c0-2.971-2.229-5.419-5.185-5.694l-0.288-0.027l0.068-0.281
			c0.132-0.537,0.195-1.043,0.195-1.546c0-3.573-2.908-6.48-6.482-6.48c-1.688,0-3.288,0.648-4.505,1.826l-0.245,0.237l-0.152-0.305
			c-1.569-3.137-4.714-5.085-8.208-5.085c-4.921,0-8.945,3.854-9.159,8.776l-0.011,0.239h-0.239
			C27.854,32.077,27.852,32.077,27.851,32.077z"/>
	</g>
	<g>
		<path fill="#FFFFFF" d="M20.539,43.806h-5.106c-4.022,0-7.295-3.272-7.295-7.295c0-3.728,2.844-6.86,6.522-7.247
			c-0.053-0.402-0.078-0.759-0.078-1.106c0-4.859,3.953-8.812,8.812-8.812c1.403,0,2.792,0.337,4.033,0.977
			c2.266-3.622,6.136-5.776,10.402-5.776c5.938,0,11.015,4.24,12.07,10.083l0.049,0.27l-0.273,0.023
			c-1.249,0.108-2.403,0.479-3.432,1.104l-0.197,0.119l-0.135-0.187c-2.025-2.803-5.177-4.41-8.646-4.41
			c-5.242,0-9.671,3.747-10.533,8.908l-0.03,0.179l-0.179,0.027c-4.172,0.639-7.318,4.306-7.318,8.528
			c0,1.48,0.388,2.947,1.123,4.242L20.539,43.806z M23.394,19.845c-4.583,0-8.312,3.729-8.312,8.312c0,0.396,0.035,0.808,0.11,1.294
			l0.042,0.27l-0.271,0.018c-3.546,0.242-6.325,3.217-6.325,6.772c0,3.747,3.048,6.795,6.795,6.795h4.259
			c-0.647-1.275-0.987-2.689-0.987-4.115c0-4.407,3.24-8.241,7.564-8.993c0.972-5.312,5.568-9.149,10.995-9.149
			c3.502,0,6.817,1.653,8.916,4.435c0.967-0.551,2.033-0.896,3.176-1.031c-1.116-5.466-5.922-9.405-11.527-9.405
			c-4.167,0-7.942,2.145-10.097,5.736l-0.124,0.207l-0.211-0.117C26.176,20.2,24.792,19.845,23.394,19.845z"/>
	</g>
</g>
</svg>
