<svg xmlns="http://www.w3.org/2000/svg" xmlns:xlink="http://www.w3.org/1999/xlink" version="1.1" x="0px" y="0px" width="400px" height="400px" viewBox="0 0 400 400" enable-background="new 0 0 400 400" xml:space="preserve"><style>.style0{fill:	#FFFFFF;}.style1{stroke:	#005D83;stroke-width:	1.5;stroke-miterlimit:	10;fill:	none;}</style><path d="M143.765 51.425c0 2.208-1.792 4.002-4.004 4.002c-2.212 0-4.009-1.795-4.009-4.002 c0-2.212 1.797-4.005 4.009-4.005C141.973 47.4 143.8 49.2 143.8 51.425z" class="style0"/><path d="M156.225 51.425c0 2.208-1.794 4.002-4.007 4.002s-4.009-1.795-4.009-4.002c0-2.212 1.797-4.005 4.009-4.005 S156.225 49.2 156.2 51.425z" class="style0"/><path d="M168.682 51.425c0 2.208-1.794 4.002-4.007 4.002s-4.007-1.795-4.007-4.002c0-2.212 1.795-4.005 4.007-4.005 S168.682 49.2 168.7 51.425z" class="style0"/><rect x="139.8" y="105.4" width="34.4" height="7.2" class="style0"/><rect x="139.8" y="116.9" width="38.7" height="7.2" class="style0"/><rect x="139.8" y="128.5" width="34.4" height="7.2" class="style0"/><rect x="139.8" y="140" width="34.4" height="7.2" class="style0"/><rect x="139.8" y="151.6" width="34.4" height="7.2" class="style0"/><rect x="186" y="90.4" width="7.2" height="123.1" class="style0"/><rect x="125.9" y="187.9" width="65" height="7.2" class="style0"/><path d="M380.063 218.098H134.078c-5.713 0-10.359-4.646-10.359-10.359V47.049c0-5.713 4.646-10.359 10.359-10.359 h245.985c5.713 0 10.4 4.6 10.4 10.359v160.689C390.423 213.5 385.8 218.1 380.1 218.098z M134.078 43.9 c-1.76 0-3.19 1.431-3.19 3.19v160.689c0 1.8 1.4 3.2 3.2 3.19h245.985c1.76 0 3.19-1.431 3.19-3.19V47.049 c0-1.759-1.431-3.19-3.19-3.19H134.078z" class="style0"/><rect x="128.3" y="58.5" width="258.5" height="7.2" class="style0"/><rect x="207.6" y="110.6" width="149.6" height="7.2" class="style0"/><rect x="207.6" y="122.2" width="152.1" height="7.2" class="style0"/><rect x="207.6" y="145.3" width="159.2" height="7.2" class="style0"/><rect x="207.6" y="156.9" width="149.6" height="7.2" class="style0"/><rect x="207.6" y="168.4" width="149.6" height="7.2" class="style0"/><rect x="207.6" y="180" width="141.9" height="7.2" class="style0"/><rect x="207.6" y="191.5" width="149.6" height="7.2" class="style0"/><rect x="125.9" y="88.3" width="263" height="7.2" class="style0"/><rect x="128.4" y="63.5" width="259.3" height="29.1" class="style0"/><rect x="129.8" y="192.1" width="58.6" height="23.6" class="style0"/><path d="M373.648 366.084H47.066c-9.447 0-17.132-7.684-17.132-17.131v-97.17c0-9.447 7.685-17.133 17.132-17.133 h326.582c9.446 0 17.1 7.7 17.1 17.133v97.17C390.779 358.4 383.1 366.1 373.6 366.084z M47.066 241.8 c-5.494 0-9.963 4.469-9.963 9.963v97.17c0 5.5 4.5 10 10 9.963h326.582c5.493 0 9.962-4.471 9.962-9.963v-97.17 c0-5.494-4.469-9.963-9.962-9.963H47.066z" class="style0"/><rect x="92.1" y="120.7" width="7.2" height="6" class="style0"/><path d="M107.203 120.741H84.1V74.538h23.104V120.741z M91.269 113.571h8.766V81.708h-8.766V113.571z" class="style0"/><path d="M35.111 252.973H23.958c-8.126 0-14.737-7.686-14.737-17.133V51.047c0-9.447 7.685-17.132 17.132-17.132 h55.75c9.447 0 17.1 7.7 17.1 17.132v27.871h-7.169V51.047c0-5.494-4.469-9.963-9.962-9.963h-55.75 c-5.494 0-9.963 4.469-9.963 9.963V235.84c0 5.4 3.5 10 7.6 9.963h11.153V252.973z" class="style0"/><g><path d="M95.649 78.9" class="style0"/><path d="M95.649 78.9" class="style1"/></g><path d="M373.17 282.92h-26.735l-0.054-3.637v-26.736l3.639-0.053h26.734l0.054 3.639v26.734L373.17 282.92z M353.551 275.752h16.088v-16.088h-16.088V275.752z" class="style0"/><path d="M68.314 282.92H41.58l-0.054-3.637v-26.736l3.638-0.053h26.735l0.054 3.639v26.734L68.314 282.92z M48.695 275.752h16.088v-16.088H48.695V275.752z" class="style0"/><path d="M102.188 282.92H75.453l-0.054-3.637v-26.736l3.639-0.053h26.734l0.054 3.639v26.734L102.188 282.92z M82.569 275.752h16.088v-16.088H82.569V275.752z" class="style0"/><path d="M136.062 282.92h-26.735l-0.053-3.637v-26.736l3.638-0.053h26.735l0.053 3.639v26.734L136.062 282.92z M116.442 275.752h16.088v-16.088h-16.088V275.752z" class="style0"/><path d="M169.933 282.92h-26.735l-0.054-3.637v-26.736l3.638-0.053h26.735l0.054 3.639v26.734L169.933 282.92z M150.313 275.752h16.088v-16.088h-16.088V275.752z" class="style0"/><path d="M203.807 282.92h-26.735l-0.054-3.637v-26.736l3.638-0.053h26.734l0.054 3.639v26.734L203.807 282.92z M184.187 275.752h16.088v-16.088h-16.088V275.752z" class="style0"/><path d="M237.68 282.92h-26.734l-0.054-3.637v-26.736l3.638-0.053h26.735l0.054 3.639v26.734L237.68 282.92z M218.061 275.752h16.089v-16.088h-16.089V275.752z" class="style0"/><path d="M271.552 282.92h-26.735l-0.054-3.637v-26.736l3.639-0.053h26.734l0.054 3.639v26.734L271.552 282.92z M251.932 275.752h16.089v-16.088h-16.089V275.752z" class="style0"/><path d="M305.425 282.92H278.69l-0.054-3.637v-26.736l3.638-0.053h26.735l0.054 3.639v26.734L305.425 282.92z M285.806 275.752h16.088v-16.088h-16.088V275.752z" class="style0"/><path d="M339.296 282.92h-26.734l-0.054-3.637v-26.736l3.638-0.053h26.735l0.054 3.639v26.734L339.296 282.92z M319.677 275.752h16.089v-16.088h-16.089V275.752z" class="style0"/><path d="M374.063 319.564h-41.269l-0.054-3.639v-26.734l3.638-0.053h41.27l0.054 3.637v26.734L374.063 319.564z M339.91 312.395h30.622v-16.088H339.91V312.395z" class="style0"/><path d="M87.012 319.564H42.835l-0.053-3.639v-26.734l3.638-0.053h44.177l0.054 3.637v26.734L87.012 319.564z M49.951 312.395h33.531v-16.088H49.951V312.395z" class="style0"/><path d="M121.724 319.564H94.989l-0.054-3.639v-26.734l3.638-0.053h26.735l0.054 3.637v26.734L121.724 319.564z M102.104 312.395h16.088v-16.088h-16.088V312.395z" class="style0"/><path d="M155.595 319.564H128.86l-0.054-3.639v-26.734l3.638-0.053h26.735l0.054 3.637v26.734L155.595 319.564z M135.976 312.395h16.088v-16.088h-16.088V312.395z" class="style0"/><path d="M189.468 319.564h-26.735l-0.054-3.639v-26.734l3.638-0.053h26.735l0.054 3.637v26.734L189.468 319.564z M169.849 312.395h16.089v-16.088h-16.089V312.395z" class="style0"/><path d="M223.342 319.564h-26.735l-0.054-3.639v-26.734l3.638-0.053h26.735l0.054 3.637v26.734L223.342 319.564z M203.723 312.395h16.088v-16.088h-16.088V312.395z" class="style0"/><path d="M257.213 319.564h-26.734l-0.054-3.639v-26.734l3.638-0.053h26.735l0.054 3.637v26.734L257.213 319.564z M237.594 312.395h16.089v-16.088h-16.089V312.395z" class="style0"/><path d="M291.087 319.564h-26.735l-0.054-3.639v-26.734l3.639-0.053h26.734l0.054 3.637v26.734L291.087 319.564z M271.467 312.395h16.089v-16.088h-16.089V312.395z" class="style0"/><path d="M324.958 319.564h-26.735l-0.053-3.639v-26.734l3.638-0.053h26.735l0.053 3.637v26.734L324.958 319.564z M305.339 312.395h16.088v-16.088h-16.088V312.395z" class="style0"/><path d="M90.75 353.018H42.21l-0.054-3.639v-26.734l3.638-0.053h48.541l0.054 3.637v26.736L90.75 353.018z M49.325 345.85H87.22v-16.09H49.325V345.85z" class="style0"/><path d="M125.667 353.018H98.933l-0.054-3.639v-26.734l3.638-0.053h26.735l0.054 3.637v26.736L125.667 353.018z M106.048 345.85h16.089v-16.09h-16.089V345.85z" class="style0"/><path d="M159.541 353.018h-26.735l-0.054-3.639v-26.734l3.638-0.053h26.735l0.054 3.637v26.736L159.541 353.018z M139.921 345.85h16.089v-16.09h-16.089V345.85z" class="style0"/><path d="M258.508 353.018h-91.529l-0.054-3.639v-26.734l3.638-0.053h91.53l0.054 3.637v26.736L258.508 353.018z M174.094 345.85h80.884v-16.09h-80.884V345.85z" class="style0"/><path d="M295.033 353.018h-26.735l-0.054-3.639v-26.734l3.639-0.053h26.734l0.054 3.637v26.736L295.033 353.018z M275.414 345.85h16.088v-16.09h-16.088V345.85z" class="style0"/><path d="M328.904 353.018h-26.735l-0.054-3.639v-26.734l3.639-0.053h26.734l0.054 3.637v26.736L328.904 353.018z M309.285 345.85h16.088v-16.09h-16.088V345.85z" class="style0"/><path d="M362.36 353.018h-26.735l-0.054-3.639v-26.734l3.639-0.053h26.734l0.054 3.637v26.736L362.36 353.018z M342.74 345.85h16.089v-16.09H342.74V345.85z" class="style0"/></svg>