<svg xmlns="http://www.w3.org/2000/svg" xmlns:xlink="http://www.w3.org/1999/xlink" version="1.1" x="0px" y="0px" width="400px" height="400px" viewBox="0 0 75 75" enable-background="new 0 0 75 75" xml:space="preserve"><style>.style0{fill:	#fff;}</style><g transform="rotate(45,30,45)"><path d="M40.795 66.816c-1.234 1.233-3.203 1.502-4.745 0.539l-2.63-1.645c-0.468-0.292-0.611-0.909-0.318-1.378 c0.288-0.467 0.909-0.61 1.378-0.317l2.63 1.644c0.413 0.3 0.9 0.3 1.4 0.229c0.479-0.111 0.882-0.399 1.144-0.812 L66.69 21.814c0.536-0.857 0.274-1.992-0.583-2.528l-13.163-8.229c-0.413-0.259-0.904-0.34-1.383-0.229 c-0.48 0.11-0.885 0.399-1.145 0.812L39.399 29.12c-0.294 0.464-0.912 0.607-1.38 0.312c-0.467-0.294-0.607-0.912-0.313-1.379 l11.016-17.479c0.54-0.863 1.389-1.467 2.39-1.696c1-0.23 2.028-0.06 2.9 0.482l13.162 8.229c1.792 1.1 2.3 3.5 1.2 5.3 L41.335 66.137C41.178 66.4 41 66.6 40.8 66.816z" class="style0"/><path d="M67.32 23.753l-0.423-0.265l-1.375 2.199l0.423 0.265c1.322 0.8 2.7 1 3.1 0.4 C69.415 25.8 68.6 24.6 67.3 23.753z" class="style0"/><path d="M65.112 27.285l-0.423-0.265l-1.375 2.199l0.423 0.264c1.323 0.8 2.7 1 3.1 0.4 C67.206 29.3 66.4 28.1 65.1 27.285z" class="style0"/><path d="M62.905 30.815l-0.423-0.264l-1.375 2.198l0.423 0.265c1.323 0.8 2.7 1 3.1 0.4 C64.999 32.8 64.2 31.6 62.9 30.815z" class="style0"/><path d="M60.696 34.348l-0.423-0.265l-1.375 2.199l0.423 0.265c1.322 0.8 2.7 1 3.1 0.4 C62.79 36.3 62 35.2 60.7 34.348z" class="style0"/><path d="M58.489 37.878l-0.423-0.265l-1.375 2.199l0.423 0.265c1.323 0.8 2.7 1 3.1 0.4 C60.583 39.9 59.8 38.7 58.5 37.878z" class="style0"/><path d="M56.281 41.409l-0.423-0.265l-1.375 2.2l0.423 0.264c1.322 0.8 2.7 1 3.1 0.4 C58.375 43.4 57.6 42.2 56.3 41.409z" class="style0"/><path d="M54.073 44.94l-0.423-0.265l-1.375 2.199l0.423 0.265c1.322 0.8 2.7 1 3.1 0.4 C56.167 46.9 55.4 45.8 54.1 44.94z" class="style0"/><path d="M51.865 48.472l-0.423-0.265l-1.375 2.199l0.423 0.265c1.322 0.8 2.7 1 3.1 0.4 C53.959 50.5 53.2 49.3 51.9 48.472z" class="style0"/><path d="M49.657 52.002l-0.423-0.265l-1.375 2.199l0.423 0.265c1.322 0.8 2.7 1 3.1 0.4 C51.751 54 51 52.8 49.7 52.002z" class="style0"/><path d="M47.449 55.534l-0.423-0.265l-1.375 2.199l0.423 0.265c1.322 0.8 2.7 1 3.1 0.4 C49.543 57.5 48.8 56.4 47.4 55.534z" class="style0"/><path d="M45.242 59.065l-0.423-0.265l-1.375 2.198l0.423 0.265c1.322 0.8 2.7 1 3.1 0.4 C47.336 61.1 46.6 59.9 45.2 59.065z" class="style0"/><path d="M43.033 62.597l-0.423-0.265l-1.375 2.199l0.422 0.264c1.323 0.8 2.7 1 3.1 0.4 C45.128 64.6 44.4 63.4 43 62.597z" class="style0"/><path d="M55.917 34.396c-0.322 0.321-0.834 0.392-1.237 0.14l-11.022-6.892c-0.468-0.292-0.61-0.91-0.317-1.378 c0.289-0.469 0.909-0.61 1.378-0.317l11.022 6.892c0.468 0.3 0.6 0.9 0.3 1.378C56.018 34.3 56 34.3 55.9 34.396z" class="style0"/><path d="M51.225 41.9c-0.322 0.321-0.834 0.392-1.237 0.14l-11.022-6.891c-0.468-0.293-0.611-0.91-0.318-1.379 c0.288-0.469 0.909-0.61 1.378-0.317l11.022 6.892c0.468 0.3 0.6 0.9 0.3 1.378C51.326 41.8 51.3 41.8 51.2 41.9z" class="style0"/><path d="M46.533 49.404c-0.322 0.322-0.833 0.392-1.236 0.141l-9.135-5.713c-0.468-0.293-0.61-0.91-0.318-1.379 c0.293-0.47 0.91-0.609 1.378-0.317l9.135 5.713c0.468 0.3 0.6 0.9 0.3 1.378C46.633 49.3 46.6 49.4 46.5 49.404z" class="style0"/><path d="M41.841 56.909c-0.322 0.321-0.833 0.392-1.237 0.14l-5.845-3.654c-0.468-0.293-0.61-0.91-0.317-1.379 c0.288-0.467 0.909-0.61 1.378-0.317l5.846 3.655c0.468 0.3 0.6 0.9 0.3 1.378C41.942 56.8 41.9 56.9 41.8 56.909z" class="style0"/><path d="M60.609 26.893c-0.322 0.322-0.834 0.393-1.237 0.141l-11.021-6.893c-0.468-0.292-0.61-0.91-0.318-1.378 c0.294-0.469 0.91-0.61 1.378-0.317l11.021 6.892c0.468 0.3 0.6 0.9 0.3 1.379C60.709 26.8 60.7 26.8 60.6 26.893z" class="style0"/><path d="M63.526 16.647c-1.177 1.881-3.654 2.451-5.534 1.276c-0.939-0.588-1.553-1.501-1.784-2.503 s-0.081-2.092 0.507-3.032" class="style0"/><path d="M27.782 66.309c-0.853 0.854-2.07 1.262-3.257 1.091L9.159 65.2c-2.093-0.3-3.552-2.246-3.252-4.339 l7.229-50.509c0.118-0.824 0.492-1.571 1.082-2.162c0.853-0.853 2.07-1.261 3.257-1.09L32.84 9.3 c2.093 0.3 3.6 2.2 3.3 4.339l-7.229 50.509C28.747 65 28.4 65.7 27.8 66.309z M15.631 9.6 c-0.282 0.281-0.46 0.638-0.517 1.03L7.886 61.145c-0.143 1 0.6 1.9 1.6 2.076l15.366 2.2 c0.964 0.1 1.935-0.585 2.076-1.556l7.229-50.509c0.143-1.002-0.556-1.933-1.557-2.076L17.19 9.1 C16.616 9 16 9.2 15.6 9.605z" class="style0"/><path d="M35.475 14.874l-0.494-0.071l-0.368 2.567l0.495 0.07c1.542 0.2 2.889-0.176 2.99-0.882 C38.197 15.9 37 15.1 35.5 14.874z" class="style0"/><path d="M34.884 18.997l-0.494-0.072l-0.368 2.567l0.495 0.072c1.542 0.2 2.889-0.177 2.989-0.884 C37.608 20 36.4 19.2 34.9 18.997z" class="style0"/><path d="M34.294 23.118l-0.494-0.07l-0.368 2.567l0.494 0.07c1.544 0.2 2.89-0.176 2.991-0.882 C37.018 24.1 35.8 23.3 34.3 23.118z" class="style0"/><path d="M33.704 27.242l-0.494-0.071l-0.368 2.567l0.495 0.071c1.544 0.2 2.889-0.177 2.989-0.883 C36.428 28.2 35.2 27.5 33.7 27.242z" class="style0"/><path d="M33.114 31.363l-0.494-0.07l-0.367 2.567l0.494 0.071c1.544 0.2 2.89-0.178 2.991-0.883 C35.837 32.3 34.7 31.6 33.1 31.363z" class="style0"/><path d="M32.524 35.485l-0.494-0.07l-0.367 2.568l0.494 0.07c1.544 0.2 2.889-0.177 2.99-0.882 C35.248 36.5 34.1 35.7 32.5 35.485z" class="style0"/><path d="M31.935 39.609l-0.495-0.072l-0.367 2.567l0.494 0.072c1.544 0.2 2.889-0.177 2.989-0.884 C34.658 40.6 33.5 39.8 31.9 39.609z" class="style0"/><path d="M31.344 43.73l-0.494-0.069l-0.367 2.567l0.494 0.071c1.545 0.2 2.889-0.178 2.99-0.883 C34.067 44.7 32.9 44 31.3 43.73z" class="style0"/><path d="M30.755 47.854l-0.495-0.071l-0.367 2.567l0.494 0.071c1.544 0.2 2.889-0.177 2.989-0.883 C33.478 48.8 32.3 48.1 30.8 47.854z" class="style0"/><path d="M30.165 51.976l-0.495-0.069l-0.367 2.567l0.495 0.069c1.544 0.2 2.888-0.176 2.99-0.881 C32.888 53 31.7 52.2 30.2 51.976z" class="style0"/><path d="M29.574 56.098l-0.494-0.069l-0.368 2.567l0.494 0.071c1.544 0.2 2.89-0.178 2.99-0.883 C32.297 57.1 31.1 56.3 29.6 56.098z" class="style0"/><path d="M28.984 60.222l-0.495-0.07l-0.367 2.567l0.495 0.07c1.543 0.2 2.888-0.176 2.989-0.882 C31.708 61.2 30.5 60.4 29 60.222z" class="style0"/><path d="M29.13 29.565c-0.215 0.215-0.524 0.33-0.85 0.283l-12.869-1.842c-0.546-0.078-0.926-0.585-0.848-1.131 c0.079-0.547 0.584-0.928 1.131-0.849l12.869 1.842c0.546 0.1 0.9 0.6 0.8 1.131C29.38 29.2 29.3 29.4 29.1 29.565z" class="style0"/><path d="M27.876 38.327c-0.215 0.215-0.525 0.33-0.85 0.283l-12.87-1.842c-0.546-0.078-0.926-0.585-0.848-1.132 c0.08-0.546 0.585-0.927 1.132-0.848l12.869 1.842c0.546 0.1 0.9 0.6 0.8 1.131C28.126 38 28 38.2 27.9 38.327z" class="style0"/><path d="M26.622 47.088c-0.215 0.215-0.525 0.33-0.85 0.283l-12.869-1.843c-0.546-0.078-0.926-0.584-0.848-1.131 c0.079-0.547 0.584-0.928 1.131-0.849l12.869 1.843c0.546 0.1 0.9 0.6 0.8 1.131C26.872 46.7 26.8 46.9 26.6 47.088z " class="style0"/><path d="M25.368 55.849c-0.215 0.215-0.525 0.33-0.85 0.283L11.649 54.29c-0.546-0.078-0.926-0.585-0.848-1.132 c0.079-0.548 0.585-0.926 1.132-0.849l12.869 1.843c0.546 0.1 0.9 0.6 0.8 1.131C25.618 55.5 25.5 55.7 25.4 55.8 z" class="style0"/><path d="M30.383 20.806c-0.215 0.215-0.525 0.33-0.85 0.283l-12.868-1.842c-0.546-0.078-0.926-0.585-0.848-1.132 c0.079-0.547 0.584-0.927 1.131-0.848l12.868 1.842c0.546 0.1 0.9 0.6 0.8 1.131C30.633 20.5 30.5 20.7 30.4 20.806z " class="style0"/><path d="M13.191 64.575c0.314-2.197 2.349-3.721 4.543-3.407c1.098 0.2 2 0.7 2.6 1.6 c0.617 0.8 0.9 1.9 0.8 3" class="style0"/><path d="M29.129 9.91c-0.314 2.196-2.35 3.721-4.544 3.406c-1.097-0.156-2.026-0.743-2.644-1.565 c-0.618-0.823-0.919-1.881-0.763-2.979" class="style0"/></g></svg>