<svg xmlns="http://www.w3.org/2000/svg" xmlns:xlink="http://www.w3.org/1999/xlink" version="1.1" x="0px" y="0px" width="400px" height="400px" viewBox="0 0 400 400" enable-background="new 0 0 400 400" xml:space="preserve"><style>.style0{fill:	#FFFFFF;}</style><g><g><path d="M343.512 188.95h-1.5c0-77.681-63.2-140.879-140.883-140.879c-77.682 0-140.88 63.198-140.88 140.879h-1.5 c0-78.508 63.872-142.379 142.38-142.379C279.639 46.6 343.5 110.4 343.5 188.95z" class="style0"/><path d="M56.1 353.429c-14.782 0-26.809-12.026-26.809-26.809v-113.31c0-14.781 12.026-26.807 26.809-26.807 c14.785 0 26.8 12 26.8 26.807v113.31C82.913 341.4 70.9 353.4 56.1 353.429z M56.1 188 c-13.955 0-25.309 11.353-25.309 25.307v113.31c0 14 11.4 25.3 25.3 25.309c13.958 0 25.313-11.354 25.313-25.309 v-113.31C81.413 199.4 70.1 188 56.1 188.004z" class="style0"/><path d="M28.624 326.235H8.798c-1.195 0-2.167-0.972-2.167-2.167V215.862c0-1.195 0.972-2.167 2.167-2.167h19.825 c1.195 0 2.2 1 2.2 2.167v108.206C30.791 325.3 29.8 326.2 28.6 326.235z M8.798 215.2 c-0.368 0-0.667 0.299-0.667 0.667v108.206c0 0.4 0.3 0.7 0.7 0.667h19.825c0.368 0 0.667-0.299 0.667-0.667V215.862 c0-0.368-0.299-0.667-0.667-0.667H8.798z" class="style0"/><path d="M62.518 353.429H51.951V189.335h10.566V353.429z M53.451 351.929h7.566V190.835h-7.566V351.929z" class="style0"/><path d="M343.899 351.165c-14.78 0-26.806-12.027-26.806-26.811V211.049c0-14.782 12.025-26.809 26.806-26.809 c14.783 0 26.8 12 26.8 26.809v113.306C370.709 339.1 358.7 351.2 343.9 351.165z M343.899 185.7 c-13.953 0-25.306 11.354-25.306 25.309v113.306c0 14 11.4 25.3 25.3 25.311c13.956 0 25.31-11.354 25.31-25.311 V211.049C369.209 197.1 357.9 185.7 343.9 185.74z" class="style0"/><path d="M391.202 323.972h-19.826c-1.195 0-2.167-0.972-2.167-2.167V213.593c0-1.195 0.972-2.167 2.167-2.167 h19.826c1.195 0 2.2 1 2.2 2.167v108.211C393.369 323 392.4 324 391.2 323.972z M371.376 212.9 c-0.368 0-0.667 0.299-0.667 0.667v108.211c0 0.4 0.3 0.7 0.7 0.667h19.826c0.368 0 0.667-0.299 0.667-0.667V213.593 c0-0.368-0.299-0.667-0.667-0.667H371.376z" class="style0"/><path d="M348.052 348.334h-10.572V184.24h10.572V348.334z M338.979 346.834h7.572V185.74h-7.572V346.834z" class="style0"/></g><g><path d="M343.512 188.95h-1.5c0-77.681-63.2-140.879-140.883-140.879c-77.682 0-140.88 63.198-140.88 140.879h-1.5 c0-78.508 63.872-142.379 142.38-142.379C279.639 46.6 343.5 110.4 343.5 188.95z" class="style0"/><path d="M56.1 353.429c-14.782 0-26.809-12.026-26.809-26.809v-113.31c0-14.781 12.026-26.807 26.809-26.807 c14.785 0 26.8 12 26.8 26.807v113.31C82.913 341.4 70.9 353.4 56.1 353.429z M56.1 188 c-13.955 0-25.309 11.353-25.309 25.307v113.31c0 14 11.4 25.3 25.3 25.309c13.958 0 25.313-11.354 25.313-25.309 v-113.31C81.413 199.4 70.1 188 56.1 188.004z" class="style0"/><path d="M28.624 326.235H8.798c-1.195 0-2.167-0.972-2.167-2.167V215.862c0-1.195 0.972-2.167 2.167-2.167h19.825 c1.195 0 2.2 1 2.2 2.167v108.206C30.791 325.3 29.8 326.2 28.6 326.235z M8.798 215.2 c-0.368 0-0.667 0.299-0.667 0.667v108.206c0 0.4 0.3 0.7 0.7 0.667h19.825c0.368 0 0.667-0.299 0.667-0.667V215.862 c0-0.368-0.299-0.667-0.667-0.667H8.798z" class="style0"/><path d="M62.518 353.429H51.951V189.335h10.566V353.429z M53.451 351.929h7.566V190.835h-7.566V351.929z" class="style0"/><path d="M343.899 351.165c-14.78 0-26.806-12.027-26.806-26.811V211.049c0-14.782 12.025-26.809 26.806-26.809 c14.783 0 26.8 12 26.8 26.809v113.306C370.709 339.1 358.7 351.2 343.9 351.165z M343.899 185.7 c-13.953 0-25.306 11.354-25.306 25.309v113.306c0 14 11.4 25.3 25.3 25.311c13.956 0 25.31-11.354 25.31-25.311 V211.049C369.209 197.1 357.9 185.7 343.9 185.74z" class="style0"/><path d="M391.202 323.972h-19.826c-1.195 0-2.167-0.972-2.167-2.167V213.593c0-1.195 0.972-2.167 2.167-2.167 h19.826c1.195 0 2.2 1 2.2 2.167v108.211C393.369 323 392.4 324 391.2 323.972z M371.376 212.9 c-0.368 0-0.667 0.299-0.667 0.667v108.211c0 0.4 0.3 0.7 0.7 0.667h19.826c0.368 0 0.667-0.299 0.667-0.667V213.593 c0-0.368-0.299-0.667-0.667-0.667H371.376z" class="style0"/><path d="M348.052 348.334h-10.572V184.24h10.572V348.334z M338.979 346.834h7.572V185.74h-7.572V346.834z" class="style0"/></g></g></svg>